<svg xmlns="http://www.w3.org/2000/svg" xmlns:xlink="http://www.w3.org/1999/xlink" width="61" height="61" viewBox="0 0 61 61">
  <defs>
    <clipPath id="clip-path">
      <rect id="Ret창ngulo_584" data-name="Ret창ngulo 584" width="61" height="61" transform="translate(1397 1239)" fill="none" stroke="#707070" stroke-width="1"/>
    </clipPath>
    <clipPath id="clip-path-2">
      <rect id="Ret창ngulo_493" data-name="Ret창ngulo 493" width="41.793" height="49.645" fill="#fff"/>
    </clipPath>
  </defs>
  <g id="crespo" transform="translate(-1397 -1239)" clip-path="url(#clip-path)">
    <g id="Grupo_318" data-name="Grupo 318" transform="translate(1406.23 1244.5)">
      <g id="Grupo_318-2" data-name="Grupo 318" clip-path="url(#clip-path-2)">
        <path id="Caminho_509" data-name="Caminho 509" d="M26.231,0c.445.129.9.231,1.334.391a6.033,6.033,0,0,1,3.708,3.585,1.8,1.8,0,0,0,1.72,1.306,6.38,6.38,0,0,1,5.891,5.028,6.066,6.066,0,0,1-.078,2.922,1.8,1.8,0,0,0,.676,2.052,6.319,6.319,0,0,1,.03,9.744,1.89,1.89,0,0,0-.7,2.135,6.334,6.334,0,0,1-2.577,6.8c-.534.366-1.011.324-1.314-.117-.291-.423-.173-.865.333-1.24a4.649,4.649,0,0,0,1.879-5.233,3.356,3.356,0,0,1,1.278-3.607,4.586,4.586,0,0,0,1.268-5.515,5.235,5.235,0,0,0-1.249-1.632,3.517,3.517,0,0,1-1.249-3.842,4.7,4.7,0,0,0-4.343-5.825,3.092,3.092,0,0,1-3.031-2.173,4.752,4.752,0,0,0-7.075-2.3A3.186,3.186,0,0,1,19,2.459,4.663,4.663,0,0,0,12.033,4.7,3.373,3.373,0,0,1,8.8,6.97a4.647,4.647,0,0,0-4.224,5.617A3.663,3.663,0,0,1,3.238,16.7a4.639,4.639,0,0,0,.071,7,3.456,3.456,0,0,1,1.423,2.38,4.264,4.264,0,0,1-.116,1.381A4.706,4.706,0,0,0,8.274,33.31c.377.077.77.072,1.152.133a3.179,3.179,0,0,1,2.335,1.635.547.547,0,0,0,.562.322A3.528,3.528,0,0,0,16,32.851c.013-.047.032-.092.042-.139.191-.892.179-.872-.6-1.343a10.908,10.908,0,0,1-5.609-9.513c-.019-.675.449-1.076,1.035-.918a.815.815,0,0,1,.621.866,9.387,9.387,0,0,0,18.6,1.732,29.439,29.439,0,0,0,.2-4.3,14.7,14.7,0,0,0-.149-3.039A6.526,6.526,0,0,0,23.653,10.9c-.824-.019-1.649.009-2.473-.01a.456.456,0,0,0-.5.337c-2.274,5.2-6.348,7.962-11.872,8.757-.08.012-.159.028-.239.04a.854.854,0,0,1-1.077-.7c-.067-.52.25-.879.837-.979a20.548,20.548,0,0,0,2.23-.411,12.282,12.282,0,0,0,9.2-9.374,2.325,2.325,0,0,1,.143-.459.765.765,0,0,1,.914-.456.742.742,0,0,1,.651.781,6.909,6.909,0,0,1-.1.792h.659a15.219,15.219,0,0,1,3.8.281,8.28,8.28,0,0,1,6.11,7.671c.032,1.777.115,3.564-.023,5.331a10.727,10.727,0,0,1-6.195,9.183,10.763,10.763,0,0,1-7.925.7A5.349,5.349,0,0,1,15.9,35.926L20.9,39.792l2.618-2.024c.115-.089.228-.181.35-.26a.809.809,0,0,1,1.159.174.825.825,0,0,1-.141,1.132,14.739,14.739,0,0,1-1.915,1.478,2.373,2.373,0,0,0-1.246,2.486c.1,1.869.028,3.748.028,5.622a3.648,3.648,0,0,1-.008.436.845.845,0,0,1-1.687.014,3.49,3.49,0,0,1-.009-.436c0-2.246-.006-4.493.006-6.739a.756.756,0,0,0-.336-.684q-2.485-1.9-4.943-3.827a1.109,1.109,0,0,0-1-.248c-.772.148-1.581.112-2.351.266a6.82,6.82,0,0,0-5.613,6.851c-.016,1.438,0,2.877,0,4.315,0,.145,0,.291-.005.436a.813.813,0,0,1-.847.859.828.828,0,0,1-.822-.888c-.011-1.147-.025-2.3,0-3.442a17.672,17.672,0,0,1,.18-2.987,8.291,8.291,0,0,1,5.612-6.484c.075-.028.146-.066.259-.117a1.529,1.529,0,0,0-1.234-.648,6.217,6.217,0,0,1-5.029-2.761,6.013,6.013,0,0,1-.942-5.158,1.875,1.875,0,0,0-.7-2.133,6.318,6.318,0,0,1,.037-9.743,1.849,1.849,0,0,0,.664-2.1A6.375,6.375,0,0,1,7.983,5.365a5.934,5.934,0,0,1,.867-.09,1.7,1.7,0,0,0,1.632-1.212A6.236,6.236,0,0,1,15.06.134c.168-.043.335-.089.5-.134h1.746a10.913,10.913,0,0,1,2.926,1.194,1.6,1.6,0,0,0,1.325,0A10.929,10.929,0,0,1,24.485,0Z" transform="translate(0)" fill="#fff"/>
        <path id="Caminho_510" data-name="Caminho 510" d="M140.818,0a10.928,10.928,0,0,0-2.926,1.194,1.6,1.6,0,0,1-1.325,0A10.91,10.91,0,0,0,133.641,0Z" transform="translate(-116.333)" fill="#fff"/>
        <path id="Caminho_511" data-name="Caminho 511" d="M201.6,270.359a25.808,25.808,0,0,0-.32-3.652,6.811,6.811,0,0,0-6.8-5.255,4.869,4.869,0,0,1-4.1-2.272,1.01,1.01,0,0,1-.217-.7,1.031,1.031,0,0,1,.54-.655c.253-.074.589.1.877.2.089.031.144.168.208.26a3.345,3.345,0,0,0,2.88,1.514,8.548,8.548,0,0,1,8.39,7.056,7.686,7.686,0,0,1,.127,1.3c.015,1.632.009,3.264.007,4.9,0,.643-.32,1.014-.849,1.01s-.817-.343-.824-.979c-.01-.9,0-1.81,0-2.715l.087-.007" transform="translate(-165.517 -224.415)" fill="#fff"/>
      </g>
    </g>
  </g>
</svg>
