<svg xmlns="http://www.w3.org/2000/svg" xmlns:xlink="http://www.w3.org/1999/xlink" width="57" height="59" viewBox="0 0 57 59">
  <defs>
    <clipPath id="clip-path">
      <rect id="Ret창ngulo_242" data-name="Ret창ngulo 242" width="57" height="59" transform="translate(-599 3466)" fill="none" stroke="#707070" stroke-width="1"/>
    </clipPath>
    <clipPath id="clip-path-2">
      <rect id="Ret창ngulo_184" data-name="Ret창ngulo 184" width="46.314" height="41.304" fill="#ff6978"/>
    </clipPath>
  </defs>
  <g id="PAGUE_COM_CARTAO" data-name="PAGUE COM CARTAO" transform="translate(599 -3466)" clip-path="url(#clip-path)">
    <g id="Grupo_81" data-name="Grupo 81" transform="translate(-583.903 3472.997)">
      <g id="Grupo_80" data-name="Grupo 80" transform="translate(-9.688 3)" clip-path="url(#clip-path-2)">
        <path id="Caminho_498" data-name="Caminho 498" d="M0,140.972a2.136,2.136,0,0,1,1.6-2.189c1.661-.493,3.336-.938,5.005-1.4,1.142-.317,2.285-.635,3.429-.945a.469.469,0,0,0,.383-.416c.4-1.965.83-3.926,1.234-5.892.063-.305.146-.391.48-.319q6,1.295,12,2.556a1.337,1.337,0,0,0,.655-.031c1.63-.459,3.264-.906,4.9-1.361a2.274,2.274,0,0,1,2.959,1.62c.132.437.265.874.365,1.318a.481.481,0,0,0,.427.421q3.559.739,7.114,1.5c1.224.259,2.445.526,3.671.773.237.048.29.116.239.357-.65,3.031-1.274,6.069-1.936,9.1a2.237,2.237,0,0,1-2.827,1.776c-.866-.186-1.736-.357-2.6-.559-.361-.084-.369.046-.29.331.262.941.548,1.877.757,2.83a2.136,2.136,0,0,1-1.475,2.52c-1.442.45-2.9.837-4.36,1.241q-9.095,2.527-18.191,5.047c-1.87.519-3.74,1.042-5.613,1.55a2.262,2.262,0,0,1-3.021-1.726Q2.5,150.409.1,141.746a2.606,2.606,0,0,1-.1-.773m35.774,9.809c-.016-.066-.036-.168-.064-.268q-1.354-4.9-2.705-9.794c-.071-.258-.177-.324-.441-.248-1.54.44-3.086.864-4.629,1.292l-17.471,4.852L4.251,148.34c-.195.054-.4.06-.311.393.927,3.3,1.838,6.6,2.759,9.9.119.427.28.507.73.386q1.415-.382,2.827-.773l20.258-5.624q2.372-.658,4.745-1.311c.259-.072.51-.153.516-.529M1.807,141c.027.106.054.22.086.333.26.942.531,1.88.777,2.826.075.29.172.354.477.268q5.738-1.614,11.484-3.2,8.417-2.339,16.835-4.67c.295-.081.334-.185.253-.459-.283-.962-.539-1.933-.808-2.9-.13-.468-.3-.565-.775-.436-.918.25-1.833.505-2.75.759L7.275,139.106c-1.669.463-3.337.933-5.009,1.39-.271.074-.446.2-.459.506m35.909-3.478c-.7-.009-1.037.248-1.153.775-.222,1.018-.439,2.037-.639,3.059a.948.948,0,0,0,.838,1.279q1.488.328,2.981.631a.95.95,0,0,0,1.266-.808q.337-1.526.645-3.058a.952.952,0,0,0-.787-1.219c-.228-.053-.459-.1-.688-.144l-2.463-.515" transform="translate(0 -119.61)" fill="#ff6978"/>
        <path id="Caminho_499" data-name="Caminho 499" d="M168.817,0c.778.083,1.671.329,2.575.519q9.96,2.1,19.918,4.2c1.988.42,3.976.837,5.963,1.265a2.266,2.266,0,0,1,1.94,2.829c-.158,1.017-.326,2.032-.469,3.051-.036.259-.127.281-.356.232q-7.949-1.694-15.9-3.373-8.046-1.7-16.094-3.4c-.484-.1-.477-.1-.395-.609.144-.9.286-1.8.414-2.7A2.289,2.289,0,0,1,168.817,0" transform="translate(-152.944 0)" fill="#ff6978"/>
        <path id="Caminho_500" data-name="Caminho 500" d="M89.87,397.472a.891.891,0,0,1,.891.661c.326,1.1.64,2.2.927,3.312a.869.869,0,0,1-.634,1.1q-1.646.5-3.312.923a.855.855,0,0,1-1.091-.594q-.51-1.662-.934-3.35a.855.855,0,0,1,.629-1.1c1.11-.333,2.232-.629,3.349-.937a.828.828,0,0,1,.175-.014" transform="translate(-78.963 -366.307)" fill="#ff6978"/>
      </g>
    </g>
  </g>
</svg>
