<?xml version="1.0" encoding="UTF-8"?><svg id="Camada_2" xmlns="http://www.w3.org/2000/svg" xmlns:xlink="http://www.w3.org/1999/xlink" viewBox="0 0 30 27.44"><defs><style>.cls-1{fill:#333;stroke:#333;stroke-width:.12px;}.cls-2{clip-path:url(#clippath);}.cls-3{fill:none;}</style><clipPath id="clippath"><rect class="cls-3" width="30" height="27.44"/></clipPath></defs><g id="Camada_1-2"><g class="cls-2"><g id="Group_237"><path id="Path_664" class="cls-1" d="M24.93,20.37s.1,0,.14-.03c.23-.13,.39-.36,.41-.62,.01-.1-.04-.2-.12-.26-.09-.05-.2-.04-.28,.01-.2,.1-.34,.28-.38,.49h0c-.03,.14,.01,.27,.11,.37,.04,.03,.08,.04,.12,.04"/><path id="Path_665" class="cls-1" d="M22.62,20.39c.03-.13,0-.27-.1-.37-.08-.05-.18-.05-.27-.02-.25,.11-.41,.37-.41,.64,0,.1,.05,.2,.14,.25,.03,.01,.05,.02,.08,.02,.06,0,.12-.02,.18-.05,.19-.09,.33-.27,.38-.47"/><path id="Path_666" class="cls-1" d="M20.4,18.37c.26-.11,.44-.34,.48-.62,0-.1-.03-.19-.11-.25-.02-.01-.04-.03-.07-.03-.07-.02-.14-.01-.2,.02-.24,.12-.41,.36-.43,.63,0,.08,.02,.17,.08,.22h0s.09,.05,.14,.05c.03,0,.07,0,.1,0"/><path id="Path_667" class="cls-1" d="M19.25,19.23c-.08-.05-.18-.06-.27-.02-.23,.1-.39,.31-.43,.56-.03,.09,0,.19,.07,.26,.05,.04,.1,.06,.16,.06,.05,0,.09,0,.14-.02,.24-.11,.41-.34,.43-.6,.01-.1-.02-.19-.1-.26"/><path id="Path_668" class="cls-1" d="M23.44,22.91c.07,0,.15-.02,.21-.06,.19-.12,.32-.32,.35-.54,.02-.11-.02-.22-.1-.28-.09-.06-.21-.06-.3,0-.21,.11-.35,.31-.39,.55-.02,.12,.03,.24,.12,.31,.03,.02,.07,.03,.11,.03"/><path id="Path_669" class="cls-1" d="M26.11,22.59c.06,0,.11,0,.16-.03,.22-.12,.37-.34,.4-.59v-.03s0-.03,0-.03c0-.01,0-.02-.01-.03-.02-.07-.06-.13-.13-.17-.1-.03-.21-.02-.3,.04-.18,.11-.3,.29-.34,.5-.02,.11,.01,.22,.09,.3,.04,.03,.09,.05,.14,.05"/><path id="Path_670" class="cls-1" d="M22.12,23.99c-.29,.09-.49,.35-.51,.65,0,.11,.05,.22,.15,.27,.03,.01,.05,.02,.08,.02,.08,0,.15-.03,.21-.07,.2-.12,.33-.33,.34-.56,.01-.09-.01-.18-.08-.25-.05-.05-.13-.07-.19-.05"/><path id="Path_671" class="cls-1" d="M23.18,17.86c.03-.11,0-.22-.08-.3-.08-.06-.19-.06-.27-.02-.25,.11-.41,.35-.42,.62-.01,.09,.02,.18,.09,.24,.04,.03,.08,.04,.12,.04,.05,0,.1,0,.15-.02,.23-.1,.39-.31,.42-.56"/><path id="Path_672" class="cls-1" d="M20.3,21.98c.01-.1-.03-.2-.1-.26-.08-.05-.18-.06-.27-.02-.26,.12-.42,.39-.41,.68,0,.08,.05,.16,.11,.2,.03,.02,.06,.03,.09,.03,.05,0,.09,0,.13-.03,.24-.12,.4-.34,.44-.6"/><path id="Path_673" class="cls-1" d="M19.3,24.85s.07,.03,.11,.04c.06,0,.12-.01,.17-.04,.21-.11,.36-.31,.39-.55,.02-.07,0-.14-.02-.2-.02-.03-.04-.06-.06-.08-.09-.06-.2-.07-.3-.02-.17,.07-.3,.21-.37,.39-.01,.04-.02,.08-.03,.12h0c-.03,.14,.01,.27,.11,.35"/><path id="Path_674" class="cls-1" d="M29.85,18.27c-.21-.24-.46-.44-.72-.62-.18-.12-.36-.22-.55-.31l-.15-.08s.03-.04,.05-.07c.08-.12,.17-.24,.26-.36,.11-.16,.14-.37,.08-.56-.05-.17-.17-.31-.33-.38-.65-.29-1.37-.36-2.07-.22-.12,.03-.25,.06-.36,.1l.11-.17c.05-.07,.1-.14,.15-.22,.13-.19,.26-.39,.39-.58,.08-.11,.06-.27-.05-.36,0,0-.02-.01-.03-.02-.11-.09-.27-.08-.37,.02,0,0-.02,.02-.02,.03-.08,.11-.16,.23-.24,.35l-.15,.22-.26,.36s0-.05,0-.07c-.08-.76-.4-1.48-.93-2.03-.14-.17-.35-.26-.56-.25-.21,.02-.4,.15-.51,.33-.07,.11-.15,.23-.22,.34l-.03,.06-.11-.1c-.14-.13-.3-.26-.46-.37-.22-.14-.45-.27-.68-.38l-.06-.03c-.3-.19-.7-.09-.88,.21-.05,.09-.09,.18-.09,.28-.02,.11-.03,.23-.04,.34,0,.06-.01,.13-.02,.19-.03,.15,.07,.3,.23,.33,0,0,.02,0,.03,0,.14,.02,.28-.07,.31-.22,0-.01,0-.02,0-.04,.01-.08,.02-.17,.03-.25,0-.06,.01-.11,.02-.17,.02-.12,.04-.16,.07-.17s.09,0,.17,.04c.43,.2,.82,.49,1.14,.84,.06,.05,.07,.14,.04,.21-.08,.24-.13,.48-.15,.73-.01,.18-.01,.35,0,.53v.06l-.12-.03c-.24-.06-.49-.11-.74-.18-.04,0-.07-.03-.1-.05-.13-.31-.24-.57-.32-.81-.06-.17-.13-.33-.37-.27-.07,.01-.14,.06-.18,.12-.05,.1-.05,.21,0,.31,.05,.19,.11,.37,.17,.57l.04,.14c-.11,.01-.22,.03-.33,.05-.13-.8-.57-1.53-1.23-2.01l-.29-.23,.23-.3c.92-1.11,.97-2.7,.11-3.85-.52-.74-1.34-1.22-2.24-1.3-.7-.03-1.39,.11-2.02,.41l-.3,.13-.17-.28c-.49-.93-1.42-1.55-2.47-1.64-.26-.02-.52,0-.78,.03-1.33,.14-2.41,1.14-2.65,2.46l-.15,.55-2.28-1.77,.27-.3,.04-.04,.03-.04c.05-.05,.1-.11,.15-.17,.62-.72,1.01-1.61,1.11-2.55,.2-1.73-.44-3.14-2.14-4.73l-.03-.02h-.13s-.04,.01-.04,.01h-.02c-.09,.06-.17,.11-.24,.17-1.79,1.67-1.99,4.43-.47,6.34l.18,.23,.61,.79-.84-.06s-.08,0-.11,0h0c-.08,0-.16,0-.23-.02-.13-.02-.27-.04-.41-.05-.45-.03-.91,0-1.36,.07-1.06,.17-2.06,.63-2.88,1.32-.12,.08-.18,.23-.15,.37,.02,.12,.11,.22,.23,.25,.02,0,.04,.01,.07,.01,.15-.02,.3-.09,.41-.2,1.02-.83,2.31-1.24,3.63-1.17,.78,.07,1.54,.29,2.23,.64,.48,.24,.92,.57,1.28,.97l.49,.54-.72,.09c-1.24,.08-2.31,.89-2.72,2.07-.52,1.33-.07,2.84,1.09,3.67l.27,.23-.22,.29c-.44,.57-.69,1.27-.7,1.99-.16-.03-.24,.05-.32,.26-.49,1.34-.5,2.81-.03,4.16,.57,1.72,1.83,3.12,3.48,3.86,.04,.02,.07,.04,.11,.05,.13,.05,.28-.02,.33-.15,.06-.12,.01-.27-.11-.33,0,0,0,0,0,0-.18-.1-.36-.18-.53-.27-2.25-1.23-3.45-3.77-2.99-6.29,.03-.18,.08-.35,.13-.53,.01-.04,.02-.09,.03-.13l.49,.2c-.08,.26-.14,.53-.18,.8-.18,1.16,.05,2.35,.64,3.37,1.49,2.66,4.86,3.61,7.53,2.11,.91-.51,1.65-1.27,2.15-2.18,.05-.09,.09-.18,.13-.27l.47,.2c-.06,.15-.13,.29-.2,.43-.18,.35-.4,.67-.66,.96-1.42,1.69-3.68,2.45-5.84,1.96-.06-.01-.11-.03-.17-.04-.14-.04-.29,.05-.32,.19,0,0,0,0,0,0-.04,.13,.04,.27,.18,.31,0,0,.02,0,.03,0,.3,.07,.61,.12,.92,.16,.94,.1,1.88,0,2.77-.32,.12-.02,.24-.05,.35-.1,.33-.15,.44-.19,.77-.34,.19-.13,.38-.27,.56-.42,.16-.12,1.22-1.12,1.22-1.12,.04-.05,.06-.09,.08-.12,.21-.27,.4-.56,.56-.85,.27,.14,.56,.24,.86,.3,0,.03,.02,.07,.03,.1,.23,.89,1.01,1.53,1.93,1.59h.02c.34,.01,.68,0,1.01-.05,.53-.08,1.06-.19,1.58-.3l.08-.02c.08-.01,.15-.06,.19-.13,.04-.07,.04-.14,.02-.21-.04-.16-.19-.26-.35-.22,0,0,0,0-.01,0-.16,.03-.31,.07-.47,.1-.37,.08-.76,.16-1.14,.21h-.01c-.49,.12-1,.08-1.46-.11-.38-.17-.67-.49-.78-.9h0c-.06-.23-.1-.44-.14-.63-.07-.3-.12-.61-.15-.92-.1-.93-.08-1.86,.07-2.78,.08-.49,.16-1,.29-1.48,0-.02,.01-.04,.02-.06,.04-.14,.08-.28,.14-.41,.21-.49,.53-.92,.94-1.25,.15-.08,.2-.26,.12-.41,0-.02-.02-.03-.03-.05-.04-.06-.11-.1-.18-.11-.11,0-.22,.04-.29,.13-.12,.11-.23,.21-.33,.32-.38,.37-.66,.83-.83,1.33,0,.02,0,.03-.01,.05-.28,.04-.56,.11-.83,.23-.13,.06-.27,.08-.41,.07-.14-.01-.28-.06-.4-.13-.89-.53-1.37-1.54-1.21-2.56,.11-.98,.8-1.81,1.75-2.09,.33-.11,.68-.15,1.03-.13,.61,.05,1.18,.31,1.62,.75,.41,.4,.67,.92,.73,1.49-.09,.04-.18,.08-.27,.12-.16,.05-.25,.21-.21,.37,0,0,0,0,0,0,.06,.18,.2,.23,.42,.16l.05-.02,.15-.05c.16-.05,.32-.11,.48-.16,.06-.02,.12-.04,.19-.05,.51-.13,1.04-.07,1.51,.17,.34,.18,.66,.37,.97,.59,.08,.06,.17,.11,.25,.17,.34,.22,.67,.45,1,.67,.27,.18,.55,.37,.82,.55,.39,.24,.71,.57,.95,.95,.39,.69,.49,1.52,.28,2.28-.15,.67-.51,1.27-1.03,1.72-.64,.53-1.36,.97-2.13,1.3-.13,.06-.27,.12-.4,.17-.1,.04-.2,.09-.3,.13-.25,.11-.24,.29-.2,.38,.02,.07,.08,.13,.15,.17,.03,.02,.07,.02,.11,.03,.06,0,.12-.01,.18-.03,.07-.03,.14-.06,.22-.09,.15-.06,.31-.12,.45-.2,.51-.27,1.01-.54,1.47-.81,.67-.37,1.24-.91,1.63-1.58,.36-.6,.55-1.28,.55-1.98,0-.25-.03-.51-.07-.76-.01-.07-.02-.15-.03-.22h.15c.21-.03,.42-.05,.64-.07,.09,0,.17-.05,.23-.12,.05-.07,.06-.16,.04-.24-.04-.16-.16-.24-.36-.21-.23,.03-.46,.04-.69,.04-.1,0-.19-.02-.27-.07-.16-.2-.3-.41-.45-.62l-.08-.12s.03-.02,.04-.03c.19-.16,.2-.24,.19-.29-.05-.11-.13-.19-.24-.24-.05-.02-.11-.02-.17,0-.01,0-.03,0-.05,.01-.05,0-.1,.01-.15,.02-.14,.04-.3,.02-.42-.06-.21-.15-.42-.3-.64-.45l-.22-.15,.07-.08c.09-.11,.18-.22,.28-.31,.35-.35,.81-.58,1.3-.64,.5-.05,1,.01,1.47,.18,.02,0,.05,.02,.06,.04,0,.03,0,.06,0,.09-.02,.05-.05,.09-.08,.13l-.02,.03c-.24,.35-.55,.65-.9,.89-.14,.09-.19,.27-.1,.41,0,0,0,0,0,0,.04,.06,.1,.1,.17,.12,.09,.02,.19,0,.26-.06,.06-.04,.12-.09,.18-.14,.05-.04,.1-.08,.16-.12,.04-.02,.08-.04,.12-.03,.51,.15,.98,.43,1.34,.82,.03,.03,.05,.06,.04,.08s-.03,.05-.07,.08c-.06,.04-.13,.07-.2,.11s-.15,.08-.23,.13c-.14,.06-.2,.22-.14,.36,0,.01,0,.02,.01,.03,.07,.14,.23,.2,.37,.14,.01,0,.02-.01,.04-.02l.08-.04c.15-.07,.3-.15,.44-.24,.16-.11,.27-.28,.3-.47,0-.02,0-.04,0-.05,0-.15-.04-.3-.14-.41M6.51,7.07l-.34-.32c-1.62-1.43-1.88-3.87-.6-5.61l.27-.37,.38,.26c.86,.66,1.39,1.66,1.45,2.74,.16,1.06-.14,2.15-.83,2.97l-.33,.34Zm3.11,2.19c.24-1.29,1.41-2.2,2.72-2.12,.17,.01,.33,.04,.5,.09,.8,.19,1.45,.78,1.72,1.55,.08,.23,.05,.49-.07,.7-.34,.55-.5,1.19-.45,1.83l.04,.61-.6-.11c-.14-.03-.28-.04-.42-.05-.53-.04-1.06,.05-1.54,.27-.09,.04-.19,.06-.29,.05-.1,0-.2-.03-.28-.08-.99-.52-1.53-1.63-1.33-2.73m-4.26,3.5c.31-1.11,1.31-1.89,2.47-1.91,.06,0,.13,0,.19,0,1.01,.04,1.89,.69,2.24,1.63,.08,.22,.07,.46-.04,.66-.33,.53-.5,1.16-.47,1.79,0,.15-.04,.29-.15,.4l-.15,.15h-.2c-.13-.01-.25,0-.37,0-.31,0-.6,0-.89,.03-.21,.03-.42,.09-.61,.17-.14,.06-.3,.09-.45,.08-.15-.01-.29-.06-.42-.14-.96-.61-1.42-1.77-1.13-2.87m.57,5.99c-.09-1.01,.43-1.98,1.31-2.48,.44-.25,.94-.36,1.44-.33,.61,.05,1.19,.31,1.63,.73,.14,.13,.26,.27,.36,.43,.33,.41,.35,.98,.05,1.41-.25,.42-.36,.9-.33,1.38,0,.17-.03,.33-.12,.47-.76-.28-1.52-.57-2.28-.85l-.75-.3c-.07-.02-.13-.04-.18-.06l-1.13-.42m.45,3.18c-.09-.36-.13-.74-.12-1.12,0-.28,.03-.56,.09-.84,.03-.14,.07-.27,.13-.4l3.29,1.23,.44,.17-2.6,.65-1.23,.31m.14,.52l3.9-.98-2.59,3.01c-.6-.56-1.05-1.26-1.31-2.03m1.72,2.38l2.63-3.06s.03,.04,.04,.05c.01,1.37,.03,2.69,.04,4.01-.98-.07-1.92-.42-2.71-1m3.25,1.01c-.01-1.16-.02-2.3-.03-3.44v-.46s.03-.01,.03-.01l.61,.88,1.65,2.37c-.69,.4-1.47,.62-2.27,.65m2.71-.95l-1.26-1.82-.56-.8-.47-.67,2.17,.81,.88,.33,.75,.28c-.33,.74-.85,1.39-1.51,1.86m2.5-5.59c.34-.3,.76-.5,1.2-.58-.09,.34-.16,.69-.22,1.04-.07,.4-.11,.8-.14,1.2-.02,.17-.03,.35-.05,.52h0c0,.77,.06,1.53,.18,2.28-.16-.05-.31-.11-.46-.18,.02-.05,.04-.1,.06-.16,.11-.29,.07-.38-.22-.49l-.88-.33c-.63-1.09-.41-2.47,.53-3.3m-1.17-.95c.13,.2,.25,.41,.33,.64,.08,.21,.05,.45-.07,.64-.31,.5-.47,1.09-.46,1.68,.01,.28-.13,.55-.37,.7-.04,.03-.08,.05-.12,.08-1.29-.48-2.57-.96-3.86-1.45-.09-.29-.12-.58-.11-.88,.06-1.07,.77-2,1.79-2.34,.31-.1,.64-.14,.97-.11,.75,.05,1.45,.43,1.9,1.03m-.37-3.84c-.34,.53-.5,1.15-.47,1.78,0,.07,0,.14-.02,.2v.02s-.1,.46-.1,.46l-.46-.09c-.14-.03-.27-.04-.41-.05-.53-.04-1.05,.05-1.53,.27-.09,.04-.19,.06-.3,.05-.1,0-.2-.03-.29-.08-.82-.41-1.34-1.25-1.35-2.17-.05-1.41,1.03-2.6,2.43-2.68,.11,0,.22,0,.33,0,1.01,.07,1.89,.73,2.23,1.68,.07,.2,.05,.42-.06,.61m3.72-1.54c-.07,.06-.15,.11-.24,.14-.09,.03-.19,.04-.28,.04-.02,0-.04,0-.07,0-.11-.02-.21-.03-.32-.04-.5-.03-1,.05-1.45,.25-.11,.04-.24,.06-.36,.05-.11,0-.21-.04-.31-.08-.94-.5-1.46-1.54-1.3-2.59,.15-1.18,1.09-2.1,2.28-2.21,.11-.01,.23-.01,.34,0,.04,0,.08,0,.12,0h.04c1.41,.09,2.48,1.31,2.39,2.72-.03,.67-.33,1.29-.82,1.74m5.68,3.93l-.2-.14c-.21-.15-.43-.3-.65-.43-.16-.12-.25-.31-.26-.51-.1-.7,.08-1.42,.51-1.99,.02-.02,.03-.05,.05-.08l.02-.03c.03-.06,.06-.08,.08-.08h0s.05,.02,.1,.07c.41,.41,.67,.93,.76,1.5,.09,.59-.05,1.2-.41,1.69"/></g></g></g></svg>