<?xml version="1.0" encoding="UTF-8"?><svg id="Camada_2" xmlns="http://www.w3.org/2000/svg" viewBox="0 0 30 29.96"><defs><style>.cls-1{fill:#333;}</style></defs><g id="Camada_1-2"><g id="Group_221"><path id="Path_632" class="cls-1" d="M29.89,10.52c-.24-.8-.6-1.57-1.07-2.27-1.35-1.93-2.94-3.68-4.72-5.22-1.11-1.13-2.42-2.05-3.87-2.71-1.33-.54-2.73-.43-3.51,.72-1.01,1.52-2.02,3.04-3.03,4.56-.28,.43-.23,.78,.11,1.01,.34,.23,.67,.11,.96-.32,.35-.52,.69-1.05,1.04-1.57,.27-.41,.55-.82,.82-1.21l9.8,9.8c-.07,.05-.13,.09-.18,.13-2.32,1.54-4.63,3.08-6.94,4.63-.24,.16-.37,.09-.54-.08-2.16-2.16-4.32-4.32-6.48-6.48-.53-.53-.52-.54-.18-1.23,0-.01,.01-.03,.02-.04,.14-.26,.06-.6-.19-.76-.22-.21-.57-.2-.78,.01-.13,.13-.25,.28-.34,.44-.72,1.08-1.45,2.15-2.15,3.24-.12,.23-.36,.36-.62,.34-.87-.07-1.64,.57-1.74,1.44-.01,.77-.38,1.02-1.01,1.14-.11,.02-.21,.1-.32,.11-.64,.14-1.16,.63-1.33,1.26-.36,.95-.35,1.99,.02,2.93,.72,2.13,2.19,3.93,4.14,5.06,1.03,.69,2.23,1.07,3.46,1.09,1.23,.09,2.34-.74,2.6-1.95,.06-.23,.14-.46,.24-.68,.07-.12,.19-.2,.33-.21,1,.11,1.89-.62,1.99-1.61,0-.08,.01-.16,0-.24,.01-.2,.11-.39,.27-.51,1.79-1.21,3.61-2.41,5.41-3.61,2.24-1.49,4.5-2.98,6.73-4.48,.95-.54,1.38-1.67,1.05-2.71M10.34,25.15c-2.47-.66-4.47-2.48-5.36-4.88-.17-.59-.26-1.19-.27-1.8,0-.12,.02-.23,.07-.34l7.02,7.01c-.47,.14-.98,.15-1.46,.01m2.6-1.95c-.05,.24-.13,.47-.23,.69l-6.69-6.69c.28-.11,.57-.21,.86-.29,.12,0,.24,.06,.32,.15,1.88,1.87,3.75,3.75,5.62,5.63,.1,.15,.14,.33,.11,.51m1.7-.71c-.17-.09-.33-.2-.48-.32-2.14-2.13-4.28-4.27-6.42-6.41-.25-.25-.36-.52-.09-.82,.22-.24,.55-.2,.86,.1,2.11,2.11,4.22,4.21,6.32,6.33,.17,.19,.25,.44,.25,.7,0,.13-.27,.27-.43,.42m1.03-2.04c-.67-.69-1.33-1.38-2-2.05-1.28-1.28-2.55-2.57-3.85-3.83-.23-.15-.3-.45-.15-.68,.02-.03,.04-.05,.06-.08,.41-.56,.78-1.15,1.17-1.72l6.93,6.93-2.16,1.44m12-8.01c-.15,0-.29-.07-.39-.18-1.81-1.8-3.62-3.6-5.42-5.41-1.32-1.32-2.64-2.64-3.96-3.97-.18-.18-.49-.52-.44-.6,.2-.38,.5-.7,.87-.91,.42-.11,.87-.07,1.27,.09,1.17,.49,2.24,1.2,3.15,2.1,1.83,1.54,3.47,3.31,4.88,5.25,.38,.66,.71,1.35,.98,2.07,.03,.08,.04,.16,.04,.25-.02,.6-.41,1.13-.99,1.31"/><path id="Path_633" class="cls-1" d="M7.22,27.05c-.34-.01-.64,.25-.65,.6,0,.36,.28,.65,.63,.66,.34-.01,.62-.28,.64-.63,0-.34-.27-.62-.62-.63"/><path id="Path_634" class="cls-1" d="M5.35,25.17c-.02-.34-.31-.61-.65-.6-.34,.02-.61,.29-.63,.63,.02,.36,.32,.63,.68,.63,.34-.03,.6-.32,.6-.66"/><path id="Path_635" class="cls-1" d="M2.63,26.62c-.34,.03-.6,.32-.59,.66,0,.34,.29,.62,.63,.61,.34-.01,.61-.29,.62-.63-.01-.36-.31-.64-.66-.64"/><path id="Path_636" class="cls-1" d="M12.85,8.67c.34-.02,.61-.29,.63-.63,0-.34-.27-.62-.61-.65-.34,0-.63,.26-.65,.6-.01,.36,.27,.66,.62,.68"/><path id="Path_637" class="cls-1" d="M5.54,28.71c-.34,0-.63,.26-.63,.61,0,0,0,0,0,0,.01,.36,.3,.64,.66,.64,.34-.03,.6-.31,.61-.65,0-.34-.28-.61-.61-.61,0,0-.01,0-.02,0"/><path id="Path_638" class="cls-1" d="M.59,28.71c-.3-.02-.56,.2-.59,.5,0,.04,0,.08,0,.12-.03,.32,.2,.6,.51,.63,.02,0,.05,0,.07,0,.36,0,.64-.3,.63-.65,0,0,0,0,0,0,0-.34-.28-.61-.62-.6,0,0-.01,0-.02,0"/></g></g></svg>