<?xml version="1.0" encoding="UTF-8"?><svg id="Camada_2" xmlns="http://www.w3.org/2000/svg" viewBox="0 0 15.79 30.04"><defs><style>.cls-1{fill:#333;}</style></defs><g id="Camada_1-2"><g id="Group_227"><path id="Path_664" class="cls-1" d="M15.22,17.98c-.26,0-.47,.2-.48,.46,0,0,0,.02,0,.03-.01,.35,0,.7,0,1.06-2.14-.17-4.22,.83-5.42,2.61v-2.27c.5-.02,.96-.02,1.42-.07,2.7-.31,4.81-2.49,5.02-5.21,.07-1.09-.03-2.19-.07-3.28,0-.24-.18-.45-.43-.46-.01,0-.03,0-.04,0-.25-.01-.47,.18-.48,.43,0,.02,0,.03,0,.05-.01,.36,0,.72,0,1.12-2.16-.18-4.25,.83-5.45,2.64,0-.73,0-1.34,.01-1.95,0-.07,.14-.17,.23-.19,.13-.02,.27-.02,.4,0,2.87-.02,5.19-2.37,5.17-5.24,0-.04,0-.08,0-.13-.03-.9-.07-1.79-.11-2.69-.01-.34-.18-.54-.45-.55-.29-.01-.49,.2-.5,.54s-.02,.69,0,1.03c.02,.28-.09,.35-.36,.35-1.2-.04-2.37,.35-3.3,1.11-.37,.3-.71,.65-1.04,.97-.12-.35-.06-.73,.18-1.01,1.65-2.32,1.12-5.54-1.2-7.2-.23-.19-.56-.19-.8,0-.68,.47-1.23,1.1-1.6,1.84-.17,.34-.13,.61,.14,.75,.28,.15,.51,.02,.73-.31,.27-.41,.6-.79,.9-1.18,.14-.17,.27-.16,.44,0,1.72,1.56,1.85,4.23,.29,5.95-.09,.1-.18,.19-.27,.27-.18,.16-.3,.16-.47,0-.85-.77-1.34-1.85-1.37-3-.01-.39-.2-.58-.5-.57s-.46,.22-.45,.61c0,1.06,.36,2.09,1.01,2.93,.24,.32,.15,.65,.14,1.07-1.08-1.51-2.87-2.35-4.72-2.22,0-.47,.02-.9-.01-1.32-.01-.19-.1-.37-.23-.51-.31-.24-.7,.02-.71,.45-.02,.76,0,1.53-.07,2.29-.17,1.41,.26,2.82,1.17,3.9,1.01,1.26,2.57,1.96,4.18,1.87,.35-.01,.44,.09,.43,.42-.02,.44,0,.89,0,1.33,0,.1-.02,.2-.03,.39-1.18-1.81-3.27-2.82-5.42-2.62,0-.41,0-.77,0-1.12,.01-.26-.19-.49-.45-.5-.07,0-.14,0-.21,.04-.21,.1-.33,.32-.3,.54,.02,.62,0,1.24-.05,1.86-.42,3.18,1.81,6.1,4.99,6.53,.48,.06,.97,.07,1.45,.01v2.33c-1.2-1.79-3.28-2.8-5.43-2.62,0-.34,0-.65,0-.97,0-.35-.18-.57-.46-.58-.3,0-.49,.21-.5,.58-.03,.81-.06,1.61-.09,2.42-.1,3.08,2.24,5.7,5.31,5.94,.38,.02,.77,0,1.18,0,0,.16,.02,.29,.02,.42,0,.72,0,1.44,0,2.16,0,.42,.13,.54,.54,.54h1.66c.43,0,.55-.12,.55-.56,0-.72,0-1.44,0-2.16,0-.13,.02-.26,.03-.4,.12,0,.21,0,.29,0,.68-.04,1.36-.11,2.03-.22,.92-.23,1.76-.71,2.42-1.4,.21-.16,.26-.47,.09-.68,0,0-.01-.02-.02-.03-.18-.2-.5-.21-.69-.03-.01,.01-.03,.03-.04,.04-.04,.04-.08,.08-.12,.11-.97,.89-2.26,1.34-3.57,1.24-.23-.01-.32-.09-.33-.33-.18-2.65,1.83-4.94,4.48-5.12,.23-.02,.46-.01,.69,0,.21,.02,.28,.09,.29,.3,.05,.8-.09,1.6-.4,2.34-.14,.34-.06,.61,.21,.73,.24,.1,.53,0,.63-.25,.02-.04,.03-.07,.03-.11,.23-.63,.39-1.29,.47-1.95,.06-1.03-.03-2.08-.07-3.12,0-.25-.19-.45-.44-.46-.01,0-.02,0-.03,0m-5.85,.14c.05-2.65,2.24-4.76,4.9-4.71,.05,0,.1,0,.14,0,.28,.01,.4,.1,.42,.4,.14,2.66-1.9,4.94-4.57,5.08-.2,.01-.4,0-.6,0-.18-.02-.29-.07-.28-.27,0-.17,0-.33,0-.5M13.84,7.23c.18,.01,.26,.08,.26,.26,0,.13,0,.27,0,.4-.04,2.32-1.96,4.16-4.27,4.11-.04,0-.07,0-.11,0-.28-.01-.35-.12-.36-.38-.08-2.35,1.76-4.31,4.11-4.39,.12,0,.25,0,.37,0M5.76,11.98c-2.32-.08-4.14-2.02-4.06-4.34,0-.03,0-.06,0-.09,.01-.23,.08-.32,.33-.33,2.34-.1,4.32,1.71,4.42,4.05,0,0,0,0,0,0,.04,.7,0,.73-.69,.71m-.08,6.91c-2.66-.05-4.77-2.25-4.71-4.91,0-.05,0-.09,0-.14,.02-.34,.15-.42,.46-.43,2.25-.09,4.27,1.39,4.85,3.57,.07,.31,.13,.63,.17,.95-.03,1.07,.07,.96-.77,.95m.02,7.07c-2.64-.03-4.76-2.2-4.73-4.84,0-.09,0-.17,.01-.26,.02-.24,.08-.34,.34-.36,2.51-.17,4.72,1.62,5.09,4.1,.02,.19,.03,.37,.04,.56-.03,.88,.09,.79-.75,.78m1.9,3.14c-.05-.04-.08-.09-.09-.15-.01-.11-.01-.22,0-.33V8.66h.8c0,.07,.01,.19,.01,.3V28.71c.01,.25-.18,.47-.44,.48-.1,0-.19-.02-.27-.08"/></g></g></svg>