<svg id="Premium-Quality" xmlns="http://www.w3.org/2000/svg" xmlns:xlink="http://www.w3.org/1999/xlink" width="80.953" height="80.909" viewBox="0 0 80.953 80.909">
  <defs>
    <linearGradient id="linear-gradient" x1="1.023" y1="0.847" x2="0.681" y2="-0.094" gradientUnits="objectBoundingBox">
      <stop offset="0.01" stop-color="#bc700f"/>
      <stop offset="0.85" stop-color="#f7ce6f"/>
    </linearGradient>
    <linearGradient id="linear-gradient-2" x1="8.833" y1="10.362" x2="8.491" y2="9.422" gradientUnits="objectBoundingBox">
      <stop offset="0.01" stop-color="#de8c29"/>
      <stop offset="0.85" stop-color="#f7ce6f"/>
    </linearGradient>
    <linearGradient id="linear-gradient-3" x1="4.444" y1="2.634" x2="4.444" y2="1.634" gradientUnits="objectBoundingBox">
      <stop offset="0" stop-color="#fdeba8"/>
      <stop offset="0.45" stop-color="#c47a24"/>
      <stop offset="1" stop-color="#fdeba8"/>
    </linearGradient>
    <linearGradient id="linear-gradient-4" y1="0.5" x2="1" y2="0.5" gradientUnits="objectBoundingBox">
      <stop offset="0.36" stop-color="#f7eba6"/>
      <stop offset="0.81" stop-color="#f7d87d"/>
    </linearGradient>
  </defs>
  <path id="Caminho_425" data-name="Caminho 425" d="M78.922,53.415l-4.147,2.372,1.014,4.666L71.267,62l.111,4.769-4.73.659-.795,4.711-4.769-.247-1.671,4.474-4.638-1.145-2.494,4.089-4.338-2-3.215,3.533-3.886-2.787-3.826,2.861-3.282-3.471-4.3,2.084L26.886,75.49l-4.615,1.236-1.756-4.444-4.769.339-.883-4.693-4.742-.571.019-4.769L5.592,61.132l.924-4.686-4.191-2.3,1.795-4.428L.44,46.677l2.6-4.008L0,38.983l3.312-3.442L1.024,31.348l3.9-2.754L3.474,24.042l4.354-1.964-.565-4.742,4.647-1.107.343-4.769,4.769-.207,1.236-4.613,4.725.707,2.1-4.3,4.507,1.59L32.45.805l4.126,2.406L40.112,0l3.6,3.144L47.788.661l2.937,3.766L55.2,2.761l2.172,4.253,4.711-.788,1.325,4.592,4.769.117.433,4.757,4.668,1.019-.473,4.751,4.389,1.883-1.365,4.578L79.784,30.6l-2.208,4.239,3.377,3.381-2.969,3.741,2.676,3.958-3.616,3.1Z" fill="url(#linear-gradient)"/>
  <path id="_ring_" data-name="&lt;ring&gt;" d="M103.87,100.867a32.146,32.146,0,1,0-45.38,2.761A32.145,32.145,0,0,0,103.87,100.867ZM48.325,81.475a31.531,31.531,0,1,1,10.573,21.7,31.531,31.531,0,0,1-10.573-21.7Z" transform="translate(-39.238 -39.039)" fill="url(#linear-gradient-2)"/>
  <path id="_stars_" data-name="&lt;stars&gt;" d="M46.552,44.554l.5-.442-.265-.616.578.341.5-.443-.145.655.578.341-.669.064-.147.655-.267-.616Zm1.955-1.68.53-.4-.219-.634.549.385.53-.4-.2.641.549.385-.671.012-.2.641-.219-.634Zm2.082-1.528.565-.353-.177-.65.518.427.565-.353-.244.625.518.426-.669-.041-.237.6-.177-.65Zm2.188-1.36.592-.314-.118-.662.484.465.592-.316-.291.6.484.465-.666-.092-.291.6-.12-.65ZM55.066,38.8l.613-.27-.067-.668.447.5.615-.27-.339.585.447.5-.655-.148-.339.581-.067-.668Zm2.37-1.007.632-.226-.016-.671.406.53.634-.223-.38.551.406.53-.643-.191-.382.553-.016-.671Zm2.441-.827.648-.177.035-.669.366.562.646-.177-.42.53.366.563-.623-.247-.422.53.035-.669Zm2.492-.636.661-.125.085-.666.323.59L64.1,36l-.459.489.321.593-.608-.286-.459.487.085-.666Zm2.54-.449.668-.074.136-.657.276.613.668-.074-.5.45.277.613-.585-.334-.5.454.131-.669Zm2.563-.253.671-.023.185-.646.228.632.671-.025-.53.413.23.632-.556-.376-.53.413.177-.645Zm2.579-.058.669.028.242-.632.177.646.669.028-.558.371.177.646-.53-.417-.56.373.235-.629Zm2.572.14.666.079.281-.609.131.659.668.078-.579.325.124.668-.493-.456-.586.327.281-.609Zm2.558.336.659.131.327-.586.079.666.659.131-.608.281.079.668-.457-.493-.609.283.327-.586Zm2.522.53.646.177.371-.56.028.671.646.177-.629.235.028.669-.417-.53-.629.233.369-.56Zm2.473.721.632.231.412-.53-.023.671.631.23-.645.185-.023.671-.376-.558-.645.177.413-.53Zm2.416.913.611.277.452-.495-.074.668.611.276-.657.136-.076.664-.332-.583-.657.134.452-.495ZM84.916,39.3l.588.323.489-.459-.127.659.59.323-.666.085-.125.659-.286-.608-.666.085.487-.459Zm2.247,1.27.56.366.53-.42-.177.648.562.366-.669.035-.177.648-.24-.629-.671.034.53-.42ZM89.3,42l.53.408.563-.374-.224.634.53.408-.671-.016-.223.632-.189-.652-.673-.016.553-.382Zm2.029,1.59.5.447.579-.337-.27.615.5.445-.657-.062-.27.615-.143-.657-.668-.067.579-.339Zm1.9,1.74.465.484.6-.293-.318.593.466.484-.661-.118-.316.592-.094-.666-.661-.118.6-.291ZM95,47.207l.426.518.625-.246-.362.565.427.519-.65-.177-.362.565-.039-.669-.65-.177.625-.246Zm1.616,2.014.383.548.643-.2-.4.53.385.551-.634-.217-.4.53.011-.671-.636-.219.643-.2Zm1.454,2.13.341.578.655-.147-.443.5.341.578-.62-.263-.445.5.064-.668-.616-.267L98,52.022Zm1.284,2.233.3.6.664-.1-.48.468.295.6-.593-.311-.486.472.113-.662-.593-.313.664-.1Zm1.109,2.33.249.622.669-.044-.514.429.249.623-.569-.353-.514.429.162-.65-.567-.353.669-.044Zm.927,2.4.2.639h.671l-.546.389.2.641-.539-.4-.548.389.214-.636-.539-.4h.669Zm.744,2.473.154.654.668.057-.574.353.152.654-.507-.44-.574.353.26-.62-.507-.44.668.058Zm.555,2.519.1.662.664.108-.6.3.1.664-.472-.475-.6.3.307-.6-.473-.475.664.108Zm.364,2.554.051.669.652.157-.62.251.051.668-.427-.51-.622.254.353-.57-.438-.512.652.157Zm.166,2.572V69.1l.638.208-.638.207v.671l-.394-.542-.639.208.4-.544-.4-.542.638.2ZM103.184,71l-.049.669.62.254-.652.159-.051.669-.353-.57-.654.159.434-.512-.353-.572.629.256Zm-.226,2.57-.1.664.6.3-.662.108-.1.662-.314-.593-.662.108.473-.477-.309-.6.6.3Zm-.42,2.54-.152.654.574.353-.668.058-.154.652-.267-.623-.669.057.507-.44-.261-.618.576.353Zm-.615,2.5-.2.641.548.389H101.6l-.2.639-.212-.634h-.671l.53-.4-.212-.636.546.39Zm-.809,2.455-.249.622.514.431-.669-.044-.251.616-.164-.65L99.625,82l.571-.353-.164-.65.516.427Zm-.989,2.376-.3.6.48.468-.664-.1-.3.6-.115-.661-.664-.1.6-.313-.113-.661.48.47Zm-1.173,2.3-.343.578.442.505-.654-.148-.343.576-.062-.666-.657-.148.618-.267-.062-.668.442.5ZM97.608,87.93l-.382.555.406.53-.643-.194-.382.548-.016-.669-.643-.194.634-.221-.014-.671.406.53Zm-1.5,2.1-.417.518.362.565-.625-.246L95,91.385l.039-.669-.625-.244.65-.177.039-.669.362.565ZM94.453,92l-.463.486.318.59-.606-.291-.463.486.088-.664-.6-.291.661-.12.092-.666.316.59Zm-1.8,1.84-.5.449.272.613-.581-.336-.505.454.141-.655-.581-.336.668-.069.141-.657.272.613Zm-1.943,1.7-.53.408.224.632-.553-.38-.53.408.191-.643-.553-.382.671-.016.191-.645.219.629Zm-2.063,1.544-.563.366.177.648-.516-.426-.56.366.237-.625-.521-.422.671.034.24-.627.177.648Zm-2.178,1.379-.588.323.124.659-.487-.459-.59.32.286-.606-.487-.461.666.087.288-.608.122.661ZM84.19,99.67l-.611.276.074.668-.452-.5-.611.277.332-.583-.452-.5.657.136.334-.583.072.668ZM81.826,100.7l-.631.228.021.671-.41-.53-.632.228.376-.556-.413-.53.646.187.376-.556.021.669Zm-2.434.853-.646.177-.028.671-.371-.56-.646.177.417-.53-.371-.56.629.235.419-.53-.03.669Zm-2.487.659-.659.131-.079.666-.329-.586-.657.131.456-.493-.329-.586.611.283.456-.493-.079.666Zm-2.536.47-.666.079-.131.659-.281-.609-.668.079.493-.454-.283-.609.586.329.493-.457-.131.657Zm-2.559.276-.671.03-.177.646-.235-.629-.671.028.53-.417-.235-.629.56.371.53-.419-.177.646Zm-2.579.081-.669-.021-.228.631L68.147,103l-.669-.021.555-.376-.177-.645.53.413L68.94,102l-.228.632Zm-2.577-.117-.666-.072-.276.611-.138-.657-.668-.072.583-.334-.136-.657.5.452.585-.334-.276.611Zm-2.559-.309-.659-.124-.323.59-.085-.666-.659-.124.6-.29-.085-.664.461.487.608-.288-.323.59Zm-2.524-.507-.648-.177-.366.562-.035-.669-.648-.177.627-.24-.035-.671.424.53.625-.238-.366.562Zm-2.485-.707-.632-.223-.408.53.018-.673-.632-.223.643-.191.018-.671.38.553.645-.191-.41.53Zm-2.413-.883-.615-.27-.447.5.067-.668-.613-.277.655-.143.069-.666.337.579.657-.14-.449.5Zm-2.349-1.083-.59-.316-.486.463.12-.661-.59-.316.662-.092.122-.661.291.606.666-.09-.486.463ZM52.072,98.2l-.565-.353-.519.426.177-.648L50.6,97.27l.669-.041.177-.648.246.625.669-.041-.518.426Zm-2.155-1.413-.53-.4-.549.385.219-.636-.53-.4.671.011.217-.634.2.641.671.011-.549.387Zm-2.036-1.57-.505-.442-.576.343.265-.616-.505-.442.668.06.265-.616.148.655.669.062-.578.341Zm-1.92-1.726-.47-.48-.6.3.311-.593-.468-.48.662.111.309-.6.1.664.662.113-.6.3Zm-1.779-1.872-.431-.514-.622.251.353-.57-.427-.514.652.162.353-.569.055.669.652.164-.631.26Zm-1.63-2-.39-.546-.639.2.4-.539-.39-.546.636.21.4-.539v.671l.636.214-.639.2ZM41.081,87.5l-.353-.574-.654.152.44-.507L40.16,86l.618.26.44-.507-.057.669.618.26-.654.154Zm-1.307-2.224-.3-.6-.662.1.477-.473-.293-.593.6.307.477-.473-.11.664.6.307-.662.1Zm-1.134-2.31-.256-.62-.669.049.512-.433-.256-.622.572.353.51-.435-.157.654.57.353-.669.051Zm-.952-2.393-.207-.638H36.81l.544-.394-.208-.638.548.394.542-.394-.207.639.542.394H37.9ZM36.921,78.1l-.157-.652-.669-.051.571-.353L36.52,76.4l.51.434.572-.353-.256.622.512.435-.669-.051Zm-.578-2.5-.108-.662-.664-.1.6-.307-.11-.662.479.472.6-.307-.3.6.477.473-.664-.1Zm-.385-2.55-.057-.668-.654-.152.616-.261-.051-.668.44.505.62-.261-.353.576.44.507-.654-.152Zm-.189-2.568v-.671l-.639-.2.636-.214v-.671l.4.53.636-.212-.39.546.4.54-.646-.193Zm0-2.575.044-.669-.622-.249.65-.166.044-.668.353.567.65-.164-.429.516.353.567-.625-.249Zm.221-2.572.1-.664-.6-.295.662-.115.094-.664.314.592.661-.113-.466.482.3.593-.6-.3Zm.4-2.547.147-.654-.578-.343.669-.064.145-.654.268.615.668-.064-.505.445.261.625-.578-.353Zm.593-2.506.2-.641-.549-.385.669-.012.2-.641.217.632.673-.011-.53.4.219.636-.551-.385Zm.775-2.457L38,57.2l-.518-.426.669.039.246-.625.177.65.669.039-.565.364.177.65-.518-.427Zm.971-2.388.293-.6-.486-.465.666.092.291-.6.12.661.664.09-.592.309.118.661-.484-.465Zm1.148-2.3.337-.579-.447-.5.655.141.337-.579.071.661.655.143-.615.27.069.669-.447-.5ZM41.2,50.92l.382-.553-.408-.53.646.189.38-.553.018.671.643.189-.634.223.018.673-.408-.53Zm1.487-2.105.42-.53-.367-.562.627.238.42-.53-.032.671.627.238-.648.177-.034.671-.366-.562Zm1.637-1.985.459-.489-.314-.588.608.286.452-.489-.083.666.613.284-.661.127-.085.666-.323-.588Z" transform="translate(-28.925 -28.785)" fill="url(#linear-gradient-3)"/>
  <path id="Caminho_426" data-name="Caminho 426" d="M68.639,73.65l-2.591-1.876a5.531,5.531,0,0,0-.692-.463.306.306,0,0,0-.276.019,1.751,1.751,0,0,0-.436.48l-.085.115L64,71.518a2.6,2.6,0,0,0,.159-1.848l.5-.689,4.832,3.5Zm22.172,24.2.53,1.093.539-1.093,1.2-.177-.873-.85.208-1.2-1.077.567-1.077-.567.2,1.2-.869.85Zm10.617,3.3-.779-.9-2.455,2.135.782.9.664-.579,3.132,3.6,1.125-.977-3.132-3.6Zm12.805-15.559c0,.223,0,.443-.009.662v.194c0,.164-.011.327-.019.489a1.394,1.394,0,0,1-.009.193c-.023.436-.057.873-.1,1.3a1.671,1.671,0,0,1-.019.189c-.018.161-.035.32-.055.48a1.693,1.693,0,0,1-.023.187c-.028.214-.057.427-.09.639v.014c-.032.207-.067.413-.1.618-.012.065-.023.129-.035.194-.028.152-.057.3-.087.454-.014.065-.026.131-.041.2-.041.2-.085.4-.131.6a.412.412,0,0,1-.014.064q-.065.281-.138.562c-.018.069-.035.138-.055.208-.035.14-.074.277-.113.417l-.058.21c-.051.177-.106.353-.161.539a28.5,28.5,0,0,1-54.448.062h0c-.062-.2-.122-.4-.177-.6-.018-.057-.034-.115-.049-.177-.042-.152-.083-.306-.124-.459l-.048-.177c-.051-.2-.1-.4-.147-.6a.042.042,0,0,1,0-.014c-.048-.207-.092-.415-.136-.624l-.037-.177-.09-.468c-.011-.062-.021-.124-.034-.185-.037-.21-.072-.42-.1-.632h0c-.034-.214-.062-.427-.09-.641a1.662,1.662,0,0,0-.023-.185c-.019-.161-.039-.321-.055-.482,0-.064-.014-.125-.019-.189-.044-.431-.076-.867-.1-1.3l-.011-.191c0-.164-.012-.327-.018-.491V84.747c0-.162.011-.327.018-.489l.011-.191c.023-.438.055-.873.1-1.305a1.68,1.68,0,0,1,.019-.187c.016-.162.035-.323.055-.484a1.336,1.336,0,0,1,.023-.177q.083-.645.2-1.277l.032-.177c.03-.159.06-.316.092-.475.011-.058.023-.117.035-.177q.129-.629.288-1.249c.014-.055.028-.111.044-.177.041-.159.083-.316.127-.473.016-.053.03-.108.046-.161.058-.2.118-.406.177-.608h0a28.5,28.5,0,0,1,54.433.021c.06.189.117.38.177.572.018.065.037.131.055.2.041.143.079.288.117.433.018.065.035.131.051.2.049.194.1.387.143.583v.032c.048.207.092.412.136.618l.037.191c.032.154.06.306.088.461.012.064.023.127.035.191.035.207.071.415.1.623a.078.078,0,0,1,0,.009c.034.214.062.426.09.639a1.642,1.642,0,0,0,.023.187c.019.161.037.32.055.48,0,.064.014.127.019.189q.064.648.1,1.305a1.379,1.379,0,0,0,.009.191c.009.162.014.327.019.489v.194C114.23,85.148,114.233,85.369,114.233,85.585Zm-55.249-8.46h8.8a19.853,19.853,0,0,1,35.91,0h8.8a28.068,28.068,0,0,0-53.518,0ZM77.435,84.4V82.541h1.817V80.576H74.71V90.4h4.725V88.434h-2v-2.16h1.7V84.4Zm-7.948,9.653a18.325,18.325,0,0,0,32.5,0ZM82.99,90.4V83.917l1,6.482h1.689l.947-6.632V90.4h2.381V80.576H85.475l-.627,4.592-.387-2.5q-.164-1.2-.323-2.088H80.605V90.4Zm10.244,0V80.576H90.511V90.4Zm4.175-2.459V80.576H94.686v5.813q0,1.66.064,2.181a2.038,2.038,0,0,0,.42.986,2.5,2.5,0,0,0,1.076.76,4.373,4.373,0,0,0,1.655.29,4.009,4.009,0,0,0,1.473-.246,2.376,2.376,0,0,0,1.005-.722,2.061,2.061,0,0,0,.459-.927,10.528,10.528,0,0,0,.078-1.568V80.576H98.192v7.242a3.453,3.453,0,0,1-.074.931.316.316,0,0,1-.334.2.293.293,0,0,1-.3-.177,2.748,2.748,0,0,1-.074-.828Zm4.58-10.817a18.325,18.325,0,0,0-32.5,0Zm.463,0h.33a19.035,19.035,0,0,0-34.089,0h.332a18.736,18.736,0,0,1,33.423,0ZM67.177,80.576V90.4H69.9V85.97c.374,0,.608.062.7.187a2.13,2.13,0,0,1,.132.977V90.4h2.529V87.808a8.757,8.757,0,0,0-.067-1.454,1.482,1.482,0,0,0-.353-.579,2.085,2.085,0,0,0-1.088-.5,1.649,1.649,0,0,0,1.2-.473,2.712,2.712,0,0,0,.3-1.542,3.085,3.085,0,0,0-.429-1.83,1.817,1.817,0,0,0-1.113-.706,15.913,15.913,0,0,0-2.611-.138ZM68.7,94.063a19.035,19.035,0,0,0,34.089,0h-.334a18.736,18.736,0,0,1-33.423,0Zm36.053-3.656V83.924l1,6.482h1.69l.947-6.632v6.632h2.381V80.576H107.23l-.627,4.592-.387-2.5q-.166-1.2-.323-2.088h-3.524V90.4ZM65.893,81.967a1.59,1.59,0,0,0-.408-.749,1.943,1.943,0,0,0-.9-.473,6.849,6.849,0,0,0-1.712-.162H60.127v9.824h2.724V86.441h.731a3.815,3.815,0,0,0,1.447-.23,1.383,1.383,0,0,0,.759-.661A3.37,3.37,0,0,0,66,84.179v-.855a6.358,6.358,0,0,0-.108-1.364Zm46.6,12.1h-8.8a19.853,19.853,0,0,1-35.91,0h-8.8a28.069,28.069,0,0,0,53.518,0ZM74.379,62.291a1.805,1.805,0,0,1-.148-.643.685.685,0,0,1,.194-.442,1.314,1.314,0,0,1,.53-.343,1.342,1.342,0,0,1,.671-.1.749.749,0,0,1,.442.21,1.741,1.741,0,0,1,.3.563l.353.959a1.84,1.84,0,0,1,.143.59.707.707,0,0,1-.177.438,1.213,1.213,0,0,1-.546.364,1.385,1.385,0,0,1-.706.113.74.74,0,0,1-.424-.2,1.521,1.521,0,0,1-.258-.505Zm.685-.846a.851.851,0,0,0,.076.279l.53,1.413a1.014,1.014,0,0,0,.132.281c.026.026.074.026.141,0s.088-.055.09-.1a.809.809,0,0,0-.071-.268l-.539-1.431a1.008,1.008,0,0,0-.125-.265c-.026-.028-.072-.032-.138,0S75.07,61.4,75.065,61.445ZM102.219,98.36q.906,1.1,1.57,1.8a23.577,23.577,0,0,0-2.058-1.194l-.858,1.06,3.621,1.576,1.681,1.355.865-1.074-1.681-1.355-2.28-3.236Zm-24.6-31.877-.065-6.6-.507.193.057,6.6Zm-11.258,1.66a1.215,1.215,0,0,1-.071-.851,1.883,1.883,0,0,1,.53-.873,2.022,2.022,0,0,1,.726-.475,1.413,1.413,0,0,1,.694-.1,1.381,1.381,0,0,1,.569.221,5.157,5.157,0,0,1,.742.655l1.4,1.413a4.808,4.808,0,0,1,.641.752,1.379,1.379,0,0,1,.2.62,1.28,1.28,0,0,1-.117.657,2.019,2.019,0,0,1-.422.585,2.572,2.572,0,0,1-.707.516,1.18,1.18,0,0,1-.659.111,1.735,1.735,0,0,1-.593-.189,3.621,3.621,0,0,1-.707-.6l-1.462-1.484A4.119,4.119,0,0,1,66.357,68.143Zm1.06-.853a1.987,1.987,0,0,0,.376.454l2.044,2.074a2.161,2.161,0,0,0,.475.412.2.2,0,0,0,.224-.071.2.2,0,0,0,.062-.237,1.953,1.953,0,0,0-.353-.436L68.169,67.38a2.439,2.439,0,0,0-.449-.392.2.2,0,0,0-.233.062.207.207,0,0,0-.064.24Zm2.669-2.566a1.21,1.21,0,0,1,.094-.85,1.9,1.9,0,0,1,.692-.752,2.031,2.031,0,0,1,.8-.327,1.429,1.429,0,0,1,.707.041,1.4,1.4,0,0,1,.518.325,5.249,5.249,0,0,1,.6.788l1.1,1.66a4.821,4.821,0,0,1,.486.864,1.371,1.371,0,0,1,.071.645,1.274,1.274,0,0,1-.24.623,2.026,2.026,0,0,1-.53.491,2.588,2.588,0,0,1-.786.371,1.176,1.176,0,0,1-.669-.019,1.7,1.7,0,0,1-.546-.3,3.518,3.518,0,0,1-.578-.721l-1.148-1.736a4.142,4.142,0,0,1-.562-1.1Zm1.212-.631a2,2,0,0,0,.281.519l1.611,2.427a2.206,2.206,0,0,0,.387.495.2.2,0,0,0,.233-.025.2.2,0,0,0,.106-.221,1.906,1.906,0,0,0-.268-.5l-1.628-2.473a2.34,2.34,0,0,0-.366-.473.2.2,0,0,0-.24.016.208.208,0,0,0-.108.233Zm27.946,5.6,1.113,1.014,3.216-3.533.661.6.8-.883-2.43-2.217-.8.883.657.6ZM77.907,64.036a1.81,1.81,0,0,1-.147-.639.694.694,0,0,1,.194-.443,1.281,1.281,0,0,1,.53-.353,1.337,1.337,0,0,1,.675-.1.745.745,0,0,1,.442.212,1.782,1.782,0,0,1,.3.56l.353.963a1.871,1.871,0,0,1,.143.588.707.707,0,0,1-.177.44,1.2,1.2,0,0,1-.546.364,1.357,1.357,0,0,1-.707.111.763.763,0,0,1-.426-.207,1.517,1.517,0,0,1-.277-.5Zm.689-.846a.9.9,0,0,0,.078.283l.53,1.413a1.028,1.028,0,0,0,.132.277c.027.026.074.026.138,0s.092-.055.094-.1a.953.953,0,0,0-.074-.27l-.53-1.427a1.141,1.141,0,0,0-.125-.267c-.028-.03-.074-.032-.14,0s-.1.049-.1.092Zm.311,45.23a.751.751,0,0,1,.177.452,1.78,1.78,0,0,1-.152.616l-.374.959a1.832,1.832,0,0,1-.286.53.707.707,0,0,1-.419.215,1.171,1.171,0,0,1-.641-.092,1.335,1.335,0,0,1-.588-.383.745.745,0,0,1-.177-.436,1.556,1.556,0,0,1,.131-.56l.39-1a1.791,1.791,0,0,1,.318-.574.707.707,0,0,1,.438-.2,1.273,1.273,0,0,1,.618.1,1.3,1.3,0,0,1,.565.383Zm-.634.217c0-.041-.032-.072-.1-.1a.117.117,0,0,0-.134.009.976.976,0,0,0-.131.261l-.548,1.4a1.074,1.074,0,0,0-.088.295c0,.037.037.069.1.094s.1.021.132-.009a.945.945,0,0,0,.124-.251l.556-1.413a1.1,1.1,0,0,0,.085-.284Zm6.655-8.923.772,1.57.772-1.57,1.727-.249-1.252-1.219.3-1.722-1.538.812-1.547-.814.295,1.722-1.249,1.219Zm16.956-27.351.848,1.107,1.715-1.312,3.693-1.443-.839-1.1q-1.288.615-2.12,1.1.456-.4,1.646-1.719l-.841-1.1-2.381,3.153ZM96.558,67.71l.553-1.06-.812-.424,2.21-4.239-1.334-.7L94.412,66.58ZM116.51,85.585A30.77,30.77,0,1,1,85.742,54.82,30.771,30.771,0,0,1,116.51,85.585Zm-1.75,0a29.018,29.018,0,1,0-8.5,20.52A29.017,29.017,0,0,0,114.76,85.585Zm-24.283-20.4,2.6-5.422,2.065.684-1.06,5.935L92.625,65.9l.261-1.044-.512-.168-.422.989Zm2.215-1.5.493.162q.21-1,.569-2.452Q93,62.943,92.692,63.683ZM82.248,60.926a4.635,4.635,0,0,1,0-.929,1.519,1.519,0,0,1,.244-.62,1.379,1.379,0,0,1,.53-.465,1.987,1.987,0,0,1,.749-.2,2.192,2.192,0,0,1,.91.113,1.381,1.381,0,0,1,.913.952,4.535,4.535,0,0,1,.122.865l.138,1.932a4.913,4.913,0,0,1,0,1.083.811.811,0,0,1-.254.47,1.5,1.5,0,0,1-.546.3c.016.132.048.214.1.246a.671.671,0,0,0,.334.028l.53-.037.051.721-1.134.079a1.747,1.747,0,0,1-.583-.023.394.394,0,0,1-.24-.177,1.237,1.237,0,0,1-.092-.459,1.544,1.544,0,0,1-.9-.212,1.226,1.226,0,0,1-.53-.629,4.581,4.581,0,0,1-.2-1.2Zm1.47-.544.2,2.771a2.811,2.811,0,0,0,.087.638.209.209,0,0,0,.385-.046,2.9,2.9,0,0,0,0-.669l-.194-2.734a1.885,1.885,0,0,0-.083-.53.177.177,0,0,0-.193-.1.2.2,0,0,0-.177.106A1.383,1.383,0,0,0,83.718,60.382Zm3.827,4.361a2.192,2.192,0,0,0,.883.291,2.033,2.033,0,0,0,.827-.044,1.344,1.344,0,0,0,.608-.366,1.311,1.311,0,0,0,.321-.53,6.742,6.742,0,0,0,.164-.94l.5-3.955-1.492-.191L88.8,63.37a2.307,2.307,0,0,1-.111.556.177.177,0,0,1-.2.1.162.162,0,0,1-.152-.129,1.822,1.822,0,0,1,.023-.5l.565-4.437-1.493-.191-.445,3.506q-.127,1-.132,1.318a1.309,1.309,0,0,0,.155.623A1.374,1.374,0,0,0,87.545,64.743Zm10.642,4.1,3.386-4.914-1.236-.853L96.95,67.989ZM68.918,97.89a2.57,2.57,0,0,1-1.692-.726l-.565.4.081.115a1.717,1.717,0,0,1,.313.562.313.313,0,0,1-.071.267,5.968,5.968,0,0,1-.659.509l-2.6,1.86.83,1.162,4.855-3.467Zm20.8,8.233-1.48.162.48,4.37a2.388,2.388,0,0,1,.021.567.177.177,0,0,1-.177.138.157.157,0,0,1-.177-.09,1.8,1.8,0,0,1-.1-.491l-.489-4.447-1.48.162L86.71,110q.111,1.005.177,1.312a1.307,1.307,0,0,0,.293.57,1.369,1.369,0,0,0,.634.394,2.2,2.2,0,0,0,.92.078,2,2,0,0,0,.784-.237,1.4,1.4,0,0,0,.687-1.084,7.375,7.375,0,0,0-.062-.95Zm-14.52.948a.735.735,0,0,1-.177-.433,1.542,1.542,0,0,1,.131-.563l.39-1a1.807,1.807,0,0,1,.32-.578.684.684,0,0,1,.436-.2,1.507,1.507,0,0,1,1.175.473.751.751,0,0,1,.177.45,1.766,1.766,0,0,1-.152.62l-.373.956a1.812,1.812,0,0,1-.288.53.707.707,0,0,1-.417.214,1.194,1.194,0,0,1-.643-.092,1.348,1.348,0,0,1-.579-.38Zm.645-.212c0,.037.037.069.1.1a.113.113,0,0,0,.131-.012.819.819,0,0,0,.125-.247l.556-1.424a.975.975,0,0,0,.085-.281c0-.039-.034-.072-.1-.1a.122.122,0,0,0-.136.011.841.841,0,0,0-.131.258l-.548,1.4A1.06,1.06,0,0,0,75.845,106.859Zm-12.994-24.6v2.5h.2a.657.657,0,0,0,.53-.177,1.2,1.2,0,0,0,.145-.719v-.807a.863.863,0,0,0-.177-.655A1.143,1.143,0,0,0,62.851,82.255Zm7.878,1.3v-.539a.789.789,0,0,0-.177-.613,1.06,1.06,0,0,0-.65-.147V84.44a1.266,1.266,0,0,0,.645-.118C70.667,84.242,70.729,84,70.729,83.553ZM79.6,97.781l.539,1.093.53-1.093,1.2-.177L81,96.755l.208-1.2-1.077.567-1.079-.567.207,1.2-.871.85Zm-4.746,6.851a5.369,5.369,0,0,1-.5.855l-1.115,1.646a4.869,4.869,0,0,1-.611.779,1.393,1.393,0,0,1-.567.316,1.281,1.281,0,0,1-.662.019,2.015,2.015,0,0,1-.65-.3,2.533,2.533,0,0,1-.638-.579,1.173,1.173,0,0,1-.233-.622,1.692,1.692,0,0,1,.071-.618,3.64,3.64,0,0,1,.445-.809l1.166-1.726a4.121,4.121,0,0,1,.8-.943,1.2,1.2,0,0,1,.816-.24,1.84,1.84,0,0,1,.95.344,1.966,1.966,0,0,1,.6.613,1.314,1.314,0,0,1,.122,1.259Zm-1.21-1.093a.2.2,0,0,0-.246-.014,2.06,2.06,0,0,0-.373.459L71.4,106.4a2.252,2.252,0,0,0-.313.546.207.207,0,0,0,.113.2.2.2,0,0,0,.242.012,1.933,1.933,0,0,0,.353-.44l1.655-2.448a2.4,2.4,0,0,0,.3-.519.2.2,0,0,0-.11-.214Zm.987,6.615.507.2,4.341-4.954-.5-.2Zm18.249-4.946,2.577,5.447-1.454.45-.394-1-.509.157.231,1.051-1.471.454-1.039-5.924Zm.38,3.9q-.408-.934-.957-2.326.288,1.7.468,2.473Zm-22.5-6.166-1.413,1.4a4.968,4.968,0,0,1-.749.648,1.378,1.378,0,0,1-.618.2,1.266,1.266,0,0,1-.654-.108,2.022,2.022,0,0,1-.581-.415,2.577,2.577,0,0,1-.514-.691,1.167,1.167,0,0,1-.11-.655,1.65,1.65,0,0,1,.187-.592,3.557,3.557,0,0,1,.592-.706l1.473-1.471a4.121,4.121,0,0,1,.968-.772,1.2,1.2,0,0,1,.846-.081,1.867,1.867,0,0,1,.869.521,2,2,0,0,1,.473.717,1.312,1.312,0,0,1-.122,1.258A5.1,5.1,0,0,1,70.759,102.94Zm-.325-2.049a.2.2,0,0,0-.238-.06,1.994,1.994,0,0,0-.452.38l-2.061,2.056a2.188,2.188,0,0,0-.41.477.246.246,0,0,0,.306.281,1.92,1.92,0,0,0,.435-.364l2.093-2.088a2.39,2.39,0,0,0,.39-.45A.2.2,0,0,0,70.434,100.891Zm15.084,6.668a4.884,4.884,0,0,1-.018.874l-.168,1.931a5.091,5.091,0,0,1-.177,1.06.828.828,0,0,1-.323.424,1.452,1.452,0,0,1-.581.207c0,.134.014.219.058.258a.643.643,0,0,0,.321.081l.514.044-.062.719-1.122-.1a1.726,1.726,0,0,1-.549-.1.383.383,0,0,1-.207-.212,1.249,1.249,0,0,1-.018-.466,1.54,1.54,0,0,1-.844-.353,1.215,1.215,0,0,1-.42-.707,4.637,4.637,0,0,1-.012-1.212l.161-1.84a4.77,4.77,0,0,1,.148-.917,1.526,1.526,0,0,1,.336-.574,1.357,1.357,0,0,1,.59-.376,1.943,1.943,0,0,1,.765-.076,2.119,2.119,0,0,1,.871.253,1.4,1.4,0,0,1,.542.5A1.51,1.51,0,0,1,85.517,107.559Zm-1.464-.193a.177.177,0,0,0-.177-.132.2.2,0,0,0-.177.078,1.36,1.36,0,0,0-.111.548l-.24,2.775a2.8,2.8,0,0,0-.016.643.2.2,0,0,0,.382.016,3,3,0,0,0,.1-.661l.238-2.732a1.943,1.943,0,0,0,0-.533Zm13.413,1-2.12-4.276-1.337.657,2.649,5.345,2.146-1.06-.53-1.07ZM80.671,73.4l-.53-1.093L79.6,73.4l-1.2.177.871.85-.207,1.2,1.079-.567,1.077.567L81,74.424l.873-.85Zm15.877,30.026,3.275,4.986,1.236-.816-3.275-4.988ZM86.471,71.467,85.708,69.9l-.772,1.568-1.729.249,1.249,1.219-.295,1.722,1.547-.814,1.547.814-.3-1.722,1.252-1.219Zm5.419,1.869-.539-1.093-.53,1.093-1.2.177.869.85-.2,1.2,1.077-.567,1.077.567-.208-1.2.873-.85Z" transform="translate(-45.261 -45.137)" fill="url(#linear-gradient-4)"/>
</svg>
