<svg xmlns="http://www.w3.org/2000/svg" xmlns:xlink="http://www.w3.org/1999/xlink" width="61" height="61" viewBox="0 0 61 61">
  <defs>
    <clipPath id="clip-path">
      <rect id="Ret창ngulo_582" data-name="Ret창ngulo 582" width="61" height="61" transform="translate(777 1239)" fill="none" stroke="#707070" stroke-width="1"/>
    </clipPath>
    <clipPath id="clip-path-2">
      <rect id="Ret창ngulo_491" data-name="Ret창ngulo 491" width="39.333" height="56.416" fill="#a2a1a1"/>
    </clipPath>
  </defs>
  <g id="ondulado" transform="translate(-777 -1239)" clip-path="url(#clip-path)">
    <g id="Grupo_312" data-name="Grupo 312" transform="translate(788 1240.584)">
      <g id="Grupo_311" data-name="Grupo 311" clip-path="url(#clip-path-2)">
        <path id="Caminho_504" data-name="Caminho 504" d="M23.841,0a24.273,24.273,0,0,1,2.645.658c4.974,1.827,7.923,5.364,8.57,10.637a44.8,44.8,0,0,1,.118,5.995,12.722,12.722,0,0,0,2,6.911,13.1,13.1,0,0,1-.088,14.541,1.086,1.086,0,0,1-.954.639.938.938,0,0,1-.737-1.515,12.335,12.335,0,0,0,1.6-3.539,11.05,11.05,0,0,0-1.4-9.07A14.057,14.057,0,0,1,33.271,17.2c.034-1.78.036-3.564-.058-5.341a10.691,10.691,0,0,0-8.166-9.644A13.656,13.656,0,0,0,22.216,1.9c-2.165-.023-4.337-.054-6.495.089a10.656,10.656,0,0,0-9.389,8.248A15.977,15.977,0,0,0,6.04,13.07c-.053,1.817,0,3.636-.053,5.453a12.082,12.082,0,0,1-2.058,6.35,11.468,11.468,0,0,0-2.008,6.577A11.343,11.343,0,0,0,6.58,40.623a.578.578,0,0,0,.438.14,17.7,17.7,0,0,1,4-.649A3.89,3.89,0,0,0,14.253,36.4c.012-.351-.194-.431-.418-.55A12.486,12.486,0,0,1,8,29.429a11.212,11.212,0,0,1-.907-4.274q-.013-3.443-.009-6.886c0-.709.348-1.1.937-1.105s.944.4.946,1.1c0,2.112,0,4.223,0,6.335a10.73,10.73,0,0,0,8.944,10.644A10.612,10.612,0,0,0,30.221,25.9c.2-2.237.032-4.506.032-6.8a5.385,5.385,0,0,1-4.846-4.13c-.174.088-.333.156-.479.245A31.938,31.938,0,0,1,12.67,19.645a.978.978,0,0,1-1.243-.766c-.1-.555.327-.984,1.01-1.133,1.678-.368,3.372-.692,5.015-1.185a27.777,27.777,0,0,0,7.9-3.912c.366-.255.758-.475,1.159-.2a1.526,1.526,0,0,1,.527.761c.19.607.221,1.27.453,1.856a3.342,3.342,0,0,0,3.456,2.119c1-.04,1.28.227,1.28,1.233,0,2.24.026,4.481-.014,6.721A12.571,12.571,0,0,1,22.19,37.026a13,13,0,0,1-5.955-.212,15.8,15.8,0,0,1-.781,2.158A16.768,16.768,0,0,1,14.077,40.9l5.57,4.318q.971-.746,1.946-1.494c.451-.347.891-.708,1.351-1.043a.932.932,0,0,1,1.372.107.97.97,0,0,1-.222,1.4q-1.882,1.481-3.787,2.933c-.5.38-.839.357-1.39-.068q-3.14-2.42-6.267-4.856a1.15,1.15,0,0,0-1.04-.254c-.9.169-1.832.131-2.726.308A7.752,7.752,0,0,0,2.505,50.04c-.018,1.634,0,3.269,0,4.9,0,.165.006.331-.006.5a.925.925,0,0,1-.96.978A.94.94,0,0,1,.6,55.408C.588,54.1.559,52.8.606,51.5a23.455,23.455,0,0,1,.3-3.879,9.264,9.264,0,0,1,4.033-5.8,3.358,3.358,0,0,0-.256-.276,13.31,13.31,0,0,1-2.592-17.3,12.417,12.417,0,0,0,2.041-7.062,53.308,53.308,0,0,1,.106-5.886A12.546,12.546,0,0,1,13.446.453c.664-.185,1.346-.3,2.02-.453Z" transform="translate(0)" fill="#a2a1a1"/>
        <path id="Caminho_505" data-name="Caminho 505" d="M175.185,271.6a29.2,29.2,0,0,0-.374-4.149,7.74,7.74,0,0,0-7.741-5.953,5.588,5.588,0,0,1-4.723-2.683.92.92,0,0,1-.015-1.126.819.819,0,0,1,.962-.358,1.432,1.432,0,0,1,.678.5,4.1,4.1,0,0,0,3.573,1.8,9.662,9.662,0,0,1,9.212,7.65,13.075,13.075,0,0,1,.221,2.238c.032,1.707.012,3.415.009,5.123,0,.745-.339,1.169-.931,1.182-.629.014-.966-.389-.971-1.189-.007-1.01,0-2.02,0-3.03l.1-.008" transform="translate(-138.277 -219.411)" fill="#a2a1a1"/>
      </g>
    </g>
  </g>
</svg>
