<svg id="BARBA_MAIS_VOLUMOSAS" data-name="BARBA MAIS VOLUMOSAS" xmlns="http://www.w3.org/2000/svg" xmlns:xlink="http://www.w3.org/1999/xlink" width="141.651" height="138.06" viewBox="0 0 141.651 138.06">
  <defs>
    <clipPath id="clip-path">
      <rect id="Ret창ngulo_316" data-name="Ret창ngulo 316" width="141.651" height="138.06" fill="#fff"/>
    </clipPath>
  </defs>
  <g id="Grupo_231" data-name="Grupo 231" clip-path="url(#clip-path)">
    <path id="Caminho_642" data-name="Caminho 642" d="M108.334,573.2a6.6,6.6,0,0,0-3.707-2.117,3.765,3.765,0,0,0-3.31,1.145,3.652,3.652,0,0,0-1.134,1.981,3.431,3.431,0,0,0,.533,2.264l-.072.071a2.834,2.834,0,0,0-1.979-.4,3.514,3.514,0,0,0-1.955,1.034,3.027,3.027,0,0,0-.956,2.988,8.746,8.746,0,0,0,2.5,3.8l3.61,3.664,10.5-10.349Zm-7.122,9.482-.786-.8q-1.317-1.336-.433-2.207a1.23,1.23,0,0,1,1.077-.4,2.168,2.168,0,0,1,1.182.7l.842.855Zm3.958-3.9-.927-.941a2.3,2.3,0,0,1-.736-1.307,1.353,1.353,0,0,1,.454-1.148q1.12-1.1,2.43.225l.984,1Z" transform="translate(-77.672 -463.625)" fill="#fff"/>
    <path id="Caminho_643" data-name="Caminho 643" d="M55.366,492.236l-2.784.666-2.29-4.207,2.08-1.959-2.083-3.827L39.615,494.265l2.541,4.668,15.3-2.852Zm-10.7,2.683q-1.164.329-1.659.5.439-.354,1.412-1.245T46,492.7l1.822-1.715,1.5,2.755q-3.486.852-4.65,1.182" transform="translate(-32.163 -392.072)" fill="#fff"/>
    <path id="Caminho_644" data-name="Caminho 644" d="M23.889,411.664l-5.236,1.169-.22-.984,4.555-4.22L22,403.219l-5.334,5.592a4.354,4.354,0,0,0-4.413-1.577Q8,408.184,9.315,414.05l1.053,4.714,14.39-3.213Zm-11.447,2.556-.171-.768q-.446-2,1.04-2.33,1.8-.4,2.256,1.635l.163.729Z" transform="translate(-7.312 -327.372)" fill="#fff"/>
    <path id="Caminho_645" data-name="Caminho 645" d="M15,334.069a6.6,6.6,0,0,0-.954-4.161,3.766,3.766,0,0,0-3.085-1.659,3.653,3.653,0,0,0-2.226.508,3.433,3.433,0,0,0-1.305,1.926l-.1,0a2.834,2.834,0,0,0-1.047-1.727,3.515,3.515,0,0,0-2.085-.737,3.026,3.026,0,0,0-2.846,1.321,8.751,8.751,0,0,0-1.108,4.414L0,339.086l14.727.715Zm-9.1.114-.058,1.2L3.2,335.253l.054-1.118q.091-1.874,1.33-1.814a1.229,1.229,0,0,1,1.025.519,2.165,2.165,0,0,1,.288,1.341m6.014.09-.068,1.4-3.092-.15.064-1.32a2.294,2.294,0,0,1,.463-1.426,1.353,1.353,0,0,1,1.152-.444q1.572.076,1.481,1.94" transform="translate(0 -266.471)" fill="#fff"/>
    <path id="Caminho_646" data-name="Caminho 646" d="M29.763,252.256l-2.377-1.6,1.54-4.536,2.85.2,1.4-4.125-15.584-.146-1.708,5.033L28.356,256.4Zm-5.2-3.428q-2.99-1.984-4.022-2.616t-1.489-.884q.558.083,1.872.194t2.15.16l2.5.177Z" transform="translate(-12.895 -196.523)" fill="#fff"/>
    <path id="Caminho_647" data-name="Caminho 647" d="M91.232,99.962l-4.552-4.5q-1.068-1.057-3.145-2.815l.064-.064L93.268,97.9l2.667-2.695-5.441-9.57.064-.064q1.621,1.774,2.048,2.218t.785.8l4.594,4.547,2.575-2.6L90.081,80.165l-3.739,3.777,5.319,9.507-.057.058L82,88.329,78.27,92.1l10.479,10.371Z" transform="translate(-63.547 -65.086)" fill="#fff"/>
    <path id="Caminho_648" data-name="Caminho 648" d="M202.55,49.273l-.557-2.807,4.293-2.126,1.877,2.154,3.9-1.934-10.936-11.1-4.762,2.359,2.26,15.4ZM201.04,38.26q.853,1.007,1.41,1.631l1.643,1.887-2.81,1.392q-.717-3.516-1-4.692t-.431-1.677q.336.453,1.19,1.459" transform="translate(-159.431 -27.162)" fill="#fff"/>
    <rect id="Ret창ngulo_315" data-name="Ret창ngulo 315" width="4.004" height="14.744" transform="translate(52.072 2.657) rotate(-13.662)" fill="#fff"/>
    <path id="Caminho_649" data-name="Caminho 649" d="M334.648,6.435a3.9,3.9,0,0,0,1.13,1.364A9.4,9.4,0,0,0,338,8.973q1.623.645,2,.861a1.947,1.947,0,0,1,.554.435.871.871,0,0,1,.19.521.945.945,0,0,1-.378.809,2.192,2.192,0,0,1-1.286.365,8.822,8.822,0,0,1-2.271-.228,11.854,11.854,0,0,1-2.408-.808l.156,3.546a9.167,9.167,0,0,0,2.107.629,12.472,12.472,0,0,0,2.478.1,7.436,7.436,0,0,0,3.047-.725,4.555,4.555,0,0,0,1.932-1.74,4.35,4.35,0,0,0,.588-2.464,4,4,0,0,0-.85-2.441,6.735,6.735,0,0,0-2.725-1.722,17.09,17.09,0,0,1-2.488-1.142.974.974,0,0,1-.482-.756.824.824,0,0,1,.323-.691A1.86,1.86,0,0,1,339.6,3.2a8.845,8.845,0,0,1,3.608.79L344.29.862A11.441,11.441,0,0,0,339.579.01a6.535,6.535,0,0,0-4.02,1.318,3.781,3.781,0,0,0-1.341,3.239,4.692,4.692,0,0,0,.431,1.869" transform="translate(-271.346 0)" fill="#fff"/>
    <path id="Caminho_650" data-name="Caminho 650" d="M476.1,14.123l-4.207-1.474-4.416,6.414q-.352.518-.9,1.447t-.85,1.572a22.828,22.828,0,0,0,.5-3.5l.577-7.716-4.226-1.481-.335,15.505,4.426,1.55Z" transform="translate(-375.29 -7.62)" fill="#fff"/>
    <path id="Caminho_651" data-name="Caminho 651" d="M533.294,72.456a8.294,8.294,0,0,0,8.6,6.3,7.953,7.953,0,0,0,4.813-3.489,7.959,7.959,0,0,0,1.875-5.638,8.347,8.347,0,0,0-8.633-6.3,7.868,7.868,0,0,0-4.8,3.451,7.92,7.92,0,0,0-1.853,5.667m5.227-3.174q2.548-3.484,4.966-1.715a2.529,2.529,0,0,1,1.165,2.157,5.73,5.73,0,0,1-1.328,3.071,5.692,5.692,0,0,1-2.5,2.181,2.558,2.558,0,0,1-2.424-.486q-2.4-1.756.123-5.208" transform="translate(-432.942 -51.35)" fill="#fff"/>
    <path id="Caminho_652" data-name="Caminho 652" d="M600.79,142.582l2.529-1.988-3.509-4.463,9.061-7.125-2.462-3.131-11.59,9.113Z" transform="translate(-482.931 -102.197)" fill="#fff"/>
    <path id="Caminho_653" data-name="Caminho 653" d="M644.97,206.4a7.775,7.775,0,0,0,3.663,8.612,5.953,5.953,0,0,0,4.767-.223l8.184-3.433-1.541-3.673-7.96,3.34a3.754,3.754,0,0,1-2.328.381,2.521,2.521,0,0,1-1.347-3.224,3.541,3.541,0,0,1,1.866-1.417l7.979-3.348-1.549-3.692-8.267,3.469a5.841,5.841,0,0,0-3.466,3.209" transform="translate(-523.387 -162.154)" fill="#fff"/>
    <path id="Caminho_654" data-name="Caminho 654" d="M669.348,312.041l6.391-.409q1.5-.1,4.193-.48l.006.09-10.405,3.688.242,3.784,10.768,2.291.006.091q-2.4.032-3.018.057t-1.118.056l-6.451.413.234,3.653,14.714-.942-.34-5.3-10.639-2.34-.005-.081,10.25-3.738-.339-5.294-14.714.942Z" transform="translate(-543.259 -249.721)" fill="#fff"/>
    <path id="Caminho_655" data-name="Caminho 655" d="M667.818,429.442a7.921,7.921,0,0,0-5.958.228,8.3,8.3,0,0,0-2.93,10.254,9.7,9.7,0,0,0,10.88,3.108,8.347,8.347,0,0,0,2.911-10.28,7.867,7.867,0,0,0-4.9-3.31m2.163,8.092a2.529,2.529,0,0,1-1.62,1.84,7.542,7.542,0,0,1-6.254-1.77,2.557,2.557,0,0,1-.385-2.443q.815-2.861,4.927-1.69,4.151,1.182,3.331,4.063" transform="translate(-534.336 -348.291)" fill="#fff"/>
    <path id="Caminho_656" data-name="Caminho 656" d="M635.7,515.8a4.68,4.68,0,0,0-1.788-.694,3.9,3.9,0,0,0-1.763.169,9.4,9.4,0,0,0-2.217,1.174q-1.446.98-1.836,1.172a1.939,1.939,0,0,1-.671.214.871.871,0,0,1-.538-.136.946.946,0,0,1-.457-.767,2.2,2.2,0,0,1,.421-1.269,8.834,8.834,0,0,1,1.465-1.751,11.864,11.864,0,0,1,2.021-1.538l-3.021-1.863a9.172,9.172,0,0,0-1.7,1.39,12.459,12.459,0,0,0-1.473,1.995,7.438,7.438,0,0,0-1.112,2.928,4.558,4.558,0,0,0,.354,2.576,4.35,4.35,0,0,0,1.708,1.87,4,4,0,0,0,2.5.669,6.741,6.741,0,0,0,2.956-1.288,17.085,17.085,0,0,1,2.342-1.416.975.975,0,0,1,.9.025.823.823,0,0,1,.39.655,1.859,1.859,0,0,1-.361,1.1,8.844,8.844,0,0,1-2.68,2.541l1.978,2.653a11.434,11.434,0,0,0,3.352-3.419,6.533,6.533,0,0,0,1.168-4.066A3.777,3.777,0,0,0,635.7,515.8" transform="translate(-505.797 -414.483)" fill="#fff"/>
    <path id="Caminho_657" data-name="Caminho 657" d="M558.733,566.927l1.361,2.518-3.474,3.3-2.429-1.5-3.16,3,13.726,7.383,3.854-3.659-6.7-14.049Zm6.26,11.119q-.455-.333-1.567-1.043t-1.829-1.143l-2.127-1.318,2.274-2.16q1.723,3.148,2.342,4.188t.907,1.475" transform="translate(-447.381 -457.839)" fill="#fff"/>
    <path id="Caminho_658" data-name="Caminho 658" d="M243.521,643.541c-1.681,1.06-3.432,2.046-5.2,2.931a59.923,59.923,0,0,1-59.777-3.722,3.36,3.36,0,0,0-3.722,5.595,66.643,66.643,0,0,0,66.5,4.14c1.973-.984,3.921-2.081,5.79-3.26a3.36,3.36,0,1,0-3.585-5.684" transform="translate(-140.716 -521.39)" fill="#fff"/>
    <path id="Caminho_659" data-name="Caminho 659" d="M237.672,139.478c-3.879.941-7.68,2.159-10.583,5.049a12.091,12.091,0,0,1-3.828,2.6,18.206,18.206,0,0,0-10.743,19.966,81.338,81.338,0,0,0,2.652,9.181,1.714,1.714,0,0,1-.343,1.93,6.924,6.924,0,0,0-.11,9.008,2.97,2.97,0,0,1,.733,2.287A37.174,37.174,0,0,0,216.9,202.5c.4,1.312,1.194,1.889,2.231,1.624,1.057-.27,1.458-1.251,1.09-2.622-.239-.89-.488-1.781-.674-2.683a31.38,31.38,0,0,1-.6-8.99l1.355.112c.03.3.066.519.074.742.261,7.16,6.817,11.083,13.254,7.926,1.691-.83,3.386-1.653,5.054-2.527a1.976,1.976,0,0,1,2.216.056,4.62,4.62,0,0,0,5.083.028,1.914,1.914,0,0,1,2.184-.116c1.983,1.019,3.958,2.066,6,2.953a8.784,8.784,0,0,0,12.21-6.642c.134-.784.174-1.583.264-2.431h1.025a1.011,1.011,0,0,1,.1.234,5.761,5.761,0,0,1,.045.575,32.9,32.9,0,0,1-9.311,24.325c-4.118,4.374-9.407,6.859-14.764,9.236a1.305,1.305,0,0,1-.961-.073c-2.464-1.172-4.97-2.273-7.352-3.6a32.424,32.424,0,0,1-12-11.731,2.907,2.907,0,0,0-1.709-1.292,1.623,1.623,0,0,0-1.472,2.611c.768,1.253,1.594,2.471,2.434,3.707a27.561,27.561,0,0,0,3.232,3.927c.157.158.3.294.4.392,1.287,1.18,2.674,2.2,4.042,3.243,3.526,2.677,7.617,4.311,11.582,6.169a3.947,3.947,0,0,0,3.555-.308c2.614-1.3,5.334-2.426,7.831-3.924a52.621,52.621,0,0,0,4.437-3.355,37.578,37.578,0,0,0,13.545-30.294q-.012-.3-.029-.608a2.326,2.326,0,0,1,.6-1.485,7.1,7.1,0,0,0,.717-8.842,2.266,2.266,0,0,1-.319-2.12,31.1,31.1,0,0,0-1.334-21c-.541-1.272-1.41-1.755-2.392-1.377-1.054.406-1.374,1.4-.806,2.714a27.847,27.847,0,0,1,2.2,8.918,26.8,26.8,0,0,1-1.078,9.915l-2.32-.353c0-.5,0-.947,0-1.4-.021-7.829-5.469-13.259-13.319-13.267-5.7-.005-11.4.011-17.095-.014a12.7,12.7,0,0,1-2.861-.281,8.014,8.014,0,0,1-5.97-6.628,7.825,7.825,0,0,1,4.031-8.375,24.308,24.308,0,0,1,17.942-2.712c3.53.839,6.97,1.9,10.65,1.258.1-.017.215.057.323.089l-.305.113a10.106,10.106,0,0,0,.863,2.783,33.04,33.04,0,0,0,3,3.5,1.755,1.755,0,0,0,2.552.35,1.7,1.7,0,0,0,.106-2.558c-.7-.871-1.508-1.654-2.161-2.554a2.455,2.455,0,0,1-.473-1.521c.246-2.673-.759-3.8-3.453-3.709a29.5,29.5,0,0,1-5.409.133c-2.862-.448-5.661-1.3-8.486-1.977l-4.713-.076c-1.363.27-2.748.45-4.1.777m28.933,39.7a3.534,3.534,0,0,1,3.709,3.75,3.453,3.453,0,0,1-3.709,3.392Zm-46.314,7.143a3.451,3.451,0,0,1-3.673-3.393,3.53,3.53,0,0,1,3.673-3.75Zm.265-11.589c-.106,1.351-1.107.815-1.922,1.06-1.326-4.879-3.83-9.472-2.648-14.763a15.155,15.155,0,0,1,7.8-10.345c-.075,4.8.359,6.284,2.842,9.805-.486.721-.979,1.49-1.507,2.233a23.7,23.7,0,0,0-4.569,12.009m8.86-11.986a13.316,13.316,0,0,0,7.06,1.6c5.582-.026,11.165-.016,16.747-.006,5.946.011,9.849,3.9,9.857,9.822q.01,8.027,0,16.054c-.007,4.9-3.979,7.38-8.361,5.22-1.724-.85-3.448-1.7-5.163-2.569a4.73,4.73,0,0,0-5.132.216,1.507,1.507,0,0,1-1.905.005,4.728,4.728,0,0,0-5.131-.226c-1.819.919-3.636,1.842-5.473,2.724a5.4,5.4,0,0,1-8.054-5.013c-.03-4.466,0-8.932-.007-13.4,0-5.483,2.1-10.158,5.562-14.432" transform="translate(-172.299 -112.611)" fill="#fff"/>
    <path id="Caminho_660" data-name="Caminho 660" d="M327.307,472.695a10.082,10.082,0,0,1,5.994.014,4.342,4.342,0,0,0,5.237-2.07c.766-1.242,1.495-2.507,2.2-3.782,1.092-1.961.455-3.694-1.662-4.538a24.289,24.289,0,0,0-17.66.019,2.912,2.912,0,0,0-1.64,4.464q1.058,1.916,2.2,3.784a4.364,4.364,0,0,0,5.326,2.108m10.25-7.265c-.7,1.217-1.309,2.28-1.932,3.334a1.182,1.182,0,0,1-1.557.583,11.6,11.6,0,0,0-7.572,0,1.182,1.182,0,0,1-1.561-.57c-.623-1.054-1.23-2.117-1.928-3.324a20.768,20.768,0,0,1,14.551-.02" transform="translate(-259.225 -374.012)" fill="#fff"/>
  </g>
</svg>
