<svg xmlns="http://www.w3.org/2000/svg" xmlns:xlink="http://www.w3.org/1999/xlink" width="40" height="40" viewBox="0 0 40 40">
  <defs>
    <clipPath id="clip-path">
      <rect id="Retângulo_573" data-name="Retângulo 573" width="40" height="40" transform="translate(-0.435 -0.486)" fill="#13509f"/>
    </clipPath>
  </defs>
  <g id="Barba-Mais-Volumosa-Masculino" transform="translate(0.435 0.486)" clip-path="url(#clip-path)">
    <g id="Icone-Barba-Mais-Volumosa" transform="translate(1.851 2.945)">
      <path id="Caminho_1206" data-name="Caminho 1206" d="M5.088,19.038a3.621,3.621,0,0,0,.866-.194l.215-.065a6.538,6.538,0,0,0,3.314,1.853,16.3,16.3,0,0,0,3.811.45A19.65,19.65,0,0,0,19.7,19.942a1,1,0,0,1,.328-.062.9.9,0,0,1,.306.059,2.994,2.994,0,0,0,1.005.183,2.436,2.436,0,0,0,2.4-2.141,5.187,5.187,0,0,0-.212-2.68,7.118,7.118,0,0,0-1.741-2.579,10.683,10.683,0,0,0-4.413-3.088,2.994,2.994,0,0,0,.134-1.166,3.64,3.64,0,0,0-3.478-2.9,2.786,2.786,0,0,0-.494.043.876.876,0,0,0-.636.609.949.949,0,0,0,.3.764.736.736,0,0,0,.518.179,1.016,1.016,0,0,0,.164-.013,1.774,1.774,0,0,1,.266-.021,1.867,1.867,0,0,1,1.464.889,1.2,1.2,0,0,1,.343,1.014,1.13,1.13,0,0,1-.72.664,7.592,7.592,0,0,1-1.493.375c-.143.026-.284.051-.425.079-.732.144-.831.558-.786.882a.761.761,0,0,0,.824.691c.038,0,.075,0,.114,0a7.019,7.019,0,0,0,2.545-.625.7.7,0,0,1,.278-.068.22.22,0,0,1,.069.009c.107.034.215.066.324.1a6.675,6.675,0,0,1,1.4.543,11.426,11.426,0,0,1,3.492,3.255,3.412,3.412,0,0,1,.615,2.73c-.063.336-.258.9-.852.9a1.394,1.394,0,0,1-.589-.152,5.075,5.075,0,0,1-.854-.566c-.105-.08-.211-.161-.318-.237-.281-.2-.985-.661-1.605-1.065-.342-.223-.657-.428-.854-.559a2.148,2.148,0,0,0-.6-.317,10.268,10.268,0,0,0-4.112-.646,17.983,17.983,0,0,0-2.4.145,7.243,7.243,0,0,0-4.519,2.12.6.6,0,0,1-.451.209.8.8,0,0,1-.287-.058.627.627,0,0,1-.408-.663A6.862,6.862,0,0,1,4.886,14a4.642,4.642,0,0,1,3.34-2.948.5.5,0,0,1,.094-.009,2,2,0,0,1,.468.087l.059.016c.27.071.545.151.811.228.375.109.762.223,1.152.314a.87.87,0,0,0,.194.022.785.785,0,0,0,.04-1.564l-.093-.015c-.05-.009-.1-.017-.151-.024a4.175,4.175,0,0,1-2.493-1.25,2.181,2.181,0,0,1-.329-2.847c.1-.168.206-.336.31-.5.275-.444.56-.9.8-1.38.478-.957.9-1.931,1.334-2.926a.89.89,0,0,0,.015-.752.724.724,0,0,0-.482-.38A.993.993,0,0,0,9.709.04c-.254,0-.594.115-.769.66a4.314,4.314,0,0,1-.27.7q-.233.44-.464.883c-.5.963-1.025,1.959-1.58,2.909a3.769,3.769,0,0,0,.369,4.578,6.3,6.3,0,0,0-3.249,2.987q-.117-.228-.233-.455c-.38-.747-.739-1.453-1.123-2.164a5.878,5.878,0,0,1-.715-2.776c-.012-.848-.05-1.743-.117-2.74a1.091,1.091,0,0,0-.385-.766A.732.732,0,0,0,.749,3.71a.7.7,0,0,0-.5.22A.966.966,0,0,0,0,4.64c.014.394.031.789.049,1.183.025.557.05,1.134.064,1.7a7.085,7.085,0,0,0,.8,3.172c.617,1.185,1.261,2.457,1.968,3.889a.931.931,0,0,1,.055.446c-.016.234-.044.474-.072.706a9.8,9.8,0,0,0-.089,1.106,2.159,2.159,0,0,0,2.175,2.2c.045,0,.091,0,.137,0ZM16.11,17.177c.018.015.038.031.058.045.059.044.118.08.175.116s.108.068.153.1c.191.147.636.441,1.108.752.273.18.566.373.811.539a18.228,18.228,0,0,1-5.139.753l-.273,0a10.758,10.758,0,0,1-3.724-.563,4.776,4.776,0,0,1-1.923-1.2l.2-.105A8.261,8.261,0,0,1,8.65,17.11a14.012,14.012,0,0,1,4-.51,9.4,9.4,0,0,1,3.295.465l.17.111Z" transform="translate(0.005 -0.04)" fill="#fff"/>
      <path id="Caminho_1207" data-name="Caminho 1207" d="M69.8,11.627,69.8,10.481a6.45,6.45,0,0,0-1.727-4.4,1.121,1.121,0,0,0-.747-.346.562.562,0,0,0-.178.027,1.009,1.009,0,0,0-.542.816,14.755,14.755,0,0,1-2.178,6.773,28.871,28.871,0,0,1-4.775,5.706,2.677,2.677,0,0,0-.89,2.078c.008.385,0,.776,0,1.154a.8.8,0,0,0,.758.924c.023,0,.045,0,.066,0,.365,0,.739-.28.751-.9,0-.154,0-.309-.006-.458a3.954,3.954,0,0,1,.024-.779,1.688,1.688,0,0,1,.335-.8c.506-.574,1.036-1.145,1.55-1.7.56-.6,1.139-1.225,1.69-1.857a17.206,17.206,0,0,0,3.694-6.827c.1-.371.184-.741.268-1.128a5.947,5.947,0,0,1,.347,2.113c0,.473,0,.944-.006,1.416-.007,1.418-.016,2.883.013,4.327a16.949,16.949,0,0,1-.777,6.091c-.009.024-.016.047-.022.07-.078.2-.155.4-.233.6-.294.758-.6,1.54-.921,2.3a20.373,20.373,0,0,1-3.1,4.976l-.169.226a12.2,12.2,0,0,1-4.106,3.575c-.108.056-.216.109-.326.163a8.083,8.083,0,0,0-.931.511,7.546,7.546,0,0,0,.32-.686,6.889,6.889,0,0,0,.347-1.352l.011-.058a.835.835,0,0,0-.136-.666.773.773,0,0,0-.565-.3.932.932,0,0,0-.093,0,.765.765,0,0,0-.766.792,3.3,3.3,0,0,1-.134.681A6.034,6.034,0,0,1,51.388,37.6c-1.039.027-2.164.04-3.437.04s-2.685-.014-3.994-.027L43.34,37.6a1.5,1.5,0,0,1-1.524-1.48c-.043-.525-.074-1.054-.1-1.553-.044-.75-.523-.863-.8-.863H40.89a.721.721,0,0,0-.534.225,1,1,0,0,0-.214.766c.007.119.015.238.022.36a2.327,2.327,0,0,1-.559-1.572q-.008-.551-.014-1.1c-.017-1.413-.035-2.875-.085-4.313a26.541,26.541,0,0,0-.261-2.7,1.1,1.1,0,0,0-.585-.719.4.4,0,0,0-.186-.044.983.983,0,0,0-.641.343.944.944,0,0,0-.124.675c.027.315.06.633.093.941.058.538.117,1.094.135,1.636.04,1.189.056,2.4.072,3.571.007.571.015,1.142.026,1.712a3.828,3.828,0,0,0,2.23,3.575.417.417,0,0,1,.164.135,3.208,3.208,0,0,0,3.17,1.993h7.3a7.617,7.617,0,0,0,6.381-3.413.779.779,0,0,0-.009.185.769.769,0,0,0,.35.5c.039.031.078.063.1.087l.138.14.184-.069.171-.061a2.566,2.566,0,0,0,.245-.1,13.672,13.672,0,0,0,5.532-4.3c.327-.451.575-.76.814-1.058.31-.385.6-.749,1.013-1.356a12.668,12.668,0,0,0,1.211-2.01c.364-.789.647-1.489.92-2.165.231-.572.471-1.165.763-1.823a18.438,18.438,0,0,0,1.011-4.232c.108-2.628.092-5.3.076-7.889Z" transform="translate(-33.659 -5.129)" fill="#fff"/>
      <path id="Caminho_1208" data-name="Caminho 1208" d="M112.494,71.624l.093.052a2.372,2.372,0,0,0,.525.24.464.464,0,0,0,.124.016.592.592,0,0,0,.43-.175.523.523,0,0,0-.033-.608l-.051-.048c-.242-.228-.572-.54-.9-.54a.485.485,0,0,0-.368.168.553.553,0,0,0-.037.706.889.889,0,0,0,.217.189Z" transform="translate(-99.147 -62.703)" fill="#fff"/>
    </g>
  </g>
</svg>
