<svg id="Grupo_52" data-name="Grupo 52" xmlns="http://www.w3.org/2000/svg" xmlns:xlink="http://www.w3.org/1999/xlink" width="18.902" height="18.901" viewBox="0 0 18.902 18.901">
  <defs>
    <clipPath id="clip-path">
      <rect id="Retângulo_24" data-name="Retângulo 24" width="18.902" height="18.901" fill="#3b3b3b"/>
    </clipPath>
  </defs>
  <g id="Grupo_51" data-name="Grupo 51" clip-path="url(#clip-path)">
    <path id="Caminho_310" data-name="Caminho 310" d="M18.9,8.968c-.062.355-.112.712-.188,1.064a7.107,7.107,0,0,1-.621,1.726.737.737,0,0,1-1.333-.631A7.333,7.333,0,0,0,17.329,9.4a5.81,5.81,0,0,0-.584-3.77,7.563,7.563,0,0,0-4.75-3.783A8.747,8.747,0,0,0,9.065,1.5a8.472,8.472,0,0,0-3.325.791A6.98,6.98,0,0,0,1.657,7.012a5.9,5.9,0,0,0,.855,4.77,8.281,8.281,0,0,0,.577.764.832.832,0,0,1,.137.939c-.338.776-.661,1.558-.989,2.338-.025.059-.045.121-.083.22.1-.037.161-.058.22-.083.989-.417,1.98-.829,2.965-1.255a1.022,1.022,0,0,1,.834-.021,8.778,8.778,0,0,0,3.588.6.772.772,0,0,1,.85.555.72.72,0,0,1-.562.9A6.5,6.5,0,0,1,9,16.776a10.434,10.434,0,0,1-3.1-.6.391.391,0,0,0-.257.021q-2.266.949-4.528,1.907a.746.746,0,0,1-1.09-.459A.816.816,0,0,1,.1,17.073c.514-1.221,1.027-2.442,1.549-3.66a.3.3,0,0,0-.043-.346,7.612,7.612,0,0,1-1.312-2.6A7.275,7.275,0,0,1,.034,7.755,8.116,8.116,0,0,1,3.88,1.623,9.855,9.855,0,0,1,8.058.084C8.3.05,8.545.028,8.788,0h1.329c.285.036.571.068.855.109a9.663,9.663,0,0,1,5.417,2.6,7.874,7.874,0,0,1,2.37,4.254c.056.287.1.577.144.865Z" transform="translate(0)" fill="#3b3b3b"/>
    <path id="Caminho_311" data-name="Caminho 311" d="M224.639,224.131a5.057,5.057,0,0,1-.278.772,2.2,2.2,0,0,1-3.517.486c-1.346-1.316-2.671-2.653-4-3.989a1.076,1.076,0,0,1-.248-.422c-.288-.912-.559-1.828-.84-2.742a.76.76,0,0,1,.978-1c.933.261,1.868.511,2.8.783a1.151,1.151,0,0,1,.467.274q1.983,1.958,3.95,3.932a2.193,2.193,0,0,1,.656,1.249.251.251,0,0,0,.031.065Zm-7.09-5.122c.137.452.258.869.392,1.281a.723.723,0,0,0,.168.274c.618.624,1.242,1.243,1.863,1.864.243.243.483.489.71.719l1.04-1.038a.21.21,0,0,0-.025-.034q-1.3-1.3-2.6-2.59a.268.268,0,0,0-.1-.075c-.47-.133-.942-.262-1.45-.4m4.238,5.223a.765.765,0,0,0,.861.3.7.7,0,0,0,.5-.619.767.767,0,0,0-.334-.71l-1.03,1.031" transform="translate(-205.737 -207.154)" fill="#3b3b3b"/>
    <path id="Caminho_313" data-name="Caminho 313" d="M116.608,161.3a.738.738,0,1,1-.742.729.73.73,0,0,1,.742-.729" transform="translate(-110.511 -153.841)" fill="#3b3b3b"/>
    <path id="Caminho_314" data-name="Caminho 314" d="M189.216,162.041a.738.738,0,1,1-.728-.743.73.73,0,0,1,.728.743" transform="translate(-179.062 -153.842)" fill="#3b3b3b"/>
    <path id="Caminho_315" data-name="Caminho 315" d="M260.353,161.3a.738.738,0,1,1-.739.732.73.73,0,0,1,.739-.732" transform="translate(-247.615 -153.841)" fill="#3b3b3b"/>
  </g>
</svg>
