<svg xmlns="http://www.w3.org/2000/svg" xmlns:xlink="http://www.w3.org/1999/xlink" width="61" height="61" viewBox="0 0 61 61">
  <defs>
    <clipPath id="clip-path">
      <rect id="Ret창ngulo_583" data-name="Ret창ngulo 583" width="61" height="61" transform="translate(1089 1239)" fill="none" stroke="#707070" stroke-width="1"/>
    </clipPath>
    <clipPath id="clip-path-2">
      <rect id="Ret창ngulo_492" data-name="Ret창ngulo 492" width="42.333" height="54.936" fill="#fff"/>
    </clipPath>
  </defs>
  <g id="cacheado" transform="translate(-1089 -1239)" clip-path="url(#clip-path)">
    <g id="Grupo_316" data-name="Grupo 316" transform="translate(1098 1242.333)">
      <g id="Grupo_315" data-name="Grupo 315" clip-path="url(#clip-path-2)">
        <path id="Caminho_506" data-name="Caminho 506" d="M22.034,0a7.957,7.957,0,0,1,2.8,1.484,2.085,2.085,0,0,0,2.33.069,3.919,3.919,0,0,1,3.167-.2,3.81,3.81,0,0,1,2.538,2.938A3.661,3.661,0,0,0,35.2,7.027c.214.087.439.145.657.222A3.779,3.779,0,0,1,38.5,10.33a3.124,3.124,0,0,1-.412,2.22,2.863,2.863,0,0,0,.983,4.04,4.5,4.5,0,0,1,1.794,5.32c-.153.494-.3.991-.476,1.475a2.914,2.914,0,0,0,.557,3.094,5.811,5.811,0,0,1,1.255,2.63A6.217,6.217,0,0,1,41.186,34c-.89,1.308-.855,1.93.038,3.257a5.377,5.377,0,0,1,.654,1.447.859.859,0,0,1-.6,1.093.944.944,0,0,1-1.158-.61,6.679,6.679,0,0,0-.627-1.166,4.012,4.012,0,0,1-.1-4.708,7.652,7.652,0,0,0,.97-2,3.963,3.963,0,0,0-.855-3.665,4.7,4.7,0,0,1-.857-4.859c.162-.453.291-.917.433-1.376a2.747,2.747,0,0,0-1.146-3.369A4.752,4.752,0,0,1,35.84,14.93a4.006,4.006,0,0,1,.475-2.945A1.968,1.968,0,0,0,35.058,8.93a5.248,5.248,0,0,1-3.946-4.1A2.25,2.25,0,0,0,27.77,3.292a3.827,3.827,0,0,1-4.4-.566,3.13,3.13,0,0,0-4.4.01,3.872,3.872,0,0,1-4.452.533,2.224,2.224,0,0,0-3.264,1.52A5.291,5.291,0,0,1,7.28,8.936a1.982,1.982,0,0,0-1.269,3.016,4.485,4.485,0,0,1-1.479,6,2.84,2.84,0,0,0-1.414,2.213A4.882,4.882,0,0,0,3.3,21.473c.219.915.557,1.81.7,2.735A4.146,4.146,0,0,1,3,27.444a4.354,4.354,0,0,0-.188,5.665,3.966,3.966,0,0,1-.1,5.092,2.123,2.123,0,0,0,.121,2.921c.445.519.471,1.047.071,1.422-.426.4-.949.332-1.451-.189a3.98,3.98,0,0,1-.375-5.068c.97-1.385.978-1.948.05-3.335A6.144,6.144,0,0,1,1.41,26.48a3.039,3.039,0,0,0,.558-3.1,12.253,12.253,0,0,1-.705-2.569,4.389,4.389,0,0,1,1.794-4.076c.223-.179.469-.329.685-.515a2.57,2.57,0,0,0,.651-3.377A3.805,3.805,0,0,1,6.751,7.157,3.682,3.682,0,0,0,9.49,4.294a3.908,3.908,0,0,1,5.744-2.715A2.254,2.254,0,0,0,17.907,1.2,6.3,6.3,0,0,1,20.317,0Z" transform="translate(-0.001)" fill="#fff"/>
        <path id="Caminho_507" data-name="Caminho 507" d="M47.222,90.315c-2.44-.267-3.706-1.323-4.83-4.007a3.783,3.783,0,0,0-.361.174A31.2,31.2,0,0,1,30,90.856a.937.937,0,1,1-.306-1.832,29.448,29.448,0,0,0,12.767-5.05.928.928,0,0,1,1.566.728,4.954,4.954,0,0,0,.739,2.32,3.307,3.307,0,0,0,3.055,1.431c.934-.036,1.23.225,1.231,1.165,0,2.182.029,4.364-.014,6.544a12.231,12.231,0,0,1-9.718,11.61,12.472,12.472,0,0,1-5.865-.207,12.977,12.977,0,0,1-.6,1.832,9.252,9.252,0,0,1-1.1,1.629c-.266.335-.306.577.046.849,1.654,1.278,3.306,2.56,5.006,3.877.66-.508,1.305-1.037,1.989-1.513a1.229,1.229,0,0,1,.863-.276,1.183,1.183,0,0,1,.71.679,1.038,1.038,0,0,1-.278.888c-.88.755-1.813,1.451-2.743,2.147a.926.926,0,0,1-1.225-.107c-1.2-.936-2.4-1.861-3.6-2.788-.138-.107-.283-.205-.505-.367.227,1.5.436,2.906.653,4.309q.507,3.279,1.021,6.556a2.942,2.942,0,0,1,.03.374.892.892,0,0,1-.816,1,.916.916,0,0,1-1.012-.822c-.33-2.1-.648-4.2-.972-6.293-.367-2.378-.734-4.756-1.093-7.077-1.193.133-2.371.181-3.515.407a7.547,7.547,0,0,0-6.2,7.591c-.014,1.556,0,3.111,0,4.667,0,.143,0,.286,0,.429-.018.729-.354,1.115-.952,1.1-.561-.016-.9-.421-.9-1.1q-.005-2.6,0-5.2a9.451,9.451,0,0,1,9.305-9.457,3.9,3.9,0,0,0,3.974-3.577.578.578,0,0,0-.347-.673,12.122,12.122,0,0,1-6.565-9.58,22.579,22.579,0,0,1-.057-2.786q-.01-2.387,0-4.774c0-.683.352-1.075.921-1.071s.913.406.914,1.083c0,2.038,0,4.077,0,6.115A10.39,10.39,0,0,0,47,97.725a23.088,23.088,0,0,0,.212-3.307c.034-1.356.008-2.713.008-4.1" transform="translate(-15.638 -71.727)" fill="#fff"/>
        <path id="Caminho_508" data-name="Caminho 508" d="M173.22,261.092c-.648,4.231-1.3,8.5-1.955,12.762-.03.194-.064.387-.1.581a.933.933,0,0,1-1.048.844.86.86,0,0,1-.776-1.029c.176-1.362.394-2.718.6-4.076.48-3.138.947-6.279,1.464-9.411a1.41,1.41,0,0,0-.432-1.464,2.548,2.548,0,0,1-.541-.79.823.823,0,0,1,.332-1.119.86.86,0,0,1,1.131.091,1.9,1.9,0,0,1,.269.332,3.746,3.746,0,0,0,3.236,1.69,9.445,9.445,0,0,1,9.239,7.793,9.781,9.781,0,0,1,.144,1.652c.018,1.752.01,3.5.005,5.257,0,.67-.358,1.076-.924,1.078s-.9-.372-.926-1.07c0-.143,0-.286,0-.429,0-1.556.012-3.111,0-4.667a7.576,7.576,0,0,0-5.651-7.5,10.525,10.525,0,0,0-1.474-.255c-.844-.1-1.692-.178-2.592-.27" transform="translate(-145.061 -220.35)" fill="#fff"/>
      </g>
    </g>
  </g>
</svg>
