<svg xmlns="http://www.w3.org/2000/svg" width="22.377" height="19.632" viewBox="0 0 22.377 19.632">
  <g id="CART" transform="translate(-0.039 0)">
    <path id="Caminho_1168" data-name="Caminho 1168" d="M22.416,3.448c-.159.526-.324,1.05-.476,1.578Q20.867,8.761,19.8,12.5a.686.686,0,0,1-.787.592q-5.506,0-11.013-.006a.409.409,0,0,0-.441.272A.673.673,0,0,0,8.22,14.4H18.993a1.335,1.335,0,0,1,.282.017.651.651,0,0,1-.143,1.289c-.692.006-1.384,0-2.076,0-.062,0-.125.005-.217.009A2.015,2.015,0,0,1,18.47,17.9a1.968,1.968,0,0,1-3.905.023,2.014,2.014,0,0,1,1.63-2.2H10.276a2.071,2.071,0,0,1,1.268.857,1.923,1.923,0,0,1,.293,1.519,1.967,1.967,0,0,1-3.871-.178,2.031,2.031,0,0,1,1.649-2.208H8.2A1.952,1.952,0,0,1,6.388,12.8a1.123,1.123,0,0,0,.081-.9Q4.963,6.7,3.484,1.5c-.016-.055-.036-.11-.061-.188H3.105c-.728,0-1.458-.016-2.185.006A.829.829,0,0,1,.04.829V.48A.747.747,0,0,1,.743,0C1.785.006,2.826,0,3.868,0a.655.655,0,0,1,.694.513c.087.284.163.572.245.858q.179.622.361,1.245h.286q8.052,0,16.1-.006a.829.829,0,0,1,.859.486v.349Zm-3.771,8.326,2.243-7.836H5.543l2.243,7.836H18.644Zm-8.075,5.9a.655.655,0,1,0-.653.65A.662.662,0,0,0,10.57,17.674Zm5.948.65a.654.654,0,1,0-.657-.645.662.662,0,0,0,.657.645Z" transform="translate(0 0)" fill="#fff"/>
  </g>
</svg>
