<svg xmlns="http://www.w3.org/2000/svg" xmlns:xlink="http://www.w3.org/1999/xlink" width="57" height="59" viewBox="0 0 57 59">
  <defs>
    <clipPath id="clip-path">
      <rect id="Retângulo_241" data-name="Retângulo 241" width="57" height="59" transform="translate(-860 3466)" fill="none" stroke="#707070" stroke-width="1"/>
    </clipPath>
    <clipPath id="clip-path-2">
      <rect id="Retângulo_182" data-name="Retângulo 182" width="48.957" height="34.32" fill="#ff6978"/>
    </clipPath>
  </defs>
  <g id="FRETE_GRÁTIS" data-name="FRETE GRÁTIS" transform="translate(860 -3466)" clip-path="url(#clip-path)">
    <g id="Grupo_77" data-name="Grupo 77" transform="translate(-856 3478)">
      <g id="Grupo_76" data-name="Grupo 76" clip-path="url(#clip-path-2)">
        <path id="Caminho_495" data-name="Caminho 495" d="M16.122,0q5.521,0,11.043,0a5.293,5.293,0,0,1,2.654.525,4.537,4.537,0,0,1,2.431,4.132,7.722,7.722,0,0,1,0,.861c-.026.307.077.4.391.4,1.37-.016,2.741.015,4.111-.012a4.629,4.629,0,0,1,4.578,2.8c.8,1.614,1.642,3.2,2.454,4.812a1,1,0,0,0,.554.5c.976.4,1.951.812,2.909,1.256a2.705,2.705,0,0,1,1.714,2.615c0,2.545,0,5.09,0,7.636A2.757,2.757,0,0,1,46.137,28.4c-.313.008-.628.018-.939,0-.3-.02-.4.062-.414.384A5.612,5.612,0,0,1,40.967,34a5.674,5.674,0,0,1-7.283-3.8,5.084,5.084,0,0,1-.215-1.465c.008-.263-.092-.331-.342-.328-1,.012-2.01,0-3.015,0H15.193c-.669,0-.537-.034-.555.537A5.737,5.737,0,0,1,9.492,34.3a5.689,5.689,0,0,1-6.161-5.478c-.008-.318-.093-.414-.421-.416A2.733,2.733,0,0,1,0,25.486Q0,15.09,0,4.694A4.5,4.5,0,0,1,3.294.177,5.263,5.263,0,0,1,4.844,0q5.639-.009,11.278,0m.015,17.833q6.736,0,13.472.008c.343,0,.437-.086.436-.434-.012-4.242-.032-8.485,0-12.727a2.4,2.4,0,0,0-2.482-2.471c-7.636.024-15.273.011-22.91.013a2.755,2.755,0,0,0-.776.069,2.339,2.339,0,0,0-1.689,2.4c0,4.229,0,8.459-.011,12.688,0,.395.122.462.484.461q6.736-.019,13.472-.008m0,2.192H7.207c-1.553,0-3.106,0-4.659,0-.214,0-.367,0-.365.3.013,1.761.008,3.523.007,5.285a.554.554,0,0,0,.193.491c.411.291.885.142,1.332.157.264.009.293-.268.389-.438a5.3,5.3,0,0,1,2.56-2.329,5.605,5.605,0,0,1,7.274,2.448.555.555,0,0,0,.548.334q7.595-.013,15.19,0c.318,0,.395-.1.393-.4-.013-1.775-.006-3.549-.006-5.324,0-.516,0-.517-.5-.517H16.133m21.559-4.258c-1.671,0-3.342.01-5.013-.008-.349,0-.438.1-.436.44.013,2.937.005,5.874.01,8.812,0,.389-.164.892.065,1.136.251.268.768.043,1.163.1a.748.748,0,0,0,.824-.468,5.308,5.308,0,0,1,4.309-2.75,5.476,5.476,0,0,1,5.5,2.94.481.481,0,0,0,.5.278c.456-.015.914,0,1.371,0,.628,0,.793-.161.794-.783,0-2.467-.006-4.935.007-7.4a.833.833,0,0,0-.573-.868c-.972-.413-1.937-.844-2.9-1.278a1.6,1.6,0,0,0-.68-.144c-1.645,0-3.29,0-4.935,0m-.92-2.187h4.11c.5,0,.5-.006.281-.434-.622-1.205-1.25-2.407-1.869-3.614a2.438,2.438,0,0,0-2.328-1.423c-1.448,0-2.9.007-4.345-.006-.29,0-.38.08-.378.375q.02,2.368,0,4.736c0,.3.092.376.379.373,1.383-.013,2.766-.006,4.149-.006m5.84,15.1a3.475,3.475,0,1,0-3.478,3.451,3.491,3.491,0,0,0,3.478-3.451M5.539,28.652a3.46,3.46,0,1,0,6.92.012,3.46,3.46,0,1,0-6.92-.012" transform="translate(0 0.001)" fill="#ff6978"/>
      </g>
    </g>
  </g>
</svg>
