<?xml version="1.0" encoding="utf-8"?>
<!-- Generator: Adobe Illustrator 27.0.0, SVG Export Plug-In . SVG Version: 6.00 Build 0)  -->
<svg version="1.1" id="Camada_1" xmlns="http://www.w3.org/2000/svg" xmlns:xlink="http://www.w3.org/1999/xlink" x="0px" y="0px"
	 viewBox="0 0 58 58" style="enable-background:new 0 0 58 58;" xml:space="preserve">
<style type="text/css">
	.st0{fill:none;}
	.st1{fill:#FF4289;}
	.st2{enable-background:new    ;}
</style>
<g id="ICONE-8x" transform="translate(-375 -807)">
	<g id="Ellipse_6" transform="translate(375 807)">
		<circle class="st0" cx="29" cy="29" r="29"/>
		<path class="st1" d="M29,58C13,58,0,45,0,29C0,13,13,0,29,0c16,0,29,13,29,29C58,45,45,58,29,58z M29,2C14.1,2,2,14.1,2,29
			s12.1,27,27,27s27-12.1,27-27S43.9,2,29,2z"/>
	</g>
	<g id="Camada_1_00000023282799746113631920000014953078308628706988_" transform="translate(385 820)">
		<g id="Group_339" transform="translate(-0.001 0)">
			<path id="Path_1108" class="st1" d="M7.8,18c1.1,0,2.1,0,3.2,0c0.6,0,1,0.3,1,0.9c0,0.5-0.4,0.8-1,0.8c-2.2,0-4.4,0-6.6,0
				c-0.4,0-0.8-0.2-0.9-0.6c-0.1-0.3,0-0.7,0.3-1C4,18.1,4.2,18,4.4,18C5.5,18,6.6,18,7.8,18L7.8,18z"/>
			<path id="Path_1109" class="st1" d="M6,15.4c-0.5,0-1.1,0-1.6,0s-0.9-0.3-1-0.8c0,0,0,0,0-0.1c0-0.5,0.4-0.9,0.9-0.9h0.1
				c1.1,0,2.1,0,3.2,0c0.5-0.1,0.9,0.3,1,0.7v0.1c0,0.5-0.4,0.9-1,0.9C7,15.4,6.5,15.4,6,15.4z"/>
			<path id="Path_1113" class="st1" d="M36,13.9c0-2.9,0-7.1,0-9.9c0-0.6-0.1-1.1-0.4-1.7C35,0.9,33.4-0.1,31.8,0
				C22.6,0,13.4,0,4.2,0C4.1,0,4,0,3.8,0C1.8,0.1,0.1,1.7,0,3.8c0,0.9,0,1.9,0,2.8c0,4.3,0,8.7,0,13c0,0.3,0,0.7,0.1,1
				c0.3,2,2,3.4,4,3.3c3.9,0,7.8,0,11.7,0c2,6,8.4,9.2,14.4,7.2s9.2-8.4,7.2-14.4C37.1,15.8,36.6,14.8,36,13.9L36,13.9z M1.9,3
				c0.4-0.8,1.3-1.4,2.2-1.3c5.3,0,10.5,0,15.8,0h11.8c1.3-0.1,2.4,0.8,2.5,2.1c0,0.1,0,0.2,0,0.4c0,0.3,0,0.6,0,1H1.7
				C1.6,4.4,1.7,3.7,1.9,3L1.9,3z M4.2,22.3c-1.3,0.1-2.4-0.8-2.5-2.1c0-0.2,0-0.3,0-0.5V6.9h32.5v0.5c0,1.3,0,3.1,0,4.6
				c-4.7-4.2-11.9-3.9-16.1,0.8c-2.3,2.6-3.4,6.1-2.8,9.5H4.2L4.2,22.3z M26.6,30.3c-5.5,0-9.9-4.4-9.9-9.9s4.4-9.9,9.9-9.9
				s9.9,4.4,9.9,9.9l0,0C36.5,25.9,32.1,30.3,26.6,30.3L26.6,30.3z"/>
			<g class="st2">
				<path class="st1" d="M23.2,15.6c1,0,1.7,0.2,2.3,0.6c0.5,0.4,0.8,1,0.8,1.7c0,0.5-0.1,0.9-0.4,1.3s-0.7,0.7-1.2,1
					c0.7,0.4,1.2,0.8,1.5,1.2c0.3,0.4,0.4,0.8,0.4,1.3c0,0.8-0.3,1.5-0.9,1.9c-0.6,0.5-1.4,0.7-2.5,0.7s-1.9-0.2-2.5-0.7
					c-0.6-0.4-0.9-1.1-0.9-1.9c0-0.5,0.1-1,0.4-1.4s0.7-0.7,1.3-1c-0.5-0.3-0.8-0.7-1.1-1.1s-0.3-0.8-0.3-1.2c0-0.7,0.3-1.3,0.8-1.7
					C21.4,15.8,22.2,15.6,23.2,15.6z M22.1,22.5c0,0.3,0.1,0.5,0.3,0.6c0.2,0.2,0.4,0.2,0.8,0.2c0.7,0,1.1-0.3,1.1-0.8
					c0-0.2-0.1-0.4-0.2-0.6c-0.2-0.2-0.5-0.4-0.9-0.7c-0.4,0.2-0.6,0.4-0.8,0.6S22.1,22.2,22.1,22.5z M23.2,17.4
					c-0.2,0-0.4,0.1-0.5,0.2s-0.2,0.3-0.2,0.5c0,0.4,0.2,0.7,0.7,1c0.3-0.2,0.5-0.3,0.6-0.5c0.1-0.1,0.2-0.3,0.2-0.5
					s-0.1-0.4-0.2-0.5C23.6,17.5,23.4,17.4,23.2,17.4z"/>
				<path class="st1" d="M28.8,21.3l-2.2-3.5h2.8l1.1,2l1.1-2h2.8l-2.3,3.5l2.3,3.7h-2.8l-1.2-2.2L29.3,25h-2.8L28.8,21.3z"/>
			</g>
		</g>
	</g>
</g>
</svg>
