<svg id="emal" xmlns="http://www.w3.org/2000/svg" xmlns:xlink="http://www.w3.org/1999/xlink" width="154.194" height="150.667" viewBox="0 0 154.194 150.667">
  <defs>
    <clipPath id="clip-path">
      <rect id="Retângulo_186" data-name="Retângulo 186" width="154.194" height="150.667" fill="none"/>
    </clipPath>
  </defs>
  <g id="Grupo_91" data-name="Grupo 91" clip-path="url(#clip-path)">
    <path id="Caminho_504" data-name="Caminho 504" d="M154.194,225.184V318.9a5.22,5.22,0,0,1-5.22,5.22H5.22A5.228,5.228,0,0,1,0,318.9V225.184Z" transform="translate(0 -173.45)" fill="#ff85c3"/>
    <path id="Caminho_505" data-name="Caminho 505" d="M154.191,51.734l-10.17,7.173L77.1,106.106,11.189,59.624,0,51.734l11.189-7.679L51.053,16.688,73.939.979a5.58,5.58,0,0,1,6.313,0l22.886,15.709L144.02,44.754Z" fill="#f9f8f2"/>
    <path id="Caminho_506" data-name="Caminho 506" d="M181.533,86.748v28.109L136.1,146.9,114.61,162.056,48.7,115.574V72.638H155.987Z" transform="translate(-37.512 -55.95)" fill="#f2f2f2"/>
    <path id="Caminho_507" data-name="Caminho 507" d="M137.122,289.52l-1.022,1.334-21.492,15.157L48.7,259.529,114.014,301.1Z" transform="translate(-37.512 -199.904)" fill="#e2d6e7"/>
    <path id="Caminho_508" data-name="Caminho 508" d="M535.806,83.751,525.75,87.73l-3.312,1.312-6.75-16.4Z" transform="translate(-397.213 -55.95)" fill="#fcd4e4"/>
    <path id="Caminho_509" data-name="Caminho 509" d="M541.234,86.748l-11.92,6.327-3.563-5.345L515.688,72.638l20.118,11.113Z" transform="translate(-397.214 -55.95)" fill="#ffe8f1"/>
    <path id="Caminho_510" data-name="Caminho 510" d="M276.944,168.4a24.922,24.922,0,1,1-24.922-24.922A24.922,24.922,0,0,1,276.944,168.4" transform="translate(-174.926 -110.518)" fill="#ffe8f1"/>
    <path id="Caminho_511" data-name="Caminho 511" d="M294.112,195.783a11.157,11.157,0,0,1-1.736,6.6,5.551,5.551,0,0,1-4.775,2.431,5.177,5.177,0,0,1-4.862-3.169,6.887,6.887,0,0,1-6.077,3.169,7.958,7.958,0,0,1-6.034-2.518,9.548,9.548,0,0,1,0-12.632,7.789,7.789,0,0,1,5.86-2.561,7.038,7.038,0,0,1,5.556,2.561h.174v-1.953h3.126v10.809q0,3.474,2.561,3.473,3.082,0,3.082-6.208a13.783,13.783,0,1,0-13.717,13.631,12,12,0,0,0,5.513-1.216L284,211.15a16.38,16.38,0,0,1-6.728,1.389,17.284,17.284,0,0,1-8.6-2.214,16.671,16.671,0,0,1-6.164-6.121,17.431,17.431,0,0,1-1.693-4.124,17.047,17.047,0,0,1-.021-8.617,16.1,16.1,0,0,1,1.671-4.059,16.512,16.512,0,0,1,2.713-3.516,15.927,15.927,0,0,1,3.516-2.626,18.435,18.435,0,0,1,4.1-1.65,17.085,17.085,0,0,1,4.471-.586,16.727,16.727,0,0,1,8.465,2.214,15.947,15.947,0,0,1,6.121,6.121,16.4,16.4,0,0,1,2.257,8.421m-22.4.174a6.188,6.188,0,0,0,.391,2.236,5.094,5.094,0,0,0,2.778,2.909,5.47,5.47,0,0,0,4.167,0,5.32,5.32,0,0,0,1.672-1.129,4.9,4.9,0,0,0,1.107-1.736,6.786,6.786,0,0,0,0-4.537,4.865,4.865,0,0,0-1.107-1.758,5.332,5.332,0,0,0-1.672-1.129,5.247,5.247,0,0,0-5.838,1.15,5.121,5.121,0,0,0-1.107,1.758,6.193,6.193,0,0,0-.391,2.236" transform="translate(-200.462 -137.897)" fill="#ff85c3"/>
  </g>
</svg>
