<svg id="LINHAS_DE_EXPRESSÃO" data-name="LINHAS DE EXPRESSÃO" xmlns="http://www.w3.org/2000/svg" xmlns:xlink="http://www.w3.org/1999/xlink" width="136" height="137.805" viewBox="0 0 136 137.805">
  <defs>
    <clipPath id="clip-path">
      <rect id="Retângulo_318" data-name="Retângulo 318" width="136" height="137.805" fill="#fff"/>
    </clipPath>
  </defs>
  <g id="Grupo_233" data-name="Grupo 233" clip-path="url(#clip-path)">
    <path id="Caminho_661" data-name="Caminho 661" d="M9.7,285.326l5.116,1.017-.755,3.8L0,287.346l.916-4.606q1.139-5.731,5.293-4.9a4.232,4.232,0,0,1,3.3,3.136l6.939-2.878L15.6,282.4l-5.708,1.964Zm-2.856-.568.142-.712q.4-1.99-1.364-2.34-1.452-.289-1.84,1.663l-.149.75Z" transform="translate(0 -226.945)" fill="#fff"/>
    <path id="Caminho_662" data-name="Caminho 662" d="M42.1,197.879l-3.666,7.679L25.5,199.384l3.666-7.679,2.8,1.339-2,4.185,2.035.972,1.85-3.875,2.8,1.339-1.85,3.875,2.442,1.166,2-4.185Z" transform="translate(-20.838 -156.649)" fill="#fff"/>
    <path id="Caminho_663" data-name="Caminho 663" d="M79.749,122.552a7.4,7.4,0,0,1,2.938,5.084,7.587,7.587,0,0,1-2.113,5.49l-3,3.536-10.929-9.273,3.209-3.782a7.485,7.485,0,0,1,4.793-2.921,6.661,6.661,0,0,1,5.1,1.867m-2.5,3.154a4.555,4.555,0,0,0-2.732-1.3,2.883,2.883,0,0,0-2.257,1.19l-.729.86,6.122,5.195.558-.658a3.123,3.123,0,0,0,.893-2.636,4.949,4.949,0,0,0-1.855-2.654" transform="translate(-54.458 -98.589)" fill="#fff"/>
    <path id="Caminho_664" data-name="Caminho 664" d="M151.867,42.537l4.689,7.241a5.788,5.788,0,0,1,1.031,4.524,7.559,7.559,0,0,1-7.612,4.982,5.68,5.68,0,0,1-3.665-2.766L141.572,49.2l3.267-2.116,4.572,7.061a3.447,3.447,0,0,0,1.676,1.543,2.451,2.451,0,0,0,2.854-1.842,3.648,3.648,0,0,0-.764-2.163l-4.561-7.044Z" transform="translate(-115.684 -34.759)" fill="#fff"/>
    <path id="Caminho_665" data-name="Caminho 665" d="M248.573,22.271l-10.661,3.32-.711-2.284,3.3-10.26-5.785,1.8-.93-2.986,10.371-3.23.708,2.275-3.3,10.269,6.075-1.892Z" transform="translate(-191.039 -7.054)" fill="#fff"/>
    <path id="Caminho_666" data-name="Caminho 666" d="M369.293,14.3,370.188,0l3.865.242-.7,11.184,5.509.345-.2,3.121Z" transform="translate(-301.763 0.001)" fill="#fff"/>
    <rect id="Retângulo_317" data-name="Retângulo 317" width="14.333" height="3.892" transform="matrix(0.258, -0.966, 0.966, 0.258, 80.427, 15.794)" fill="#fff"/>
    <path id="Caminho_667" data-name="Caminho 667" d="M495.314,48.032l-4.451-2.445.274-11.371-.077-.043q-.984,2.178-1.588,3.278l-3.111,5.662-3.007-1.652,6.9-12.562,4.434,2.436-.225,11.241.051.028q.923-1.965,1.556-3.116l3.12-5.68,3.024,1.662Z" transform="translate(-394.967 -23.615)" fill="#fff"/>
    <path id="Caminho_668" data-name="Caminho 668" d="M574.56,112.767l-2.669-2.832,4.253-4.007-3.086-3.275-4.253,4.007-2.669-2.833L576.567,94l2.669,2.833-3.867,3.644,3.086,3.275,3.867-3.644,2.669,2.833Z" transform="translate(-462.612 -76.809)" fill="#fff"/>
    <path id="Caminho_669" data-name="Caminho 669" d="M625.759,207.069l2.088-1.831-2.079-4.167-2.728.55-1.9-3.807,14.966-2.241,2.306,4.623L627.65,210.858Zm4.572-3.968,1.83-1.6q.605-.543,1.582-1.375t1.415-1.161q-.487.144-1.629.424t-4.558.987Z" transform="translate(-507.559 -159.81)" fill="#fff"/>
    <path id="Caminho_670" data-name="Caminho 670" d="M666.831,290a4.228,4.228,0,0,1-2.455-.192,4.431,4.431,0,0,1-1.964-1.592,7.235,7.235,0,0,1-1.157-2.816,12.11,12.11,0,0,1-.281-2.394,8.91,8.91,0,0,1,.285-2.119l3.382-.686a11.524,11.524,0,0,0-.411,2.434,8.58,8.58,0,0,0,.124,2.216,2.13,2.13,0,0,0,.545,1.18.919.919,0,0,0,.834.241.847.847,0,0,0,.472-.261,1.888,1.888,0,0,0,.334-.6q.15-.4.524-2.052a9.144,9.144,0,0,1,.793-2.306A3.789,3.789,0,0,1,669,279.765a4.554,4.554,0,0,1,1.729-.7,3.674,3.674,0,0,1,3.313.8,6.352,6.352,0,0,1,1.873,3.661,11.114,11.114,0,0,1-.106,4.653l-3.166-.568a8.6,8.6,0,0,0,.213-3.584,1.809,1.809,0,0,0-.478-1.023.8.8,0,0,0-.712-.206.949.949,0,0,0-.653.578,16.614,16.614,0,0,0-.721,2.562,6.546,6.546,0,0,1-1.242,2.878A3.886,3.886,0,0,1,666.831,290" transform="translate(-540.109 -227.958)" fill="#fff"/>
    <path id="Caminho_671" data-name="Caminho 671" d="M16.462,461.336a7.351,7.351,0,0,1-5.829.02,7.533,7.533,0,0,1-3.685-4.531l-1.563-4.33,13.383-4.832,1.672,4.632a7.428,7.428,0,0,1,.149,5.57,6.611,6.611,0,0,1-4.127,3.472m-1.483-3.707a4.522,4.522,0,0,0,2.465-1.712,2.862,2.862,0,0,0,.09-2.531l-.38-1.053-7.5,2.707.291.806a3.1,3.1,0,0,0,1.829,2.071,4.91,4.91,0,0,0,3.2-.287" transform="translate(-4.4 -365.803)" fill="#fff"/>
    <path id="Caminho_672" data-name="Caminho 672" d="M50.554,539.658l-4.719-7.007,11.8-7.948,4.719,7.007L59.8,533.433l-2.571-3.818-1.857,1.25L57.75,534.4l-2.559,1.723-2.381-3.536-2.228,1.5,2.571,3.818Z" transform="translate(-37.454 -428.755)" fill="#fff"/>
    <path id="Caminho_673" data-name="Caminho 673" d="M133.3,618.046l-6.74-5.092,8.577-11.353,6.74,5.092-1.86,2.461-3.673-2.775L135,608.166l3.4,2.57-1.86,2.461-3.4-2.57-1.619,2.143,3.673,2.775Z" transform="translate(-103.417 -491.591)" fill="#fff"/>
    <path id="Caminho_674" data-name="Caminho 674" d="M199.956,654.788l-4.09-1.748-.8-5.18-4.271,3.012-4-1.709,7.2-4.84-1.351-8.134,3.92,1.675.634,5.055,4-3.074,4.036,1.725-6.992,4.9Z" transform="translate(-152.634 -519.856)" fill="#fff"/>
    <path id="Caminho_675" data-name="Caminho 675" d="M301.733,673.939a4.765,4.765,0,0,1-1.924,3.442,5.673,5.673,0,0,1-4.141.708l-1.069-.156-.682,4.67-3.8-.555,2.056-14.079,4.873.711a6.022,6.022,0,0,1,3.836,1.75,4.2,4.2,0,0,1,.855,3.508m-6.681.893.693.1a1.915,1.915,0,0,0,1.433-.282,1.766,1.766,0,0,0,.7-1.255q.208-1.425-1.371-1.656l-.982-.143Z" transform="translate(-237.063 -545.824)" fill="#fff"/>
    <path id="Caminho_676" data-name="Caminho 676" d="M377.961,682.369l.525,5.151-3.824.39-1.444-14.155,4.638-.473q5.771-.588,6.2,3.594a4.2,4.2,0,0,1-2.013,4.05l4.754,5.747-4.337.443-3.527-4.845Zm-.293-2.876.716-.073q2-.2,1.823-1.976-.149-1.462-2.115-1.262l-.755.077Z" transform="translate(-304.971 -550.106)" fill="#fff"/>
    <path id="Caminho_677" data-name="Caminho 677" d="M462.535,663.237l-7.969,2.8-4.719-13.423,7.969-2.8,1.023,2.91-4.343,1.527.742,2.112,4.021-1.414,1.023,2.911-4.021,1.414.891,2.534,4.343-1.527Z" transform="translate(-367.587 -530.988)" fill="#fff"/>
    <path id="Caminho_678" data-name="Caminho 678" d="M526.944,626.435a4.2,4.2,0,0,1,.675,2.349,4.4,4.4,0,0,1-.8,2.379,7.178,7.178,0,0,1-2.216,2.056,12.028,12.028,0,0,1-2.128,1.094,8.854,8.854,0,0,1-2.069.472l-1.815-2.906a11.41,11.41,0,0,0,2.406-.464,8.514,8.514,0,0,0,2.017-.886,2.117,2.117,0,0,0,.908-.917.912.912,0,0,0-.066-.859.841.841,0,0,0-.407-.348,1.869,1.869,0,0,0-.672-.1q-.42,0-2.09.227a9.088,9.088,0,0,1-2.42.066,3.765,3.765,0,0,1-1.6-.609,4.521,4.521,0,0,1-1.249-1.366,3.647,3.647,0,0,1-.411-3.358,6.306,6.306,0,0,1,2.752-3.016,11.031,11.031,0,0,1,4.363-1.52l.574,3.141a8.536,8.536,0,0,0-3.406,1.049,1.8,1.8,0,0,0-.785.8.8.8,0,0,0,.057.733.941.941,0,0,0,.764.406,16.512,16.512,0,0,0,2.633-.221,6.506,6.506,0,0,1,3.108.153,3.859,3.859,0,0,1,1.872,1.648" transform="translate(-420.643 -505.584)" fill="#fff"/>
    <path id="Caminho_679" data-name="Caminho 679" d="M584.008,578.229a4.2,4.2,0,0,1,1.178,2.142,4.4,4.4,0,0,1-.251,2.5,7.179,7.179,0,0,1-1.707,2.494,12.008,12.008,0,0,1-1.834,1.537,8.841,8.841,0,0,1-1.914.918l-2.412-2.433a11.433,11.433,0,0,0,2.244-.985,8.524,8.524,0,0,0,1.771-1.31,2.117,2.117,0,0,0,.683-1.095.913.913,0,0,0-.255-.824.841.841,0,0,0-.474-.25,1.865,1.865,0,0,0-.678.049q-.41.091-1.988.683a9.082,9.082,0,0,1-2.346.6,3.76,3.76,0,0,1-1.692-.241,4.522,4.522,0,0,1-1.52-1.056,3.647,3.647,0,0,1-1.142-3.184,6.306,6.306,0,0,1,2.018-3.549,11.035,11.035,0,0,1,3.919-2.447l1.254,2.937a8.536,8.536,0,0,0-3.091,1.776,1.794,1.794,0,0,0-.589.954.8.8,0,0,0,.217.7.942.942,0,0,0,.835.227,16.5,16.5,0,0,0,2.519-.8,6.5,6.5,0,0,1,3.065-.537,3.857,3.857,0,0,1,2.19,1.193" transform="translate(-467.105 -467.219)" fill="#fff"/>
    <path id="Caminho_680" data-name="Caminho 680" d="M604.978,501.6a2.806,2.806,0,0,1-.58.679q-.354.3-.725.58t-.7.547a2.25,2.25,0,0,0-.52.579q-.271.45.455,1.093l-.9,1.5a4.815,4.815,0,0,1-1.792-1.9,2.031,2.031,0,0,1,.209-1.92,2.4,2.4,0,0,1,.532-.6q.341-.283.712-.559t.712-.559a2.4,2.4,0,0,0,.532-.6.515.515,0,0,0,.023-.509,1.91,1.91,0,0,0-.478-.584l.915-1.517a4.764,4.764,0,0,1,1.749,1.9,1.953,1.953,0,0,1-.135,1.873m13.791,6.852-2.645-.777-2.388,3.959,1.912,1.994-2.182,3.617-9.836-11.354,2.649-4.392,14.662,3.354Zm-5.758-1.723-2.317-.682q-.777-.218-1.994-.594t-1.725-.569q.38.331,1.222,1.14t3.251,3.3Z" transform="translate(-490.327 -406.796)" fill="#fff"/>
    <path id="Caminho_681" data-name="Caminho 681" d="M666.415,423.312a7.674,7.674,0,0,1,4.834,3.089,8,8,0,0,1-2.62,9.953,9.222,9.222,0,0,1-10.542-2.754,8.055,8.055,0,0,1,2.6-9.978,7.681,7.681,0,0,1,5.726-.309m-2.483,9.471q3.992,1.046,4.72-1.731a2.468,2.468,0,0,0-.42-2.349,7.279,7.279,0,0,0-6.07-1.582,2.44,2.44,0,0,0-1.526,1.808q-.733,2.8,3.3,3.853" transform="translate(-537.067 -345.586)" fill="#fff"/>
    <path id="Caminho_682" data-name="Caminho 682" d="M329.535,476.057a23.173,23.173,0,0,1-13.409.087,1.522,1.522,0,1,0-.866,2.919,26.218,26.218,0,0,0,15.18-.1,1.522,1.522,0,1,0-.9-2.907" transform="translate(-256.72 -388.948)" fill="#fff"/>
    <path id="Caminho_683" data-name="Caminho 683" d="M496.822,479.734a5.589,5.589,0,0,1-2.59-2.588,1,1,0,0,0-.795-.646.926.926,0,0,0-.749.6,5.431,5.431,0,0,1-2.765,2.7.767.767,0,0,0-.48.713.917.917,0,0,0,.607.831,4.994,4.994,0,0,1,2.578,2.53c.22.429.523.685.809.685s.6-.265.829-.71a5.523,5.523,0,0,1,2.537-2.518c.422-.215.674-.518.674-.812s-.24-.578-.656-.788m-1.459,1.255a3.139,3.139,0,0,0-1.444,1.434c-.128.252-.305.4-.472.4s-.335-.146-.461-.39a2.847,2.847,0,0,0-1.467-1.44.519.519,0,0,1-.345-.473.435.435,0,0,1,.273-.406,3.086,3.086,0,0,0,1.573-1.538.528.528,0,0,1,.427-.341.568.568,0,0,1,.452.367,3.181,3.181,0,0,0,1.475,1.474c.236.119.372.283.372.449s-.143.34-.384.462" transform="translate(-399.943 -389.368)" fill="#fff"/>
    <path id="Caminho_684" data-name="Caminho 684" d="M525.621,462.112A2.407,2.407,0,0,1,524.506,461a.43.43,0,0,0-.342-.278.4.4,0,0,0-.323.259,2.339,2.339,0,0,1-1.19,1.163.331.331,0,0,0-.206.307.4.4,0,0,0,.261.358,2.151,2.151,0,0,1,1.11,1.089c.095.185.225.295.348.295s.26-.114.357-.306a2.378,2.378,0,0,1,1.092-1.084c.182-.092.29-.223.29-.35s-.1-.249-.282-.339m-.628.54a1.351,1.351,0,0,0-.622.617c-.055.108-.131.174-.2.174s-.144-.063-.2-.168a1.224,1.224,0,0,0-.631-.62.224.224,0,0,1-.148-.2.187.187,0,0,1,.117-.175,1.328,1.328,0,0,0,.677-.662.227.227,0,0,1,.184-.147.244.244,0,0,1,.195.158,1.369,1.369,0,0,0,.635.634c.1.052.16.122.16.193s-.061.147-.165.2" transform="translate(-426.909 -376.472)" fill="#fff"/>
    <path id="Caminho_685" data-name="Caminho 685" d="M260.556,234.211c.076-1.739.036-3.484.019-5.225a6.768,6.768,0,0,0-1.727-4.435,1.305,1.305,0,0,1-.279-.786c0-4.2.02-8.41.03-12.614a7.454,7.454,0,0,0-1.078-4.035,7.546,7.546,0,0,0-6.387-3.767c-.709-.033-1.195-.185-1.265-1.041-.376-4.615-3.5-7.477-8.151-7.482-6.488-.008-12.977-.032-19.465.021a20.8,20.8,0,0,0-4.369.5,17.667,17.667,0,0,0-13.516,18.073c.062.892.531,1.41,1.3,1.433.8.024,1.334-.508,1.39-1.435.043-.719.031-1.441.074-2.161.421-6.961,6.295-13.242,13.254-13.549,7.345-.324,14.713-.187,22.07-.133a4.838,4.838,0,0,1,4.707,4.4c.284,2.962,1.124,3.806,4.06,4.081a4.849,4.849,0,0,1,4.645,4.837c.077,4.084.032,8.17.024,12.255a2.349,2.349,0,0,1-1.728,2.368q-1.611.569-3.226,1.13c-1.354.47-1.682.237-1.692-1.185-.018-2.612.073-5.232-.089-7.835a7.8,7.8,0,0,0-6.358-7.019,12.916,12.916,0,0,0-5.508.46,40.556,40.556,0,0,1-5.129.823c-2.709.275-5.284-.5-7.884-1.137-5.867-1.427-10.555,2.289-10.564,8.307,0,2.223.018,4.446.006,6.668-.006,1.077-.4,1.338-1.424.993q-1.706-.572-3.4-1.171a2.4,2.4,0,0,1-1.817-2.489c-.027-.991.012-1.983-.017-2.973-.027-.953-.523-1.5-1.311-1.519-.827-.021-1.359.542-1.375,1.537-.018,1.171.04,2.343.007,3.513a1.812,1.812,0,0,1-.346,1.023,6.632,6.632,0,0,0-1.623,4.108c-.031,1.891-.074,3.787.017,5.675a6.609,6.609,0,0,0,5.348,6.2c.488.106.988.155,1.485.23a20.534,20.534,0,0,0,3.329,9.75,22.781,22.781,0,0,0,33.151,5.066,1.334,1.334,0,0,0,.383-1.967,1.365,1.365,0,0,0-1.994-.191c-.173.119-.334.255-.5.381a20.078,20.078,0,0,1-28.01-3.665,18.4,18.4,0,0,1-3.727-10.528c-.072-1.242-.512-1.619-1.765-1.633-.27,0-.541,0-.811,0a4.005,4.005,0,0,1-4.217-4.084c-.046-1.591-.069-3.187.01-4.774a15.467,15.467,0,0,1,.529-2.464c2.1,1.594,4.39,2.083,6.578,2.762a3.283,3.283,0,0,0,3.958-2.173,6.162,6.162,0,0,0,.244-1.857c.046-2.582-.054-5.171.108-7.744a4.869,4.869,0,0,1,4.449-4.485,21.677,21.677,0,0,1,4.25.525c1.863.27,3.715.653,5.587.822a22.473,22.473,0,0,0,8.157-1.132c4.675-1.321,7.844,1.735,7.6,5.894-.123,2.126-.042,4.264-.027,6.4.021,2.932,2.232,4.529,4.99,3.529,1.922-.7,4-1.051,5.744-2.529a8.035,8.035,0,0,1,.528,1.828c.061,1.979.111,3.966,0,5.941a3.876,3.876,0,0,1-3.71,3.528c-.479.026-.961,0-1.441.018-1.025.032-1.446.443-1.58,1.454a23.607,23.607,0,0,1-.628,4.081,53.621,53.621,0,0,1-2.231,5.376,1.41,1.41,0,0,0,.2,1.8,1.212,1.212,0,0,0,1.647.1,2.581,2.581,0,0,0,.618-.757,21.788,21.788,0,0,0,3.021-9.3c.211-.032.327-.057.444-.066a6.67,6.67,0,0,0,6.4-6.545" transform="translate(-165.368 -159.189)" fill="#fff"/>
  </g>
</svg>
