<svg id="liso" xmlns="http://www.w3.org/2000/svg" xmlns:xlink="http://www.w3.org/1999/xlink" width="35.633" height="52.686" viewBox="0 0 35.633 52.686">
  <defs>
    <clipPath id="clip-path">
      <rect id="Retângulo_488" data-name="Retângulo 488" width="35.633" height="52.686" fill="#fff"/>
    </clipPath>
  </defs>
  <g id="Grupo_309" data-name="Grupo 309" clip-path="url(#clip-path)">
    <path id="Caminho_502" data-name="Caminho 502" d="M21.842,0a21.336,21.336,0,0,1,2.627.645,11.593,11.593,0,0,1,7.871,9.776,9.41,9.41,0,0,1,.093,1.331q.008,11.78,0,23.561c0,.764-.332,1.155-.948,1.116a.789.789,0,0,1-.8-.725,4.4,4.4,0,0,1-.023-.667q0-11.5,0-22.995a9.957,9.957,0,0,0-6.459-9.585A10.205,10.205,0,0,0,21.064,1.8a69.348,69.348,0,0,0-6.938.056A9.861,9.861,0,0,0,5.388,9.513a12.149,12.149,0,0,0-.271,2.495q-.029,12.938-.012,25.875v.545c.21-.075.363-.123.51-.183a8.94,8.94,0,0,1,3.4-.69,3.7,3.7,0,0,0,3.759-3.421.553.553,0,0,0-.333-.645,11.594,11.594,0,0,1-6.184-8.425,14.336,14.336,0,0,1-.159-2.25.882.882,0,0,1,.875-.989.919.919,0,0,1,.878,1,10.1,10.1,0,0,0,2.1,6.316,9.494,9.494,0,0,0,10.093,3.614,9.428,9.428,0,0,0,7.547-7.835,26.256,26.256,0,0,0,.222-4.3c.028-.874.016-1.749-.006-2.623a.547.547,0,0,0-.243-.417,9.805,9.805,0,0,1-4.676-3.943.661.661,0,0,0-.108-.094c-.193.21-.384.424-.582.632a23.29,23.29,0,0,1-12.152,6.855,1.608,1.608,0,0,1-.8-.005.789.789,0,0,1-.55-.841A.878.878,0,0,1,9.4,19.35c1.084-.307,2.19-.554,3.247-.936a20.889,20.889,0,0,0,9.308-6.693c.1-.12.191-.242.293-.358a.916.916,0,0,1,1.612.229,15.687,15.687,0,0,0,1.517,2.36,7.052,7.052,0,0,0,3.285,2.114c.8.269.914.424.913,1.256,0,2.041.024,4.082-.017,6.121a11.73,11.73,0,0,1-9.275,11.12,12.011,12.011,0,0,1-5.71-.181,5.27,5.27,0,0,1-.305,1.179,19.613,19.613,0,0,1-1.291,2.131c-.232.334-.29.561.051.814.1.072.188.149.283.222l4.517,3.495c.632-.487,1.252-1,1.907-1.452a1.174,1.174,0,0,1,.827-.262,1.134,1.134,0,0,1,.679.652,1,1,0,0,1-.269.851c-.844.724-1.739,1.392-2.631,2.059a.89.89,0,0,1-1.174-.107c-1.147-.9-2.3-1.784-3.457-2.674-.132-.1-.269-.2-.483-.351.253,1.664.488,3.233.73,4.8q.434,2.814.876,5.628a2.721,2.721,0,0,1,.027.359.854.854,0,0,1-.792.953.88.88,0,0,1-.963-.8c-.35-2.248-.69-4.5-1.037-6.745-.315-2.044-.635-4.086-.943-6.072-1.163.133-2.314.172-3.423.408a7.228,7.228,0,0,0-5.887,7.276c-.014,1.543,0,3.087,0,4.63a4.259,4.259,0,0,1-.019.513.84.84,0,0,1-.854.788.823.823,0,0,1-.884-.759c.066-2.511-.3-5.042.271-7.531A8.487,8.487,0,0,1,2.963,39.96a1.063,1.063,0,0,0,.369-.886q-.011-13.581,0-27.162A11.79,11.79,0,0,1,12.125.389c.589-.162,1.2-.261,1.795-.389Z" transform="translate(0)" fill="#fff"/>
    <path id="Caminho_503" data-name="Caminho 503" d="M155.032,260.97c-.238,1.527-.49,3.128-.737,4.73q-.622,4.032-1.241,8.064a.885.885,0,0,1-1,.808.824.824,0,0,1-.743-.988c.2-1.526.443-3.046.678-4.568.456-2.958.923-5.915,1.367-8.875a.867.867,0,0,0-.185-.535c-.23-.339-.524-.635-.743-.98a.858.858,0,0,1,.245-1.216.848.848,0,0,1,1.187.212,4.316,4.316,0,0,0,3.88,1.857,8.99,8.99,0,0,1,8.175,7.139,12.339,12.339,0,0,1,.2,2.09c.029,1.594.011,3.189.008,4.784,0,.687-.331,1.082-.889,1.084s-.878-.365-.887-1.079c-.023-1.92.024-3.843-.073-5.759a7.224,7.224,0,0,0-6.2-6.442c-1-.1-2-.213-3.039-.324" transform="translate(-130.499 -221.892)" fill="#fff"/>
  </g>
</svg>
