<svg xmlns="http://www.w3.org/2000/svg" xmlns:xlink="http://www.w3.org/1999/xlink" width="97" height="96" viewBox="0 0 97 96">
  <defs>
    <clipPath id="clip-path">
      <rect id="Ret창ngulo_259" data-name="Ret창ngulo 259" width="97" height="96" transform="translate(-0.408 0.309)" fill="#ff4289"/>
    </clipPath>
  </defs>
  <g id="n찾o_testamos_em_animais" data-name="n찾o testamos em animais" transform="translate(0.408 -0.309)">
    <g id="Grupo_224" data-name="Grupo 224" transform="translate(0)" clip-path="url(#clip-path)">
      <path id="Caminho_712" data-name="Caminho 712" d="M48.457,0A48.457,48.457,0,1,0,96.914,48.456,48.457,48.457,0,0,0,48.457,0m0,93.917a45.46,45.46,0,1,1,45.461-45.46,45.461,45.461,0,0,1-45.461,45.46" transform="translate(-0.117 0.001)" fill="#ff4289"/>
      <path id="Caminho_713" data-name="Caminho 713" d="M122.168,99.276h7.158c.479-1.235.982-2.7,1.607-4.115,2.342-5.3,5.293-10.173,9.858-13.9a9.614,9.614,0,0,1,4.774-2.3c3.255-.437,5.806,1.937,6.18,5.6.477,4.673-.834,8.991-2.586,13.21a41.125,41.125,0,0,1-7.185,11.637,1.622,1.622,0,0,0-.216,1.175c.241,1.61.529,3.214.852,4.809a2.894,2.894,0,0,0,.57,1.358,13.987,13.987,0,0,1-16.7,22,1.77,1.77,0,0,0-1.388-.022,13.982,13.982,0,0,1-20.512-10.452,13.548,13.548,0,0,1,3.587-11.339,3.9,3.9,0,0,0,.76-1.726c.336-1.517.611-3.05.824-4.589a1.893,1.893,0,0,0-.306-1.341,41.479,41.479,0,0,1-9.553-19.993,13.084,13.084,0,0,1,.321-6.516,5.19,5.19,0,0,1,7.1-3.46c3.294,1.187,5.584,3.649,7.678,6.3a43.047,43.047,0,0,1,6.882,12.822c.1.281.192.563.3.84.023.061.089.107,0,0m3.611,29.948c.486-.615.747-.98,1.044-1.313a12.74,12.74,0,0,1,.95-.948,2.289,2.289,0,0,1,3.3-.073,2.244,2.244,0,0,1-.123,3.289c-.821.865-1.693,1.681-2.52,2.54-.781.811-.631,1.6.372,2.114a9.468,9.468,0,0,0,12.616-3.927,9.2,9.2,0,0,0-1.914-11.314,3.735,3.735,0,0,1-1.442-3.4,8.733,8.733,0,0,0-.171-2.214c-1.059-6.526-6.66-10.76-13.537-10.249-5.981.444-10.979,5.995-10.886,12.257a4.56,4.56,0,0,1-1.623,3.771,9.214,9.214,0,0,0-1.078,12.2,9.466,9.466,0,0,0,11.869,2.919c1.131-.576,1.264-1.35.37-2.26-.809-.825-1.653-1.617-2.447-2.455a2.26,2.26,0,1,1,3.2-3.178c.64.615,1.194,1.321,2.012,2.239m-13.631-23.655,5.81-4.865c-.785-1.85-1.549-3.908-2.513-5.867-1.921-3.9-4.261-7.537-7.795-10.207a11.428,11.428,0,0,0-2.677-1.113,10.361,10.361,0,0,0-.707,2.812c.274,7.384,3.688,13.5,7.882,19.24M139.3,105.5a.231.231,0,0,0,.109-.074,36.716,36.716,0,0,0,7.578-15.958,21.738,21.738,0,0,0,.065-5.082c-.043-.924-.721-1.19-1.524-.745a12.62,12.62,0,0,0-2.333,1.509c-4.806,4.3-7.586,9.82-9.54,15.618L139.3,105.5" transform="translate(-77.396 -61.21)" fill="#ff4289"/>
      <path id="Caminho_714" data-name="Caminho 714" d="M186.681,253.358a2.273,2.273,0,1,1-.06-4.544,2.273,2.273,0,0,1,.06,4.544" transform="translate(-143.109 -192.998)" fill="#ff4289"/>
      <path id="Caminho_715" data-name="Caminho 715" d="M228.556,248.812a2.273,2.273,0,0,1,.053,4.545,2.273,2.273,0,1,1-.053-4.545" transform="translate(-175.634 -192.997)" fill="#ff4289"/>
    </g>
  </g>
</svg>
