<svg xmlns="http://www.w3.org/2000/svg" xmlns:xlink="http://www.w3.org/1999/xlink" width="70" height="70" viewBox="0 0 70 70">
  <defs>
    <clipPath id="clip-path">
      <rect id="Ret창ngulo_259" data-name="Ret창ngulo 259" width="70" height="70" transform="translate(0.085)"/>
    </clipPath>
  </defs>
  <g id="n찾o_testamos_em_animais" data-name="n찾o testamos em animais" transform="translate(-0.085)">
    <g id="Grupo_224" data-name="Grupo 224" clip-path="url(#clip-path)">
      <path id="Caminho_712" data-name="Caminho 712" d="M35.139,0A35.139,35.139,0,1,0,70.278,35.138,35.139,35.139,0,0,0,35.139,0m0,68.105A32.966,32.966,0,1,1,68.105,35.138,32.966,32.966,0,0,1,35.139,68.1" transform="translate(0 0.001)"/>
      <path id="Caminho_713" data-name="Caminho 713" d="M115.973,93.679h5.191c.347-.9.712-1.959,1.166-2.984a26.149,26.149,0,0,1,7.149-10.077,6.972,6.972,0,0,1,3.462-1.668c2.36-.317,4.21,1.4,4.481,4.058a19.565,19.565,0,0,1-1.875,9.58,29.822,29.822,0,0,1-5.211,8.439,1.176,1.176,0,0,0-.157.852c.175,1.167.383,2.33.618,3.487a2.1,2.1,0,0,0,.413.984A10.143,10.143,0,0,1,119.1,122.306a1.283,1.283,0,0,0-1.007-.016,10.139,10.139,0,0,1-14.875-7.579,9.824,9.824,0,0,1,2.6-8.222,2.83,2.83,0,0,0,.551-1.252c.243-1.1.443-2.212.6-3.327a1.373,1.373,0,0,0-.222-.973,30.079,30.079,0,0,1-6.927-14.5,9.488,9.488,0,0,1,.232-4.725A3.764,3.764,0,0,1,105.2,79.2a12.871,12.871,0,0,1,5.568,4.565,31.216,31.216,0,0,1,4.99,9.3c.07.2.139.408.216.609.017.045.064.077,0,0m2.619,21.717c.352-.446.542-.711.757-.952a9.24,9.24,0,0,1,.689-.687,1.66,1.66,0,0,1,2.4-.053,1.627,1.627,0,0,1-.089,2.385c-.6.627-1.228,1.219-1.827,1.842-.566.588-.457,1.158.27,1.533a6.866,6.866,0,0,0,9.149-2.848,6.67,6.67,0,0,0-1.388-8.2,2.708,2.708,0,0,1-1.046-2.463,6.333,6.333,0,0,0-.124-1.605,8.912,8.912,0,0,0-17.71,1.456,3.307,3.307,0,0,1-1.177,2.735,6.682,6.682,0,0,0-.781,8.845,6.865,6.865,0,0,0,8.607,2.117c.82-.417.916-.979.269-1.639-.587-.6-1.2-1.172-1.775-1.78a1.639,1.639,0,1,1,2.322-2.3c.464.446.866.958,1.459,1.623m-9.885-17.154,4.213-3.528c-.57-1.342-1.123-2.834-1.822-4.255a19.908,19.908,0,0,0-5.653-7.4,8.287,8.287,0,0,0-1.941-.807,7.514,7.514,0,0,0-.513,2.039c.2,5.355,2.674,9.786,5.716,13.952m19.69-.054a.167.167,0,0,0,.079-.054,26.625,26.625,0,0,0,5.5-11.572,15.763,15.763,0,0,0,.048-3.686c-.031-.67-.523-.863-1.1-.541a9.152,9.152,0,0,0-1.691,1.094A25.609,25.609,0,0,0,124.3,94.757l4.093,3.432" transform="translate(-83.422 -66.075)"/>
      <path id="Caminho_714" data-name="Caminho 714" d="M186.039,252.109a1.648,1.648,0,1,1-.044-3.3,1.648,1.648,0,0,1,.044,3.3" transform="translate(-154.358 -208.339)"/>
      <path id="Caminho_715" data-name="Caminho 715" d="M227.93,248.812a1.648,1.648,0,0,1,.038,3.3,1.648,1.648,0,1,1-.038-3.3" transform="translate(-189.469 -208.337)"/>
    </g>
  </g>
</svg>
