<svg xmlns="http://www.w3.org/2000/svg" xmlns:xlink="http://www.w3.org/1999/xlink" width="80" height="80" viewBox="0 0 80 80">
  <defs>
    <clipPath id="clip-path">
      <rect id="Retângulo_380" data-name="Retângulo 380" width="80" height="80" transform="translate(3304 2086)" fill="#fff"/>
    </clipPath>
  </defs>
  <g id="Pele-Hidratada-e-Jovem" transform="translate(-3304 -2086)" clip-path="url(#clip-path)">
    <g id="Gravidas-e-Gestantes" transform="translate(3318 2088)">
      <path id="Caminho_1165" data-name="Caminho 1165" d="M44.046,0c3.8.836,5.845,3.392,6.811,6.982a6.815,6.815,0,0,1,.24,1.585c.116,6.353.3,12.707.291,19.06a61.791,61.791,0,0,1-1.5,14.051c-.286,1.238-.675,1.562-1.922,1.4-2.43-.323-4.856-.693-7.282-1.04-.176-.023-.351-.037-.735-.079a35.7,35.7,0,0,0,.49,4.029,21.621,21.621,0,0,0,1.428,4.427c2.953,6.233,4.8,9.981,6.353,16.671.518,2.232,1.09,3.932,1.516,6.182.236,1.252-.291,1.816-1.58,1.816H9.552c-1.215,0-1.659-.476-1.626-1.682,1.063-3.378.984-3.364,2.144-6.6-1.035-.822-2.093-1.58-3.054-2.444a20.808,20.808,0,0,1-6.7-13.229,24.746,24.746,0,0,1,.836-11.57A20.888,20.888,0,0,1,8.7,29.4a2.713,2.713,0,0,0,.841-1.1A6.238,6.238,0,0,1,12.5,25.012c.25-.129.5-.236.7-.333a25.423,25.423,0,0,1-1.784-2.592c-2.283-4.357-.887-9.6,4.048-11.653,3.692-1.539,6.27-4.436,8.4-7.712A5.67,5.67,0,0,1,27,0H44.046ZM10.587,72.434H46.9c-.032-.24-.051-.444-.092-.642-1.382-6.751-3.059-10.064-5.665-16.468-.721-1.77-1.58-3.484-2.283-5.263a22.232,22.232,0,0,1-1.479-8.636,6.085,6.085,0,0,0-.61-.194A77.732,77.732,0,0,1,21.5,36.258,30.106,30.106,0,0,1,15.032,32.8a7.252,7.252,0,0,0-3.78-1.358,1.806,1.806,0,0,0-1.137.24,17.068,17.068,0,0,0-5.693,6.792A21.654,21.654,0,0,0,2.815,50.083,19.324,19.324,0,0,0,6.872,60.411c3.064,3.831,7.194,5.854,11.847,7a28.673,28.673,0,0,0,9.9.61,1.278,1.278,0,0,1,1.534,1.224A1.351,1.351,0,0,1,28.8,70.622a31.04,31.04,0,0,1-15.752-2.347c-.2-.088-.407-.157-.642-.245-1.021,2.5-.7,1.737-1.825,4.413Zm37.076-32c.333-3.064.758-6.039.956-9.029.5-7.55.065-15.1-.148-22.651A6.042,6.042,0,0,0,42.391,2.6c-.527,0-.744.129-.869.67a69.013,69.013,0,0,0-1.677,10.641A63.32,63.32,0,0,0,40.5,29.244a1.285,1.285,0,0,0,.587.744c.832.494,1.724.887,2.546,1.391.933.573,1.164,1.331.716,2.024-.462.712-1.188.707-2.149.166a20.309,20.309,0,0,0-3.23-1.548,28.948,28.948,0,0,0-7.855-1.206,23.2,23.2,0,0,1-7.453-1.585c-1.936-.79-3.909-1.483-5.891-2.149A5.291,5.291,0,0,0,13.8,27.3a3.053,3.053,0,0,0-1.626,1.6,12.557,12.557,0,0,1,4.939,2.139,16.162,16.162,0,0,0,2.144,1.317,74.839,74.839,0,0,0,14.754,5.494,94.9,94.9,0,0,0,13.649,2.592ZM36.8,2.634c-.36,1.423-.615,2.782-1.058,4.075-1.516,4.427-4.422,6.52-9.066,6.3-2.588-.125-5.157-.642-7.74-.966a1.768,1.768,0,0,0-.869.06c-.73.3-1.428.679-2.139,1.021a5.031,5.031,0,0,0-2.939,5.018A7.133,7.133,0,0,0,18.244,24.5c1.733.513,3.429,1.155,5.138,1.756a21.573,21.573,0,0,0,3.669,1.3c3.521.55,7.074.91,10.7,1.354A69.885,69.885,0,0,1,39,2.634H36.81Zm-2.814-.023c-1.973,0-3.881.023-5.794-.009a1.825,1.825,0,0,0-1.76.966,27.69,27.69,0,0,1-4.727,5.8,4.6,4.6,0,0,0-.36.425c.014.088.028.171.042.259,2.181.129,4.362.319,6.543.365A4.783,4.783,0,0,0,31.8,8.539a10.643,10.643,0,0,0,2.186-5.928Z" transform="translate(-0.003)" fill="#ea5c9c"/>
      <path id="Caminho_1166" data-name="Caminho 1166" d="M24.734,92.434c2.042-1.825,4.293-2.491,6.834-1.432a6.128,6.128,0,0,1,2.99,8.5,12.9,12.9,0,0,1-2.606,3.452c-2.01,1.918-4.182,3.669-6.3,5.475a1.283,1.283,0,0,1-1.811.023c-2.315-2.005-4.671-3.965-6.9-6.058a7.619,7.619,0,0,1-2.689-5.72,5.8,5.8,0,0,1,3.4-5.545,5.84,5.84,0,0,1,6.4.744c.222.166.43.356.679.559ZM24.7,105.95c2.162-1.955,4.2-3.7,6.109-5.577a7.024,7.024,0,0,0,1.58-2.569,3.322,3.322,0,0,0-.79-3.683,3.12,3.12,0,0,0-3.244-.841,4.266,4.266,0,0,0-2.463,1.945,1.3,1.3,0,0,1-2.315.032,6.573,6.573,0,0,0-.638-.859,3.58,3.58,0,0,0-3.613-1.132,3.2,3.2,0,0,0-2.4,2.625,4.29,4.29,0,0,0,1.248,3.941c2.075,2.065,4.265,4.015,6.52,6.118Z" transform="translate(-7.666 -48.676)" fill="#ea5c9c"/>
    </g>
  </g>
</svg>
