<svg xmlns="http://www.w3.org/2000/svg" xmlns:xlink="http://www.w3.org/1999/xlink" width="40" height="40" viewBox="0 0 40 40">
  <defs>
    <clipPath id="clip-path">
      <rect id="Retângulo_380" data-name="Retângulo 380" width="40" height="40" transform="translate(-0.323 -0.205)" fill="#fff"/>
    </clipPath>
  </defs>
  <g id="Pele-Hidratada-e-Jovem" transform="translate(0.323 0.205)" clip-path="url(#clip-path)">
    <g id="Pele-Hidratada-e-Jovem-2" data-name="Pele-Hidratada-e-Jovem" transform="translate(0.062 1.766)">
      <path id="Caminho_1139" data-name="Caminho 1139" d="M62.409,44.1a.759.759,0,0,1-.625-.444c-.447-.739-.93-1.538-1.47-2.444a.652.652,0,0,1,.254-1c.939-.579,1.714-1.055,2.431-1.495a.972.972,0,0,1,.5-.167.567.567,0,0,1,.5.292.581.581,0,0,1,.089.454.847.847,0,0,1-.425.5c-.4.251-.809.5-1.229.758l-.2.121a8.417,8.417,0,0,0,2.487.389,8.246,8.246,0,0,0,1.927-.234,8.309,8.309,0,0,0,5.655-11.508c-.031-.068-.06-.138-.089-.205a.608.608,0,0,1,.338-.855.668.668,0,0,1,.266-.058.587.587,0,0,1,.555.425c.065.181.133.36.2.538a10.493,10.493,0,0,1,.538,1.7,9.547,9.547,0,0,1-7.649,11.29,9.092,9.092,0,0,1-1.751.169,9.757,9.757,0,0,1-2.436-.319h0l.036.06c.2.326.377.628.555.93.249.42.2.794-.14,1a.616.616,0,0,1-.324.1Z" transform="translate(-45.647 -21.401)" fill="#fff"/>
      <path id="Caminho_1140" data-name="Caminho 1140" d="M40.524,15.883a.589.589,0,0,1-.555-.413c-.058-.152-.118-.307-.176-.459a11.2,11.2,0,0,1-.524-1.562A9.584,9.584,0,0,1,47.4,1.852a9.052,9.052,0,0,1,1.2-.08,9.944,9.944,0,0,1,2.465.319l-.029-.046c-.2-.333-.386-.645-.57-.959a.819.819,0,0,1-.133-.645.574.574,0,0,1,.309-.35A.694.694,0,0,1,50.96.01a.724.724,0,0,1,.6.425c.232.389.466.775.7,1.164q.395.656.787,1.314a.629.629,0,0,1-.234.973c-.8.495-1.639,1.009-2.5,1.531a.908.908,0,0,1-.461.142.545.545,0,0,1-.517-.319.651.651,0,0,1,.333-.915,16.349,16.349,0,0,0,1.4-.915L50.9,3.369a9.785,9.785,0,0,0-1.2-.244,9.087,9.087,0,0,0-1.053-.063,8.322,8.322,0,0,0-8.272,7.133A8.12,8.12,0,0,0,41,14.7c.012.029.027.06.041.089a1.971,1.971,0,0,1,.082.191.611.611,0,0,1-.331.855.687.687,0,0,1-.27.056Z" transform="translate(-29.61 -0.01)" fill="#fff"/>
      <path id="Caminho_1141" data-name="Caminho 1141" d="M69.556,36.408a2.971,2.971,0,0,1-2.929-2.753,3.362,3.362,0,0,1,.2-1.256,26.233,26.233,0,0,1,2.27-4.694.581.581,0,0,1,.495-.316.512.512,0,0,1,.456.285l.152.27a21.611,21.611,0,0,1,2.284,4.969,2.043,2.043,0,0,1,.053.307v.024a1.157,1.157,0,0,1,.014.181v.034a2.991,2.991,0,0,1-2.931,2.946h-.063ZM69.5,29.191c-.15.268-.29.519-.406.775-.089.2-.181.4-.273.6-.36.787-.734,1.6-1.036,2.424a1.73,1.73,0,0,0,.691,1.987,1.876,1.876,0,0,0,1.106.362h0a1.888,1.888,0,0,0,1.031-.309,1.771,1.771,0,0,0,.722-2.183c-.355-.881-.773-1.758-1.176-2.6-.164-.343-.333-.7-.5-1.05-.024-.051-.051-.1-.08-.152l-.082.147Z" transform="translate(-50.537 -20.779)" fill="#fff"/>
      <path id="Caminho_1142" data-name="Caminho 1142" d="M15.455,114.583a.862.862,0,1,1-.862.862.863.863,0,0,1,.862-.862m0-1.173a2.035,2.035,0,1,0,2.035,2.035,2.034,2.034,0,0,0-2.035-2.035Z" transform="translate(-10.18 -86.029)" fill="#fff"/>
      <path id="Caminho_1143" data-name="Caminho 1143" d="M54.325,114.583a.862.862,0,1,1-.862.862.863.863,0,0,1,.862-.862m0-1.173a2.035,2.035,0,1,0,2.035,2.035,2.034,2.034,0,0,0-2.035-2.035Z" transform="translate(-39.664 -86.029)" fill="#fff"/>
      <path id="Caminho_1144" data-name="Caminho 1144" d="M93.215,114.583a.862.862,0,1,1-.862.862.863.863,0,0,1,.862-.862m0-1.173a2.035,2.035,0,1,0,2.035,2.035,2.034,2.034,0,0,0-2.035-2.035Z" transform="translate(-69.164 -86.029)" fill="#fff"/>
      <path id="Caminho_1145" data-name="Caminho 1145" d="M132.1,114.583a.862.862,0,1,1-.862.862.862.862,0,0,1,.862-.862m0-1.173a2.035,2.035,0,1,0,2.035,2.035,2.034,2.034,0,0,0-2.035-2.035Z" transform="translate(-98.656 -86.029)" fill="#fff"/>
      <path id="Caminho_1146" data-name="Caminho 1146" d="M34.875,133.043a.862.862,0,1,1-.862.862.863.863,0,0,1,.862-.862m0-1.173a2.035,2.035,0,1,0,2.035,2.035,2.034,2.034,0,0,0-2.035-2.035Z" transform="translate(-24.911 -100.032)" fill="#fff"/>
      <path id="Caminho_1147" data-name="Caminho 1147" d="M73.765,133.043a.862.862,0,1,1-.862.862.862.862,0,0,1,.862-.862m0-1.173a2.035,2.035,0,1,0,2.035,2.035,2.034,2.034,0,0,0-2.035-2.035Z" transform="translate(-54.41 -100.032)" fill="#fff"/>
      <path id="Caminho_1148" data-name="Caminho 1148" d="M112.645,133.043a.862.862,0,1,1-.862.862.862.862,0,0,1,.862-.862m0-1.173a2.035,2.035,0,1,0,2.035,2.035,2.034,2.034,0,0,0-2.035-2.035Z" transform="translate(-83.903 -100.032)" fill="#fff"/>
      <path id="Caminho_1149" data-name="Caminho 1149" d="M38.123,100.853H.587a.587.587,0,0,1,0-1.173H38.123a.587.587,0,0,1,0,1.173Z" transform="translate(0 -75.614)" fill="#fff"/>
      <path id="Caminho_1150" data-name="Caminho 1150" d="M12.626,80.843H.587a.587.587,0,0,1,0-1.173H12.626a.587.587,0,0,1,0,1.173Z" transform="translate(0 -60.436)" fill="#fff"/>
      <path id="Caminho_1151" data-name="Caminho 1151" d="M123.475,80.843H113.107a.587.587,0,1,1,0-1.173h10.368a.587.587,0,1,1,0,1.173Z" transform="translate(-85.351 -60.436)" fill="#fff"/>
    </g>
  </g>
</svg>
