<svg xmlns="http://www.w3.org/2000/svg" xmlns:xlink="http://www.w3.org/1999/xlink" width="80" height="80" viewBox="0 0 80 80">
  <defs>
    <clipPath id="clip-path">
      <rect id="Retângulo_380" data-name="Retângulo 380" width="80" height="80" transform="translate(3304 2086)" fill="#13509f"/>
    </clipPath>
  </defs>
  <g id="Pele-Hidratada-e-Jovem-Masculino" transform="translate(-3304 -2086)" clip-path="url(#clip-path)">
    <g id="Pele-Hidratada-e-Jovem" transform="translate(3305 2090)">
      <path id="Caminho_1139" data-name="Caminho 1139" d="M64.691,60.352a1.535,1.535,0,0,1-1.265-.9c-.9-1.494-1.88-3.111-2.974-4.942a1.319,1.319,0,0,1,.513-2.022c1.9-1.172,3.467-2.134,4.918-3.023a1.967,1.967,0,0,1,1.011-.337,1.147,1.147,0,0,1,1.016.591,1.175,1.175,0,0,1,.181.918,1.714,1.714,0,0,1-.859,1.016c-.816.508-1.636,1.011-2.486,1.533l-.4.244a17.023,17.023,0,0,0,5.03.786,16.676,16.676,0,0,0,3.9-.474A16.8,16.8,0,0,0,84.713,30.471c-.063-.137-.122-.278-.181-.415a1.229,1.229,0,0,1,.684-1.729,1.351,1.351,0,0,1,.537-.117,1.187,1.187,0,0,1,1.123.859c.132.366.269.728.405,1.089A21.223,21.223,0,0,1,88.37,33.6,19.308,19.308,0,0,1,72.9,56.436a18.389,18.389,0,0,1-3.54.342,19.734,19.734,0,0,1-4.927-.645h0l.073.122c.4.659.762,1.27,1.123,1.88.5.85.4,1.607-.283,2.022a1.246,1.246,0,0,1-.654.2Z" transform="translate(-30.791 -14.439)" fill="#13509f"/>
      <path id="Caminho_1140" data-name="Caminho 1140" d="M42.046,32.113a1.19,1.19,0,0,1-1.123-.835c-.117-.308-.239-.62-.356-.928a22.642,22.642,0,0,1-1.06-3.16A19.383,19.383,0,0,1,55.954,3.736a18.307,18.307,0,0,1,2.427-.161,20.111,20.111,0,0,1,4.986.645l-.059-.093c-.405-.674-.781-1.3-1.152-1.939a1.657,1.657,0,0,1-.269-1.3,1.162,1.162,0,0,1,.625-.708,1.4,1.4,0,0,1,.64-.166,1.464,1.464,0,0,1,1.206.859c.469.786.942,1.568,1.411,2.354q.8,1.326,1.592,2.657a1.271,1.271,0,0,1-.474,1.968c-1.616,1-3.316,2.041-5.049,3.1a1.836,1.836,0,0,1-.933.288,1.1,1.1,0,0,1-1.045-.645,1.317,1.317,0,0,1,.674-1.851,33.066,33.066,0,0,0,2.837-1.851c-.112-.029-.22-.054-.332-.083a19.79,19.79,0,0,0-2.427-.493,18.379,18.379,0,0,0-2.129-.127,16.832,16.832,0,0,0-16.73,14.425A16.422,16.422,0,0,0,43,29.715c.024.059.054.122.083.181a3.986,3.986,0,0,1,.166.386,1.235,1.235,0,0,1-.669,1.729,1.389,1.389,0,0,1-.547.112Z" transform="translate(-19.973 -0.01)" fill="#13509f"/>
      <path id="Caminho_1141" data-name="Caminho 1141" d="M72.555,45.629a6.009,6.009,0,0,1-5.923-5.567,6.8,6.8,0,0,1,.4-2.539,53.054,53.054,0,0,1,4.59-9.493,1.174,1.174,0,0,1,1-.64,1.036,1.036,0,0,1,.923.576l.308.547a43.706,43.706,0,0,1,4.62,10.05,4.129,4.129,0,0,1,.107.62v.049a2.338,2.338,0,0,1,.029.366v.068a6.05,6.05,0,0,1-5.928,5.958h-.127Zm-.112-14.6c-.3.542-.586,1.05-.82,1.568-.181.405-.366.811-.552,1.211-.728,1.592-1.485,3.243-2.095,4.9a3.5,3.5,0,0,0,1.4,4.019,3.794,3.794,0,0,0,2.237.732h0a3.819,3.819,0,0,0,2.085-.625,3.581,3.581,0,0,0,1.46-4.415c-.718-1.782-1.563-3.555-2.378-5.264-.332-.693-.674-1.411-1.006-2.124-.049-.1-.1-.2-.161-.308-.054.1-.112.2-.166.3Z" transform="translate(-34.089 -14.019)" fill="#13509f"/>
      <path id="Caminho_1142" data-name="Caminho 1142" d="M17.537,115.783a1.743,1.743,0,1,1-1.743,1.743,1.744,1.744,0,0,1,1.743-1.743m0-2.373a4.117,4.117,0,1,0,4.117,4.117,4.114,4.114,0,0,0-4.117-4.117Z" transform="translate(-6.867 -58.033)" fill="#13509f"/>
      <path id="Caminho_1143" data-name="Caminho 1143" d="M56.407,115.783a1.743,1.743,0,1,1-1.743,1.743,1.744,1.744,0,0,1,1.743-1.743m0-2.373a4.117,4.117,0,1,0,4.117,4.117,4.114,4.114,0,0,0-4.117-4.117Z" transform="translate(-26.755 -58.033)" fill="#13509f"/>
      <path id="Caminho_1144" data-name="Caminho 1144" d="M95.3,115.783a1.743,1.743,0,1,1-1.743,1.743,1.744,1.744,0,0,1,1.743-1.743m0-2.373a4.117,4.117,0,1,0,4.117,4.117A4.114,4.114,0,0,0,95.3,113.41Z" transform="translate(-46.654 -58.033)" fill="#13509f"/>
      <path id="Caminho_1145" data-name="Caminho 1145" d="M134.177,115.783a1.743,1.743,0,1,1-1.743,1.743,1.744,1.744,0,0,1,1.743-1.743m0-2.373a4.117,4.117,0,1,0,4.117,4.117,4.114,4.114,0,0,0-4.117-4.117Z" transform="translate(-66.547 -58.033)" fill="#13509f"/>
      <path id="Caminho_1146" data-name="Caminho 1146" d="M36.957,134.243a1.743,1.743,0,1,1-1.743,1.743,1.744,1.744,0,0,1,1.743-1.743m0-2.373a4.117,4.117,0,1,0,4.117,4.117,4.114,4.114,0,0,0-4.117-4.117Z" transform="translate(-16.803 -67.478)" fill="#13509f"/>
      <path id="Caminho_1147" data-name="Caminho 1147" d="M75.847,134.243a1.743,1.743,0,1,1-1.743,1.743,1.744,1.744,0,0,1,1.743-1.743m0-2.373a4.117,4.117,0,1,0,4.117,4.117,4.114,4.114,0,0,0-4.117-4.117Z" transform="translate(-36.702 -67.478)" fill="#13509f"/>
      <path id="Caminho_1148" data-name="Caminho 1148" d="M114.727,134.243a1.743,1.743,0,1,1-1.743,1.743,1.744,1.744,0,0,1,1.743-1.743m0-2.373a4.117,4.117,0,1,0,4.117,4.117,4.114,4.114,0,0,0-4.117-4.117Z" transform="translate(-56.595 -67.478)" fill="#13509f"/>
      <path id="Caminho_1149" data-name="Caminho 1149" d="M77.1,102.053H1.187a1.187,1.187,0,0,1,0-2.373H77.1a1.187,1.187,0,0,1,0,2.373Z" transform="translate(0 -51.008)" fill="#13509f"/>
      <path id="Caminho_1150" data-name="Caminho 1150" d="M25.535,82.043H1.187a1.187,1.187,0,0,1,0-2.373H25.535a1.187,1.187,0,0,1,0,2.373Z" transform="translate(0 -40.769)" fill="#13509f"/>
      <path id="Caminho_1151" data-name="Caminho 1151" d="M134.676,82.043H113.707a1.187,1.187,0,1,1,0-2.373h20.969a1.187,1.187,0,0,1,0,2.373Z" transform="translate(-57.573 -40.769)" fill="#13509f"/>
    </g>
  </g>
</svg>
