<svg xmlns="http://www.w3.org/2000/svg" width="19.246" height="19.246" viewBox="0 0 19.246 19.246">
  <path id="perguntas_frequentes" data-name="perguntas frequentes" d="M.877,10.5A9.623,9.623,0,1,1,10.5,20.123,9.623,9.623,0,0,1,.877,10.5ZM10.5,2.257A8.243,8.243,0,1,0,18.743,10.5,8.243,8.243,0,0,0,10.5,2.257Zm1.09,12.6a1.09,1.09,0,1,1-1.09-1.09A1.09,1.09,0,0,1,11.59,14.859Zm-3.2-6.175A2.013,2.013,0,0,1,10.5,6.759a2.013,2.013,0,0,1,2.107,1.925c0,.714-.392,1.078-1.069,1.489-.075.046-.163.1-.256.151h0a7.671,7.671,0,0,0-.819.523,1.76,1.76,0,0,0-.762,1.4.8.8,0,0,0,1.6.006h0a.644.644,0,0,1,.145-.141,4.643,4.643,0,0,1,.53-.337h0c.114-.066.243-.141.392-.231a3.238,3.238,0,0,0,1.837-2.855A3.609,3.609,0,0,0,10.5,5.16,3.609,3.609,0,0,0,6.8,8.684a.8.8,0,1,0,1.6,0Z" transform="translate(-0.877 -0.877)" fill="#3b3b3b" fill-rule="evenodd"/>
</svg>
