<svg xmlns="http://www.w3.org/2000/svg" width="15.752" height="18.647" viewBox="0 0 15.752 18.647">
  <path id="POLITICAS_E_PRIVACIDADE" data-name="POLITICAS E PRIVACIDADE" d="M6.3,6.216a4.017,4.017,0,0,1,.921-2.81,3.468,3.468,0,0,1,2.661-1,3.465,3.465,0,0,1,2.659.993,4.014,4.014,0,0,1,.919,2.808V8.169H6.3ZM4.864,8.169V6.216a5.431,5.431,0,0,1,1.3-3.785A4.888,4.888,0,0,1,9.878.978a4.884,4.884,0,0,1,3.708,1.451,5.427,5.427,0,0,1,1.3,3.783V8.169H16.32A1.432,1.432,0,0,1,17.752,9.6v8.592a1.432,1.432,0,0,1-1.432,1.432H3.432A1.432,1.432,0,0,1,2,18.193V9.6A1.432,1.432,0,0,1,3.432,8.169ZM3.432,9.6H16.32v8.592H3.432Z" transform="translate(-2 -0.978)" fill="#3b3b3b" fill-rule="evenodd"/>
</svg>
