<svg xmlns="http://www.w3.org/2000/svg" xmlns:xlink="http://www.w3.org/1999/xlink" width="21.557" height="17.865" viewBox="0 0 21.557 17.865">
  <defs>
    <clipPath id="clip-path">
      <rect id="Retângulo_48" data-name="Retângulo 48" width="21.557" height="17.865" fill="#3b3b3b"/>
    </clipPath>
  </defs>
  <g id="QUEM_SOMOS" data-name="QUEM SOMOS" clip-path="url(#clip-path)">
    <path id="Caminho_319" data-name="Caminho 319" d="M21.557,156.663a2.159,2.159,0,0,1-.469,1.037,1.875,1.875,0,0,1-1.239.641,3.393,3.393,0,0,1-.357.014q-8.713,0-17.425,0A1.975,1.975,0,0,1,.393,157.6a1.878,1.878,0,0,1-.386-1.176c0-1.122-.013-2.245,0-3.367a3.121,3.121,0,0,1,2.964-3.106,22.138,22.138,0,0,1,2.628.027.711.711,0,0,0,.776-.343,2.927,2.927,0,0,1,2.485-1.308c1.319-.015,2.638-.029,3.956.011a2.953,2.953,0,0,1,2.509,1.5c.1.162.19.229.378.17a1.332,1.332,0,0,1,.394-.054c.9,0,1.813-.047,2.711.03a3.089,3.089,0,0,1,2.7,2.608,1.51,1.51,0,0,0,.042.161Zm-14.522.416h7.49c0-.046.01-.08.01-.114,0-1.823.011-3.646,0-5.468a1.867,1.867,0,0,0-1.962-1.914c-1.192-.007-2.384-.014-3.575.007a2.223,2.223,0,0,0-.891.191,1.824,1.824,0,0,0-1.076,1.778q0,2.671,0,5.342c0,.055.005.109.008.178m-1.272,0v-5.393c0-.478,0-.485-.494-.49q-1.03-.011-2.061,0a1.975,1.975,0,0,0-.5.064,1.88,1.88,0,0,0-1.442,1.9c0,1.058,0,2.117,0,3.175,0,.521.232.752.759.752H5.539c.068,0,.136-.006.225-.011m10.044.006c1.323,0,2.619.006,3.915,0a.6.6,0,0,0,.569-.637c0-1.115.013-2.229,0-3.344a1.819,1.819,0,0,0-1.707-1.872c-.822-.063-1.652-.02-2.478-.018a1.593,1.593,0,0,0-.3.055Z" transform="translate(0 -140.492)" fill="#3b3b3b"/>
    <path id="Caminho_320" data-name="Caminho 320" d="M137.189,0a3.747,3.747,0,1,1-3.758,3.732A3.749,3.749,0,0,1,137.189,0m0,1.263a2.484,2.484,0,1,0,2.475,2.494,2.482,2.482,0,0,0-2.475-2.494" transform="translate(-126.397 0)" fill="#3b3b3b"/>
    <path id="Caminho_321" data-name="Caminho 321" d="M26.753,68.837a2.806,2.806,0,1,1,2.763,2.837,2.809,2.809,0,0,1-2.763-2.837m2.808-1.506a1.54,1.54,0,1,0-.006,3.08,1.54,1.54,0,1,0,.006-3.08" transform="translate(-25.341 -62.583)" fill="#3b3b3b"/>
    <path id="Caminho_322" data-name="Caminho 322" d="M278.537,66.061a2.8,2.8,0,1,1-2.8,2.8,2.812,2.812,0,0,1,2.8-2.8m1.55,2.8a1.542,1.542,0,0,0-3.084.007,1.542,1.542,0,1,0,3.084-.007" transform="translate(-261.202 -62.578)" fill="#3b3b3b"/>
  </g>
</svg>
