<?xml version="1.0" encoding="UTF-8"?><svg id="Camada_2" xmlns="http://www.w3.org/2000/svg" viewBox="0 0 22.06 30"><defs><style>.cls-1{fill:#333;}</style></defs><g id="Camada_1-2"><g id="Group_225"><g id="Group_235"><path id="Path_641" class="cls-1" d="M.45,17.62c.48,.98,1.41,1.66,2.48,1.82,.16,.02,.18,.12,.21,.23,.3,1.02,.78,1.99,1.41,2.85,.75,.95,1.67,1.75,2.71,2.38,.17,.07,.27,.26,.22,.44-.13,1.37-.78,2.64-1.83,3.53-.21,.16-.45,.29-.69,.4-.22,.1-.34,.25-.24,.49,.09,.22,.28,.28,.54,.17,1.1-.49,1.96-1.39,2.39-2.51,.25-.58,.43-1.18,.53-1.81,.03-.19,.08-.17,.22-.11,.6,.28,1.23,.48,1.88,.59,.17,.03,.18,.09,.18,.22,0,.1,0,.2,0,.3,0,.12,.1,.22,.22,.22,0,0,0,0,.01,0,.14,0,.26-.09,.23-.21-.11-.49,.21-.54,.55-.61,.52-.12,1.02-.29,1.51-.51,.14-.07,.19-.07,.22,.11,.17,1.25,.71,2.42,1.55,3.36,.39,.42,.87,.75,1.41,.97,.17,.1,.38,.04,.48-.13,.01-.02,.02-.04,.03-.07,.08-.16,.02-.36-.15-.44-.01,0-.03-.01-.05-.02-1.37-.59-2.01-1.74-2.39-3.09-.09-.3-.14-.61-.19-.92-.04-.19,.04-.26,.18-.34,.89-.54,1.7-1.21,2.4-1.98,.8-.93,1.4-2.02,1.73-3.2,.03-.18,.18-.32,.36-.34,1.64-.35,2.81-1.81,2.8-3.49,0-.55-.19-1.08-.54-1.5-.09-.11-.11-.26-.07-.39,.16-1.11,.22-2.23,.17-3.35,.01-1.41-.22-2.8-.68-4.13-.69-1.71-1.84-3.19-3.32-4.28C15.45,1.11,13.7,.35,11.85,.08c-1.78-.23-3.6,.07-5.21,.88C4.4,1.98,2.56,3.72,1.43,5.91c-.47,.98-.75,2.04-.85,3.12-.1,.75-.14,1.51-.12,2.26-.03,.91,.03,1.82,.18,2.71,.03,.18-.02,.37-.14,.51-.65,.93-.67,2.16-.05,3.1m18.07,1.06c.02-.12,.04-.22,.06-.31,.12-.54,.21-1.09,.26-1.64,0-.21,.13-.4,.33-.48,.16-.07,.34-.1,.52-.1,.2,.02,.38-.13,.4-.33,0,0,0-.02,0-.02,.02-.2-.17-.36-.41-.38-.24,0-.47,.03-.69,.1,0-.33,0-.65,0-.98,0-.22,.11-.21,.26-.19,.78,.11,1.37,.78,1.39,1.57,0,.87-.39,1.7-1.09,2.23-.28,.27-.64,.45-1.02,.52M3.26,11.74c.07-.49,.19-.97,.29-1.45,.03-.22,.16-.4,.35-.5,.31-.19,.57-.43,.77-.73,.36-.46,.63-.98,1.01-1.43,.32-.44,.84-.69,1.39-.68,.37,.02,.71-.17,.89-.49,.68-1.06,1.96-1.58,3.19-1.31,.99,.13,1.86,.69,2.4,1.53,.41,.61,.87,1.18,1.37,1.72,.71,.82,1.67,1.39,2.73,1.61,.19,.03,.2,.17,.22,.29,.19,.93,.32,1.87,.36,2.82,.09,1.84-.07,3.68-.46,5.48-.63,3.08-2.88,5.58-5.88,6.53-.54,.25-1.15,.33-1.74,.2-2.89-.84-5.08-2.5-6.15-5.41-.66-2.01-.96-4.11-.89-6.22,0-.66,.04-1.32,.14-1.97m-.81-2.15c-.17,.02-.29,.17-.28,.34,0,.02,0,.04,.01,.06,.02,.19,.19,.32,.38,.3,.07,0,.13-.02,.19-.04,.01,.03,.03,.05,.02,.07-.24,1.03-.37,2.08-.38,3.14,0,.13-.06,.18-.18,.18-.25,0-.49,.05-.72,.15-.12,.05-.16,.03-.17-.1-.03-.32-.08-.65-.1-.97-.09-1.14-.07-2.28,.06-3.41,.06-.93,.27-1.84,.63-2.7C2.96,4.34,4.8,2.54,7.08,1.55c1.64-.79,3.5-1.02,5.28-.64,1.89,.41,3.63,1.35,5,2.72,1.1,.99,1.91,2.26,2.35,3.68,.42,1.58,.57,3.22,.46,4.85,0,.56-.06,1.11-.16,1.66-.28-.11-.58-.17-.88-.19-.16,0-.16-.11-.16-.22-.04-1.04-.16-2.07-.37-3.09-.02-.1-.04-.18,.1-.23,.18-.03,.3-.2,.27-.38,0-.02,0-.03-.01-.05-.05-.22-.21-.26-.41-.26-.93,0-1.83-.32-2.53-.92-.75-.68-1.41-1.45-1.97-2.29-.6-.82-1.47-1.41-2.45-1.66-.29-.08-.61-.04-.86-.25-.06-.04-.14-.03-.19,.03-.11,.07-.23,.11-.36,.1-1.13,.08-2.16,.68-2.8,1.62-.09,.15-.26,.24-.44,.23-.58,0-1.14,.23-1.54,.64-.35,.34-.65,.72-.89,1.14-.4,.83-1.17,1.4-2.08,1.55M.76,15.74c.09-.71,.64-1.27,1.35-1.38,.17-.03,.31-.03,.3,.21-.02,.31,0,.63,0,.96-.24-.09-.5-.12-.75-.11-.2,0-.36,.17-.35,.37,0,0,0,0,0,0,0,.19,.14,.34,.33,.35q.82,.13,.95,.9c.09,.54,.18,1.08,.26,1.62-1.3-.37-2.17-1.58-2.09-2.93"/><path id="Path_642" class="cls-1" d="M19.37,21.24c0,.13,.08,.24,.2,.28,.38,.17,.69,.47,.86,.85,.07,.14,.17,.23,.27,.23s.2-.09,.28-.24c.18-.37,.48-.66,.85-.84,.14-.07,.23-.17,.23-.27s-.08-.19-.22-.26c-.38-.18-.68-.49-.87-.87-.04-.12-.14-.2-.26-.22-.11,.01-.21,.09-.25,.2-.19,.4-.52,.73-.92,.9-.1,.04-.16,.13-.16,.24m.58,0c0-.06,.04-.11,.09-.14,.23-.1,.42-.28,.53-.51,.02-.06,.08-.11,.14-.11,.07,.01,.13,.06,.15,.12,.1,.22,.28,.39,.49,.49,.08,.04,.12,.09,.12,.15s-.05,.11-.13,.16c-.21,.1-.38,.27-.48,.48-.04,.08-.1,.13-.16,.13s-.11-.05-.15-.13c-.1-.22-.27-.39-.49-.48-.07-.02-.11-.09-.12-.16"/><path id="Path_643" class="cls-1" d="M17.21,23c0,.1,.06,.2,.15,.23,.26,.12,.48,.33,.61,.59,.07,.12,.14,.18,.23,.18,.11-.02,.19-.09,.23-.19,.14-.25,.34-.46,.6-.59,.09-.04,.16-.12,.17-.22-.01-.1-.08-.19-.17-.22-.25-.13-.46-.34-.59-.59-.07-.12-.15-.18-.23-.18s-.17,.07-.23,.19c-.12,.26-.33,.46-.59,.58-.1,.03-.16,.12-.17,.22m.46,0c0-.06,.04-.1,.09-.12,.14-.07,.25-.18,.32-.31,.03-.07,.08-.1,.12-.1s.09,.04,.12,.1c.07,.14,.19,.25,.32,.32,.05,.02,.09,.07,.09,.12,0,.05-.04,.1-.09,.12-.14,.07-.25,.18-.32,.32-.03,.07-.08,.1-.13,.1s-.09-.04-.12-.1c-.07-.14-.19-.25-.33-.32-.05-.02-.08-.07-.08-.13"/><path id="Path_644" class="cls-1" d="M10.7,27.58c.18,0,.25,.13,.24,.31,0,.05,0,.1,0,.15-.02,.19,.08,.48-.24,.47s-.21-.29-.24-.46c0-.07,0-.12,0-.17-.01-.17,.06-.3,.24-.3"/><path id="Path_645" class="cls-1" d="M8.44,20.27c.38,.14,.8,.15,1.19,.04,.25-.07,.52-.03,.74,.11,.18,.13,.43,.14,.61,.01,.25-.15,.55-.19,.83-.1,.34,.09,.69,.08,1.03-.02,.17-.06,.31-.1,.41,.08,.11,.2-.03,.32-.19,.4-.32,.19-.69,.26-1.06,.22-.33-.03-.66,.04-.96,.19-.22,.1-.08,.27-.11,.41-.04,.15,.09,.11,.17,.12,.2,0,.35,.18,.34,.37,0,.14-.1,.27-.23,.32-.14,.06-.29,.09-.44,.14,.16,.25,.21,.55,.14,.84-.04,.09-.15,.14-.25,.13-.1,0-.19-.09-.19-.19,0-.26-.1-.55,.14-.78-.16-.04-.3-.07-.43-.13-.17-.05-.28-.22-.24-.4,.02-.18,.18-.31,.35-.3,.07,0,.18,.05,.17-.09s.08-.37-.06-.41c-.26-.07-.46-.32-.78-.23-.18,.03-.36,.04-.53,0-.31,0-.61-.11-.86-.28-.12-.07-.15-.22-.09-.34,.05-.11,.18-.17,.29-.12,0,0,0,0,.01,0"/><path id="Path_646" class="cls-1" d="M13.02,15.08c-.13-.15-.03-.27,.07-.39,.74-.84,1.99-.99,2.91-.35,.18,.18,.46,.24,.7,.14,.07-.04,.17-.01,.21,.06,.05,.07,.01,.13-.02,.19-.2,.36-.66,.49-1.01,.28-.01,0-.02-.01-.03-.02-.13-.07-.26-.14-.39-.21-.05-.03-.12-.05-.16,0-.03,.04,.01,.09,.04,.13,.15,.23,.18,.51,.09,.77-.15,.48-.67,.75-1.15,.6-.02,0-.05-.02-.07-.03-.5-.22-.73-.8-.51-1.3,.01-.03,.03-.06,.04-.08-.11,.07-.22,.13-.32,.2-.13,.1-.26,.16-.39,0"/><path id="Path_647" class="cls-1" d="M4.74,14.5c.2,.08,.42,.04,.57-.1,.91-.69,2.2-.57,2.96,.28,.11,.12,.23,.24,.08,.41-.13,.15-.26,.07-.4-.02-.09-.08-.19-.13-.3-.16,.17,.7,.05,1.08-.4,1.32-.36,.19-.81,.12-1.09-.18-.33-.36-.34-.9-.03-1.27-.24-.05-.39,.11-.57,.21-.31,.24-.75,.18-.99-.14-.01-.01-.02-.03-.03-.04-.06-.07-.15-.14-.08-.26s.16-.09,.26-.05"/><path id="Path_648" class="cls-1" d="M3.91,12.8c.37-.28,.81-.47,1.27-.54,1.19-.13,2.4-.06,3.57,.21,.19,.04,.39,.09,.35,.35-.04,.24-.23,.23-.42,.22-.97-.08-1.93-.15-2.9-.26-.47-.06-.95,0-1.39,.18-.13,.05-.25,.11-.38,.17-.14,.06-.2,0-.23-.12,0-.11,.07-.15,.13-.2"/><path id="Path_649" class="cls-1" d="M15.57,12.78c-.92,.11-1.85,.18-2.71,.26h-.28c-.14,.02-.26-.08-.27-.22,0,0,0,0,0,0-.04-.14,.05-.28,.18-.31,0,0,.01,0,.02,0,.07-.02,.13-.04,.2-.05,1.03-.22,2.08-.3,3.13-.24,.58,.03,1.13,.23,1.6,.56,.1,.07,.23,.13,.16,.27-.09,.18-.22,.07-.33,.02-.53-.26-1.12-.36-1.7-.28"/><path id="Path_650" class="cls-1" d="M10.93,9.97c0,.12-.09,.22-.21,.22,0,0-.01,0-.02,0-.12,0-.23-.08-.24-.2,0,0,0,0,0-.01-.01-.09-.01-.18,0-.26,.03-.2-.04-.26-.25-.26-.79,.01-1.58,0-2.37,0-.24,0-.41-.1-.41-.36s.17-.35,.41-.35h1.39c.46,0,.93,0,1.39,0,.26,0,.46,.17,.4,.36-.07,.28-.1,.58-.09,.87"/><path id="Path_651" class="cls-1" d="M5.49,17.13c.94-.07,1.82-.47,2.49-1.12,.12-.14,.32-.16,.46-.05,.02,.02,.04,.04,.06,.06,.13,.14,.13,.36-.01,.49-.01,.01-.03,.03-.05,.04-.8,.78-1.85,1.24-2.96,1.3-.18,.01-.34-.13-.35-.31,0,0,0-.01,0-.02-.02-.24,.12-.37,.35-.39"/><path id="Path_652" class="cls-1" d="M7.9,19.12c.14-.1,.33-.08,.44,.06,0,0,0,.01,.01,.02,.12,.13,.12,.33-.01,.46,0,0,0,0,0,0-.1,.11-.22,.2-.32,.31-.43,.33-.52,.94-.2,1.38,.01,.01,.02,.03,.03,.04,.11,.15,.09,.36-.06,.48,0,0,0,0,0,0-.13,.13-.35,.12-.47-.02-.01-.01-.02-.02-.03-.03-.26-.29-.4-.67-.4-1.06,.08-.67,.45-1.27,1.01-1.64"/><path id="Path_653" class="cls-1" d="M11.78,18.46c-.62,.55-1.55,.54-2.17,0-.15-.11-.19-.32-.08-.47,.11-.15,.32-.19,.47-.08,.01,0,.02,.02,.04,.03,.12,.1,.26,.18,.41,.23,.09-.21-.11-.57,.27-.57,.36,0,.18,.34,.26,.58,.15-.06,.29-.14,.42-.24,.13-.12,.33-.12,.45,0,0,0,.02,.02,.03,.03,.15,.18,.09,.35-.07,.49"/><path id="Path_654" class="cls-1" d="M10.7,6.86c-.17,0-.24-.11-.24-.27,0-.15,0-.3,0-.45,.01-.13,.13-.23,.26-.21,.11,.01,.2,.1,.21,.21,0,.08,0,.16,0,.24h0v.21c0,.16-.07,.27-.24,.28"/><path id="Path_655" class="cls-1" d="M10.68,8.51c-.32,0-.2-.3-.23-.46v-.2c-.02-.12,.06-.24,.18-.26,.02,0,.04,0,.07,0,.12,0,.23,.09,.23,.21,0,.01,0,.03,0,.04,0,.06,0,.12,0,.18-.02,.2,.1,.5-.25,.49"/><path id="Path_656" class="cls-1" d="M10.69,10.92c.18,0,.25,.12,.25,.3,0,.13,0,.26,0,.38,.02,.12-.07,.23-.19,.25-.01,0-.02,0-.04,0-.16,0-.23-.09-.24-.24,0-.08,0-.16,0-.24v-.15c-.01-.17,.05-.31,.23-.31"/><path id="Path_657" class="cls-1" d="M10.7,13.52c-.17,0-.24-.11-.24-.27,0-.15,0-.3,0-.45,.01-.13,.13-.23,.26-.21,.11,.01,.2,.1,.21,.21,0,.08,0,.16,0,.24h0v.21c0,.16-.07,.28-.24,.28"/><path id="Path_658" class="cls-1" d="M10.93,14.53c0,.13,0,.26,0,.39,0,.16-.07,.27-.24,.27s-.23-.12-.23-.28v-.39c0-.17,.08-.27,.24-.26s.24,.11,.23,.28"/><path id="Path_659" class="cls-1" d="M10.69,15.92c.16,0,.25,.1,.24,.27,0,.15,0,.3,0,.44,0,.12-.09,.22-.21,.22,0,0-.01,0-.02,0-.12,0-.23-.08-.24-.2,0,0,0,0,0-.01,0-.08,0-.16,0-.24h0v-.21c0-.17,.07-.28,.23-.28"/><path id="Path_660" class="cls-1" d="M10.71,19.25c.19,0,.24,.15,.23,.32,0,.12,0,.24,0,.36,0,.15-.07,.25-.22,.26-.17,0-.25-.1-.25-.26v-.36c-.01-.18,.05-.33,.25-.32"/><path id="Path_661" class="cls-1" d="M10.71,24.25c.19,0,.24,.15,.23,.32,0,.12,0,.24,0,.36,0,.16-.08,.27-.25,.26-.16,0-.22-.11-.22-.26v-.21s0-.1,0-.15c-.01-.18,.05-.33,.25-.32"/><path id="Path_662" class="cls-1" d="M10.7,.93c.16,0,.24,.11,.24,.27,0,.15,0,.3,0,.44,0,.12-.09,.22-.21,.22,0,0-.01,0-.02,0-.12,0-.23-.09-.23-.21,0,0,0,0,0,0,0-.08,0-.16,0-.24h0v-.21c0-.17,.08-.27,.24-.27"/><path id="Path_663" class="cls-1" d="M10.7,2.59c.16,0,.24,.11,.24,.27,0,.15,0,.3,0,.44,0,.12-.09,.22-.21,.22,0,0-.01,0-.02,0-.12,0-.23-.09-.23-.21,0,0,0,0,0,0,0-.08,0-.16,0-.24h0v-.21c0-.17,.08-.27,.24-.27"/></g></g></g></svg>