<svg xmlns="http://www.w3.org/2000/svg" xmlns:xlink="http://www.w3.org/1999/xlink" width="57" height="59" viewBox="0 0 57 59">
  <defs>
    <clipPath id="clip-path">
      <rect id="Ret창ngulo_239" data-name="Ret창ngulo 239" width="57" height="59" transform="translate(-1476 3466)" fill="none" stroke="#707070" stroke-width="1"/>
    </clipPath>
    <clipPath id="clip-path-2">
      <rect id="Ret창ngulo_181" data-name="Ret창ngulo 181" width="38.978" height="49.296" fill="#333"/>
    </clipPath>
  </defs>
  <g id="PRODUTOS_EXCLUSIVOS" data-name="PRODUTOS EXCLUSIVOS" transform="translate(1476 -3466)" clip-path="url(#clip-path)">
    <g id="Grupo_75" data-name="Grupo 75" transform="translate(-1476 3464.44)">
      <g id="Grupo_74" data-name="Grupo 74" transform="translate(9 6.56)" clip-path="url(#clip-path-2)">
        <path id="Caminho_493" data-name="Caminho 493" d="M8.6,41.882c0-1.955-.008-3.911.008-5.866a.827.827,0,0,0-.386-.772A19.161,19.161,0,0,1,.69,24.345,17.613,17.613,0,0,1,.042,18.43,20.317,20.317,0,0,1,1.29,12.648,19.387,19.387,0,0,1,10.3,2.335,18.751,18.751,0,0,1,20.7.043,19.034,19.034,0,0,1,31.87,4.5a19.216,19.216,0,0,1,6.65,11.036,16.925,16.925,0,0,1,.412,4.968,19.785,19.785,0,0,1-4.769,11.656,19.134,19.134,0,0,1-3.5,3.16.62.62,0,0,0-.291.582q.011,5.925,0,11.849a1.418,1.418,0,0,1-1.556,1.545,1.744,1.744,0,0,1-.594-.183q-4.2-1.894-8.405-3.794a.731.731,0,0,0-.665,0q-4.2,1.9-8.405,3.794A1.422,1.422,0,0,1,8.6,47.748c-.007-1.955,0-3.911,0-5.866M19.485,2.86A16.579,16.579,0,1,0,36.063,19.473,16.6,16.6,0,0,0,19.485,2.86m8.06,38.558q0-1.935,0-3.87c0-.425,0-.428-.406-.253a19.313,19.313,0,0,1-15.306,0c-.4-.174-.405-.172-.405.254,0,2.567,0,5.134,0,7.7,0,.3.011.439.373.273,2.309-1.055,4.63-2.085,6.941-3.137a1.692,1.692,0,0,1,1.5,0c2.31,1.053,4.63,2.085,6.942,3.135.283.129.378.112.374-.233-.016-1.29-.007-2.58-.007-3.87" transform="translate(0 0)" fill="#333"/>
        <path id="Caminho_494" data-name="Caminho 494" d="M127.436,91.9a1.554,1.554,0,0,1-.232.794c-.813,1.53-1.623,3.062-2.445,4.587a.521.521,0,0,0-.008.57c.825,1.524,1.633,3.057,2.446,4.587a1.42,1.42,0,0,1-1.212,2.238c-1.352.076-2.708.1-4.062.147a6.155,6.155,0,0,1-.935.037c-.5-.061-.736.21-.969.6-.823,1.359-1.671,2.7-2.518,4.049a1.446,1.446,0,0,1-2.653.009q-1.345-2.133-2.667-4.279a.661.661,0,0,0-.618-.364c-1.732-.048-3.464-.1-5.194-.194a1.418,1.418,0,0,1-1.228-2.228c.812-1.531,1.622-3.063,2.445-4.587a.523.523,0,0,0,0-.571Q106.355,95,105.146,92.7a1.445,1.445,0,0,1,1.335-2.252c1.719-.061,3.437-.122,5.156-.17a.531.531,0,0,0,.5-.292c.9-1.463,1.818-2.92,2.73-4.378a1.442,1.442,0,0,1,2.612-.009c.913,1.458,1.828,2.914,2.729,4.378a.56.56,0,0,0,.53.3c1.719.047,3.438.107,5.156.171a1.46,1.46,0,0,1,1.545,1.448M108.643,101.93c.21,0,.349,0,.488,0,1.185.043,2.37.1,3.555.128a1.624,1.624,0,0,1,1.418.883c.6.98,1.21,1.949,1.819,2.92.245.391.252.391.488.014.616-.983,1.236-1.963,1.841-2.953a1.586,1.586,0,0,1,1.389-.862c.69-.013,1.381-.04,2.071-.067.643-.026,1.287-.06,1.973-.093-.628-1.184-1.218-2.328-1.84-3.455a1.662,1.662,0,0,1-.007-1.739c.568-1.026,1.1-2.07,1.665-3.1.144-.264.157-.378-.206-.387-1.185-.029-2.369-.1-3.555-.124a1.672,1.672,0,0,1-1.5-.884c-.611-1-1.248-1.986-1.852-2.992-.2-.333-.29-.238-.448.02-.618,1.012-1.251,2.015-1.876,3.023a1.6,1.6,0,0,1-1.41.83c-1.185.027-2.37.087-3.555.132-.453.017-.453.017-.229.434.547,1.023,1.083,2.052,1.643,3.067a1.638,1.638,0,0,1-.01,1.7c-.62,1.13-1.213,2.274-1.863,3.5" transform="translate(-96.686 -78.132)" fill="#333"/>
      </g>
    </g>
  </g>
</svg>
