<svg xmlns="http://www.w3.org/2000/svg" xmlns:xlink="http://www.w3.org/1999/xlink" width="348" height="119.368" viewBox="0 0 348 119.368">
  <defs>
    <linearGradient id="linear-gradient" x1="1.023" y1="0.847" x2="0.681" y2="-0.094" gradientUnits="objectBoundingBox">
      <stop offset="0.01" stop-color="#bc700f"/>
      <stop offset="0.85" stop-color="#f7ce6f"/>
    </linearGradient>
    <linearGradient id="linear-gradient-2" x1="8.833" y1="10.362" x2="8.491" y2="9.422" gradientUnits="objectBoundingBox">
      <stop offset="0.01" stop-color="#de8c29"/>
      <stop offset="0.85" stop-color="#f7ce6f"/>
    </linearGradient>
    <linearGradient id="linear-gradient-3" x1="4.444" y1="2.634" x2="4.444" y2="1.634" gradientUnits="objectBoundingBox">
      <stop offset="0" stop-color="#fdeba8"/>
      <stop offset="0.45" stop-color="#c47a24"/>
      <stop offset="1" stop-color="#fdeba8"/>
    </linearGradient>
    <linearGradient id="linear-gradient-4" y1="0.5" x2="1" y2="0.5" gradientUnits="objectBoundingBox">
      <stop offset="0.36" stop-color="#f7eba6"/>
      <stop offset="0.81" stop-color="#f7d87d"/>
    </linearGradient>
    <clipPath id="clip-path">
      <rect id="Retângulo_246" data-name="Retângulo 246" width="171" height="39.863" fill="#ff4289"/>
    </clipPath>
  </defs>
  <g id="LOGOS" transform="translate(-37 -5927.333)">
    <g id="VERISOL-LOGO-AMARELO" transform="translate(37 5935)">
      <path id="Caminho_659" data-name="Caminho 659" d="M4.221,304.884c10.351-5.823,14.585-7.041,24.648-8.509,17.417-2.539,29.069,2.033,47.108,6.3,23,5.436,31.537,8.044,54.5,3.943,10.983-1.961,12.215-2.51,24.374-7.824v-7.9c-9.831,5.132-13.117,7.323-23.006,10.134-14.279,4.059-24.21,3.215-38.039,1.3-12.8-1.774-28.123-7.788-40.83-9.7-16.137-2.428-32.344-3.848-48.755,2.4l0,9.856Z" transform="translate(-3.761 -258.963)" fill="#fba832"/>
      <g id="Grupo_205" data-name="Grupo 205">
        <path id="Caminho_660" data-name="Caminho 660" d="M7.939,21.688,2.721,6.22H0L6.615,24.383h2.61L15.851,6.22H13.1Z" transform="translate(0 -5.544)" fill="#fba832"/>
        <path id="Caminho_661" data-name="Caminho 661" d="M169.318,16.062h9.967v-2.1h-9.967V8.445H180.1V6.22H166.92V24.384h13.366V22.22H169.318Z" transform="translate(-148.768 -5.544)" fill="#fba832"/>
        <path id="Caminho_662" data-name="Caminho 662" d="M334.514,22.863a7.394,7.394,0,0,1-.173-1.545l-.087-2.435a4.073,4.073,0,0,0-.6-2.288,3.715,3.715,0,0,0-1.6-1.138,4.869,4.869,0,0,0,1.886-1.669,4.826,4.826,0,0,0,.674-2.671,4.3,4.3,0,0,0-2.513-4.29,8.093,8.093,0,0,0-3.362-.607H320.48V24.383h2.461v-7.79h5.442a5.189,5.189,0,0,1,2.15.334,2.56,2.56,0,0,1,1.285,2.386l.148,3.03a11.446,11.446,0,0,0,.124,1.434,2.265,2.265,0,0,0,.2.606H335.3v-.408a1.515,1.515,0,0,1-.792-1.112Zm-3.379-9.014a4.535,4.535,0,0,1-2.663.693h-5.531V8.334h5.843a4.383,4.383,0,0,1,1.961.371,2.7,2.7,0,0,1,1.37,2.646A2.856,2.856,0,0,1,331.135,13.849Z" transform="translate(-285.628 -5.544)" fill="#fba832"/>
        <rect id="Retângulo_231" data-name="Retângulo 231" width="2.485" height="18.164" transform="translate(53.145 0.676)" fill="#fba832"/>
        <path id="Caminho_663" data-name="Caminho 663" d="M551.925,11.853a7.446,7.446,0,0,0-2.756-1.151L546.7,10.12a15.473,15.473,0,0,1-3.2-.989,2.09,2.09,0,0,1-1.078-1.954,2.917,2.917,0,0,1,.914-2.126,4.119,4.119,0,0,1,3-.916A4.318,4.318,0,0,1,550,5.557a4.662,4.662,0,0,1,.758,2.238h2.313a5.029,5.029,0,0,0-1.943-4.408,7.952,7.952,0,0,0-4.723-1.378,6.5,6.5,0,0,0-4.669,1.57A5.3,5.3,0,0,0,540.089,7.6a3.839,3.839,0,0,0,1.677,3.4,10.6,10.6,0,0,0,3.307,1.2l2.383.557a8.919,8.919,0,0,1,2.851,1.076,2.4,2.4,0,0,1,.9,2.114,2.786,2.786,0,0,1-2.12,2.746,7.129,7.129,0,0,1-2.429.4q-2.979,0-4.158-1.805a5.111,5.111,0,0,1-.7-2.51h-2.312a5.914,5.914,0,0,0,1.833,4.662,7.318,7.318,0,0,0,5.173,1.731,9.411,9.411,0,0,0,4.974-1.3,4.65,4.65,0,0,0,2.141-4.315,4.363,4.363,0,0,0-1.677-3.7Z" transform="translate(-480.815 -1.791)" fill="#fba832"/>
        <path id="Caminho_664" data-name="Caminho 664" d="M699.069,1.661a7.929,7.929,0,0,0-6.949,3.363,10.737,10.737,0,0,0-1.83,6.306,10.453,10.453,0,0,0,2.139,6.751,9.175,9.175,0,0,0,13.5-.4A10.794,10.794,0,0,0,708,10.921a10.023,10.023,0,0,0-1.8-6.169q-2.313-3.091-7.123-3.092Zm4.952,14.669a5.122,5.122,0,0,1-4.705,2.333q-3.426,0-4.953-2.073a8.351,8.351,0,0,1-1.527-5.093,8.168,8.168,0,0,1,1.78-5.71,5.967,5.967,0,0,1,4.6-1.937A5.8,5.8,0,0,1,703.8,5.806a7.659,7.659,0,0,1,1.676,5.161,9.941,9.941,0,0,1-1.453,5.365Z" transform="translate(-615.222 -1.479)" fill="#fba832"/>
        <path id="Caminho_665" data-name="Caminho 665" d="M880.191,6.22H877.73V24.384H889.3V22.22h-9.112Z" transform="translate(-782.278 -5.544)" fill="#fba832"/>
        <path id="Caminho_666" data-name="Caminho 666" d="M974.585,17.436c-.005-.1-.009-.19-.009-.277v-.273a1.019,1.019,0,0,0-.2-.579.9.9,0,0,0-.641-.366,1.438,1.438,0,0,0,.541-.181.817.817,0,0,0,.364-.738.929.929,0,0,0-.579-.947,2.863,2.863,0,0,0-1.02-.135H971.73v3.738h.659v-1.47h.52a1.583,1.583,0,0,1,.733.12.914.914,0,0,1,.352.855v.3l.014.12c0,.015.006.029.01.041s.006.025.01.038h.617l-.023-.047a.625.625,0,0,1-.032-.195Zm-.975-1.776a1.791,1.791,0,0,1-.628.084h-.595V14.39h.562a1.72,1.72,0,0,1,.8.139.672.672,0,0,1-.137,1.131Z" transform="translate(-866.055 -12.424)" fill="#fba832"/>
        <path id="Caminho_667" data-name="Caminho 667" d="M958.936.993a3.408,3.408,0,0,0-4.809,0,3.27,3.27,0,0,0-1,2.4,3.327,3.327,0,0,0,.988,2.416,3.4,3.4,0,0,0,4.818,0,3.3,3.3,0,0,0,1-2.416A3.251,3.251,0,0,0,958.936.993ZM958.6,5.485a2.92,2.92,0,0,1-4.146,0A2.867,2.867,0,0,1,953.6,3.4a2.819,2.819,0,0,1,.854-2.073,2.917,2.917,0,0,1,4.141,0,2.835,2.835,0,0,1,.853,2.073,2.868,2.868,0,0,1-.853,2.086Z" transform="translate(-849.478)" fill="#fba832"/>
      </g>
      <g id="Grupo_206" data-name="Grupo 206" transform="translate(64.116 22.342)">
        <path id="Caminho_668" data-name="Caminho 668" d="M592.514,210.073v-.022a1.655,1.655,0,0,0,1.155-1.713,1.739,1.739,0,0,0-1.942-1.778H589.58v7.482h2.061c.939,0,2.384-.216,2.384-2.049a1.747,1.747,0,0,0-1.51-1.919Zm-1.855-2.646h.616c.56,0,1.316.042,1.316,1.1,0,1-.755,1.128-1.251,1.128h-.68v-2.234Zm.831,5.746h-.831v-2.646h.723a1.376,1.376,0,0,1,1.564,1.366A1.282,1.282,0,0,1,591.49,213.173Z" transform="translate(-589.58 -206.439)" fill="#636365"/>
        <path id="Caminho_669" data-name="Caminho 669" d="M640.982,226.791c-.659,0-2.092.238-2.092,2.45,0,2.028.992,2.95,2.545,2.95a4.814,4.814,0,0,0,1.283-.174v-.77a2.788,2.788,0,0,1-.97.184c-1.4,0-1.887-1.355-1.887-2.321h2.976v-.25c0-1.214-.6-2.071-1.855-2.071ZM639.9,228.46a.987.987,0,0,1,1.024-.911.884.884,0,0,1,.938.911Z" transform="translate(-633.528 -224.469)" fill="#636365"/>
        <path id="Caminho_670" data-name="Caminho 670" d="M685.322,226.8c-1.434,0-1.919.726-1.919,1.551h1.024a.746.746,0,0,1,.82-.792.73.73,0,0,1,.787.662v.9c-1.3,0-2.8.325-2.8,1.691a1.316,1.316,0,0,0,1.456,1.388,1.417,1.417,0,0,0,1.325-.759h.022v.641H687v-3.545a1.5,1.5,0,0,0-1.682-1.735Zm.711,3.264a1.37,1.37,0,0,1-1.165,1.377.607.607,0,0,1-.561-.662c0-.661.767-1.008,1.532-1.008h.194v.293Z" transform="translate(-673.045 -224.478)" fill="#636365"/>
        <path id="Caminho_671" data-name="Caminho 671" d="M734.752,230.08c0,1.031-.561,2.115-1.359,2.115-.7,0-.7-.521-.7-1.486v-2.82h-.971v3.578c0,.641.194,1.7,1.381,1.7a1.708,1.708,0,0,0,1.629-1.226h.022v1.106h.97V227.89h-.97Z" transform="translate(-716.262 -225.45)" fill="#636365"/>
        <path id="Caminho_672" data-name="Caminho 672" d="M781.037,211.122l-.971.607v1.214h-.915v.759h.915v3.264c0,.706.3,1.257,1.542,1.257a3.523,3.523,0,0,0,.766-.076v-.759a1.921,1.921,0,0,1-.518.076c-.755,0-.82-.542-.82-1.008V213.7h1.423v-.759h-1.423V211.12Z" transform="translate(-758.535 -210.503)" fill="#636365"/>
        <path id="Caminho_673" data-name="Caminho 673" d="M814.028,231.62h-.022l-1.347-3.73H811.58l1.952,5.194-.723,2.191h.951l2.554-7.385h-1.078Z" transform="translate(-787.438 -225.45)" fill="#636365"/>
        <path id="Caminho_674" data-name="Caminho 674" d="M888.088,207.294v.6h-.928v.759h.928v4.4h.97v-4.4h1.532v-.759h-1.532v-.532c0-.52.227-1.148,1-1.148a3.491,3.491,0,0,1,1.024.151v-.813a4.767,4.767,0,0,0-1.035-.1c-1.316,0-1.963.629-1.963,1.843Z" transform="translate(-854.799 -205.45)" fill="#636365"/>
        <path id="Caminho_675" data-name="Caminho 675" d="M927.933,227.959h-.022v-1.041h-.971v5.161h.971v-2.19c0-1.582.733-2.028,1.607-2.028V226.8a1.637,1.637,0,0,0-1.586,1.16Z" transform="translate(-890.252 -224.478)" fill="#636365"/>
        <path id="Caminho_676" data-name="Caminho 676" d="M958.875,226.8c-1.553,0-2.275,1.052-2.275,2.7s.722,2.7,2.275,2.7,2.265-1.073,2.265-2.7S960.417,226.8,958.875,226.8Zm0,4.64c-1.068,0-1.2-1.117-1.2-1.94s.128-1.942,1.2-1.942,1.187,1.106,1.187,1.942S959.92,231.44,958.875,231.44Z" transform="translate(-916.687 -224.478)" fill="#636365"/>
        <path id="Caminho_677" data-name="Caminho 677" d="M1014.86,226.8a1.591,1.591,0,0,0-1.456,1.1h-.022a1.235,1.235,0,0,0-1.3-1.1,1.548,1.548,0,0,0-1.434,1.148h-.023v-1.03h-.97v5.161h.97v-2.19c0-1.03.486-2.114,1.165-2.114s.68.532.68,1.486v2.82h.971v-2.473c0-.867.529-1.832,1.133-1.832.711,0,.711.521.711,1.486v2.82h.971V228.5c0-.641-.184-1.7-1.392-1.7Z" transform="translate(-963.968 -224.478)" fill="#636365"/>
        <path id="Caminho_678" data-name="Caminho 678" d="M1116.291,212.525h-.021l-1.834-5.975h-.949l-1.844,5.975h-.022l-1.09-5.975h-.981l1.391,7.482h1.2l1.811-5.877h.022l1.833,5.877h1.2l1.36-7.482h-.982Z" transform="translate(-1053.004 -206.43)" fill="#636365"/>
        <rect id="Retângulo_232" data-name="Retângulo 232" width="1.165" height="1.106" transform="translate(66.449 0.12)" fill="#636365"/>
        <rect id="Retângulo_233" data-name="Retângulo 233" width="0.971" height="5.161" transform="translate(66.545 2.44)" fill="#636365"/>
        <path id="Caminho_679" data-name="Caminho 679" d="M1223.518,211.122l-.971.607v1.214h-.917v.759h.917v3.264c0,.706.3,1.257,1.542,1.257a3.52,3.52,0,0,0,.766-.076v-.759a1.919,1.919,0,0,1-.517.076c-.755,0-.82-.542-.82-1.008V213.7h1.423v-.759h-1.423V211.12Z" transform="translate(-1152.895 -210.503)" fill="#636365"/>
        <path id="Caminho_680" data-name="Caminho 680" d="M1263.731,208.751a1.72,1.72,0,0,0-1.629,1.226h-.022V206.55h-.97v7.482h.97v-2.19c0-1.03.561-2.114,1.359-2.114.7,0,.7.532.7,1.487v2.819h.971v-3.578c0-.641-.194-1.7-1.381-1.7Z" transform="translate(-1188.082 -206.43)" fill="#636365"/>
        <rect id="Retângulo_234" data-name="Retângulo 234" width="0.97" height="5.161" transform="translate(78.735 2.44)" fill="#636365"/>
        <rect id="Retângulo_235" data-name="Retângulo 235" width="1.165" height="1.106" transform="translate(78.638 0.12)" fill="#636365"/>
        <path id="Caminho_681" data-name="Caminho 681" d="M1340.9,226.8a1.717,1.717,0,0,0-1.628,1.226h-.021V226.92h-.971v5.161h.971v-2.19c0-1.03.56-2.114,1.359-2.114.7,0,.7.532.7,1.485v2.82h.97V228.5c0-.641-.194-1.7-1.381-1.7Z" transform="translate(-1256.86 -224.478)" fill="#636365"/>
      </g>
    </g>
    <g id="HAPLEX-PLUS-LOGO-VERDE" transform="translate(37 6017.617)">
      <g id="Grupo_211" data-name="Grupo 211" transform="translate(0 0.985)">
        <path id="Caminho_682" data-name="Caminho 682" d="M143.32,23.03H9.013a9.19,9.19,0,0,1-6.407-2.322,4.361,4.361,0,0,1-1.4-3.073V6.325c0-2.967,3.507-5.4,7.8-5.4H143.32c4.3,0,7.813,2.428,7.813,5.395v11.31C151.133,20.6,147.617,23.03,143.32,23.03Z" transform="translate(-0.044 -0.034)" fill="none" stroke="#90c21e" stroke-width="0.25"/>
        <rect id="Retângulo_236" data-name="Retângulo 236" width="149.923" height="22.1" rx="5.6" fill="#90c21e"/>
        <g id="Grupo_208" data-name="Grupo 208" transform="translate(4.451 4.605)">
          <path id="Caminho_683" data-name="Caminho 683" d="M4.63,4.78H6.518V11h6.936V4.78h1.869V19.636H13.454V12.622H6.508v7.014H4.62V4.78Z" transform="translate(-4.62 -4.78)" fill="#fff"/>
          <path id="Caminho_684" data-name="Caminho 684" d="M26.677,15.1H21.243l-1.435,4.538H17.9L22.948,4.78h2.091l5.048,14.856H28.1L26.686,15.1Zm-.462-1.5L25.5,11.321c-.549-1.686-1.012-3.3-1.5-5.029h-.077c-.462,1.744-.954,3.343-1.484,5.029L21.705,13.6h4.5Z" transform="translate(-5.106 -4.78)" fill="#fff"/>
          <path id="Caminho_685" data-name="Caminho 685" d="M32.71,4.78h4.239c3.343,0,5.578,1.118,5.578,4.355S40.3,13.74,37.055,13.74H34.6v5.9H32.71V4.78ZM36.8,12.217c2.611,0,3.854-.954,3.854-3.083s-1.32-2.842-3.931-2.842H34.6v5.915H36.8Z" transform="translate(-5.648 -4.78)" fill="#fff"/>
          <path id="Caminho_686" data-name="Caminho 686" d="M46,4.78h1.888V18.036h6.484v1.6H46Z" transform="translate(-6.135 -4.78)" fill="#fff"/>
          <path id="Caminho_687" data-name="Caminho 687" d="M57.4,4.78h8.574V6.36H59.288v4.663h5.636v1.6H59.288v5.414H66.2v1.6H57.4V4.78Z" transform="translate(-6.552 -4.78)" fill="#fff"/>
          <path id="Caminho_688" data-name="Caminho 688" d="M72.365,11.957,68.309,4.78H70.38L72.4,8.566c.385.694.694,1.32,1.175,2.168h.077c.4-.848.694-1.484,1.05-2.168L76.69,4.78h1.965L74.6,12.054l4.335,7.582H76.864l-2.187-4.017c-.385-.732-.79-1.5-1.281-2.389h-.077c-.424.9-.809,1.667-1.195,2.389l-2.148,4.017H68.01l4.335-7.678Z" transform="translate(-6.941 -4.78)" fill="#fff"/>
        </g>
        <g id="Grupo_209" data-name="Grupo 209" transform="translate(76.301 1.84)">
          <path id="Caminho_689" data-name="Caminho 689" d="M80.751,2.614H79.2V1.92h3.94v.694H81.58V7.19h-.829Z" transform="translate(-79.2 -1.91)" fill="#fff"/>
          <path id="Caminho_690" data-name="Caminho 690" d="M84.23,1.91h.954l.963,2.669c.125.356.231.713.356,1.069h.039c.125-.356.222-.723.347-1.069l.954-2.669h.963V7.189h-.771V4.579c0-.472.067-1.156.106-1.638h-.029l-.424,1.224-.915,2.514h-.52l-.925-2.514-.414-1.224h-.029c.039.482.1,1.166.1,1.638V7.189H84.24V1.91Z" transform="translate(-79.384 -1.91)" fill="#fff"/>
        </g>
        <g id="Grupo_210" data-name="Grupo 210" transform="translate(87.717 3.333)">
          <path id="Caminho_691" data-name="Caminho 691" d="M91.05,4.78h4.239c3.343,0,5.578,1.118,5.578,4.355s-2.225,4.605-5.472,4.605H92.938v5.9H91.05Zm4.094,7.437c2.611,0,3.854-.954,3.854-3.083s-1.32-2.842-3.931-2.842H92.938v5.915h2.206Z" transform="translate(-91.05 -3.508)" fill="#fff"/>
          <path id="Caminho_692" data-name="Caminho 692" d="M104.18,17.4V3.46h1.85V17.526c0,.568.241.79.53.79a1.679,1.679,0,0,0,.385-.039l.26,1.416a3.015,3.015,0,0,1-1.079.164C104.748,19.857,104.18,18.961,104.18,17.4Z" transform="translate(-91.531 -3.46)" fill="#fff"/>
          <path id="Caminho_693" data-name="Caminho 693" d="M110.03,15.755V8.78h1.84v6.753c0,2.042.607,2.919,2.071,2.919,1.137,0,1.927-.549,2.977-1.869V8.78h1.84V19.792h-1.541l-.145-1.724h-.058a4.721,4.721,0,0,1-3.651,1.985c-2.312,0-3.343-1.5-3.343-4.3Z" transform="translate(-91.744 -3.655)" fill="#fff"/>
          <path id="Caminho_694" data-name="Caminho 694" d="M121.66,18.519l.915-1.214a5,5,0,0,0,3.266,1.3c1.455,0,2.168-.771,2.168-1.724,0-1.118-1.3-1.618-2.514-2.091-1.541-.568-3.285-1.32-3.285-3.179,0-1.744,1.4-3.121,3.786-3.121a5.751,5.751,0,0,1,3.43,1.233l-.9,1.195a4.139,4.139,0,0,0-2.534-.973c-1.378,0-2,.732-2,1.58,0,1.05,1.195,1.435,2.428,1.908,1.6.607,3.362,1.252,3.362,3.343,0,1.782-1.416,3.266-4.017,3.266a6.6,6.6,0,0,1-4.114-1.522Z" transform="translate(-92.17 -3.644)" fill="#fff"/>
        </g>
      </g>
      <circle id="Elipse_8" data-name="Elipse 8" cx="8.593" cy="8.593" r="8.593" transform="translate(125.293 12.153) rotate(-45)" fill="#fff"/>
      <path id="Caminho_695" data-name="Caminho 695" d="M146.057,18.3a17.136,17.136,0,0,0-2.177-6.811,15.836,15.836,0,0,0-3.805-4.778,17.043,17.043,0,0,1,6.618,11.484c.067-.106.135-.212.193-.308C151.847,8.974,138.3,4.34,138.3,4.34l.019.048c-.135.53-2.081,12.514,7.746,13.911Z" transform="translate(-5.055 0.827)" fill="#8bb927"/>
    </g>
    <g id="Grupo_218" data-name="Grupo 218" transform="translate(115 5935)">
      <g id="RENOVABE-LIBERADO-PELA-ANVISA" transform="translate(117.692 -7.667)">
        <path id="Caminho_630" data-name="Caminho 630" d="M7.217,7.218C-14.7,30.49,18.13,63.33,41.413,41.414,63.329,18.141,30.5-14.7,7.217,7.218Z" transform="translate(4.303 4.302)" fill="#fff"/>
        <path id="Caminho_631" data-name="Caminho 631" d="M57.235,28.617c0-2.468-2.441-4.579-3.053-6.855-.628-2.351.415-5.4-.776-7.461-1.207-2.09-4.377-2.7-6.073-4.4s-2.313-4.861-4.4-6.073c-2.063-1.191-5.105-.149-7.461-.782C33.2,2.446,31.085,0,28.617,0s-4.579,2.446-6.85,3.053c-2.356.628-5.4-.415-7.461.776C12.216,5.036,11.6,8.211,9.908,9.9s-4.866,2.313-6.079,4.4c-1.191,2.058-.149,5.105-.782,7.461C2.441,24.038,0,26.155,0,28.617S2.441,33.2,3.053,35.473c.628,2.351-.415,5.4.776,7.456,1.207,2.09,4.382,2.7,6.073,4.4s2.313,4.866,4.4,6.079c2.058,1.191,5.105.149,7.461.782,2.276.606,4.388,3.053,6.85,3.053s4.579-2.441,6.85-3.053c2.351-.628,5.4.415,7.461-.782,2.09-1.207,2.7-4.377,4.4-6.073s4.866-2.308,6.073-4.4c1.191-2.058.149-5.105.782-7.461C54.794,33.2,57.235,31.085,57.235,28.617Zm-11.514,17.1C22.432,67.648-10.413,34.8,11.514,11.514,34.8-10.413,67.648,22.443,45.721,45.721Z" transform="translate(0 0)" fill="#ff4289"/>
        <path id="Caminho_632" data-name="Caminho 632" d="M22.629,45.258a22.631,22.631,0,0,1-16-38.632A22.632,22.632,0,0,1,45.258,22.634,22.624,22.624,0,0,1,22.629,45.258Zm0-44.232a21.6,21.6,0,1,0,21.6,21.6A21.626,21.626,0,0,0,22.629,1.026Z" transform="translate(5.988 5.988)" fill="#ff4289"/>
        <path id="Caminho_633" data-name="Caminho 633" d="M2.787,0H4.531L7.313,6.579H5.371L4.893,5.414H2.372L1.9,6.579H0ZM4.372,4,3.643,2.149,2.9,4Z" transform="translate(9.541 25.198)" fill="#ff4289"/>
        <path id="Caminho_634" data-name="Caminho 634" d="M0,0H1.691L4.377,3.452V0H6.169V6.536H4.584L1.792,2.952V6.536H0Z" transform="translate(17.486 25.246)" fill="#ff4289"/>
        <path id="Caminho_635" data-name="Caminho 635" d="M0,0H2.026L3.51,4.138,4.994,0H6.977L4.329,6.579H2.648Z" transform="translate(24.294 25.246)" fill="#ff4289"/>
        <path id="Caminho_636" data-name="Caminho 636" d="M0,0H1.819V6.536H0Z" transform="translate(31.947 25.246)" fill="#ff4289"/>
        <path id="Caminho_637" data-name="Caminho 637" d="M0,5.669l1.01-1.2a3.35,3.35,0,0,0,2.117.787c.484,0,.745-.17.745-.447V4.792c0-.271-.213-.42-1.1-.628C1.377,3.845.309,3.457.309,2.111V2.09C.309.877,1.271,0,2.84,0A4.1,4.1,0,0,1,5.526.867l-.9,1.276A3.268,3.268,0,0,0,2.792,1.5c-.436,0-.654.186-.654.42v.021c0,.3.223.431,1.128.633C4.77,2.9,5.7,3.388,5.7,4.611v.016c0,1.335-1.053,2.127-2.643,2.127A4.594,4.594,0,0,1,0,5.669Z" transform="translate(34.467 25.139)" fill="#ff4289"/>
        <path id="Caminho_638" data-name="Caminho 638" d="M2.782,0H4.526L7.307,6.579H5.366L4.887,5.414H2.372L1.9,6.579H0Zm1.59,4L3.643,2.149,2.9,4Z" transform="translate(40.381 25.198)" fill="#ff4289"/>
        <path id="Caminho_639" data-name="Caminho 639" d="M1.558,1a.626.626,0,0,1-.186.223.759.759,0,0,1-.271.133,1.151,1.151,0,0,1-.33.048H.245V2.17H0V0H.814a1.215,1.215,0,0,1,.335.048A.665.665,0,0,1,1.4.186.607.607,0,0,1,1.569.4.775.775,0,0,1,1.627.7.682.682,0,0,1,1.558,1ZM1.223.346A.672.672,0,0,0,.8.229H.25v.957H.787a.937.937,0,0,0,.245-.032.647.647,0,0,0,.191-.1A.437.437,0,0,0,1.346.9a.5.5,0,0,0,.042-.2A.427.427,0,0,0,1.223.346Z" transform="translate(23.916 19.209)" fill="#ff4289"/>
        <path id="Caminho_640" data-name="Caminho 640" d="M1.569.223H.245V.968H1.431v.223H.245v.76h1.34V2.17H0V0H1.569V.223Z" transform="translate(26.362 19.209)" fill="#ff4289"/>
        <path id="Caminho_641" data-name="Caminho 641" d="M0,0H.245V1.946H1.468V2.17H0Z" transform="translate(28.814 19.209)" fill="#ff4289"/>
        <path id="Caminho_642" data-name="Caminho 642" d="M2.207,2.186H1.941l-.255-.574H.505L.25,2.186H0L.989,0h.229ZM1.1.287.606,1.393H1.6Z" transform="translate(30.925 19.193)" fill="#ff4289"/>
        <path id="Caminho_643" data-name="Caminho 643" d="M3.478,3.526,0,.941.7,0,3.414,2.021,4.409.681l.76.564Z" transform="translate(12.556 17.614)" fill="#ff4289"/>
        <path id="Caminho_644" data-name="Caminho 644" d="M2.893,4.015,0,.787.877,0,3.771,3.228Z" transform="translate(15.481 14.285)" fill="#ff4289"/>
        <path id="Caminho_645" data-name="Caminho 645" d="M0,1.155,1.319.415A2.611,2.611,0,0,1,2.59,0a.885.885,0,0,1,.771.5,1.062,1.062,0,0,1,.144.633.853.853,0,0,1-.266.532l.016.027a1.023,1.023,0,0,1,.686.027,1.068,1.068,0,0,1,.473.473,1.119,1.119,0,0,1,.069,1.026,1.953,1.953,0,0,1-.888.888l-1.473.824Zm1.835.877.308-.17A.589.589,0,0,0,2.43,1.58.357.357,0,0,0,2.4,1.245c-.117-.213-.34-.229-.66-.048l-.287.16Zm.42.75.447.792.362-.2q.479-.263.255-.67a.4.4,0,0,0-.293-.218.657.657,0,0,0-.425.106Z" transform="translate(17.944 11.859)" fill="#ff4289"/>
        <path id="Caminho_646" data-name="Caminho 646" d="M3.569,4.2l-2.494.638L0,.638,2.494,0l.234.909-1.362.346.17.659L2.792,1.59l.234.909-1.255.324.2.792,1.361-.346Z" transform="translate(22.725 10.078)" fill="#ff4289"/>
        <path id="Caminho_647" data-name="Caminho 647" d="M1.2,2.776,1.17,4.356,0,4.334.069,0l1.42.021C2.664.043,3.249.479,3.234,1.33a1.288,1.288,0,0,1-.755,1.154L3.712,4.393l-1.33-.021-.894-1.59ZM1.207,1.9l.218.005c.409.005.617-.17.622-.532.005-.3-.192-.452-.6-.457L1.223.909Z" transform="translate(27.139 9.796)" fill="#ff4289"/>
        <path id="Caminho_648" data-name="Caminho 648" d="M2.989,4.669l.037-.84-1.345-.42-.452.713L0,3.739,2.643,0,4.132.463l.075,4.579Zm.09-1.829.032-.734c.005-.165.016-.372.032-.633s.027-.441.043-.553c-.048.09-.128.239-.25.447s-.362.606-.734,1.2Z" transform="translate(30.878 10.424)" fill="#ff4289"/>
        <path id="Caminho_649" data-name="Caminho 649" d="M4.313,3.8A2.228,2.228,0,0,1,2.867,4.834a2.268,2.268,0,0,1-1.712-.479L0,3.558,2.473,0,3.707.856A2.282,2.282,0,0,1,4.728,2.212,2.022,2.022,0,0,1,4.313,3.8Zm-1.026-.66A1.346,1.346,0,0,0,3.6,2.282a.86.86,0,0,0-.425-.644l-.282-.191L1.5,3.441l.213.149a.947.947,0,0,0,.819.191A1.488,1.488,0,0,0,3.287,3.143Z" transform="translate(35.547 12.211)" fill="#ff4289"/>
        <path id="Caminho_650" data-name="Caminho 650" d="M3.615,3.9a2.358,2.358,0,0,1-1.633.628A2.054,2.054,0,0,1,.552,3.659,2.061,2.061,0,0,1,.014,2.085,2.323,2.323,0,0,1,.972.617,2.315,2.315,0,0,1,2.6.006,2.062,2.062,0,0,1,4.03.872a2.065,2.065,0,0,1,.542,1.574A2.347,2.347,0,0,1,3.615,3.9ZM1.743,1.574q-.981.79-.431,1.468a.76.76,0,0,0,.649.324,1.664,1.664,0,0,0,.877-.431,1.687,1.687,0,0,0,.612-.771.744.744,0,0,0-.165-.7C2.918,1.005,2.4,1.043,1.743,1.574Z" transform="translate(39.473 16.024)" fill="#ff4289"/>
        <g id="Grupo_204" data-name="Grupo 204" transform="translate(16.949 36.738)">
          <g id="Grupo_201" data-name="Grupo 201" transform="translate(0 0.697)">
            <path id="Caminho_651" data-name="Caminho 651" d="M1.718.585A4.816,4.816,0,0,0,.67.66v3.4a.143.143,0,0,1-.138.149H.138A.147.147,0,0,1,0,4.058V.388A.19.19,0,0,1,.138.213,4.034,4.034,0,0,1,1.718,0c.1,0,.16.005.16.112V.457C1.877.548,1.861.585,1.718.585Z" transform="translate(0 0)" fill="#444"/>
            <path id="Caminho_652" data-name="Caminho 652" d="M3.191,2.345H.659v.09c0,.867.41,1.266,1.1,1.266A9.338,9.338,0,0,0,3.053,3.6H3.09a.11.11,0,0,1,.122.106v.255c0,.1-.032.149-.149.176a6.177,6.177,0,0,1-1.3.127A1.642,1.642,0,0,1,0,2.393V1.867A1.663,1.663,0,0,1,1.675,0,1.635,1.635,0,0,1,3.335,1.856v.319C3.335,2.276,3.281,2.345,3.191,2.345ZM2.664,1.8C2.664.994,2.34.585,1.675.585,1.026.585.665,1.021.665,1.8V1.84h2Z" transform="translate(1.803 0)" fill="#444"/>
            <path id="Caminho_653" data-name="Caminho 653" d="M3.047,4.2H2.654a.14.14,0,0,1-.138-.149v-2.7c0-.564-.144-.787-.654-.787H1.324C.808.569.67.787.67,1.356v2.7A.137.137,0,0,1,.532,4.2H.138A.14.14,0,0,1,0,4.053v-2.7A1.21,1.21,0,0,1,1.319,0h.537A1.213,1.213,0,0,1,3.175,1.356v2.7A.129.129,0,0,1,3.047,4.2Z" transform="translate(5.419 0.011)" fill="#444"/>
            <path id="Caminho_654" data-name="Caminho 654" d="M1.675,4.255A1.611,1.611,0,0,1,0,2.415V1.84C0,.729.564,0,1.675,0A1.615,1.615,0,0,1,3.356,1.84v.574A1.617,1.617,0,0,1,1.675,4.255Zm1.016-2.42c0-.771-.308-1.26-1.021-1.26s-1.01.484-1.01,1.26v.574c0,.771.3,1.26,1.01,1.26s1.021-.484,1.021-1.26Z" transform="translate(8.892 0.011)" fill="#444"/>
            <path id="Caminho_655" data-name="Caminho 655" d="M3.409.181,2.441,3.606a.712.712,0,0,1-.734.6.718.718,0,0,1-.734-.6L.005.181A.2.2,0,0,1,0,.128.119.119,0,0,1,.122,0H.537A.161.161,0,0,1,.681.144L1.526,3.42c.048.186.106.234.181.234s.138-.048.181-.234L2.734.144A.161.161,0,0,1,2.877,0H3.3c.074,0,.112.048.112.122A.108.108,0,0,1,3.409.181Z" transform="translate(12.163 0.058)" fill="#444"/>
            <path id="Caminho_656" data-name="Caminho 656" d="M3.031,4.084a6.393,6.393,0,0,1-1.388.176C.521,4.26,0,3.526,0,2.393V1.867C0,.734.511,0,1.643,0A6.121,6.121,0,0,1,3.031.176c.138.032.16.069.16.175V3.914C3.191,4.01,3.17,4.053,3.031,4.084ZM2.526.633A5.525,5.525,0,0,0,1.643.558c-.75,0-.979.505-.979,1.308v.526C.665,3.186.9,3.7,1.643,3.7a5.652,5.652,0,0,0,.883-.074Z" transform="translate(15.497 0.005)" fill="#444"/>
          </g>
          <g id="Grupo_203" data-name="Grupo 203" transform="translate(16.609 0)">
            <g id="Grupo_202" data-name="Grupo 202" transform="translate(0)">
              <path id="Caminho_657" data-name="Caminho 657" d="M2.531,5.323a.583.583,0,0,1-.282-.5A.811.811,0,0,1,2.824,4.1c.606-.245,1.58-.271,2.4-.532l.016-.16c0-.553-.4-1.074-1.43-1.074a4.321,4.321,0,0,0-.558.043c-.819,1.133-1.59,2.441-1.7,2.611a.057.057,0,0,1-.053.037.059.059,0,0,1-.058-.058V4.951A8.389,8.389,0,0,1,2.633,2.484a.08.08,0,0,1-.064-.058V2.4c0-.064.074-.08.207-.128.3-.441.585-.835.92-1.3C2.611,1.877.686,2.053.3,3.037a.15.15,0,0,1-.133.1A.164.164,0,0,1,0,2.978L.016,2.92c.043-.112.34-.192.643-.441C1.479,1.776,3.042,1.718,4,.548c.117-.16.234-.346.356-.516C4.377.011,4.393,0,4.4,0a.064.064,0,0,1,.064.058L4.451.1C4.3.383,3.287,1.819,3.053,2.17l.213-.09C3.654,1.542,4.616.25,5.254.25a.394.394,0,0,1,.234.075.374.374,0,0,1,.128.17.284.284,0,0,1,.016.117c0,.665-1.6,1.34-2.234,1.59a2.455,2.455,0,0,1,.34-.016c.878,0,1.622.367,1.622,1.181,0,.053,0,.1-.005.159a2.163,2.163,0,0,0,.67-.346l.021-.005a.04.04,0,0,1,.037.037.038.038,0,0,1-.016.032,2.47,2.47,0,0,1-.723.367A2.48,2.48,0,0,1,3.074,5.467,1.029,1.029,0,0,1,2.531,5.323Zm.5-2.914-.17.032A11.994,11.994,0,0,0,1.792,4.35C2.18,3.691,2.6,3.031,3.031,2.409ZM5.212,3.648c-.819.25-1.776.282-2.361.516-.4.17-.532.425-.532.644a.626.626,0,0,0,.064.261.727.727,0,0,0,.67.308A2.381,2.381,0,0,0,5.212,3.648Zm.239-3L5.456.6A.173.173,0,0,0,5.27.409c-.261,0-.787.33-1.712,1.542C4.047,1.744,5.345,1.17,5.451.649Z" transform="translate(0 0)" fill="#e8408e"/>
              <path id="Caminho_658" data-name="Caminho 658" d="M0,.952A1.025,1.025,0,0,1,.34.308.848.848,0,0,1,.9,0c.138,0,.224.075.224.176C1.122.346.888.6.25.723A.547.547,0,0,0,.17.989c0,.138.1.213.245.213A1.434,1.434,0,0,0,1.372.569.046.046,0,0,1,1.4.553.04.04,0,0,1,1.441.59L1.436.612a1.526,1.526,0,0,1-1.053.681A.342.342,0,0,1,0,.952ZM.968.186V.17L.915.165a.933.933,0,0,0-.6.452C.729.463.968.266.968.186Z" transform="translate(5.717 2.579)" fill="#e8408e"/>
            </g>
          </g>
        </g>
      </g>
    </g>
    <g id="Grupo_219" data-name="Grupo 219" transform="translate(204 5935)">
      <g id="SELO" transform="translate(120.313 -6.576)">
        <path id="Caminho_425" data-name="Caminho 425" d="M53.64,36.3l-2.819,1.612.689,3.172-3.073,1.048.076,3.241-3.215.448-.54,3.2-3.241-.168L40.381,51.9l-3.152-.778-1.7,2.779-2.948-1.361L30.4,54.94l-2.641-1.894-2.6,1.945-2.23-2.359-2.921,1.417-1.735-2.741-3.137.84-1.193-3.02-3.241.23-.6-3.19-3.223-.388.013-3.241L3.8,41.549l.628-3.185L1.58,36.8l1.22-3.01L.3,31.724,2.066,29,0,26.5l2.251-2.34L.7,21.306l2.652-1.872-.987-3.094L5.32,15.006l-.384-3.223,3.158-.753.233-3.241,3.241-.14.84-3.136,3.211.48,1.426-2.922,3.064,1.08,1.945-2.6,2.8,1.635L27.262,0l2.445,2.137L32.48.449l2,2.559,3.042-1.132,1.477,2.891,3.2-.535.9,3.121,3.241.079.294,3.233,3.173.693-.322,3.229,2.983,1.28-.928,3.112L54.226,20.8l-1.5,2.881,2.3,2.3L53,28.52l1.819,2.69L52.364,33.32Z" fill="url(#linear-gradient)"/>
        <path id="_ring_" data-name="&lt;ring&gt;" d="M85.862,83.743A21.848,21.848,0,1,0,55.019,85.62,21.848,21.848,0,0,0,85.862,83.743ZM48.11,70.564A21.431,21.431,0,1,1,55.3,85.31,21.431,21.431,0,0,1,48.11,70.564Z" transform="translate(-41.934 -41.721)" fill="url(#linear-gradient-2)"/>
        <path id="_stars_" data-name="&lt;stars&gt;" d="M42.893,41.481l.342-.3-.18-.419.393.232.341-.3-.1.445.393.232-.455.043-.1.445-.181-.419Zm1.329-1.142.36-.275-.149-.431.373.262.36-.274-.133.436.373.262-.456.008-.133.436-.149-.431ZM45.638,39.3l.384-.24-.12-.442.352.291.384-.24-.166.425.352.289-.455-.028-.161.411-.12-.442Zm1.487-.924.4-.214-.08-.45.329.316.4-.215-.2.411.329.316-.453-.062-.2.411-.082-.442Zm1.555-.807.417-.184-.046-.454.3.34.418-.184-.23.4.3.341-.445-.1-.23.395-.046-.454Zm1.611-.684.43-.154-.011-.456.276.36.431-.151-.258.375.276.36L51,37.09l-.259.376-.011-.456Zm1.659-.562.441-.12.024-.455.248.382.439-.12-.286.36.248.383-.424-.168-.287.36.024-.455Zm1.694-.432.449-.085.058-.453.22.4.448-.085L54.505,36l.218.4-.413-.194L54,36.542l.058-.453Zm1.726-.3.454-.05.092-.447.187.417.454-.05-.337.306.188.417-.4-.227-.337.309.089-.455Zm1.742-.172.456-.016.126-.439.155.43.456-.017-.36.281.156.43-.378-.256-.36.281.12-.438Zm1.753-.04.455.019.164-.43.12.439.455.019-.379.252.12.439-.36-.283-.381.253.16-.427Zm1.748.095.453.054.191-.414.089.448.454.053-.394.221.084.454-.335-.31-.4.222.191-.414Zm1.738.228.448.089.222-.4.054.453.448.089-.413.191.054.454-.311-.335-.414.192.222-.4Zm1.714.36.439.12.252-.381.019.456.439.12-.427.16.019.455-.283-.36-.427.158.251-.381Zm1.681.49.43.157.28-.36-.016.456.429.156-.438.126-.016.456-.256-.379-.438.12L66,36.92Zm1.642.621.415.188.307-.336-.05.454.415.187-.447.092-.052.451-.226-.4L67.3,37.9l.307-.336Zm1.58.739.4.22.333-.312-.086.448.4.22-.453.058-.085.448-.194-.413-.453.058.331-.312Zm1.527.863.381.248.36-.286-.12.441.382.248-.455.024-.12.441-.163-.427-.456.023.36-.286Zm1.451.972.36.277.383-.255-.152.431.36.277-.456-.011-.151.43-.128-.443L71.7,40.44l.376-.259Zm1.379,1.08.341.3.394-.229-.184.418.34.3-.447-.042-.184.418-.1-.447-.454-.046.394-.23Zm1.293,1.182.316.329.411-.2-.216.4.317.329L75,42.788l-.215.4-.064-.453-.449-.08.411-.2Zm1.2,1.277.289.352.425-.167-.246.384.291.353-.442-.12-.246.384-.026-.455-.442-.12.425-.167Zm1.1,1.369.26.372.437-.133-.275.36.262.375-.431-.148-.274.36.007-.456-.432-.149.437-.133ZM77.9,46.1l.232.393.445-.1-.3.342.232.393-.421-.179-.3.342.043-.454-.419-.181.445-.1Zm.873,1.517.2.409.451-.065-.327.318.2.408-.4-.211-.33.321.077-.45-.4-.212.451-.065Zm.754,1.583.169.423.455-.03-.349.292.169.424-.387-.24-.349.292.11-.442-.385-.24.455-.03Zm.63,1.631.137.435h.456l-.371.264.137.436-.366-.271-.372.264.145-.432-.366-.271h.455Zm.505,1.681.1.444.454.038-.39.24.1.444-.345-.3-.39.24.176-.421-.345-.3.454.04Zm.377,1.712.07.45.451.073-.408.205.07.451-.321-.323-.408.205.209-.407-.322-.323.451.073Zm.247,1.736.035.455.443.107-.421.17.035.454-.291-.347-.423.173.24-.388-.3-.348.443.107Zm.113,1.748v.455l.433.142-.433.14V58.9l-.268-.369-.435.142.269-.37-.269-.369.433.139Zm-.02,1.745-.034.455.421.173-.443.108-.035.455-.24-.388-.444.108.3-.348-.24-.389.427.174ZM81.23,61.2l-.068.451.411.2-.45.073-.068.45-.214-.4-.45.073.322-.324-.21-.406.408.2Zm-.286,1.726-.1.444.39.24-.454.04-.1.443-.181-.424-.455.038.345-.3-.178-.42.391.24Zm-.418,1.7-.138.436.372.264H80.3l-.138.435-.144-.431h-.456l.36-.272-.144-.432.371.265Zm-.55,1.669-.169.423.349.293-.455-.03-.17.419-.112-.442-.455-.031.388-.24-.112-.442.351.291ZM79.3,67.911l-.2.409.327.318-.451-.066-.2.408-.078-.449-.451-.066.4-.212-.077-.449.327.319Zm-.8,1.561-.233.393.3.343-.444-.1L77.9,70.5l-.042-.453-.447-.1.42-.181-.042-.454.3.342Zm-.914,1.49-.259.377.276.36-.437-.132-.259.372-.011-.455-.437-.132.431-.15-.01-.456.276.36Zm-1.02,1.426-.283.352.246.384-.425-.167-.289.353.026-.455-.425-.166.442-.12.026-.455.246.384Zm-1.124,1.34-.315.33.216.4-.412-.2-.315.33.06-.451-.411-.2.449-.082.062-.453.215.4Zm-1.226,1.251-.339.3.185.417-.395-.228-.343.309.1-.445-.395-.228.454-.047.1-.447.185.417ZM72.9,76.132l-.36.277.152.43-.376-.258-.36.277.13-.437-.376-.259.456-.011.13-.438.149.427Zm-1.4,1.049-.383.248.12.441-.351-.289-.381.248.161-.425-.354-.287.456.023.163-.426.12.441Zm-1.48.938-.4.22.084.448-.331-.312-.4.217.194-.412-.331-.313.453.059.2-.413.083.449Zm-1.547.822-.415.187.05.454-.307-.339-.415.188.226-.4L67.3,78.7l.447.092.227-.4.049.454Zm-1.606.7-.429.155.014.456-.279-.36-.43.155L66,79.67l-.281-.36.439.127.256-.378.014.455Zm-1.654.58-.439.12-.019.456-.252-.381-.439.12.283-.36-.252-.381.427.16.285-.36-.02.455Zm-1.69.448-.448.089-.054.453-.223-.4-.447.089.31-.335-.223-.4.415.192.31-.335-.054.453Zm-1.724.319-.453.054-.089.448-.191-.414-.454.054.335-.309-.192-.414.4.223.335-.311-.089.447Zm-1.739.187-.456.02-.12.439-.16-.427-.456.019.36-.283-.16-.427.381.252.36-.285-.12.439Zm-1.753.055-.455-.014-.155.429-.127-.439-.455-.014.377-.256-.12-.438.36.281.377-.257-.155.43Zm-1.751-.079L56.1,81.1l-.187.415-.094-.447-.454-.049.4-.227-.092-.447.337.307.4-.227-.187.415Zm-1.739-.21-.448-.084-.22.4-.058-.453-.448-.084.411-.2L54,80.074l.313.331.413-.2-.22.4ZM53.1,80.6l-.441-.12-.248.382-.024-.455-.441-.12.426-.163-.024-.456.288.36.425-.162-.248.382Zm-1.689-.48-.43-.151-.277.36.012-.457-.43-.151.437-.13.012-.456.258.376.438-.13-.278.36Zm-1.64-.6-.418-.184-.3.34.046-.454-.417-.188.445-.1.047-.453.229.394.447-.095-.3.34Zm-1.6-.736-.4-.215-.33.315.082-.449-.4-.215.45-.062.083-.449.2.412.453-.061-.33.315Zm-1.531-.84-.384-.24-.353.289.12-.441-.384-.24.455-.028.12-.441.167.425.455-.028-.352.289Zm-1.465-.96-.36-.274-.373.262.149-.432-.36-.274.456.007.148-.431.134.436.456.007-.373.263ZM43.8,75.914l-.343-.3-.391.233.18-.419-.343-.3.454.041.18-.419.1.445.455.042-.393.232Zm-1.3-1.173-.319-.327-.408.2.211-.4-.318-.327.45.076.21-.409.066.451.45.077-.409.2Zm-1.209-1.272-.293-.349-.423.17.24-.388-.291-.349.443.11.24-.387.037.455.443.112-.429.176Zm-1.108-1.357-.265-.371-.435.137.271-.366-.265-.371.432.143.271-.366v.456l.432.145-.435.137Zm-1-1.441-.24-.39-.444.1.3-.345-.24-.39.42.176.3-.345-.038.455.42.176-.444.1Zm-.888-1.511-.205-.407-.45.07.324-.322-.2-.4.406.209.324-.322-.074.451.406.209-.45.07Zm-.771-1.57-.174-.421-.455.034.348-.294-.174-.423.389.24.347-.3-.107.444.388.24-.455.035Zm-.647-1.627-.14-.433h-.456l.37-.268-.142-.433.372.268.369-.268-.14.435.369.268h-.456Zm-.521-1.681-.107-.443-.455-.035.388-.24-.1-.438.347.3.389-.24-.174.423.348.3-.455-.035Zm-.393-1.7-.073-.45-.451-.068.4-.209-.074-.45.325.321.406-.209-.205.407.324.322-.451-.07Zm-.262-1.733-.038-.454-.444-.1.419-.178-.035-.454.3.343.421-.178-.24.391.3.345-.444-.1ZM35.565,59.1v-.456l-.435-.136.432-.145V57.91l.273.36.432-.144L36,58.5l.273.367-.439-.131Zm0-1.75.03-.455-.423-.169.442-.113.03-.454.24.385.442-.112-.292.351.24.385L35.849,57Zm.15-1.748.065-.451-.409-.2.45-.078.064-.451.214.4.449-.077-.317.328.205.4-.408-.2Zm.27-1.731.1-.444-.393-.233.455-.043.1-.444.182.418.454-.043-.343.3.178.425-.393-.24Zm.4-1.7.133-.436-.373-.262.455-.008.134-.436.148.43.457-.007-.36.275.149.432-.375-.262Zm.527-1.67.167-.424-.352-.289.455.026.167-.425.12.442.455.026-.384.247.12.442-.352-.291Zm.66-1.623.2-.411-.33-.316.453.062.2-.4.082.449.451.061-.4.21.08.449-.329-.316Zm.78-1.567.229-.394-.3-.34.445.1.229-.394.048.449.445.1-.418.184.047.455-.3-.341Zm.9-1.5.259-.376-.277-.36.439.128.258-.376.012.456.437.128-.431.151.012.457-.277-.36Zm1.011-1.431.286-.36-.25-.382.426.162.286-.36-.022.456.426.162-.441.12-.023.456-.248-.382Zm1.113-1.349.312-.333-.214-.4.413.194.307-.333-.056.453.417.193-.449.086-.058.453-.22-.4Z" transform="translate(-30.913 -30.763)" fill="url(#linear-gradient-3)"/>
        <path id="Caminho_426" data-name="Caminho 426" d="M64.26,67.618,62.5,66.343a3.76,3.76,0,0,0-.471-.315.208.208,0,0,0-.187.013,1.19,1.19,0,0,0-.3.327l-.058.078-.383-.277a1.769,1.769,0,0,0,.108-1.256l.34-.468,3.284,2.378ZM79.33,84.064l.36.743.366-.743.817-.12-.593-.577.142-.815-.732.385-.732-.385.139.815-.591.577Zm7.216,2.24-.529-.611-1.669,1.451.532.613.451-.394,2.128,2.448.765-.664L86.1,86.7Zm8.7-10.575c0,.151,0,.3-.006.45v.132c0,.112-.007.222-.013.333a.949.949,0,0,1-.006.131c-.016.3-.038.593-.067.886a1.135,1.135,0,0,1-.013.128c-.012.109-.024.217-.037.327a1.154,1.154,0,0,1-.016.127c-.019.145-.038.29-.061.435v.01c-.022.14-.046.281-.07.42-.008.044-.016.088-.024.132-.019.1-.038.206-.059.309-.01.044-.018.089-.028.133-.028.137-.058.274-.089.409a.28.28,0,0,1-.01.043q-.044.191-.094.382c-.012.047-.024.094-.037.142-.024.095-.05.188-.077.283l-.04.143c-.035.12-.072.24-.109.366a19.372,19.372,0,0,1-37.006.042h0c-.042-.136-.083-.272-.12-.409-.012-.038-.023-.078-.034-.12-.029-.1-.056-.208-.084-.312l-.032-.12c-.035-.136-.068-.274-.1-.411a.029.029,0,0,1,0-.01c-.032-.14-.062-.282-.092-.424l-.025-.12-.061-.318c-.007-.042-.014-.084-.023-.126-.025-.143-.049-.286-.071-.43h0c-.023-.145-.042-.291-.061-.436a1.13,1.13,0,0,0-.016-.126c-.013-.109-.026-.218-.037-.328,0-.043-.01-.085-.013-.128-.03-.293-.052-.589-.067-.886l-.007-.13c0-.112-.008-.222-.012-.334V75.16c0-.11.007-.222.012-.333l.007-.13c.016-.3.037-.593.067-.887a1.144,1.144,0,0,1,.013-.127c.011-.11.024-.22.037-.329a.906.906,0,0,1,.016-.12q.056-.438.133-.868l.022-.12c.02-.108.041-.215.062-.323.007-.04.016-.079.024-.12q.088-.427.2-.849c.01-.037.019-.076.03-.12.028-.108.056-.215.086-.322.011-.036.02-.073.031-.109.04-.138.08-.276.12-.413h0a19.372,19.372,0,0,1,37,.014c.041.128.079.258.12.389.012.044.025.089.037.134.028.1.054.2.079.294.012.044.024.089.035.133.034.132.066.263.1.4v.022c.032.14.062.28.092.42l.025.13c.022.1.041.208.06.313.008.043.016.086.024.13.024.14.048.282.07.424a.056.056,0,0,1,0,.006c.023.145.042.289.061.435a1.111,1.111,0,0,0,.016.127c.013.109.025.217.037.327,0,.043.01.086.013.128q.043.441.067.887a.936.936,0,0,0,.006.13c.006.11.01.222.013.333v.132C95.246,75.433,95.249,75.583,95.249,75.73ZM57.7,69.979H63.68a13.493,13.493,0,0,1,24.406,0h5.981a19.076,19.076,0,0,0-36.374,0Zm12.54,4.947V73.661h1.235V72.325H68.386V79H71.6V77.666H70.239V76.2h1.156V74.926Zm-5.4,6.56a12.455,12.455,0,0,0,22.088,0ZM74.014,79V74.6L74.693,79h1.148l.643-4.508V79H78.1V72.325H75.7l-.426,3.121-.263-1.7q-.112-.817-.22-1.419h-2.4v6.677Zm6.963,0V72.325H79.126V79Zm2.838-1.671V72.325H81.963v3.951q0,1.128.043,1.483a1.385,1.385,0,0,0,.286.67,1.7,1.7,0,0,0,.731.516,2.973,2.973,0,0,0,1.125.2,2.725,2.725,0,0,0,1-.167,1.615,1.615,0,0,0,.683-.491,1.4,1.4,0,0,0,.312-.63,7.154,7.154,0,0,0,.053-1.066V72.325H84.346v4.922a2.347,2.347,0,0,1-.05.633.215.215,0,0,1-.227.134.2.2,0,0,1-.2-.12A1.868,1.868,0,0,1,83.815,77.331Zm3.113-7.352a12.455,12.455,0,0,0-22.088,0Zm.315,0h.224a12.937,12.937,0,0,0-23.169,0h.226a12.734,12.734,0,0,1,22.716,0ZM63.266,72.325V79h1.851V75.991c.255,0,.413.042.473.127a1.448,1.448,0,0,1,.09.664V79H67.4V77.241a5.953,5.953,0,0,0-.046-.988,1.007,1.007,0,0,0-.24-.394,1.417,1.417,0,0,0-.74-.342,1.121,1.121,0,0,0,.814-.322,1.844,1.844,0,0,0,.206-1.048A2.1,2.1,0,0,0,67.1,72.9a1.235,1.235,0,0,0-.756-.48,10.814,10.814,0,0,0-1.774-.094ZM64.3,81.492a12.937,12.937,0,0,0,23.169,0h-.227a12.734,12.734,0,0,1-22.716,0Zm24.5-2.485V74.6l.678,4.406h1.149l.643-4.508v4.508h1.618V72.325h-2.4l-.426,3.121-.263-1.7q-.113-.817-.22-1.419H87.185v6.677Zm-26.41-5.736a1.081,1.081,0,0,0-.277-.509,1.32,1.32,0,0,0-.611-.322,4.656,4.656,0,0,0-1.163-.11H58.475v6.677h1.851v-2.7h.5a2.593,2.593,0,0,0,.983-.156.94.94,0,0,0,.516-.449,2.291,2.291,0,0,0,.142-.933v-.581a4.322,4.322,0,0,0-.073-.927Zm31.675,8.221H88.087a13.493,13.493,0,0,1-24.406,0H57.7a19.078,19.078,0,0,0,36.374,0ZM68.162,59.9a1.227,1.227,0,0,1-.1-.437.466.466,0,0,1,.132-.3.893.893,0,0,1,.36-.233.912.912,0,0,1,.456-.066.509.509,0,0,1,.3.143,1.184,1.184,0,0,1,.206.383l.24.652a1.251,1.251,0,0,1,.1.4.48.48,0,0,1-.12.3.825.825,0,0,1-.371.247.941.941,0,0,1-.48.077.5.5,0,0,1-.288-.139,1.034,1.034,0,0,1-.175-.343Zm.466-.575a.578.578,0,0,0,.052.19l.36.96a.689.689,0,0,0,.09.191c.018.018.05.018.1,0s.06-.037.061-.066a.55.55,0,0,0-.048-.182l-.366-.972a.686.686,0,0,0-.085-.18c-.018-.019-.049-.022-.094,0S68.631,59.294,68.628,59.323Zm18.456,25.09q.616.749,1.067,1.222a16.021,16.021,0,0,0-1.4-.812l-.583.72,2.461,1.071,1.143.921.588-.73-1.143-.921-1.55-2.2ZM70.361,62.747l-.044-4.482-.345.131.038,4.484Zm-7.652,1.128a.826.826,0,0,1-.048-.579,1.28,1.28,0,0,1,.36-.593,1.374,1.374,0,0,1,.493-.323.96.96,0,0,1,.472-.066.939.939,0,0,1,.387.15,3.505,3.505,0,0,1,.5.445l.95.96a3.266,3.266,0,0,1,.436.511.937.937,0,0,1,.133.421.87.87,0,0,1-.079.447,1.372,1.372,0,0,1-.287.4,1.748,1.748,0,0,1-.48.351.8.8,0,0,1-.448.076,1.179,1.179,0,0,1-.4-.128,2.46,2.46,0,0,1-.48-.4l-.994-1.008A2.8,2.8,0,0,1,62.709,63.875Zm.72-.58a1.351,1.351,0,0,0,.256.309l1.389,1.409a1.469,1.469,0,0,0,.323.28.139.139,0,0,0,.152-.048.137.137,0,0,0,.042-.161,1.327,1.327,0,0,0-.24-.3l-1.411-1.431a1.659,1.659,0,0,0-.3-.267.133.133,0,0,0-.158.042.14.14,0,0,0-.043.163Zm1.814-1.744a.822.822,0,0,1,.064-.577,1.289,1.289,0,0,1,.471-.511,1.381,1.381,0,0,1,.546-.222.971.971,0,0,1,.48.028.953.953,0,0,1,.352.221,3.568,3.568,0,0,1,.407.535l.745,1.128a3.277,3.277,0,0,1,.33.587.932.932,0,0,1,.048.438.865.865,0,0,1-.163.424,1.377,1.377,0,0,1-.36.334,1.758,1.758,0,0,1-.534.252.8.8,0,0,1-.455-.013,1.157,1.157,0,0,1-.371-.2,2.391,2.391,0,0,1-.393-.49l-.78-1.18a2.814,2.814,0,0,1-.382-.749Zm.824-.429a1.361,1.361,0,0,0,.191.353l1.095,1.649a1.5,1.5,0,0,0,.263.336.139.139,0,0,0,.158-.017.136.136,0,0,0,.072-.15,1.3,1.3,0,0,0-.182-.339l-1.107-1.681a1.591,1.591,0,0,0-.248-.322.134.134,0,0,0-.163.011.142.142,0,0,0-.073.158Zm18.994,3.8.756.689L88,63.214l.449.409.546-.6-1.652-1.507-.546.6.447.408Zm-14.5-3.841a1.23,1.23,0,0,1-.1-.435.472.472,0,0,1,.132-.3.87.87,0,0,1,.36-.24.909.909,0,0,1,.459-.065.507.507,0,0,1,.3.144,1.211,1.211,0,0,1,.2.381l.24.654a1.271,1.271,0,0,1,.1.4.48.48,0,0,1-.12.3.815.815,0,0,1-.371.247.922.922,0,0,1-.48.076.519.519,0,0,1-.289-.14,1.031,1.031,0,0,1-.188-.341Zm.468-.575a.61.61,0,0,0,.053.192l.36.96a.7.7,0,0,0,.09.188c.018.018.05.018.094,0s.062-.037.064-.065a.648.648,0,0,0-.05-.184l-.36-.97a.776.776,0,0,0-.085-.181c-.019-.02-.05-.022-.095,0s-.068.034-.07.062Zm.211,30.741a.51.51,0,0,1,.12.307,1.21,1.21,0,0,1-.1.419L71,92.628a1.245,1.245,0,0,1-.194.36.48.48,0,0,1-.285.146.8.8,0,0,1-.436-.062.908.908,0,0,1-.4-.26.507.507,0,0,1-.12-.3,1.058,1.058,0,0,1,.089-.381l.265-.681a1.217,1.217,0,0,1,.216-.39.48.48,0,0,1,.3-.137.866.866,0,0,1,.42.066.882.882,0,0,1,.384.261Zm-.431.148c0-.028-.022-.049-.066-.066a.079.079,0,0,0-.091.006.664.664,0,0,0-.089.178l-.372.952a.73.73,0,0,0-.06.2c0,.025.025.047.068.064s.07.014.09-.006a.642.642,0,0,0,.084-.17l.378-.96a.747.747,0,0,0,.058-.193Zm4.523-6.065.525,1.067.525-1.067,1.174-.169-.851-.828.2-1.17-1.046.552-1.052-.553.2,1.17-.849.828ZM86.855,66.744l.576.753L88.6,66.6l2.51-.981-.57-.747q-.875.418-1.441.745.31-.271,1.119-1.168l-.571-.747-1.618,2.143Zm-3.619-3.163.376-.72-.552-.288,1.5-2.881-.906-.473-1.878,3.594ZM96.8,75.73A20.913,20.913,0,1,1,75.884,54.82,20.914,20.914,0,0,1,96.8,75.73Zm-1.19,0A19.722,19.722,0,1,0,89.83,89.676,19.722,19.722,0,0,0,95.607,75.73ZM79.1,61.865l1.769-3.685,1.4.465-.72,4.034-.993-.329.178-.709-.348-.114-.287.672Zm1.505-1.022.335.11q.143-.679.387-1.666Q80.816,60.341,80.608,60.844Zm-7.1-1.874a3.152,3.152,0,0,1,0-.631,1.032,1.032,0,0,1,.166-.421.937.937,0,0,1,.36-.316,1.35,1.35,0,0,1,.509-.134,1.49,1.49,0,0,1,.618.077.939.939,0,0,1,.621.647,3.081,3.081,0,0,1,.083.588l.094,1.313a3.341,3.341,0,0,1,0,.736.551.551,0,0,1-.173.319,1.022,1.022,0,0,1-.371.2c.011.09.032.145.066.167a.456.456,0,0,0,.227.019l.36-.025L76.1,62l-.771.054a1.188,1.188,0,0,1-.4-.016.268.268,0,0,1-.163-.12.84.84,0,0,1-.062-.312,1.049,1.049,0,0,1-.61-.144.833.833,0,0,1-.36-.427,3.113,3.113,0,0,1-.138-.813Zm1-.37.136,1.884a1.911,1.911,0,0,0,.059.433.142.142,0,0,0,.262-.031,1.973,1.973,0,0,0,0-.455l-.132-1.858a1.28,1.28,0,0,0-.056-.36.12.12,0,0,0-.131-.07.138.138,0,0,0-.12.072A.939.939,0,0,0,74.509,58.6Zm2.6,2.964a1.49,1.49,0,0,0,.6.2,1.382,1.382,0,0,0,.562-.03.914.914,0,0,0,.413-.248.891.891,0,0,0,.218-.36,4.581,4.581,0,0,0,.112-.639l.342-2.688-1.014-.13-.378,2.964a1.569,1.569,0,0,1-.076.378.12.12,0,0,1-.134.065.11.11,0,0,1-.1-.088,1.237,1.237,0,0,1,.016-.341l.384-3.016-1.014-.13-.3,2.383q-.086.681-.09.9a.89.89,0,0,0,.106.424A.934.934,0,0,0,77.11,61.564Zm7.233,2.787,2.3-3.34-.84-.58-2.3,3.338ZM64.45,84.093A1.747,1.747,0,0,1,63.3,83.6l-.384.275.055.078a1.167,1.167,0,0,1,.212.382.212.212,0,0,1-.048.181,4.056,4.056,0,0,1-.448.346l-1.769,1.264.564.79,3.3-2.357Zm14.139,5.6-1.006.11.327,2.97a1.623,1.623,0,0,1,.014.385.12.12,0,0,1-.12.094.107.107,0,0,1-.12-.061,1.224,1.224,0,0,1-.065-.334l-.333-3.023-1.006.11.262,2.385q.076.683.12.892a.888.888,0,0,0,.2.388.93.93,0,0,0,.431.268,1.5,1.5,0,0,0,.625.053,1.358,1.358,0,0,0,.533-.161.952.952,0,0,0,.467-.737,5.009,5.009,0,0,0-.042-.646Zm-9.869.645a.5.5,0,0,1-.12-.294,1.048,1.048,0,0,1,.089-.383l.265-.678a1.229,1.229,0,0,1,.217-.393.465.465,0,0,1,.3-.136,1.024,1.024,0,0,1,.8.322.51.51,0,0,1,.12.306,1.2,1.2,0,0,1-.1.421l-.253.649a1.231,1.231,0,0,1-.2.36.48.48,0,0,1-.283.145.811.811,0,0,1-.437-.062A.916.916,0,0,1,68.72,90.333Zm.438-.144c0,.025.025.047.071.065a.077.077,0,0,0,.089-.008.557.557,0,0,0,.085-.168l.378-.968a.662.662,0,0,0,.058-.191c0-.026-.023-.049-.066-.066a.083.083,0,0,0-.092.007.571.571,0,0,0-.089.175l-.372.951A.72.72,0,0,0,69.158,90.189ZM60.326,73.467v1.7h.137a.446.446,0,0,0,.36-.12.817.817,0,0,0,.1-.489v-.549a.586.586,0,0,0-.12-.445A.777.777,0,0,0,60.326,73.467Zm5.354.882v-.366a.536.536,0,0,0-.12-.417.72.72,0,0,0-.442-.1v1.485a.86.86,0,0,0,.438-.08C65.638,74.817,65.68,74.649,65.68,74.349Zm6.026,9.67.366.743.36-.743.819-.12-.593-.577.142-.815-.732.385-.733-.385.14.815-.592.577Zm-3.226,4.657a3.648,3.648,0,0,1-.339.581l-.758,1.119a3.309,3.309,0,0,1-.415.529.947.947,0,0,1-.385.215.87.87,0,0,1-.45.013,1.37,1.37,0,0,1-.442-.2,1.721,1.721,0,0,1-.433-.394.8.8,0,0,1-.158-.423,1.15,1.15,0,0,1,.048-.42,2.475,2.475,0,0,1,.3-.55l.792-1.173a2.8,2.8,0,0,1,.545-.641.814.814,0,0,1,.555-.163,1.251,1.251,0,0,1,.646.234,1.336,1.336,0,0,1,.409.417.893.893,0,0,1,.083.856Zm-.822-.743a.139.139,0,0,0-.167-.01,1.4,1.4,0,0,0-.253.312l-1.1,1.64a1.531,1.531,0,0,0-.212.371.14.14,0,0,0,.077.139.136.136,0,0,0,.164.008,1.313,1.313,0,0,0,.24-.3l1.125-1.664a1.633,1.633,0,0,0,.2-.353A.133.133,0,0,0,67.659,87.932Zm.671,4.5.345.134L71.625,89.2l-.34-.133Zm12.4-3.361,1.751,3.7-.988.306-.268-.679-.346.107.157.714-1,.309L79.334,89.5Zm.258,2.649q-.277-.635-.651-1.581.2,1.158.318,1.681ZM65.7,87.525l-.96.954a3.376,3.376,0,0,1-.509.441.936.936,0,0,1-.42.137.861.861,0,0,1-.444-.073,1.375,1.375,0,0,1-.395-.282,1.752,1.752,0,0,1-.349-.469.793.793,0,0,1-.074-.445,1.121,1.121,0,0,1,.127-.4,2.417,2.417,0,0,1,.4-.48l1-1a2.8,2.8,0,0,1,.658-.525.816.816,0,0,1,.575-.055,1.269,1.269,0,0,1,.591.354,1.357,1.357,0,0,1,.322.487.892.892,0,0,1-.083.855A3.466,3.466,0,0,1,65.7,87.525Zm-.221-1.393a.138.138,0,0,0-.162-.041,1.356,1.356,0,0,0-.307.258l-1.4,1.4a1.487,1.487,0,0,0-.279.324.167.167,0,0,0,.208.191,1.306,1.306,0,0,0,.3-.247L65.257,86.6a1.625,1.625,0,0,0,.265-.306A.133.133,0,0,0,65.48,86.133Zm10.252,4.532a3.319,3.319,0,0,1-.012.594l-.114,1.312a3.46,3.46,0,0,1-.12.72.563.563,0,0,1-.22.288.987.987,0,0,1-.395.14c0,.091.01.149.04.175a.437.437,0,0,0,.218.055l.349.03-.042.489-.762-.066a1.174,1.174,0,0,1-.373-.066.26.26,0,0,1-.14-.144.848.848,0,0,1-.012-.317,1.047,1.047,0,0,1-.574-.24.826.826,0,0,1-.286-.48,3.152,3.152,0,0,1-.008-.824l.109-1.251a3.242,3.242,0,0,1,.1-.623,1.037,1.037,0,0,1,.228-.39.922.922,0,0,1,.4-.256,1.321,1.321,0,0,1,.52-.052,1.441,1.441,0,0,1,.592.172.951.951,0,0,1,.369.339A1.026,1.026,0,0,1,75.732,90.664Zm-1-.131a.12.12,0,0,0-.12-.09.136.136,0,0,0-.12.053.925.925,0,0,0-.076.372l-.163,1.886a1.9,1.9,0,0,0-.011.437.139.139,0,0,0,.259.011,2.041,2.041,0,0,0,.068-.449l.162-1.857A1.319,1.319,0,0,0,74.737,90.534Zm9.116.682-1.441-2.906-.909.447,1.8,3.633,1.459-.72-.36-.727ZM72.438,67.446l-.36-.743-.371.743-.819.12.592.577-.14.815.733-.385.732.385-.142-.815.593-.577ZM83.229,87.854l2.226,3.389.84-.555L84.069,87.3ZM76.38,66.134l-.519-1.066-.525,1.066-1.175.169.849.828-.2,1.17,1.052-.553,1.052.553-.2-1.17.851-.828Zm3.683,1.27-.366-.743-.36.743-.819.12.591.577-.139.815.732-.385.732.385-.142-.815.593-.577Z" transform="translate(-48.371 -48.239)" fill="url(#linear-gradient-4)"/>
      </g>
    </g>
    <g id="_1000_POTES_VENDIDOS" data-name="+1000 POTES VENDIDOS" transform="translate(214 6006.838)">
      <g id="Grupo_217" data-name="Grupo 217" clip-path="url(#clip-path)">
        <path id="Caminho_696" data-name="Caminho 696" d="M0,19.252a15.85,15.85,0,0,1,1.581-2.93A3.72,3.72,0,0,0,1.8,13.886a8.391,8.391,0,0,1-.083-1.779A3.194,3.194,0,0,1,3.1,9.805c.478-.35.982-.669,1.491-.974A3.143,3.143,0,0,0,6.038,7.022c.126-.4.279-.794.412-1.194A3.669,3.669,0,0,1,9.982,3.2c.473-.035.946-.1,1.415-.17a2.6,2.6,0,0,0,1.448-.759q.622-.613,1.252-1.219a3.411,3.411,0,0,1,3.688-.83c.624.207,1.25.405,1.875.6a2.55,2.55,0,0,0,1.6-.055C21.881.57,22.5.355,23.132.166A3.237,3.237,0,0,1,26.409.9c.443.4.877.808,1.283,1.243a3.307,3.307,0,0,0,2.263.986,14.73,14.73,0,0,1,1.607.221,3.191,3.191,0,0,1,2.446,1.977c.264.616.488,1.25.711,1.882a2.844,2.844,0,0,0,1.216,1.511c.559.35,1.119.7,1.653,1.088A3.328,3.328,0,0,1,38.972,13.1c-.062.565-.12,1.131-.183,1.7a2.992,2.992,0,0,0,.573,1.974,16.665,16.665,0,0,1,.951,1.6,3.3,3.3,0,0,1,0,3.044,7.762,7.762,0,0,1-.786,1.326,3.8,3.8,0,0,0-.647,3.153,6.3,6.3,0,0,1,.09,1.777,3.164,3.164,0,0,1-1.352,2.279c-.541.4-1.114.755-1.684,1.113a2.812,2.812,0,0,0-1.214,1.511c-.149.436-.326.862-.464,1.3a3.677,3.677,0,0,1-3.591,2.707c-.461.032-.919.1-1.376.169a2.482,2.482,0,0,0-1.388.7c-.368.362-.746.715-1.1,1.085a3.584,3.584,0,0,1-4.158.935c-.381-.145-.773-.261-1.155-.4a3.184,3.184,0,0,0-2.317.014c-.516.2-1.045.355-1.573.518a3.3,3.3,0,0,1-3.407-.8c-.4-.368-.8-.739-1.164-1.138a3.309,3.309,0,0,0-2.331-1.017,11.168,11.168,0,0,1-1.684-.239,3.283,3.283,0,0,1-2.4-2.1q-.341-.84-.628-1.7a2.889,2.889,0,0,0-1.257-1.574c-.547-.346-1.1-.687-1.623-1.064A3.333,3.333,0,0,1,1.71,26.677c.062-.578.131-1.156.185-1.735a2.435,2.435,0,0,0-.317-1.487A16.648,16.648,0,0,1,0,20.523ZM3.319,27.1a1.645,1.645,0,0,0,.864,1.676c.539.358,1.088.7,1.628,1.056a4.171,4.171,0,0,1,1.6,2.015c.26.661.448,1.348.753,1.993a1.683,1.683,0,0,0,1.239,1,15.011,15.011,0,0,0,1.647.225,4.591,4.591,0,0,1,2.91,1.273,18.64,18.64,0,0,0,1.461,1.4,1.659,1.659,0,0,0,1.551.362,15.268,15.268,0,0,0,1.575-.511,4.748,4.748,0,0,1,3.549-.015c.453.174.926.3,1.383.464a1.731,1.731,0,0,0,1.9-.4c.491-.463.97-.939,1.461-1.4a3.992,3.992,0,0,1,1.93-1.027c.713-.153,1.438-.2,2.156-.3a1.884,1.884,0,0,0,1.691-1.281c.146-.408.312-.811.439-1.226a4.8,4.8,0,0,1,2.3-2.9c.413-.233.8-.507,1.2-.772a1.687,1.687,0,0,0,.811-1.651c-.046-.5-.071-1-.134-1.5a4.488,4.488,0,0,1,.583-3.121c.321-.5.618-1.014.928-1.519a1.883,1.883,0,0,0-.006-2.124c-.244-.392-.488-.784-.727-1.179a5.258,5.258,0,0,1-.75-1.687,6.959,6.959,0,0,1,.064-2.484,2.315,2.315,0,0,0-1.234-2.759,12.774,12.774,0,0,1-1.2-.763,4,4,0,0,1-1.6-2.007c-.227-.617-.471-1.228-.693-1.847a1.775,1.775,0,0,0-1.521-1.214c-.47-.071-.943-.127-1.416-.17a4.586,4.586,0,0,1-2.945-1.286,19.347,19.347,0,0,0-1.431-1.375A1.614,1.614,0,0,0,23.7,1.683c-.526.167-1.062.308-1.575.509A4.8,4.8,0,0,1,18.5,2.17c-.416-.163-.851-.276-1.272-.428a1.744,1.744,0,0,0-1.935.4c-.487.467-.969.94-1.461,1.4a3.976,3.976,0,0,1-1.9,1.009c-.725.16-1.464.2-2.2.3a1.865,1.865,0,0,0-1.662,1.26c-.143.4-.321.782-.435,1.186a4.876,4.876,0,0,1-2.43,3.036,9.53,9.53,0,0,0-1.224.8,1.642,1.642,0,0,0-.676,1.4,15.832,15.832,0,0,0,.142,1.659A4.474,4.474,0,0,1,2.9,17.259c-.3.48-.587.971-.9,1.448a2.021,2.021,0,0,0,.006,2.371q.482.748.932,1.518A4.014,4.014,0,0,1,3.5,24.707c-.006.771-.182,1.524-.184,2.4" transform="translate(0 0)" fill="#ff4289"/>
        <path id="Caminho_697" data-name="Caminho 697" d="M26.506,41.2a15.732,15.732,0,1,1,15.76-15.693A15.748,15.748,0,0,1,26.506,41.2m-.347-1.609A14.125,14.125,0,1,0,12.417,25.074,14.131,14.131,0,0,0,26.159,39.592" transform="translate(-6.191 -5.581)" fill="#ff4289"/>
        <path id="Caminho_698" data-name="Caminho 698" d="M45.008,32.031a3.481,3.481,0,0,1-.89,2.316Q40.359,38.81,36.6,43.273a3.445,3.445,0,0,1-5.235.212c-1.713-1.751-3.4-3.523-5.1-5.293a3.344,3.344,0,0,1-.844-3.508,3.458,3.458,0,0,1,5.7-1.442c.8.789,1.574,1.609,2.345,2.429.19.2.289.2.47-.013q2.429-2.91,4.879-5.8a3.478,3.478,0,0,1,6.129,1.505,4.98,4.98,0,0,1,.062.671m-1.612,0a1.839,1.839,0,0,0-1.576-1.844,1.956,1.956,0,0,0-1.888.834q-2.644,3.17-5.312,6.319c-.667.79-1,.8-1.73.044q-1.394-1.442-2.782-2.889a1.814,1.814,0,0,0-1.64-.6,1.781,1.781,0,0,0-1.509,1.24,1.827,1.827,0,0,0,.482,1.965q2.506,2.6,5.01,5.207a1.855,1.855,0,0,0,2.906-.06q3.809-4.5,7.593-9.015a1.811,1.811,0,0,0,.445-1.2" transform="translate(-14.467 -16.355)" fill="#ff4289"/>
        <path id="Caminho_699" data-name="Caminho 699" d="M130.09,28.391h-5.727V25.15h5.727V19.379h3.24V25.15h5.727v3.24h-5.727v5.7h-3.24Z" transform="translate(-71.282 -11.108)" fill="#ff4289"/>
        <path id="Caminho_700" data-name="Caminho 700" d="M195.206,32.658h-4.572V20.139l.044-2.057.074-2.249q-1.14,1.139-1.584,1.494l-2.486,2-2.2-2.752,6.969-5.549h3.759Z" transform="translate(-105.738 -6.319)" fill="#ff4289"/>
        <path id="Caminho_701" data-name="Caminho 701" d="M224.866,53.373a2.481,2.481,0,0,1,.666-1.879,2.7,2.7,0,0,1,1.939-.636,2.623,2.623,0,0,1,1.9.651,2.876,2.876,0,0,1-.007,3.707,2.576,2.576,0,0,1-1.894.674,2.655,2.655,0,0,1-1.924-.659,2.464,2.464,0,0,1-.68-1.857" transform="translate(-128.888 -29.15)" fill="#ff4289"/>
        <path id="Caminho_702" data-name="Caminho 702" d="M258.744,21.384q0,5.667-1.857,8.39a6.445,6.445,0,0,1-5.719,2.723,6.369,6.369,0,0,1-5.645-2.811q-1.9-2.811-1.9-8.3,0-5.726,1.849-8.442a7.193,7.193,0,0,1,11.357.126q1.916,2.841,1.916,8.316m-10.58,0a16.845,16.845,0,0,0,.688,5.7,2.408,2.408,0,0,0,4.624-.022,16.361,16.361,0,0,0,.71-5.682,16.317,16.317,0,0,0-.717-5.719,2.4,2.4,0,0,0-4.609,0,16.8,16.8,0,0,0-.7,5.719" transform="translate(-139.638 -5.862)" fill="#ff4289"/>
        <path id="Caminho_703" data-name="Caminho 703" d="M299.271,21.384q0,5.667-1.857,8.39a6.445,6.445,0,0,1-5.719,2.723,6.369,6.369,0,0,1-5.645-2.811q-1.9-2.811-1.9-8.3,0-5.726,1.849-8.442a7.193,7.193,0,0,1,11.357.126q1.916,2.841,1.916,8.316m-10.58,0a16.843,16.843,0,0,0,.688,5.7A2.408,2.408,0,0,0,294,27.066a16.361,16.361,0,0,0,.71-5.682A16.317,16.317,0,0,0,294,15.665a2.4,2.4,0,0,0-4.609,0,16.8,16.8,0,0,0-.7,5.719" transform="translate(-162.867 -5.862)" fill="#ff4289"/>
        <path id="Caminho_704" data-name="Caminho 704" d="M339.8,21.384q0,5.667-1.857,8.39a6.445,6.445,0,0,1-5.719,2.723,6.369,6.369,0,0,1-5.645-2.811q-1.9-2.811-1.9-8.3,0-5.726,1.849-8.442a7.193,7.193,0,0,1,11.357.126q1.916,2.841,1.916,8.316m-10.58,0a16.843,16.843,0,0,0,.688,5.7,2.408,2.408,0,0,0,4.624-.022,16.361,16.361,0,0,0,.71-5.682,16.319,16.319,0,0,0-.717-5.719,2.4,2.4,0,0,0-4.609,0,16.8,16.8,0,0,0-.7,5.719" transform="translate(-186.096 -5.862)" fill="#ff4289"/>
        <path id="Caminho_705" data-name="Caminho 705" d="M380.326,21.384q0,5.667-1.857,8.39A6.445,6.445,0,0,1,372.75,32.5a6.369,6.369,0,0,1-5.645-2.811q-1.9-2.811-1.9-8.3,0-5.726,1.849-8.442a7.193,7.193,0,0,1,11.357.126q1.916,2.841,1.916,8.316m-10.58,0a16.845,16.845,0,0,0,.688,5.7,2.408,2.408,0,0,0,4.624-.022,16.36,16.36,0,0,0,.71-5.682,16.316,16.316,0,0,0-.717-5.719,2.4,2.4,0,0,0-4.609,0,16.8,16.8,0,0,0-.7,5.719" transform="translate(-209.326 -5.862)" fill="#ff4289"/>
        <path id="Caminho_706" data-name="Caminho 706" d="M126.248,77.853h-.041a1.788,1.788,0,0,1-1.578.766,1.865,1.865,0,0,1-1.534-.674,2.966,2.966,0,0,1-.548-1.916A3.016,3.016,0,0,1,123.1,74.1a1.851,1.851,0,0,1,1.531-.688,1.827,1.827,0,0,1,1.568.743h.06l-.032-.362-.018-.353V71.393h.761v7.134h-.619Zm-1.522.128a1.385,1.385,0,0,0,1.13-.424,2.142,2.142,0,0,0,.351-1.368v-.16a2.522,2.522,0,0,0-.356-1.525,1.35,1.35,0,0,0-1.134-.456,1.165,1.165,0,0,0-1.025.52,2.585,2.585,0,0,0-.356,1.47,2.484,2.484,0,0,0,.353,1.454,1.2,1.2,0,0,0,1.036.49" transform="translate(-70.242 -40.921)" fill="#ff4289"/>
        <path id="Caminho_707" data-name="Caminho 707" d="M138.432,81.33a2.308,2.308,0,0,1-1.758-.679,2.625,2.625,0,0,1-.644-1.884,2.915,2.915,0,0,1,.6-1.93,1.987,1.987,0,0,1,1.607-.715,1.9,1.9,0,0,1,1.495.621,2.381,2.381,0,0,1,.55,1.639v.481h-3.462a1.991,1.991,0,0,0,.447,1.343,1.546,1.546,0,0,0,1.194.458,4.043,4.043,0,0,0,1.6-.339V81a4.01,4.01,0,0,1-.764.25,4.3,4.3,0,0,1-.869.076m-.206-4.571a1.243,1.243,0,0,0-.965.394,1.815,1.815,0,0,0-.424,1.091h2.627a1.674,1.674,0,0,0-.321-1.1,1.129,1.129,0,0,0-.917-.383" transform="translate(-77.969 -43.631)" fill="#ff4289"/>
        <path id="Caminho_708" data-name="Caminho 708" d="M157.081,81.329a2.173,2.173,0,0,1-.9-.181,1.688,1.688,0,0,1-.681-.557h-.055a6.727,6.727,0,0,1,.055.834v2.068h-.761V76.212h.619l.106.688h.036a1.77,1.77,0,0,1,.683-.6,2.079,2.079,0,0,1,.894-.184,1.858,1.858,0,0,1,1.543.683,3.638,3.638,0,0,1-.009,3.84,1.861,1.861,0,0,1-1.534.685m-.11-4.562a1.347,1.347,0,0,0-1.114.426,2.193,2.193,0,0,0-.354,1.357v.169a2.509,2.509,0,0,0,.354,1.515,1.34,1.34,0,0,0,1.132.456,1.177,1.177,0,0,0,1.02-.527,2.5,2.5,0,0,0,.369-1.453,2.409,2.409,0,0,0-.369-1.442,1.214,1.214,0,0,0-1.038-.5" transform="translate(-88.695 -43.63)" fill="#ff4289"/>
        <path id="Caminho_709" data-name="Caminho 709" d="M172.186,78.72a2.774,2.774,0,0,1-.619,1.919,2.18,2.18,0,0,1-1.71.69,2.265,2.265,0,0,1-1.2-.316,2.089,2.089,0,0,1-.807-.908,3.164,3.164,0,0,1-.284-1.385,2.768,2.768,0,0,1,.615-1.914,2.173,2.173,0,0,1,1.706-.685,2.126,2.126,0,0,1,1.676.7,2.76,2.76,0,0,1,.621,1.9m-3.829,0a2.388,2.388,0,0,0,.385,1.467,1.529,1.529,0,0,0,2.267,0,2.373,2.373,0,0,0,.388-1.47,2.336,2.336,0,0,0-.388-1.456,1.362,1.362,0,0,0-1.144-.5,1.339,1.339,0,0,0-1.128.49,2.36,2.36,0,0,0-.381,1.463" transform="translate(-96.047 -43.63)" fill="#ff4289"/>
        <path id="Caminho_710" data-name="Caminho 710" d="M182.243,79.26a2.711,2.711,0,0,0,.688-.092v.582a1.376,1.376,0,0,1-.365.1,2.733,2.733,0,0,1-.433.039q-1.458,0-1.458-1.536V75.363h-.72V75l.72-.316L181,73.607h.44v1.164h1.458v.592h-1.458V78.32a1.017,1.017,0,0,0,.216.7.75.75,0,0,0,.592.243" transform="translate(-103.146 -42.19)" fill="#ff4289"/>
        <path id="Caminho_711" data-name="Caminho 711" d="M191.026,81.33a2.308,2.308,0,0,1-1.758-.679,2.625,2.625,0,0,1-.645-1.884,2.915,2.915,0,0,1,.6-1.93,1.987,1.987,0,0,1,1.607-.715,1.9,1.9,0,0,1,1.495.621,2.381,2.381,0,0,1,.55,1.639v.481h-3.462a1.991,1.991,0,0,0,.447,1.343,1.546,1.546,0,0,0,1.194.458,4.043,4.043,0,0,0,1.6-.339V81a4.009,4.009,0,0,1-.764.25,4.3,4.3,0,0,1-.869.076m-.206-4.571a1.243,1.243,0,0,0-.965.394,1.815,1.815,0,0,0-.424,1.091h2.627a1.674,1.674,0,0,0-.321-1.1,1.129,1.129,0,0,0-.917-.383" transform="translate(-108.114 -43.631)" fill="#ff4289"/>
        <path id="Caminho_712" data-name="Caminho 712" d="M204.433,79.867a1.258,1.258,0,0,1-.523,1.082,2.455,2.455,0,0,1-1.467.381,3.189,3.189,0,0,1-1.559-.316v-.706a3.747,3.747,0,0,0,.777.289,3.24,3.24,0,0,0,.8.105,1.811,1.811,0,0,0,.917-.19.655.655,0,0,0,.067-1.082,4.021,4.021,0,0,0-.993-.493,5.373,5.373,0,0,1-1-.456,1.365,1.365,0,0,1-.44-.442,1.157,1.157,0,0,1-.144-.592,1.127,1.127,0,0,1,.5-.97,2.328,2.328,0,0,1,1.371-.355,4.009,4.009,0,0,1,1.587.33l-.271.619a3.642,3.642,0,0,0-1.371-.312,1.582,1.582,0,0,0-.816.169.525.525,0,0,0-.275.468.57.57,0,0,0,.1.344,1.015,1.015,0,0,0,.332.27,7.38,7.38,0,0,0,.881.372,3.286,3.286,0,0,1,1.208.656,1.157,1.157,0,0,1,.314.83" transform="translate(-115.134 -43.631)" fill="#ff4289"/>
        <path id="Caminho_713" data-name="Caminho 713" d="M217.847,81.361l-1.907-5.025h.816l1.082,2.98a14.027,14.027,0,0,1,.431,1.357h.037a10.33,10.33,0,0,1,.318-1.006q.269-.764,1.2-3.331h.816l-1.907,5.025Z" transform="translate(-123.772 -43.754)" fill="#ff4289"/>
        <path id="Caminho_714" data-name="Caminho 714" d="M230.6,81.33a2.31,2.31,0,0,1-1.759-.679,2.626,2.626,0,0,1-.644-1.884,2.915,2.915,0,0,1,.6-1.93,1.987,1.987,0,0,1,1.607-.715,1.9,1.9,0,0,1,1.495.621,2.381,2.381,0,0,1,.55,1.639v.481h-3.462a1.99,1.99,0,0,0,.447,1.343,1.546,1.546,0,0,0,1.194.458,4.043,4.043,0,0,0,1.6-.339V81a4.006,4.006,0,0,1-.763.25,4.3,4.3,0,0,1-.869.076m-.206-4.571a1.244,1.244,0,0,0-.965.394A1.822,1.822,0,0,0,229,78.244h2.627a1.674,1.674,0,0,0-.321-1.1,1.129,1.129,0,0,0-.917-.383" transform="translate(-130.797 -43.631)" fill="#ff4289"/>
        <path id="Caminho_715" data-name="Caminho 715" d="M244.634,81.238V77.987a1.314,1.314,0,0,0-.28-.917,1.141,1.141,0,0,0-.876-.3,1.445,1.445,0,0,0-1.155.426,2.153,2.153,0,0,0-.367,1.408v2.636H241.2V76.213h.619l.124.688h.037a1.551,1.551,0,0,1,.656-.575,2.127,2.127,0,0,1,.94-.2,1.908,1.908,0,0,1,1.366.438,1.863,1.863,0,0,1,.458,1.4v3.278Z" transform="translate(-138.247 -43.631)" fill="#ff4289"/>
        <path id="Caminho_716" data-name="Caminho 716" d="M257.743,77.853H257.7a1.788,1.788,0,0,1-1.578.766,1.864,1.864,0,0,1-1.533-.674,2.963,2.963,0,0,1-.548-1.916,3.017,3.017,0,0,1,.551-1.931,1.851,1.851,0,0,1,1.531-.688,1.827,1.827,0,0,1,1.568.743h.06l-.032-.362-.018-.353V71.393h.761v7.134h-.619Zm-1.522.128a1.385,1.385,0,0,0,1.13-.424,2.145,2.145,0,0,0,.351-1.368v-.16a2.522,2.522,0,0,0-.356-1.525,1.35,1.35,0,0,0-1.135-.456,1.166,1.166,0,0,0-1.025.52,2.585,2.585,0,0,0-.356,1.47,2.484,2.484,0,0,0,.353,1.454,1.2,1.2,0,0,0,1.036.49" transform="translate(-145.611 -40.921)" fill="#ff4289"/>
        <path id="Caminho_717" data-name="Caminho 717" d="M268.029,72.468a.507.507,0,0,1,.128-.383.475.475,0,0,1,.637,0,.5.5,0,0,1,.133.381.5.5,0,0,1-.133.383.444.444,0,0,1-.316.126.439.439,0,0,1-.321-.126.516.516,0,0,1-.128-.383m.825,6.387h-.761V73.829h.761Z" transform="translate(-153.628 -41.247)" fill="#ff4289"/>
        <path id="Caminho_718" data-name="Caminho 718" d="M276.788,77.853h-.041a1.788,1.788,0,0,1-1.578.766,1.864,1.864,0,0,1-1.533-.674,2.963,2.963,0,0,1-.548-1.916,3.016,3.016,0,0,1,.551-1.931,1.851,1.851,0,0,1,1.531-.688,1.827,1.827,0,0,1,1.568.743h.06l-.032-.362-.018-.353V71.393h.761v7.134h-.619Zm-1.522.128a1.385,1.385,0,0,0,1.13-.424,2.145,2.145,0,0,0,.351-1.368v-.16a2.522,2.522,0,0,0-.356-1.525,1.35,1.35,0,0,0-1.134-.456,1.165,1.165,0,0,0-1.025.52,2.585,2.585,0,0,0-.356,1.47,2.484,2.484,0,0,0,.353,1.454,1.2,1.2,0,0,0,1.036.49" transform="translate(-156.528 -40.921)" fill="#ff4289"/>
        <path id="Caminho_719" data-name="Caminho 719" d="M291.187,78.72a2.774,2.774,0,0,1-.619,1.919,2.18,2.18,0,0,1-1.71.69,2.265,2.265,0,0,1-1.2-.316,2.092,2.092,0,0,1-.807-.908,3.164,3.164,0,0,1-.284-1.385,2.768,2.768,0,0,1,.615-1.914,2.174,2.174,0,0,1,1.706-.685,2.127,2.127,0,0,1,1.676.7,2.762,2.762,0,0,1,.621,1.9m-3.829,0a2.388,2.388,0,0,0,.385,1.467,1.529,1.529,0,0,0,2.267,0,2.373,2.373,0,0,0,.388-1.47,2.336,2.336,0,0,0-.388-1.456,1.362,1.362,0,0,0-1.144-.5,1.339,1.339,0,0,0-1.128.49,2.36,2.36,0,0,0-.381,1.463" transform="translate(-164.255 -43.63)" fill="#ff4289"/>
        <path id="Caminho_720" data-name="Caminho 720" d="M303.324,79.867a1.258,1.258,0,0,1-.523,1.082,2.454,2.454,0,0,1-1.467.381,3.19,3.19,0,0,1-1.559-.316v-.706a3.75,3.75,0,0,0,.777.289,3.233,3.233,0,0,0,.8.105,1.81,1.81,0,0,0,.917-.19.655.655,0,0,0,.067-1.082,4,4,0,0,0-.993-.493,5.389,5.389,0,0,1-1-.456,1.372,1.372,0,0,1-.44-.442,1.161,1.161,0,0,1-.144-.592,1.128,1.128,0,0,1,.5-.97,2.329,2.329,0,0,1,1.371-.355,4.008,4.008,0,0,1,1.586.33l-.271.619a3.641,3.641,0,0,0-1.371-.312,1.583,1.583,0,0,0-.816.169.524.524,0,0,0-.275.468.568.568,0,0,0,.1.344,1.008,1.008,0,0,0,.332.27,7.412,7.412,0,0,0,.88.372,3.292,3.292,0,0,1,1.208.656,1.157,1.157,0,0,1,.314.83" transform="translate(-171.816 -43.631)" fill="#ff4289"/>
        <path id="Caminho_721" data-name="Caminho 721" d="M319.062,81.329a2.171,2.171,0,0,1-.9-.181,1.685,1.685,0,0,1-.681-.557h-.055a6.727,6.727,0,0,1,.055.834v2.068h-.761V76.212h.619l.106.688h.036a1.773,1.773,0,0,1,.683-.6,2.079,2.079,0,0,1,.894-.184,1.858,1.858,0,0,1,1.543.683,3.639,3.639,0,0,1-.009,3.84,1.862,1.862,0,0,1-1.534.685m-.11-4.562a1.348,1.348,0,0,0-1.114.426,2.2,2.2,0,0,0-.353,1.357v.169a2.512,2.512,0,0,0,.353,1.515,1.341,1.341,0,0,0,1.132.456,1.178,1.178,0,0,0,1.021-.527,2.5,2.5,0,0,0,.369-1.453,2.409,2.409,0,0,0-.369-1.442,1.215,1.215,0,0,0-1.039-.5" transform="translate(-181.538 -43.63)" fill="#ff4289"/>
        <path id="Caminho_722" data-name="Caminho 722" d="M334.167,78.72a2.775,2.775,0,0,1-.619,1.919,2.18,2.18,0,0,1-1.71.69,2.265,2.265,0,0,1-1.2-.316,2.091,2.091,0,0,1-.807-.908,3.163,3.163,0,0,1-.284-1.385,2.768,2.768,0,0,1,.615-1.914,2.174,2.174,0,0,1,1.706-.685,2.127,2.127,0,0,1,1.676.7,2.762,2.762,0,0,1,.621,1.9m-3.829,0a2.388,2.388,0,0,0,.385,1.467,1.529,1.529,0,0,0,2.267,0,2.374,2.374,0,0,0,.388-1.47,2.336,2.336,0,0,0-.388-1.456,1.362,1.362,0,0,0-1.144-.5,1.339,1.339,0,0,0-1.128.49,2.36,2.36,0,0,0-.381,1.463" transform="translate(-188.89 -43.63)" fill="#ff4289"/>
        <path id="Caminho_723" data-name="Caminho 723" d="M345.785,76.121a2.978,2.978,0,0,1,.6.055l-.105.706a2.6,2.6,0,0,0-.55-.069,1.339,1.339,0,0,0-1.043.5,1.8,1.8,0,0,0-.434,1.234v2.7h-.761V76.213h.628l.087.931h.037a2.205,2.205,0,0,1,.674-.757,1.519,1.519,0,0,1,.866-.266" transform="translate(-196.882 -43.631)" fill="#ff4289"/>
        <path id="Caminho_724" data-name="Caminho 724" d="M360.773,81.25l-.151-.715h-.037a2.117,2.117,0,0,1-.749.64,2.286,2.286,0,0,1-.933.167,1.679,1.679,0,0,1-1.172-.385,1.4,1.4,0,0,1-.424-1.1q0-1.522,2.435-1.6l.852-.028v-.312a1.274,1.274,0,0,0-.254-.874,1.046,1.046,0,0,0-.814-.282,3.318,3.318,0,0,0-1.422.385l-.233-.582a3.577,3.577,0,0,1,.814-.316,3.528,3.528,0,0,1,.887-.115,1.918,1.918,0,0,1,1.332.4,1.668,1.668,0,0,1,.433,1.279v3.43Zm-1.719-.537a1.546,1.546,0,0,0,1.117-.39,1.442,1.442,0,0,0,.405-1.091v-.454l-.761.032a2.772,2.772,0,0,0-1.309.282.851.851,0,0,0-.4.777.783.783,0,0,0,.251.628,1.034,1.034,0,0,0,.7.216" transform="translate(-204.8 -43.643)" fill="#ff4289"/>
        <path id="Caminho_725" data-name="Caminho 725" d="M373.863,81.238V77.987a1.314,1.314,0,0,0-.28-.917,1.141,1.141,0,0,0-.876-.3,1.445,1.445,0,0,0-1.155.426,2.153,2.153,0,0,0-.367,1.408v2.636h-.761V76.213h.619l.124.688h.037a1.551,1.551,0,0,1,.656-.575,2.127,2.127,0,0,1,.94-.2,1.908,1.908,0,0,1,1.366.438,1.863,1.863,0,0,1,.458,1.4v3.278Z" transform="translate(-212.318 -43.631)" fill="#ff4289"/>
        <path id="Caminho_726" data-name="Caminho 726" d="M387.888,78.72a2.774,2.774,0,0,1-.619,1.919,2.18,2.18,0,0,1-1.71.69,2.266,2.266,0,0,1-1.2-.316,2.091,2.091,0,0,1-.807-.908,3.164,3.164,0,0,1-.284-1.385,2.768,2.768,0,0,1,.615-1.914,2.174,2.174,0,0,1,1.706-.685,2.127,2.127,0,0,1,1.676.7,2.762,2.762,0,0,1,.621,1.9m-3.829,0a2.388,2.388,0,0,0,.385,1.467,1.529,1.529,0,0,0,2.267,0,2.373,2.373,0,0,0,.388-1.47,2.336,2.336,0,0,0-.388-1.456,1.362,1.362,0,0,0-1.144-.5,1.339,1.339,0,0,0-1.128.49,2.361,2.361,0,0,0-.381,1.463" transform="translate(-219.682 -43.63)" fill="#ff4289"/>
      </g>
    </g>
  </g>
</svg>
