<svg xmlns="http://www.w3.org/2000/svg" xmlns:xlink="http://www.w3.org/1999/xlink" width="57" height="59" viewBox="0 0 57 59">
  <defs>
    <clipPath id="clip-path">
      <rect id="Ret창ngulo_240" data-name="Ret창ngulo 240" width="57" height="59" transform="translate(-1146 3466)" fill="none" stroke="#707070" stroke-width="1"/>
    </clipPath>
    <clipPath id="clip-path-2">
      <rect id="Ret창ngulo_183" data-name="Ret창ngulo 183" width="35.784" height="45.56" fill="#333"/>
    </clipPath>
  </defs>
  <g id="SITE_100_SEGURO" data-name="SITE 100% SEGURO" transform="translate(1146 -3466)" clip-path="url(#clip-path)">
    <g id="Grupo_79" data-name="Grupo 79" transform="translate(-1135.392 3472.207)">
      <g id="Grupo_78" data-name="Grupo 78" clip-path="url(#clip-path-2)">
        <path id="Caminho_496" data-name="Caminho 496" d="M17.891,45.558q-8.072,0-16.144,0a1.633,1.633,0,0,1-1.7-1.207A2.154,2.154,0,0,1,0,43.762q0-12.848,0-25.7A1.611,1.611,0,0,1,1.764,16.29c.333,0,.667,0,1,0,.489,0,.488,0,.489-.474a21.411,21.411,0,0,1,.205-3.542A14.326,14.326,0,0,1,5.332,7.166,14.333,14.333,0,0,1,13.824.608a14.206,14.206,0,0,1,11,1.172,14.315,14.315,0,0,1,6.139,6.325,14.854,14.854,0,0,1,1.565,6.822c0,.438-.2,1.011.086,1.281s.847.056,1.287.081c.1.005.2,0,.3,0a1.592,1.592,0,0,1,1.576,1.587q0,.074,0,.148,0,12.885,0,25.771a1.666,1.666,0,0,1-.857,1.567,1.851,1.851,0,0,1-.966.194q-8.035,0-16.07,0M17.871,42.3q7.108,0,14.217.008c.362,0,.446-.106.446-.455q-.015-10.921,0-21.843c0-.363-.073-.479-.463-.479q-14.18.018-28.36,0c-.387,0-.466.11-.465.477q.016,10.9.008,21.806c0,.486,0,.486.473.486H17.871M17.88,16.29q5.184,0,10.367,0c.329,0,.757.147.961-.068s.053-.635.062-.966a11.627,11.627,0,0,0-.94-5.124,11.227,11.227,0,0,0-5.6-5.761A11.367,11.367,0,0,0,9.143,7.377a11.224,11.224,0,0,0-2.216,4.228A15.748,15.748,0,0,0,6.5,15.9c0,.341.107.4.42.4,3.653-.011,7.306-.007,10.96-.007" transform="translate(0 0)" fill="#333"/>
        <path id="Caminho_497" data-name="Caminho 497" d="M178.618,340.109c0-.543-.013-1.086.005-1.628a.458.458,0,0,0-.324-.5,4.829,4.829,0,0,1-1.355-8.029,4.859,4.859,0,1,1,5.276,8.012.559.559,0,0,0-.382.608c.018,1,.012,2,0,3a1.617,1.617,0,1,1-3.225-.016c0-.247,0-.493,0-.74s0-.469,0-.7m3.223-6.573a1.609,1.609,0,1,0-3.219.013,1.609,1.609,0,1,0,3.219-.013" transform="translate(-162.341 -304.249)" fill="#333"/>
      </g>
    </g>
  </g>
</svg>
