<?xml version="1.0" encoding="UTF-8"?><svg id="Camada_2" xmlns="http://www.w3.org/2000/svg" viewBox="0 0 30 30.04"><defs><style>.cls-1{fill:#333;}</style></defs><g id="Camada_1-2"><g id="Group_229"><path id="Path_665" class="cls-1" d="M29.76,5.84c-.64-2.56-2.55-4.62-5.06-5.44-.41-.13-.82-.22-1.24-.29-.19-.03-.38-.07-.57-.11h-1.3l-.52,.1c-.39,.07-.78,.16-1.16,.27-1.2,.37-2.28,1.04-3.16,1.94L2.31,16.76C1.03,18,.23,19.65,.05,21.42c0,.07-.02,.13-.05,.19v1.28l.03,.18,.07,.42c.4,2.83,2.38,5.19,5.11,6.06,.87,.31,1.79,.47,2.72,.48,1.92-.02,3.75-.8,5.09-2.17,2.13-2.05,4.25-4.18,6.3-6.25,.86-.86,1.72-1.73,2.58-2.59,.6-.6,1.21-1.2,1.81-1.8,1.39-1.38,2.84-2.8,4.2-4.24,1.81-1.9,2.51-4.6,1.86-7.15m-11.11,14.47c-.65,.65-1.3,1.3-1.95,1.96-1.51,1.52-3.06,3.1-4.64,4.6-1.11,1.12-2.61,1.76-4.19,1.77-.75,0-1.49-.14-2.19-.38-2.24-.7-3.88-2.63-4.2-4.96-.38-1.92,.21-3.9,1.59-5.3,1.54-1.6,3.14-3.19,4.69-4.73,.64-.64,1.28-1.28,1.93-1.92l.14-.13h.46l.05,.19,8.21,8.21h.1l.1,.24,.08,.27-.18,.18Zm8.27-8.31c-1.49,1.59-3.07,3.15-4.6,4.66-.66,.65-1.32,1.3-1.98,1.96-.04,.04-.08,.07-.13,.1l-.27,.19L11.05,10.03l.28-.32s.09-.1,.14-.15l1.78-1.78c1.5-1.5,3-3,4.5-4.49,1.21-1.22,2.85-1.9,4.57-1.91,2.55,0,4.85,1.54,5.8,3.9,1.05,2.27,.57,4.95-1.2,6.72"/><path id="Path_666" class="cls-1" d="M29.76,5.84c-.64-2.56-2.55-4.62-5.06-5.44-.41-.13-.82-.22-1.24-.29-.19-.03-.38-.07-.57-.11h-1.3l-.52,.1c-.39,.07-.78,.16-1.16,.27-1.2,.37-2.28,1.04-3.16,1.94L2.31,16.76C1.03,18,.23,19.65,.05,21.42c0,.07-.02,.13-.05,.19v1.28l.03,.18,.07,.42c.4,2.83,2.38,5.19,5.11,6.06,.87,.31,1.79,.47,2.72,.48,1.92-.02,3.75-.8,5.09-2.17,2.13-2.05,4.25-4.18,6.3-6.25,.86-.86,1.72-1.73,2.58-2.59,.6-.6,1.21-1.2,1.81-1.8,1.39-1.38,2.84-2.8,4.2-4.24,1.81-1.9,2.51-4.6,1.86-7.15m-11.11,14.47c-.65,.65-1.3,1.3-1.95,1.96-1.51,1.52-3.06,3.1-4.64,4.6-1.11,1.12-2.61,1.76-4.19,1.77-.75,0-1.49-.14-2.19-.38-2.24-.7-3.88-2.63-4.2-4.96-.38-1.92,.21-3.9,1.59-5.3,1.54-1.6,3.14-3.19,4.69-4.73,.64-.64,1.28-1.28,1.93-1.92l.14-.13h.46l.05,.19,8.21,8.21h.1l.1,.24,.08,.27-.18,.18Zm8.27-8.31c-1.49,1.59-3.07,3.15-4.6,4.66-.66,.65-1.32,1.3-1.98,1.96-.04,.04-.08,.07-.13,.1l-.27,.19L11.05,10.03l.28-.32s.09-.1,.14-.15l1.78-1.78c1.5-1.5,3-3,4.5-4.49,1.21-1.22,2.85-1.9,4.57-1.91,2.55,0,4.85,1.54,5.8,3.9,1.05,2.27,.57,4.95-1.2,6.72"/><path id="Path_667" class="cls-1" d="M25.85,5.95c-.03,.18-.13,.34-.28,.44-.11,.09-.25,.13-.39,.13-.25-.01-.48-.14-.63-.35-.58-.81-1.5-1.29-2.5-1.3-.81,.01-1.58,.32-2.17,.87-.15,.14-.35,.23-.56,.23-.18,0-.36-.08-.48-.22-.26-.28-.24-.73,.04-.99,0,0,0,0,0,0,.02-.02,.03-.03,.05-.04,.86-.82,2.01-1.27,3.2-1.25,1.4,.02,2.71,.71,3.52,1.86,.14,.17,.21,.39,.18,.61"/><path id="Path_668" class="cls-1" d="M25.85,5.95c-.03,.18-.13,.34-.28,.44-.11,.09-.25,.13-.39,.13-.25-.01-.48-.14-.63-.35-.58-.81-1.5-1.29-2.5-1.3-.81,.01-1.58,.32-2.17,.87-.15,.14-.35,.23-.56,.23-.18,0-.36-.08-.48-.22-.26-.28-.24-.73,.04-.99,0,0,0,0,0,0,.02-.02,.03-.03,.05-.04,.86-.82,2.01-1.27,3.2-1.25,1.4,.02,2.71,.71,3.52,1.86,.14,.17,.21,.39,.18,.61"/></g></g></svg>