<svg id="TERMOS_E_CONDIÇÕES" data-name="TERMOS E CONDIÇÕES" xmlns="http://www.w3.org/2000/svg" xmlns:xlink="http://www.w3.org/1999/xlink" width="19.268" height="20.1" viewBox="0 0 19.268 20.1">
  <defs>
    <clipPath id="clip-path">
      <rect id="Retângulo_49" data-name="Retângulo 49" width="19.268" height="20.1" fill="#3b3b3b"/>
    </clipPath>
  </defs>
  <g id="Grupo_55" data-name="Grupo 55" clip-path="url(#clip-path)">
    <path id="Caminho_323" data-name="Caminho 323" d="M12.967,0a2.862,2.862,0,0,1,1.046.417,2.345,2.345,0,0,1,1.032,1.99q.006,3.847,0,7.695c0,.078,0,.156,0,.236.285.073.564.131.836.216a4.891,4.891,0,0,1-.689,9.475,4.767,4.767,0,0,1-4.4-1.493.443.443,0,0,0-.353-.156q-3.985.007-7.97,0A2.369,2.369,0,0,1,.009,15.91C.009,11.454.025,7,0,2.542A2.445,2.445,0,0,1,2.038.025.189.189,0,0,0,2.09,0Zm.9,10.332v-.2q0-3.827,0-7.655a1.2,1.2,0,0,0-1.3-1.295H2.481a1.2,1.2,0,0,0-1.294,1.3c0,4.475.007,8.95-.007,13.425a1.268,1.268,0,0,0,1.312,1.311c2.394-.021,4.789-.008,7.184-.008H9.9a4.931,4.931,0,0,1,3.968-6.874m-3.205,4.859a3.714,3.714,0,1,0,3.759-3.7,3.722,3.722,0,0,0-3.759,3.7" transform="translate(0)" fill="#3b3b3b"/>
    <path id="Caminho_324" data-name="Caminho 324" d="M64.276,158.434c.563,0,1.125,0,1.688,0a.585.585,0,0,1,.653.575.594.594,0,0,1-.654.6q-1.688.005-3.376,0a.606.606,0,0,1-.647-.485.578.578,0,0,1,.378-.654.863.863,0,0,1,.269-.036c.563,0,1.125,0,1.688,0" transform="translate(-59.494 -152.201)" fill="#3b3b3b"/>
    <path id="Caminho_325" data-name="Caminho 325" d="M64.292,218.317c.556,0,1.112,0,1.668,0a.59.59,0,1,1,.021,1.175q-1.708.007-3.415,0a.6.6,0,0,1-.628-.483.577.577,0,0,1,.377-.655.858.858,0,0,1,.269-.036c.569,0,1.138,0,1.708,0" transform="translate(-59.492 -209.727)" fill="#3b3b3b"/>
    <path id="Caminho_326" data-name="Caminho 326" d="M64.306,278.2c.556,0,1.112,0,1.668,0a.591.591,0,1,1,.01,1.176q-1.7.005-3.4,0a.6.6,0,0,1-.634-.5.579.579,0,0,1,.393-.646.931.931,0,0,1,.271-.031c.563,0,1.125,0,1.688,0" transform="translate(-59.51 -267.255)" fill="#3b3b3b"/>
    <path id="Caminho_327" data-name="Caminho 327" d="M64.292,339.079c.556,0,1.112,0,1.668,0a.586.586,0,0,1,.654.574.593.593,0,0,1-.653.6q-1.7,0-3.4,0a.6.6,0,0,1-.628-.483.576.576,0,0,1,.377-.655.927.927,0,0,1,.289-.037c.563,0,1.125,0,1.688,0" transform="translate(-59.492 -325.738)" fill="#3b3b3b"/>
    <path id="Caminho_328" data-name="Caminho 328" d="M64.351,98.547c.563,0,1.125,0,1.688,0a.588.588,0,1,1,.02,1.174q-1.727.01-3.454,0a.588.588,0,1,1,.019-1.174c.576,0,1.151,0,1.727,0" transform="translate(-59.551 -94.67)" fill="#3b3b3b"/>
    <path id="Caminho_329" data-name="Caminho 329" d="M203.972,98.548c.563,0,1.125,0,1.688,0a.59.59,0,1,1,.014,1.175q-1.708.007-3.415,0a.589.589,0,1,1,.006-1.175c.569,0,1.138,0,1.708,0" transform="translate(-193.695 -94.671)" fill="#3b3b3b"/>
    <path id="Caminho_330" data-name="Caminho 330" d="M203.982,158.432c.563,0,1.125,0,1.688,0a.589.589,0,1,1,.02,1.175q-1.717.009-3.435,0a.589.589,0,1,1,.02-1.175c.569,0,1.138,0,1.708,0" transform="translate(-193.698 -152.198)" fill="#3b3b3b"/>
    <path id="Caminho_331" data-name="Caminho 331" d="M203.061,218.3c.274,0,.549,0,.823,0a.587.587,0,0,1,.613.56.58.58,0,0,1-.564.608q-.871.026-1.743,0a.569.569,0,0,1-.559-.609.579.579,0,0,1,.608-.559c.274,0,.549,0,.823,0" transform="translate(-193.697 -209.712)" fill="#3b3b3b"/>
    <path id="Caminho_332" data-name="Caminho 332" d="M311,344.181c.5-.627.985-1.238,1.483-1.835a.84.84,0,0,1,.4-.254.536.536,0,0,1,.6.271.6.6,0,0,1-.057.679c-.287.365-.58.725-.871,1.087-.315.393-.628.787-.946,1.178a.589.589,0,0,1-.893.124q-.654-.468-1.3-.944a.59.59,0,1,1,.685-.956c.3.211.592.427.9.651" transform="translate(-296.965 -328.615)" fill="#3b3b3b"/>
  </g>
</svg>
