<svg xmlns="http://www.w3.org/2000/svg" xmlns:xlink="http://www.w3.org/1999/xlink" width="40" height="40" viewBox="0 0 40 40">
  <defs>
    <clipPath id="clip-path">
      <rect id="Retângulo_382" data-name="Retângulo 382" width="40" height="40" transform="translate(0.21 -0.205)" fill="#fff"/>
    </clipPath>
  </defs>
  <g id="Unhas-Fortalecidas" transform="translate(-0.21 0.205)" clip-path="url(#clip-path)">
    <g id="Unhas-Fortalecidas-2" data-name="Unhas-Fortalecidas" transform="translate(2.149 0.581)">
      <path id="Caminho_1153" data-name="Caminho 1153" d="M57.044,52.007A.945.945,0,0,1,56.425,51q.014-9.734.007-19.466A9.248,9.248,0,0,0,54.8,26.176c-.041-.059-.087-.115-.19-.249v.432c0,2.451.012,4.9,0,7.353a7.355,7.355,0,0,1-3.446,6.4,7.5,7.5,0,0,1-5.642,1.157,7.571,7.571,0,0,1-6.386-7.525c-.01-2.463,0-4.923,0-7.386v-.437a9.119,9.119,0,0,0-1.365,2.637A9.578,9.578,0,0,0,37.32,31.6q0,9.7.007,19.4a.949.949,0,0,1-.619,1.01h-.337a.929.929,0,0,1-.621-.974q.011-9.783.01-19.567a10.653,10.653,0,0,1,3.164-7.684,1.509,1.509,0,0,0,.371-.667,5.6,5.6,0,0,1,4.017-4.179,11.025,11.025,0,0,1,7.607.178,5.481,5.481,0,0,1,3.578,4.16.873.873,0,0,0,.243.411,10.464,10.464,0,0,1,2.991,5.369,12.2,12.2,0,0,1,.26,2.472c.022,6.489.01,12.979.017,19.468A.944.944,0,0,1,57.386,52h-.337Zm-4.883-15.09a5.07,5.07,0,0,0,.831-2.561q.051-4.906.036-9.814a4.132,4.132,0,0,0-3.35-4.24,10.333,10.333,0,0,0-5.223-.1,5.4,5.4,0,0,0-2.365,1.125,4.121,4.121,0,0,0-1.375,3.357v9.027a5.917,5.917,0,0,0,.874,3.207,7.827,7.827,0,0,1,10.569,0Zm-9.572,1.214a6.167,6.167,0,0,0,8.556,0A6.141,6.141,0,0,0,42.589,38.131Z" transform="translate(-27.139 -14.04)" fill="#fff"/>
      <path id="Caminho_771" data-name="Caminho 771" d="M28.692,2.674a2.66,2.66,0,0,0-.429-.228A2.932,2.932,0,0,1,26.549.789,4.086,4.086,0,0,0,25.937,0h-.458c-.135.146-.325.268-.393.439A3.773,3.773,0,0,1,22.8,2.655a.616.616,0,0,0-.421.622.614.614,0,0,0,.414.6A3.794,3.794,0,0,1,25.1,6.116a.638.638,0,0,0,.636.416.7.7,0,0,0,.636-.425c.219-.4.436-.805.677-1.193a1.137,1.137,0,0,1,.378-.366c.419-.244.86-.453,1.279-.693a.666.666,0,0,0,.313-.308.646.646,0,0,0-.318-.871ZM25.744,4.55a4.153,4.153,0,0,0-.518-.824,4,4,0,0,0-.826-.479,1.929,1.929,0,0,0,1.31-1.233A2.135,2.135,0,0,0,27,3.268,1.927,1.927,0,0,0,25.742,4.55Z" transform="translate(-16.984 0)" fill="#fff"/>
      <path id="Caminho_772" data-name="Caminho 772" d="M127.406,22.958c-.443-.242-.905-.46-1.336-.721a1.543,1.543,0,0,1-.484-.477c-.272-.432-.486-.9-.768-1.324a2.5,2.5,0,0,0-.527-.446h0a.871.871,0,0,0-.7.479,6.952,6.952,0,0,1-.944,1.578,7.154,7.154,0,0,1-1.623.918.675.675,0,0,0-.361.345.648.648,0,0,0,.347.862,7.392,7.392,0,0,1,1.623.918,7.156,7.156,0,0,1,.963,1.6.667.667,0,0,0,.356.355.679.679,0,0,0,.884-.343,7.12,7.12,0,0,1,.942-1.582,7.575,7.575,0,0,1,1.645-.939.672.672,0,0,0,.371-.369.658.658,0,0,0-.385-.857Zm-3.186,2.108a2.376,2.376,0,0,0-1.534-1.474,2.492,2.492,0,0,0,1.524-1.521,2.459,2.459,0,0,0,1.548,1.493,2.509,2.509,0,0,0-1.539,1.5Z" transform="translate(-91.561 -15.297)" fill="#fff"/>
      <path id="Caminho_773" data-name="Caminho 773" d="M6.632,58.443c-.462-.258-.937-.493-1.394-.754a.963.963,0,0,1-.332-.324c-.27-.448-.518-.906-.771-1.362a.9.9,0,0,0-.689-.453,2.438,2.438,0,0,0-.53.444c-.279.425-.5.89-.766,1.324a1.2,1.2,0,0,1-.395.392c-.445.261-.915.486-1.368.735a.659.659,0,0,0-.34.331.645.645,0,0,0,.34.859,7.036,7.036,0,0,1,1.568.885,6.964,6.964,0,0,1,.932,1.55.666.666,0,0,0,.352.35.681.681,0,0,0,.889-.338,6.821,6.821,0,0,1,.91-1.526,7.384,7.384,0,0,1,1.589-.911.67.67,0,0,0,.356-.347.65.65,0,0,0-.356-.859ZM3.526,60.455a2.339,2.339,0,0,0-1.454-1.406,2.346,2.346,0,0,0,1.447-1.411h0a2.311,2.311,0,0,0,1.464,1.4,2.3,2.3,0,0,0-1.454,1.413Z" transform="translate(0.009 -42.508)" fill="#fff"/>
    </g>
  </g>
</svg>
