<?xml version="1.0" encoding="UTF-8"?><svg id="Camada_2" xmlns="http://www.w3.org/2000/svg" viewBox="0 0 30 27.38"><defs><style>.cls-1{fill:#333;}</style></defs><g id="Camada_1-2"><g id="Group_219"><path id="Path_609" class="cls-1" d="M27.98,18.11c.36-.53,.95-.87,1.59-.91,.26-.02,.45-.24,.43-.5,0-.1-.05-.2-.11-.27-.15-.17-.39-.23-.61-.17-.72,.09-1.38,.44-1.84,.99-.18,.21-.37,.4-.57,.58-.56,.47-1.38,.48-1.95,.01-.22-.19-.43-.4-.61-.63-.93-1.13-2.6-1.3-3.73-.37-.14,.11-.27,.24-.38,.38-.17,.21-.36,.41-.57,.58-.57,.49-1.42,.49-2,0-.21-.18-.41-.39-.59-.61-.93-1.13-2.6-1.29-3.73-.36-.14,.12-.27,.24-.38,.39-.17,.21-.36,.41-.57,.58-.57,.48-1.4,.49-1.97,.02-.22-.18-.41-.38-.59-.6-.93-1.14-2.61-1.31-3.74-.38-.14,.11-.26,.24-.38,.38-.17,.2-.35,.39-.55,.56-.38,.34-.91,.47-1.41,.33-.47-.16-.88-.47-1.16-.88-.51-.61-1.26-.98-2.05-1-.26-.02-.49,.18-.51,.44,0,0,0,0,0,.01-.03,.25,.15,.47,.4,.5,0,0,.01,0,.02,0,.65,.04,1.25,.38,1.61,.93,.91,1.15,2.59,1.34,3.74,.43,.16-.12,.3-.27,.42-.42,.17-.21,.37-.4,.57-.58,.57-.48,1.41-.47,1.97,.02,.2,.18,.39,.37,.57,.58,.94,1.14,2.62,1.3,3.76,.37,.13-.11,.26-.23,.37-.37,.17-.21,.37-.4,.57-.58,.58-.5,1.44-.5,2.02,.01,.2,.18,.39,.38,.56,.59,.93,1.13,2.6,1.29,3.73,.36,.13-.11,.25-.23,.36-.36,.17-.21,.36-.41,.56-.59,.39-.35,.93-.47,1.44-.32,.46,.16,.85,.47,1.13,.87,.9,1.15,2.56,1.35,3.71,.45,.18-.14,.34-.3,.47-.48"/><path id="Path_610" class="cls-1" d="M.43,14.78c.1,.01,.2,.01,.3,0H29.39c.38,0,.6-.18,.61-.48s-.22-.48-.6-.49H.71c-.09,0-.18,0-.27,0-.25,.02-.45,.23-.44,.49,0,.24,.19,.45,.43,.47"/><path id="Path_611" class="cls-1" d="M20.45,8.78c.58,.21,1.08,.59,1.45,1.08,.47,.61,.82,1.31,1.03,2.05,.07,.23,.18,.26,.29,.26h0c.1,0,.21-.03,.28-.26l.03-.09c.08-.25,.17-.5,.28-.74,.39-1.04,1.19-1.88,2.22-2.31,.11-.03,.18-.14,.17-.25,0-.13-.09-.25-.22-.28-.59-.22-1.1-.6-1.47-1.11-.46-.59-.8-1.27-1.01-1.99-.07-.22-.17-.28-.3-.29-.14,0-.26,.11-.28,.25-.12,.44-.3,.86-.52,1.26-.4,.85-1.11,1.53-1.99,1.88-.12,.03-.2,.14-.2,.27,0,.13,.09,.25,.22,.28m1.15-.56c.61-.49,1.11-1.12,1.44-1.84l.18-.38,.19,.37c.34,.73,.85,1.37,1.48,1.87,.09,.06,.14,.15,.15,.25,0,.1-.06,.19-.14,.25-.63,.5-1.13,1.13-1.47,1.85l-.17,.34-.19-.33c-.04-.07-.08-.15-.13-.22-.08-.14-.16-.28-.25-.41-.29-.46-.66-.86-1.08-1.2-.1-.06-.16-.17-.17-.28,0-.11,.07-.22,.17-.28"/><path id="Path_612" class="cls-1" d="M12.99,2.97c.48,.19,.89,.53,1.17,.97,.25,.38,.44,.79,.57,1.22,.06,.2,.18,.23,.28,.23h.01c.1,0,.2-.03,.27-.23,0-.03,.02-.06,.03-.09,.01-.05,.03-.1,.05-.15,.25-.88,.87-1.61,1.71-1.98,.09-.03,.15-.11,.15-.21,.02-.14-.08-.28-.22-.31-.47-.19-.87-.52-1.14-.95-.25-.39-.45-.81-.58-1.25-.02-.13-.14-.22-.27-.21-.1,0-.21,.03-.28,.22-.01,.03-.02,.06-.03,.1s-.03,.09-.04,.13c-.24,.89-.88,1.63-1.72,2.01-.03,.01-.14,.05-.14,.24,0,.13,.08,.24,.2,.27m1.03-.51c.32-.29,.6-.63,.81-1.01l.18-.31,.18,.31c.2,.38,.47,.72,.79,1,.08,.06,.13,.15,.14,.25,0,.09-.05,.18-.12,.24-.32,.28-.59,.62-.79,1l-.17,.31-.19-.3c-.22-.38-.5-.73-.83-1.02-.07-.06-.12-.14-.12-.23,0-.1,.05-.18,.13-.24"/><path id="Path_613" class="cls-1" d="M3.29,10.45c.59,.23,1.06,.67,1.34,1.23,.17,.31,.31,.64,.41,.99,.02,.13,.14,.22,.27,.22h0c.1,0,.21-.03,.28-.22,.01-.03,.02-.06,.03-.09s.02-.07,.03-.1c.24-.91,.87-1.66,1.73-2.04,.04-.01,.13-.05,.14-.23,0-.14-.1-.25-.23-.29-.47-.19-.87-.53-1.14-.96-.25-.39-.45-.81-.58-1.25-.02-.12-.13-.21-.25-.2h-.01c-.13,0-.25,.08-.28,.21-.01,.03-.03,.07-.04,.12s-.03,.09-.05,.14c-.24,.88-.87,1.61-1.7,1.99-.11,.04-.17,.14-.16,.26,0,.12,.07,.22,.18,.25m1.05-.51h.01c.32-.3,.58-.63,.79-1l.18-.29,.17,.3c.2,.37,.47,.71,.78,.99,.08,.06,.13,.16,.14,.26,0,.1-.06,.2-.14,.26-.31,.28-.58,.61-.78,.98l-.17,.3-.18-.29c-.23-.38-.52-.73-.84-1.03-.07-.05-.11-.14-.11-.22,0-.1,.06-.19,.14-.24"/><path id="Path_614" class="cls-1" d="M1.47,21.08c-.33-.01-.66-.01-.99,0-.26,0-.47,.21-.47,.47,0,0,0,0,0,.01,0,.26,.22,.48,.48,.48,.16,0,.32,0,.48,0H.97c.17,0,.34,.01,.51,0,.25-.01,.45-.22,.46-.47,0-.26-.19-.48-.45-.49,0,0,0,0-.01,0"/><path id="Path_615" class="cls-1" d="M5.84,21.09c-.17-.01-.34,0-.51,0-.18,0-.36,0-.54,0-.26,.04-.44,.29-.4,.55,.03,.21,.2,.37,.4,.4,.35,.02,.7,.02,1.05,0,.25-.01,.45-.22,.45-.48,0-.25-.19-.46-.45-.48"/><path id="Path_616" class="cls-1" d="M10.66,21.08c-.33-.01-.66-.01-.99,0-.26,0-.47,.21-.47,.47,0,0,0,0,0,.01,0,.26,.22,.48,.48,.48,.16,0,.32,0,.48,0h.45s.04,0,.06,0c.25-.01,.45-.22,.46-.47,.01-.26-.19-.48-.45-.49,0,0,0,0-.01,0"/><path id="Path_617" class="cls-1" d="M15.49,21.08c-.33-.01-.66-.01-.99,0-.26,0-.47,.21-.47,.47,0,0,0,0,0,.01,0,.26,.22,.48,.48,.48,.16,0,.32,0,.48,0s.32,0,.48,0c.26,0,.48-.21,.48-.47,0-.26-.2-.48-.46-.49,0,0,0,0-.01,0"/><path id="Path_618" class="cls-1" d="M19.35,22.05c.16,0,.32,0,.48,0h.45s.04,0,.06,0c.25-.02,.45-.22,.46-.47,0-.26-.19-.48-.46-.49,0,0,0,0-.01,0-.33-.01-.66-.01-.99,0-.26,0-.47,.21-.47,.47,0,0,0,0,0,.01,0,.26,.22,.48,.48,.48"/><path id="Path_619" class="cls-1" d="M24.19,22.05c.16,0,.32,0,.48,0h.45s.04,0,.06,0c.25-.02,.45-.22,.46-.47,0-.26-.19-.48-.46-.49,0,0,0,0-.01,0-.33-.01-.66-.01-.99,0-.26,0-.47,.21-.47,.47,0,0,0,0,0,.01,0,.26,.22,.48,.48,.48"/><path id="Path_620" class="cls-1" d="M29.52,21.08c-.33-.01-.66-.01-.99,0-.26,0-.47,.21-.47,.47,0,0,0,0,0,.01,0,.26,.22,.48,.48,.47,.16,0,.32,0,.48,0s.32,0,.48,0c.26,0,.48-.21,.48-.48,0-.26-.2-.48-.46-.49,0,0,0,0-.01,0"/><path id="Path_621" class="cls-1" d="M3.44,23.99c-.35-.02-.7-.02-1.05,0-.25,.01-.45,.22-.45,.48,0,.25,.19,.47,.45,.48,.17,.01,.34,0,.51,0,.18,0,.36,.01,.54,0,.25-.02,.44-.24,.43-.49,0-.25-.18-.45-.43-.46"/><path id="Path_622" class="cls-1" d="M8.25,23.99c-.17-.01-.34,0-.51,0h0c-.16,0-.32,0-.48,0-.26,0-.48,.21-.48,.47,0,0,0,0,0,0,0,.26,.2,.48,.46,.48,0,0,0,0,.01,0,.33,.01,.66,.01,.99,0,.27-.02,.46-.26,.44-.52-.02-.23-.2-.42-.43-.44"/><path id="Path_623" class="cls-1" d="M13.09,23.99c-.17-.01-.34,0-.51,0h0c-.16,0-.32,0-.48,0-.26,0-.48,.21-.48,.47,0,0,0,0,0,0,0,.26,.2,.48,.46,.48,0,0,0,0,.01,0,.33,.01,.66,.01,.99,0,.27-.02,.46-.26,.44-.52-.02-.23-.2-.42-.43-.44"/><path id="Path_624" class="cls-1" d="M17.93,23.99c-.34-.02-.68-.01-1.02,0-.25,0-.46,.21-.46,.47,0,.26,.2,.48,.46,.49,0,0,0,0,0,0,.17,.01,.34,0,.51,0h.45s.04,0,.06,0c.25-.02,.44-.23,.44-.48,0-.25-.2-.46-.45-.48"/><path id="Path_625" class="cls-1" d="M22.73,23.98c-.16,0-.32,0-.48,0s-.32,0-.48,0c-.26,0-.48,.21-.48,.47,0,.26,.2,.48,.46,.49,0,0,0,0,.01,0,.33,.01,.66,.01,.99,0,.26,0,.47-.22,.47-.48,0,0,0,0,0-.01,0-.26-.22-.48-.48-.47"/><path id="Path_626" class="cls-1" d="M27.62,23.99c-.35-.02-.7-.02-1.05,0-.25,.01-.45,.22-.45,.48,0,.25,.19,.46,.45,.48,.17,.01,.34,0,.51,0,.18,0,.36,.01,.54,0,.25-.02,.44-.24,.43-.49,0-.25-.19-.45-.43-.46"/><path id="Path_627" class="cls-1" d="M5.81,26.41c-.33-.01-.66-.01-.99,0-.26,0-.47,.22-.47,.48,0,0,0,0,0,.01,0,.25,.2,.46,.46,.47,.17,.01,.34,0,.51,0h0c.16,0,.32,0,.48,0,.26,0,.48-.21,.48-.48,0-.26-.2-.48-.46-.48,0,0,0,0-.01,0"/><path id="Path_628" class="cls-1" d="M10.66,26.4c-.15,0-.3,0-.45,0h-.54c-.26,0-.47,.23-.47,.49,0,.25,.2,.46,.46,.47,.34,.01,.68,.01,1.02,0,.25-.01,.45-.22,.45-.47,0-.26-.21-.48-.47-.48,0,0,0,0,0,0"/><path id="Path_629" class="cls-1" d="M15.48,26.4c-.16,0-.32,0-.48,0s-.32,0-.48,0c-.26,0-.48,.21-.48,.47,0,.26,.2,.48,.46,.49,0,0,0,0,.01,0,.33,.01,.66,.01,.99,0,.26,0,.47-.22,.47-.48,0,0,0,0,0-.01,0-.26-.22-.48-.48-.47"/><path id="Path_630" class="cls-1" d="M20.35,26.41c-.34-.02-.68-.01-1.02,0-.25,0-.46,.21-.46,.46-.01,.26,.19,.49,.46,.5,0,0,0,0,0,0,.17,.01,.34,0,.51,0s.34,.01,.51,0c.25-.02,.45-.23,.45-.48,0-.25-.19-.47-.45-.48"/><path id="Path_631" class="cls-1" d="M25.19,26.41c-.34-.02-.68-.01-1.02,0-.25,0-.46,.21-.46,.46,0,.26,.2,.49,.46,.5,0,0,0,0,0,0,.17,.01,.34,0,.51,0s.34,.01,.51,0c.25-.02,.45-.23,.45-.48,0-.25-.19-.47-.45-.48"/></g></g></svg>