<svg id="UNIFORMIZA_A_PELE" data-name="UNIFORMIZA A PELE" xmlns="http://www.w3.org/2000/svg" xmlns:xlink="http://www.w3.org/1999/xlink" width="141.096" height="137.909" viewBox="0 0 141.096 137.909">
  <defs>
    <clipPath id="clip-path">
      <rect id="Retângulo_271" data-name="Retângulo 271" width="141.096" height="137.909" fill="#fff"/>
    </clipPath>
  </defs>
  <g id="Grupo_191" data-name="Grupo 191" clip-path="url(#clip-path)">
    <path id="Caminho_433" data-name="Caminho 433" d="M243.484,398.946a4.957,4.957,0,0,1,3.787-2.182,1.113,1.113,0,0,0,.75-1.842,1.43,1.43,0,0,0-1.451-.4,6.848,6.848,0,0,0-4.4,2.363,12.382,12.382,0,0,1-1.364,1.382,3.648,3.648,0,0,1-4.643.033,10.267,10.267,0,0,1-1.459-1.49,6.316,6.316,0,0,0-9.8.028,10.092,10.092,0,0,1-1.351,1.4,3.666,3.666,0,0,1-4.758.012,10.672,10.672,0,0,1-1.4-1.447,6.315,6.315,0,0,0-9.8.051,10,10,0,0,1-1.354,1.392,3.666,3.666,0,0,1-4.7.039,11.3,11.3,0,0,1-1.415-1.434,6.344,6.344,0,0,0-9.825.007,13.775,13.775,0,0,1-1.3,1.341,3.57,3.57,0,0,1-3.357.789,5.488,5.488,0,0,1-2.761-2.088,6.636,6.636,0,0,0-4.893-2.392,1.125,1.125,0,0,0-1.212,1.073,1.081,1.081,0,0,0,1,1.2c1.738-.011,2.818,1.031,3.839,2.223a6.339,6.339,0,0,0,9.919.013,11.9,11.9,0,0,1,1.367-1.379,3.622,3.622,0,0,1,4.694.04,13.077,13.077,0,0,1,1.358,1.388,6.365,6.365,0,0,0,9.832.009,12.873,12.873,0,0,1,1.358-1.388,3.65,3.65,0,0,1,4.809.027,11.255,11.255,0,0,1,1.345,1.4,6.317,6.317,0,0,0,9.758.005,11.447,11.447,0,0,1,1.344-1.4,3.617,3.617,0,0,1,3.43-.773,5.521,5.521,0,0,1,2.693,2.069,6.3,6.3,0,0,0,9.97-.059" transform="translate(-143.596 -320.46)" fill="#fff"/>
    <path id="Caminho_434" data-name="Caminho 434" d="M177.815,366.058a4.379,4.379,0,0,0,.719.014h34.016q17.152,0,34.3,0c.913,0,1.437-.421,1.445-1.141s-.515-1.155-1.421-1.165H178.486a5.687,5.687,0,0,0-.648.01,1.125,1.125,0,0,0-1.044,1.166,1.111,1.111,0,0,0,1.021,1.116" transform="translate(-143.618 -295.502)" fill="#fff"/>
    <path id="Caminho_435" data-name="Caminho 435" d="M434.348,258.96a7.588,7.588,0,0,1,3.457,2.582,14.361,14.361,0,0,1,2.468,4.877c.164.54.425.615.684.615h.021c.243,0,.493-.082.671-.613l.076-.225a17.86,17.86,0,0,1,.665-1.772,9.625,9.625,0,0,1,5.285-5.518.585.585,0,0,0,.414-.6.651.651,0,0,0-.519-.666,7.678,7.678,0,0,1-3.5-2.64,14.244,14.244,0,0,1-2.4-4.749c-.164-.535-.4-.669-.717-.695a.719.719,0,0,0-.669.6,14.542,14.542,0,0,1-1.234,3.02,8.961,8.961,0,0,1-4.744,4.482.627.627,0,0,0-.471.633.648.648,0,0,0,.518.665m2.734-1.329a12.34,12.34,0,0,0,3.435-4.378l.435-.895.44.892a12.576,12.576,0,0,0,3.526,4.45.69.69,0,0,1,.006,1.195,12.377,12.377,0,0,0-3.508,4.41l-.4.813-.458-.782c-.1-.179-.2-.352-.3-.52-.2-.345-.385-.672-.584-.982a11.614,11.614,0,0,0-2.583-2.858.9.9,0,0,1-.406-.674.886.886,0,0,1,.4-.671" transform="translate(-352.422 -202.727)" fill="#fff"/>
    <path id="Caminho_436" data-name="Caminho 436" d="M339.684,195.2a5.716,5.716,0,0,1,2.783,2.318,10.964,10.964,0,0,1,1.352,2.919c.149.483.43.546.658.546h.026c.229-.005.485-.076.647-.553.024-.07.045-.14.065-.211.033-.114.067-.231.114-.353.707-1.838,1.742-3.837,4.07-4.725a.557.557,0,0,0,.359-.493.692.692,0,0,0-.523-.748,5.728,5.728,0,0,1-2.721-2.275,11.041,11.041,0,0,1-1.385-2.984.621.621,0,0,0-.651-.511c-.23,0-.489.063-.662.53-.027.073-.05.153-.075.237-.029.1-.06.2-.1.313-.7,1.853-1.728,3.871-4.109,4.784-.083.032-.335.128-.328.572a.63.63,0,0,0,.479.636m2.457-1.227a9.3,9.3,0,0,0,1.924-2.413l.427-.731.418.737a8.944,8.944,0,0,0,1.883,2.387.811.811,0,0,1,.327.6.783.783,0,0,1-.3.578,8.451,8.451,0,0,0-1.891,2.393l-.4.745-.446-.717a10.563,10.563,0,0,0-1.973-2.444.731.731,0,0,1-.281-.558.784.784,0,0,1,.306-.578" transform="translate(-275.553 -152.827)" fill="#fff"/>
    <path id="Caminho_437" data-name="Caminho 437" d="M216.686,290.454a6.05,6.05,0,0,1,3.2,2.943,11.169,11.169,0,0,1,.987,2.35.609.609,0,0,0,.639.515h.01c.23,0,.491-.062.668-.521.025-.066.047-.141.071-.22s.048-.163.08-.249c.683-1.883,1.708-3.933,4.125-4.865.087-.033.313-.12.345-.561a.711.711,0,0,0-.545-.681,5.637,5.637,0,0,1-2.719-2.288,11.008,11.008,0,0,1-1.377-2.991.585.585,0,0,0-.6-.481h-.029a.644.644,0,0,0-.659.489c-.033.083-.06.176-.089.274s-.066.222-.11.338c-.7,1.84-1.732,3.843-4.058,4.742a.555.555,0,0,0-.375.61.6.6,0,0,0,.434.6m2.512-1.211.028-.024a9.619,9.619,0,0,0,1.893-2.372l.427-.7.411.709a8.943,8.943,0,0,0,1.867,2.356.841.841,0,0,1,.336.616.83.83,0,0,1-.326.617,8.875,8.875,0,0,0-1.861,2.346l-.4.7-.438-.681a11.43,11.43,0,0,0-2.008-2.464.683.683,0,0,1-.26-.531.772.772,0,0,1,.327-.578" transform="translate(-175.672 -230.222)" fill="#fff"/>
    <path id="Caminho_438" data-name="Caminho 438" d="M180.27,455.951c-.788-.032-1.58-.031-2.369,0a1.124,1.124,0,0,0-1.127,1.154,1.143,1.143,0,0,0,1.146,1.14c.382.022.766,0,1.149,0v0c.407,0,.816.025,1.22-.006a1.141,1.141,0,0,0,1.093-1.118,1.125,1.125,0,0,0-1.111-1.169" transform="translate(-143.602 -370.372)" fill="#fff"/>
    <path id="Caminho_439" data-name="Caminho 439" d="M235.648,455.969c-.4-.033-.813-.006-1.22-.005a10.737,10.737,0,0,0-1.291.011,1.142,1.142,0,0,0,0,2.273c.835.045,1.676.041,2.512,0a1.118,1.118,0,0,0,1.064-1.141,1.134,1.134,0,0,0-1.068-1.14" transform="translate(-188.555 -370.389)" fill="#fff"/>
    <path id="Caminho_440" data-name="Caminho 440" d="M297.069,455.951c-.789-.032-1.58-.031-2.369,0a1.124,1.124,0,0,0-1.128,1.152,1.143,1.143,0,0,0,1.144,1.141c.382.023.766,0,1.149.005h1.077a1.352,1.352,0,0,0,.143,0,1.161,1.161,0,0,0,1.093-1.122,1.125,1.125,0,0,0-1.11-1.17" transform="translate(-238.483 -370.373)" fill="#fff"/>
    <path id="Caminho_441" data-name="Caminho 441" d="M358.533,455.951c-.789-.031-1.58-.031-2.369,0a1.124,1.124,0,0,0-1.12,1.16,1.144,1.144,0,0,0,1.153,1.133c.382.022.766,0,1.149,0s.767.018,1.149,0a1.147,1.147,0,0,0,1.157-1.13,1.126,1.126,0,0,0-1.118-1.163" transform="translate(-288.419 -370.373)" fill="#fff"/>
    <path id="Caminho_442" data-name="Caminho 442" d="M417.666,458.243c.382.022.766,0,1.149,0h1.077a1.364,1.364,0,0,0,.144,0,1.16,1.16,0,0,0,1.089-1.126,1.126,1.126,0,0,0-1.114-1.166c-.789-.032-1.58-.031-2.369,0a1.124,1.124,0,0,0-1.124,1.156,1.144,1.144,0,0,0,1.149,1.137" transform="translate(-338.357 -370.373)" fill="#fff"/>
    <path id="Caminho_443" data-name="Caminho 443" d="M479.138,458.243c.382.022.766,0,1.149,0h1.077a1.364,1.364,0,0,0,.144,0,1.16,1.16,0,0,0,1.089-1.126,1.125,1.125,0,0,0-1.114-1.166c-.789-.032-1.58-.031-2.369,0a1.124,1.124,0,0,0-1.124,1.156,1.144,1.144,0,0,0,1.149,1.137" transform="translate(-388.294 -370.373)" fill="#fff"/>
    <path id="Caminho_444" data-name="Caminho 444" d="M536.8,455.95c-.789-.031-1.58-.031-2.369,0a1.124,1.124,0,0,0-1.117,1.163,1.145,1.145,0,0,0,1.156,1.13c.382.022.766,0,1.149,0s.767.018,1.149,0a1.147,1.147,0,0,0,1.154-1.133,1.126,1.126,0,0,0-1.121-1.16" transform="translate(-433.237 -370.372)" fill="#fff"/>
    <path id="Caminho_445" data-name="Caminho 445" d="M204.942,492.828a22.053,22.053,0,0,0-2.512-.007,1.114,1.114,0,0,0-1.067,1.137,1.134,1.134,0,0,0,1.063,1.145c.4.034.813.007,1.22.006.431,0,.865.032,1.292-.009a1.116,1.116,0,0,0,1.028-1.173,1.065,1.065,0,0,0-1.024-1.1" transform="translate(-163.577 -400.317)" fill="#fff"/>
    <path id="Caminho_446" data-name="Caminho 446" d="M266.35,492.87c-.4-.029-.813-.005-1.22-.005v0c-.383,0-.767-.018-1.149,0A1.14,1.14,0,0,0,262.836,494a1.127,1.127,0,0,0,1.127,1.155c.789.03,1.581.031,2.369,0a1.145,1.145,0,0,0,.018-2.288" transform="translate(-213.515 -400.371)" fill="#fff"/>
    <path id="Caminho_447" data-name="Caminho 447" d="M327.822,492.87c-.4-.029-.813-.005-1.22-.005v0c-.383,0-.767-.018-1.149,0A1.14,1.14,0,0,0,324.308,494a1.127,1.127,0,0,0,1.127,1.155c.789.03,1.581.031,2.369,0a1.145,1.145,0,0,0,.018-2.287" transform="translate(-263.451 -400.371)" fill="#fff"/>
    <path id="Caminho_448" data-name="Caminho 448" d="M389.314,492.84c-.812-.037-1.628-.035-2.441,0a1.119,1.119,0,0,0-1.1,1.111,1.14,1.14,0,0,0,1.106,1.176c.4.028.813.005,1.22.005v0h1.077a1.145,1.145,0,0,0,.143-.006,1.16,1.16,0,0,0,1.06-1.154,1.117,1.117,0,0,0-1.072-1.134" transform="translate(-313.386 -400.337)" fill="#fff"/>
    <path id="Caminho_449" data-name="Caminho 449" d="M450.7,492.864c-.382-.021-.766,0-1.149,0s-.767-.017-1.149,0A1.142,1.142,0,0,0,447.252,494a1.126,1.126,0,0,0,1.119,1.162c.789.031,1.581.031,2.369,0a1.128,1.128,0,0,0,1.119-1.163,1.144,1.144,0,0,0-1.156-1.13" transform="translate(-363.325 -400.37)" fill="#fff"/>
    <path id="Caminho_450" data-name="Caminho 450" d="M512.3,492.828a22.157,22.157,0,0,0-2.512-.006,1.113,1.113,0,0,0-1.064,1.139,1.135,1.135,0,0,0,1.066,1.142c.4.034.813.006,1.22.006.431,0,.865.032,1.292-.009a1.118,1.118,0,0,0,1.025-1.176,1.066,1.066,0,0,0-1.027-1.1" transform="translate(-413.263 -400.318)" fill="#fff"/>
    <path id="Caminho_451" data-name="Caminho 451" d="M235.576,523.575c-.789-.03-1.581-.031-2.369,0a1.124,1.124,0,0,0-1.11,1.169,1.138,1.138,0,0,0,1.091,1.118c.4.03.813.006,1.22.006v0c.383,0,.767.019,1.149,0a1.145,1.145,0,0,0,1.147-1.14,1.126,1.126,0,0,0-1.128-1.153" transform="translate(-188.543 -425.308)" fill="#fff"/>
    <path id="Caminho_452" data-name="Caminho 452" d="M297.05,523.608c-.357-.023-.718,0-1.077,0v0h-1.149c-.048,0-.1,0-.144,0a1.152,1.152,0,0,0-1.11,1.176,1.121,1.121,0,0,0,1.091,1.116c.812.034,1.628.036,2.441,0a1.12,1.12,0,0,0,1.076-1.131,1.141,1.141,0,0,0-1.128-1.156" transform="translate(-238.482 -425.343)" fill="#fff"/>
    <path id="Caminho_453" data-name="Caminho 453" d="M358.494,523.6c-.382-.021-.766,0-1.149,0s-.767-.017-1.149,0a1.142,1.142,0,0,0-1.154,1.131,1.127,1.127,0,0,0,1.119,1.162c.789.031,1.581.031,2.369,0a1.129,1.129,0,0,0,1.119-1.163,1.144,1.144,0,0,0-1.156-1.13" transform="translate(-288.419 -425.341)" fill="#fff"/>
    <path id="Caminho_454" data-name="Caminho 454" d="M420.058,523.58c-.812-.039-1.628-.035-2.441,0a1.121,1.121,0,0,0-1.1,1.1,1.139,1.139,0,0,0,1.1,1.185c.4.03.813.006,1.22,0s.816.026,1.22-.007a1.139,1.139,0,0,0,1.07-1.14,1.118,1.118,0,0,0-1.063-1.142" transform="translate(-338.354 -425.308)" fill="#fff"/>
    <path id="Caminho_455" data-name="Caminho 455" d="M481.527,523.579c-.812-.038-1.628-.035-2.441,0a1.12,1.12,0,0,0-1.1,1.107,1.139,1.139,0,0,0,1.1,1.18c.4.029.813.005,1.22,0s.816.027,1.22-.007a1.137,1.137,0,0,0,1.065-1.144,1.118,1.118,0,0,0-1.067-1.138" transform="translate(-388.292 -425.307)" fill="#fff"/>
    <path id="Caminho_456" data-name="Caminho 456" d="M11.666,454.973,20,451.983a5.939,5.939,0,0,1,4.761.029,6.5,6.5,0,0,1,3.083,3.9,6.439,6.439,0,0,1,.112,4.871,5.829,5.829,0,0,1-3.621,3.014l-8.419,3.02-1.349-3.759,8.125-2.915a3.535,3.535,0,0,0,1.934-1.314,2.515,2.515,0,0,0-1.172-3.283,3.745,3.745,0,0,0-2.339.257l-8.106,2.908Z" transform="translate(-9.477 -366.779)" fill="#fff"/>
    <path id="Caminho_457" data-name="Caminho 457" d="M14.7,347.534l.167,5.209-10.185,5.7,0,.09q2.437-.269,3.724-.311l6.626-.213.113,3.519L.449,362l-.166-5.188,10.044-5.677,0-.06q-2.218.212-3.565.255l-6.647.214L0,348.006Z" transform="translate(0 -282.319)" fill="#fff"/>
    <rect id="Retângulo_269" data-name="Retângulo 269" width="3.994" height="14.708" transform="translate(1.302 57.832) rotate(-78.043)" fill="#fff"/>
    <path id="Caminho_458" data-name="Caminho 458" d="M37.135,217.148l-1.512,3.61-13.566-5.684,3.359-8.017,2.942,1.232L26.51,212.7l2.589,1.085,1.7-4.064,2.941,1.232-1.7,4.064Z" transform="translate(-17.918 -168.203)" fill="#fff"/>
    <path id="Caminho_459" data-name="Caminho 459" d="M82.142,129.316a7.933,7.933,0,0,1,3.328,4.909,8.273,8.273,0,0,1-6.555,8.38,7.9,7.9,0,0,1-5.593-2.024,7.85,7.85,0,0,1-3.291-4.9,8.327,8.327,0,0,1,6.547-8.411,7.94,7.94,0,0,1,5.563,2.046m-6.228,7.978q3.362,2.625,5.189.286a2.552,2.552,0,0,0,.561-2.4,7.521,7.521,0,0,0-5.117-3.982,2.522,2.522,0,0,0-2.188,1.094q-1.839,2.355,1.555,5" transform="translate(-56.84 -103.369)" fill="#fff"/>
    <path id="Caminho_460" data-name="Caminho 460" d="M144.6,71.573l3.089,4.371-3.245,2.293-8.489-12.011,3.936-2.781q4.9-3.461,7.4.089a4.343,4.343,0,0,1,.245,4.669l7.2,2.76-3.681,2.6-5.636-2.571Zm-1.724-2.44.608-.43q1.7-1.2.638-2.706-.877-1.24-2.545-.062l-.641.453Z" transform="translate(-110.44 -50.152)" fill="#fff"/>
    <path id="Caminho_461" data-name="Caminho 461" d="M234.514,20.522l-5.975-9.251-.087.027q.994,2.526,1.432,3.959l1.869,6.109-3.367,1.03-4.3-14.065,5.06-1.548,5.989,9.089.077-.024-.178-10.866,5.07-1.551L244.4,17.5l-3.492,1.068L239.026,12.4q-.148-.481-.312-1.072t-.75-2.916l-.087.026.255,10.979Z" transform="translate(-182.035 -2.788)" fill="#fff"/>
    <rect id="Retângulo_270" data-name="Retângulo 270" width="3.994" height="14.708" transform="translate(66.303 0.128) rotate(-1.838)" fill="#fff"/>
    <path id="Caminho_462" data-name="Caminho 462" d="M407.391,16.966,396.1,15.03l.415-2.42,7.8-7.838-6.128-1.051L398.73.558l10.987,1.884L409.3,4.852,401.5,12.7l6.435,1.1Z" transform="translate(-321.769 -0.454)" fill="#fff"/>
    <path id="Caminho_463" data-name="Caminho 463" d="M474.868,44.834l.507-2.8-4.332-2.017L469.2,42.2l-3.958-1.843L475.83,28.991l4.806,2.238-1.829,15.44ZM476,38.726l.445-2.457q.139-.823.391-2.115t.394-1.836q-.3.427-1.037,1.381t-3.029,3.706Z" transform="translate(-377.943 -23.551)" fill="#fff"/>
    <path id="Caminho_464" data-name="Caminho 464" d="M579.276,130.358l1.589-2.366-3.16-3.585-2.56,1.264-2.887-3.275,14.252-6.166,3.506,3.977-7.866,13.411Zm3.489-5.14,1.392-2.072q.457-.7,1.206-1.781t1.1-1.524q-.445.271-1.5.85t-4.261,2.18Z" transform="translate(-464.874 -94.419)" fill="#fff"/>
    <path id="Caminho_465" data-name="Caminho 465" d="M661.5,241.514a4.927,4.927,0,0,1-4.073-.15,5.864,5.864,0,0,1-2.6-3.477l-.36-1.057-4.619,1.572-1.28-3.762,13.924-4.739,1.64,4.819a6.221,6.221,0,0,1,.2,4.354,4.343,4.343,0,0,1-2.826,2.439m-3.968-5.727.233.686a1.981,1.981,0,0,0,.935,1.186,1.824,1.824,0,0,0,1.484.053q1.41-.48.878-2.042l-.331-.971Z" transform="translate(-526.859 -186.761)" fill="#fff"/>
    <path id="Caminho_466" data-name="Caminho 466" d="M670.535,331.018l-.76-8.7,14.652-1.281.76,8.7-3.177.278-.415-4.74-2.3.2.384,4.389-3.177.278-.384-4.39-2.766.242.414,4.74Z" transform="translate(-544.091 -260.795)" fill="#fff"/>
    <path id="Caminho_467" data-name="Caminho 467" d="M667.035,394.583l14.554,2.125-.575,3.932-11.378-1.662-.819,5.6-3.175-.464Z" transform="translate(-540.735 -320.54)" fill="#fff"/>
    <path id="Caminho_468" data-name="Caminho 468" d="M642.915,471.979l3.2-8.124,13.683,5.394-3.2,8.124-2.967-1.169,1.745-4.427-2.153-.849-1.616,4.1-2.967-1.169,1.616-4.1-2.583-1.019-1.745,4.427Z" transform="translate(-522.272 -376.812)" fill="#fff"/>
    <path id="Caminho_469" data-name="Caminho 469" d="M128.333,578.286A66.469,66.469,0,0,1,73.7,549.639a3.352,3.352,0,1,1,5.511-3.816,59.715,59.715,0,0,0,99.664-2.156,3.352,3.352,0,1,1,5.671,3.574,66.358,66.358,0,0,1-56.215,31.045" transform="translate(-59.387 -440.376)" fill="#fff"/>
  </g>
</svg>
