<?xml version="1.0" encoding="UTF-8"?><svg id="Camada_2" xmlns="http://www.w3.org/2000/svg" viewBox="0 0 30 28.32"><defs><style>.cls-1{fill:#333;}</style></defs><g id="Camada_1-2"><g id="Group_233"><path id="Path_676" class="cls-1" d="M29.71,18.45c-1.48-1.83-2.94-3.68-4.38-5.53-.24-.36-.66-.55-1.09-.49-.7,.04-1.41,.01-2.16,.01v-.6c0-2.56,0-5.12,0-7.68,.04-.34-.16-.66-.47-.78-.56-.26-1.1-.55-1.65-.83-.54-.27-1.07-.54-1.61-.8-.28-.13-.58-.09-.67,.21-.02,.23,.05,.46,.2,.64,.08,.12,.3,.17,.45,.24l2.15,1.09c-1.97,.98-3.84,1.92-5.72,2.85-.16,.05-.33,.03-.48-.04-.91-.44-1.82-.89-2.72-1.34-.94-.47-1.88-.95-2.88-1.46,.18-.1,.29-.18,.41-.24,1.36-.68,2.75-1.29,4.05-2.06,.96-.57,1.81-.75,2.74-.02,.18,.19,.49,.19,.67,0,.04-.04,.08-.09,.1-.14,.21-.37-.02-.6-.33-.76-.44-.25-.89-.47-1.36-.66-.27-.1-.57-.09-.84,.01-2.2,1.07-4.38,2.18-6.58,3.27-.36,.15-.57,.51-.53,.9,.02,2.31-.03,4.61,.03,6.92,.08,.59-.29,1.16-.86,1.34-1.94,.92-3.85,1.9-5.76,2.88-.17,.09-.39,.3-.4,.46C0,16.69,0,17.55,.04,18.4c.04,.19,.18,.34,.37,.4,.2-.02,.39-.13,.51-.3,.07-.19,.1-.39,.08-.6,0-.37,0-.73,0-1.13,.08,.01,.15,.03,.23,.05,1.85,.92,3.7,1.84,5.54,2.79,.16,.13,.26,.32,.26,.52,.02,1.48,.01,2.97,.01,4.46v2.4c-.07,0-.15-.02-.22-.04-1.85-.93-3.7-1.85-5.54-2.79-.16-.13-.26-.32-.27-.52-.03-1.04,0-2.09-.02-3.13,0-.34-.14-.6-.53-.58-.38,.01-.44,.27-.44,.59,0,1.2,.01,2.4,0,3.6-.04,.34,.16,.65,.47,.78,2.18,1.08,4.36,2.17,6.53,3.27,.32,.18,.71,.19,1.03,0,2.04-1.03,4.09-2.05,6.14-3.08,.46-.23,1.04-.37,.9-1.14,.68,.74,1.31,1.52,1.88,2.35,.48,.83,1.42,1.27,2.36,1.1,2.1-.12,4.2-.1,6.3-.17,.3,0,.59-.13,.8-.35,.4-.69,.71-1.44,1.04-2.17,.14-.22,.07-.51-.14-.65-.02-.01-.05-.03-.07-.04-.32-.15-.54,0-.68,.3-.24,.5-.49,.99-.71,1.5-.09,.27-.36,.45-.65,.42-1.36,.03-2.72,.09-4.07,.12-.71,.02-1.42,0-2.16,0,.02-.1,.04-.2,.08-.29,.94-2.02,1.88-4.04,2.84-6.04,.11-.15,.28-.25,.47-.26,1.97-.07,3.95-.12,5.92-.18,.12,0,.24,.02,.43,.03-.12,.29-.22,.53-.33,.77-.29,.63-.58,1.26-.87,1.89-.14,.3-.12,.58,.19,.73,.34,.17,.57-.03,.71-.34,.48-1.03,.95-2.06,1.46-3.08,.21-.38,.15-.86-.16-1.16M15.36,7.61c1.82-.9,3.64-1.82,5.46-2.73,.09-.03,.19-.06,.28-.08v6.49c.1,.59-.3,1.14-.89,1.24-.1,.02-.2,.02-.31,0-.9,.04-1.8,.06-2.7,.04-.47-.05-.91,.24-1.04,.7-.18,.47-.4,.92-.63,1.37-.09,.15-.21,.28-.33,.4l-.12-.05c-.01-.13-.04-.26-.04-.4,0-2.15,0-4.29,0-6.44-.04-.24,.09-.47,.31-.56m-7.33-2.63c0-.07,.02-.15,.04-.22,.82,.41,1.6,.79,2.37,1.17,1.1,.55,2.2,1.1,3.29,1.67,.17,.09,.28,.25,.32,.44,.02,2.26,.01,4.51,0,6.77-.01,.08-.03,.16-.05,.24-.82-.4-1.6-.79-2.39-1.18-1.1-.55-2.2-1.1-3.29-1.67-.16-.1-.27-.26-.3-.45-.02-2.26-.01-4.51,0-6.77m-.75,13.74c-1.83-.89-3.64-1.81-5.46-2.72-.04-.02-.08-.05-.18-.11,.67-.34,1.26-.65,1.86-.95,1.23-.61,2.45-1.23,3.68-1.83,.16-.09,.35-.12,.52-.07,1.88,.92,3.75,1.86,5.72,2.85-.7,.36-1.32,.69-1.94,1-1.21,.61-2.43,1.21-3.65,1.8-.18,.09-.38,.1-.56,.04m6.25,5.6c-1.72,.83-3.42,1.7-5.12,2.55-.1,.05-.2,.08-.39,.15v-3.71c0-1.07-.01-2.15,.01-3.22,0-.19,.1-.37,.26-.48,1.82-.94,3.66-1.85,5.49-2.77,.12-.04,.25-.08,.37-.1-.06,.5-.17,.99-.31,1.47-.29,.75-.69,1.45-.99,2.2-.07,.26-.04,.53,.09,.77,.18,.32,.4,.61,.66,.86,.34,.37,.51,.87,.47,1.37,.05,.39-.18,.77-.55,.9m7.43-4.69c-.95,2.08-1.93,4.15-2.9,6.22-.01,.03-.04,.05-.09,.1-.66-.83-1.32-1.65-1.97-2.48-.65-.82-1.31-1.62-1.93-2.46-.13-.18-.17-.41-.11-.62,.93-2.04,1.89-4.06,2.85-6.09,.04-.07,.09-.14,.14-.2,.51,.64,1,1.25,1.49,1.86,.81,1.03,1.63,2.05,2.43,3.09,.12,.17,.15,.37,.1,.57m7.11-1.02c-1.89,.05-3.79,.11-5.68,.14-.24,0-.48-.08-.66-.24-1.27-1.55-2.5-3.13-3.75-4.7-.03-.06-.05-.12-.06-.19,.16-.02,.31-.05,.46-.06,1.89-.05,3.79-.1,5.68-.14,.2,0,.39,.07,.53,.21,1.28,1.58,2.53,3.18,3.8,4.78,.02,.02,.01,.06,.03,.15-.14,.02-.25,.04-.35,.04"/><path id="Path_677" class="cls-1" d="M19.95,10.19c.2,0,.37-.17,.37-.37s-.17-.37-.37-.37c-.2,0-.37,.17-.37,.37s.17,.37,.37,.37h0"/><path id="Path_678" class="cls-1" d="M19.96,10.83c-.21,0-.37,.17-.37,.37s.17,.37,.37,.37,.37-.17,.37-.37h0c0-.21-.17-.37-.37-.37h0"/><path id="Path_679" class="cls-1" d="M18.54,12.08c.2,0,.37-.17,.37-.37s-.17-.37-.37-.37c-.2,0-.37,.17-.37,.37s.17,.37,.37,.37h0"/></g></g></svg>