<svg id="ÁCIDO_HIALURÔNICO" data-name="ÁCIDO HIALURÔNICO" xmlns="http://www.w3.org/2000/svg" xmlns:xlink="http://www.w3.org/1999/xlink" width="143.09" height="137.909" viewBox="0 0 143.09 137.909">
  <defs>
    <clipPath id="clip-path">
      <rect id="Retângulo_296" data-name="Retângulo 296" width="143.09" height="137.909" fill="#fff"/>
    </clipPath>
  </defs>
  <g id="Grupo_209" data-name="Grupo 209" clip-path="url(#clip-path)">
    <path id="Caminho_564" data-name="Caminho 564" d="M249.081,260.853a9.047,9.047,0,0,0-16.121-2.406c-.42.593-.732.669-1.346.411-.784-.33-1.611-.558-2.419-.83a22.341,22.341,0,0,0-3.246-1.145c-.826-.316-1.636-.688-2.483-.932-.643-.185-.787-.469-.734-1.134a8.972,8.972,0,0,0-10.556-9.733c-.678.11-1.066.041-1.295-.6l-.88-1.929c-1.009-2.216-2-4.442-3.041-6.641a1.109,1.109,0,0,1,.276-1.581,7.115,7.115,0,0,0-8.934-11.019,4.762,4.762,0,0,0-1.758,1.694,7.1,7.1,0,0,0,6.452,11.268,1.15,1.15,0,0,1,1.395.833c.846,1.907,1.765,3.782,2.654,5.669a6.943,6.943,0,0,0,.775,1.7,9.341,9.341,0,0,0,.488,1.124c.338.57.311.918-.278,1.387a8.886,8.886,0,0,0-2.874,9.851c.181.547.2.858-.367,1.217q-5.15,3.242-10.236,6.584a.923.923,0,0,1-1.39-.152,9.037,9.037,0,0,0-14.741,9.38,6.16,6.16,0,0,0,1.2,2.419,1.881,1.881,0,0,0,.134.248,9.059,9.059,0,0,0,15.9-8.168c-.148-.465-.4-.839.262-1.254,3.527-2.2,7.015-4.466,10.5-6.734.431-.28.659-.229,1.028.112a9,9,0,0,0,13.891-1.6c.281-.416.48-.522.971-.336,1.324.5,2.678.933,4.02,1.391a2.082,2.082,0,0,0,.957.343c1.125.421,2.236.888,3.381,1.246.667.208.839.5.767,1.2a8.947,8.947,0,0,0,4.8,8.813,9.1,9.1,0,0,0,9.995-1.069,8.988,8.988,0,0,0,2.847-9.634m-46.846-27.385a4.261,4.261,0,0,1-4.218-4.358,4.279,4.279,0,0,1,8.557.125,4.246,4.246,0,0,1-4.338,4.232m-11.462,42.626a6.189,6.189,0,0,1-8.77-1.358c-.165-.231-.327-.464-.49-.7l-.572-1.527a.221.221,0,0,0-.044-.006.221.221,0,0,1,.044.006,6.361,6.361,0,0,1,2.043-6.03,6.19,6.19,0,1,1,7.789,9.612m23-15.928a6.194,6.194,0,1,1,6.149-6.193,6.183,6.183,0,0,1-6.149,6.193M240.4,269.7a6.19,6.19,0,1,1,6.217-6.119A6.172,6.172,0,0,1,240.4,269.7" transform="translate(-144.041 -179.693)" fill="#fff"/>
    <path id="Caminho_565" data-name="Caminho 565" d="M439.07,182.158a5.248,5.248,0,0,0-5.907,1.956,5.186,5.186,0,0,0,.264,6.362.937.937,0,0,1,.152,1.233c-1.148,2.228-2.284,4.464-3.356,6.729a1.085,1.085,0,0,1-1.376.706,7.081,7.081,0,0,0-7.883,5.379,7.16,7.16,0,0,0,13.359,4.891c1.429-2.793.606-6.417-1.022-7.773a1.742,1.742,0,0,0-.855-.928c-.116-.426.189-.721.35-1.048,1.025-2.075,2.112-4.121,3.09-6.219.378-.812.784-1.273,1.743-1.092a2.723,2.723,0,0,0,1.126-.136,5.24,5.24,0,0,0,.316-10.061m-9.451,27.988a4.342,4.342,0,0,1-5.178-1.427,4.3,4.3,0,0,1,.344-5.427,4.159,4.159,0,0,1,5.275-.737,1.874,1.874,0,0,0,.352.123l1.111,1.131c1.285,2.737.52,5.281-1.906,6.336m7.8-20.641a2.376,2.376,0,0,1-2.349-2.376,2.422,2.422,0,0,1,2.37-2.377,2.392,2.392,0,0,1,2.382,2.446,2.34,2.34,0,0,1-2.4,2.307" transform="translate(-340.501 -147.205)" fill="#fff"/>
    <path id="Caminho_566" data-name="Caminho 566" d="M13.293,488.709l-.265.134q-2.215-.648-2.845-.806t-1.1-.23L7.115,483.9l.192-.1q.952.436,2.5,1.26t2.29,1.274Zm12.018-12.037-2.172,1.918,2.184,4.339,2.843-.584,2,3.964-15.6,2.393-2.423-4.813,11.188-11.162Zm-4.754,4.156-1.9,1.679q-.629.569-1.645,1.44t-1.471,1.216q.507-.152,1.7-.448t4.751-1.046Z" transform="translate(-5.758 -382.559)" fill="#fff"/>
    <path id="Caminho_567" data-name="Caminho 567" d="M6.737,410.145a2.575,2.575,0,0,0,1.587,1.984,5.7,5.7,0,0,0,3.351.175q4.237-.819,3.614-4.042a6.728,6.728,0,0,0-.636-1.835,19.3,19.3,0,0,0-1.008-1.711L17,404.068a10.35,10.35,0,0,1,1.617,4,6.693,6.693,0,0,1-.942,5.468,8.1,8.1,0,0,1-5.229,2.85,9.061,9.061,0,0,1-4.172-.084,6.258,6.258,0,0,1-3.133-1.956,7.6,7.6,0,0,1-1.662-3.61,10.639,10.639,0,0,1,.155-4.748l3.357.611a14,14,0,0,0-.328,1.751,5.789,5.789,0,0,0,.077,1.8" transform="translate(-2.654 -326.997)" fill="#fff"/>
    <rect id="Retângulo_293" data-name="Retângulo 293" width="4.06" height="14.95" transform="translate(0 72.414) rotate(-89.002)" fill="#fff"/>
    <path id="Caminho_568" data-name="Caminho 568" d="M13.27,260.292a7.723,7.723,0,0,1,5.115,3.368,7.915,7.915,0,0,1,.6,6.108l-1.146,4.7L3.31,270.926,4.535,265.9a7.806,7.806,0,0,1,3.1-4.964,6.948,6.948,0,0,1,5.63-.643m-.854,4.108a4.751,4.751,0,0,0-3.153.068,3.008,3.008,0,0,0-1.548,2.165l-.279,1.142,8.137,1.984.213-.874a3.257,3.257,0,0,0-.4-2.876,5.162,5.162,0,0,0-2.971-1.608" transform="translate(-2.679 -210.405)" fill="#fff"/>
    <path id="Caminho_569" data-name="Caminho 569" d="M57.223,163.474a8.066,8.066,0,0,1,3.971,4.535,8.41,8.41,0,0,1-5.565,9.273,8.033,8.033,0,0,1-5.895-1.343,7.976,7.976,0,0,1-3.932-4.53,8.463,8.463,0,0,1,5.553-9.3,8.071,8.071,0,0,1,5.867,1.368M51.938,172.3q3.72,2.227,5.27-.361a2.593,2.593,0,0,0,.265-2.493,5.771,5.771,0,0,0-2.435-2.323,5.807,5.807,0,0,0-3.224-1.055,2.564,2.564,0,0,0-2.07,1.377q-1.56,2.606,2.195,4.854" transform="translate(-36.898 -131.08)" fill="#fff"/>
    <path id="Caminho_570" data-name="Caminho 570" d="M154.541,59.1l-3.331,2.322-3.485-5-3.851,2.684,3.485,5-3.331,2.321L135.48,54.164l3.33-2.321,3.169,4.547,3.851-2.684-3.169-4.547,3.331-2.321Z" transform="translate(-109.639 -37.904)" fill="#fff"/>
    <rect id="Retângulo_294" data-name="Retângulo 294" width="4.06" height="14.95" transform="matrix(0.932, -0.363, 0.363, 0.932, 43.726, 5.647)" fill="#fff"/>
    <path id="Caminho_571" data-name="Caminho 571" d="M302.192,16.768l-1.144-2.661-4.8.721-.333,2.883-4.389.659L294.12,2.8l5.329-.8,7.112,14.113Zm-2.465-5.814-1-2.331q-.344-.776-.855-2.012t-.7-1.778q-.014.53-.1,1.753t-.489,4.84Z" transform="translate(-235.919 -1.619)" fill="#fff"/>
    <path id="Caminho_572" data-name="Caminho 572" d="M385.147,14.855,386.834,0l4.014.456-1.319,11.614,5.721.65-.368,3.241Z" transform="translate(-311.685 0)" fill="#fff"/>
    <path id="Caminho_573" data-name="Caminho 573" d="M478.271,19.33l-3.332,8.359a6.039,6.039,0,0,1-3.227,3.607,6.608,6.608,0,0,1-5.047-.278,6.543,6.543,0,0,1-3.786-3.193,5.922,5.922,0,0,1,.141-4.788l3.366-8.445,3.771,1.5-3.248,8.15a3.593,3.593,0,0,0-.3,2.357,2.556,2.556,0,0,0,3.29,1.316,3.805,3.805,0,0,0,1.379-1.955l3.241-8.131Z" transform="translate(-374.235 -11.81)" fill="#fff"/>
    <path id="Caminho_574" data-name="Caminho 574" d="M541.948,72.191l-3.353,4.284-3.181-2.49,9.216-11.772,3.857,3.019q4.8,3.757,2.076,7.235a4.413,4.413,0,0,1-4.474,1.6l-.585,7.814L541.9,79.059l.857-6.238ZM543.82,69.8l.6.466q1.667,1.3,2.82-.168.952-1.216-.683-2.5l-.628-.492Z" transform="translate(-433.29 -50.347)" fill="#fff"/>
    <path id="Caminho_575" data-name="Caminho 575" d="M619.981,149.139a8.065,8.065,0,0,1-5.752,1.8,8.41,8.41,0,0,1-6.237-8.834,9.691,9.691,0,0,1,9.34-6.62,8.463,8.463,0,0,1,6.269,8.837,8.069,8.069,0,0,1-3.62,4.816m-5.941-8.4q-3.54,2.5-1.8,4.967a2.593,2.593,0,0,0,2.174,1.25,7.647,7.647,0,0,0,5.375-3.814,2.565,2.565,0,0,0-.424-2.45q-1.754-2.479-5.327.048m9.992-.855a13.48,13.48,0,0,1,.065-2.564,18.341,18.341,0,0,1-2.4-.734l-1.524-2.154.242-.171a20.431,20.431,0,0,0,2.131.3,15.387,15.387,0,0,0,1.889.085l2.321,3.281a22.279,22.279,0,0,0-.984,3.9l-.242.171Z" transform="translate(-491.937 -108.653)" fill="#fff"/>
    <path id="Caminho_576" data-name="Caminho 576" d="M652.045,247.607l-1.555-5.064,8.466-8.312-.027-.088q-2.318.915-3.57,1.3l-6.442,1.978L647.867,234l14.291-4.388,1.549,5.044-8.336,8.251.018.058q2.118-.8,3.429-1.2l6.461-1.984,1.057,3.441Z" transform="translate(-524.294 -185.816)" fill="#fff"/>
    <rect id="Retângulo_295" data-name="Retângulo 295" width="14.951" height="4.06" transform="translate(127.935 66.305) rotate(-3.237)" fill="#fff"/>
    <path id="Caminho_577" data-name="Caminho 577" d="M677.661,403.057a2.576,2.576,0,0,0-.83-2.4,5.7,5.7,0,0,0-3.1-1.288q-4.266-.648-4.759,2.6a6.725,6.725,0,0,0-.016,1.942,19.212,19.212,0,0,0,.376,1.95l-3.377-.513a10.352,10.352,0,0,1-.183-4.31,6.7,6.7,0,0,1,2.721-4.836,8.1,8.1,0,0,1,5.882-.932,9.055,9.055,0,0,1,3.9,1.477,6.256,6.256,0,0,1,2.3,2.893,7.6,7.6,0,0,1,.355,3.959,10.637,10.637,0,0,1-1.737,4.422l-2.958-1.7a13.948,13.948,0,0,0,.9-1.539,5.793,5.793,0,0,0,.53-1.719" transform="translate(-538.671 -319.751)" fill="#fff"/>
    <path id="Caminho_578" data-name="Caminho 578" d="M643.111,491.563a8.065,8.065,0,0,1-4.42-4.1,8.411,8.411,0,0,1,4.573-9.8,9.69,9.69,0,0,1,10.383,4.822,8.464,8.464,0,0,1-4.559,9.829,8.07,8.07,0,0,1-5.978-.753m4.342-9.326q-3.931-1.83-5.2.905a2.593,2.593,0,0,0-.005,2.507,7.645,7.645,0,0,0,5.979,2.772,2.565,2.565,0,0,0,1.916-1.584q1.282-2.754-2.686-4.6" transform="translate(-516.547 -386.308)" fill="#fff"/>
    <path id="Caminho_579" data-name="Caminho 579" d="M162.818,603.945a66.076,66.076,0,0,1-49.657-22.406,3.407,3.407,0,1,1,5.107-4.511,59.416,59.416,0,0,0,85.961,3.293,3.407,3.407,0,1,1,4.75,4.886,65.879,65.879,0,0,1-46.161,18.737" transform="translate(-90.886 -466.036)" fill="#fff"/>
  </g>
</svg>
