<?xml version="1.0" encoding="UTF-8"?><svg id="Camada_2" xmlns="http://www.w3.org/2000/svg" viewBox="0 0 30 27.62"><defs><style>.cls-1{fill:#333;}</style></defs><g id="Camada_1-2"><g id="Group_224"><g id="Group_223"><path id="Path_639" class="cls-1" d="M29.83,19.5c-.62-2-2.75-3.12-4.75-2.5-.82,.25-1.53,.78-2.02,1.49-.18,.25-.31,.28-.57,.17-.33-.14-.68-.23-1.01-.35-.44-.19-.9-.36-1.36-.48-.35-.13-.69-.29-1.04-.39-.27-.08-.33-.2-.31-.48,.21-2.07-1.3-3.92-3.36-4.13-.36-.04-.71-.02-1.06,.04-.28,.05-.45,.02-.54-.25l-.37-.81c-.42-.93-.84-1.86-1.28-2.79-.15-.21-.11-.5,.1-.65,0,0,.01,0,.02-.01,1.19-1.14,1.24-3.03,.11-4.22-1.01-1.06-2.64-1.23-3.85-.4-.3,.17-.56,.41-.74,.71-.73,.93-.81,2.21-.19,3.22,.55,1.07,1.71,1.67,2.9,1.5,.26-.06,.52,.09,.58,.35,.35,.8,.74,1.59,1.11,2.38,.08,.25,.19,.49,.33,.71,.06,.16,.13,.32,.2,.47,.14,.24,.13,.38-.12,.58-1.24,.98-1.72,2.64-1.21,4.13,.08,.23,.09,.36-.15,.51-1.44,.91-2.87,1.83-4.29,2.76-.16,.15-.4,.14-.55-.02-.01-.01-.02-.03-.04-.04-1.54-1.42-3.94-1.33-5.36,.21-.93,1-1.24,2.42-.83,3.72,.09,.37,.26,.72,.5,1.01,.02,.04,.03,.07,.06,.1,1.25,1.69,3.63,2.04,5.32,.8,1.31-.97,1.86-2.67,1.36-4.22-.06-.19-.17-.35,.11-.53,1.48-.92,2.94-1.87,4.41-2.82,.18-.12,.28-.1,.43,.05,1.49,1.46,3.88,1.43,5.34-.06,.18-.19,.35-.39,.49-.61,.12-.17,.2-.22,.41-.14,.55,.21,1.12,.39,1.69,.58,.12,.08,.26,.13,.4,.14,.47,.18,.94,.37,1.42,.52,.28,.09,.35,.21,.32,.5-.15,1.53,.65,2.99,2.01,3.7,1.36,.71,3.01,.53,4.19-.45,1.18-.98,1.66-2.58,1.19-4.04M10.17,8c-.99,0-1.78-.82-1.77-1.81,0,0,0-.02,0-.02,.01-.99,.83-1.78,1.82-1.77,.99,.01,1.78,.83,1.77,1.82h0c0,.98-.81,1.78-1.79,1.78,0,0-.02,0-.03,0M5.36,25.89c-1.15,.86-2.77,.63-3.64-.51-.01-.02-.03-.04-.04-.06-.07-.1-.14-.19-.21-.29-.08-.21-.16-.43-.24-.64h0c-.19-.94,.14-1.9,.86-2.53,1.08-.94,2.72-.83,3.66,.25s.83,2.72-.25,3.66c-.05,.04-.09,.08-.14,.12m9.65-6.68c-1.44,.01-2.61-1.14-2.62-2.58s1.14-2.61,2.58-2.62c1.44-.01,2.61,1.14,2.62,2.58,0,0,0,.01,0,.02,0,1.43-1.15,2.59-2.58,2.6m11.17,4c-1.43,0-2.59-1.17-2.59-2.61,0-1.43,1.17-2.59,2.61-2.59,1.43,0,2.59,1.17,2.59,2.61,0,0,0,.01,0,.02-.01,1.43-1.18,2.58-2.61,2.57"/><path id="Path_640" class="cls-1" d="M27.11,.11c-.92-.3-1.92,.03-2.48,.82-.58,.81-.53,1.91,.11,2.67,.15,.13,.17,.35,.06,.52-.48,.93-.96,1.87-1.41,2.82-.07,.24-.33,.37-.57,.3,0,0,0,0,0,0-1.52-.22-2.95,.76-3.31,2.26-.39,1.61,.61,3.24,2.22,3.62,1.36,.33,2.76-.32,3.39-1.57,.55-1.07,.37-2.37-.43-3.26-.07-.17-.19-.31-.36-.39-.05-.18,.08-.3,.15-.44,.43-.87,.89-1.73,1.3-2.61,.16-.34,.33-.53,.73-.46,.16,.01,.32,0,.47-.06,1.18-.3,1.89-1.49,1.59-2.67-.19-.73-.74-1.32-1.46-1.55m-3.97,11.74c-.78,.33-1.67,.08-2.17-.6-.5-.7-.44-1.65,.14-2.28,.57-.62,1.5-.75,2.21-.31,.05,.02,.1,.04,.15,.05l.47,.47c.54,1.15,.22,2.21-.8,2.66m3.27-8.66c-.55,0-.98-.45-.98-1,0-.55,.45-.99,.99-1,.55,0,1,.46,1,1.01,0,0,0,0,0,.01,0,.54-.46,.98-1,.97,0,0,0,0,0,0"/></g></g></g></svg>