<svg xmlns="http://www.w3.org/2000/svg" xmlns:xlink="http://www.w3.org/1999/xlink" width="80" height="80" viewBox="0 0 80 80">
  <defs>
    <clipPath id="clip-path">
      <rect id="Retângulo_383" data-name="Retângulo 383" width="80" height="80" transform="translate(3167 2086)" fill="#fff"/>
    </clipPath>
  </defs>
  <g id="Cabelos-Mais-Saudaveis" transform="translate(-3167 -2086)" clip-path="url(#clip-path)">
    <g id="Cabelos-Mais-Saudaveis-2" data-name="Cabelos-Mais-Saudaveis" transform="translate(3172.93 2091.926)">
      <path id="Caminho_1154" data-name="Caminho 1154" d="M96.772,26.751c.211.534.4,1.012.59,1.49.685,1.735.237,2.824-1.524,3.582a1.933,1.933,0,0,1,.538,2.114,3.244,3.244,0,0,1-1.825,2.045.753.753,0,0,0-.508.951c.426,3.474-1.666,6-5.179,6.019-2.4.013-4.8-.314-7.194-.478a20.365,20.365,0,0,0-4.292-.215,16.512,16.512,0,0,0-9.6,5.149,20.606,20.606,0,0,0-5.343,11.241c-.409,2.5-.474,5.05-.689,7.581-.017.211,0,.422,0,.637a1.433,1.433,0,0,1-1.124,1.507A1.373,1.373,0,0,1,59,67.43a40.36,40.36,0,0,1-1.666-5.153c-1.864-8.847-.052-17.1,4.331-24.871a58.122,58.122,0,0,1,13-15.343A119.711,119.711,0,0,0,92.97,2.19c.155-.211.3-.422.461-.624a1.452,1.452,0,0,1,1.7-.508,1.355,1.355,0,0,1,.84,1.546c-.181,1.257-.426,2.506-.616,3.758-.366,2.441-.715,4.886-1.072,7.332a5.445,5.445,0,0,0,2.015,5.282,18.544,18.544,0,0,0,2.178,1.558,3.308,3.308,0,0,1,1.7,3.38,1.8,1.8,0,0,1-1.029,1.567c-.779.387-1.533.827-2.372,1.279ZM59.649,57.777c.211-.839.4-1.692.641-2.523,1.782-6.062,5.153-10.9,10.883-13.862,2.643-1.365,5.386-2.363,8.468-1.963,1.8.237,3.612.362,5.424.5,1.292.1,2.592.224,3.883.194a2.116,2.116,0,0,0,2.295-2.441,8.387,8.387,0,0,0-.271-1.808A1.488,1.488,0,0,1,92.226,33.8c.387-.1.766-.241,1.205-.379a3.248,3.248,0,0,1-.728-2.643A2.545,2.545,0,0,1,94.6,28.95c-.263-.654-.5-1.244-.732-1.83-.538-1.347-.366-1.825.9-2.514.835-.452,1.67-.9,2.527-1.365-.939-.689-1.821-1.274-2.626-1.95a8.234,8.234,0,0,1-3.237-7.573c.065-.585.125-1.171.2-1.752.168-1.27.349-2.544.525-3.814a1.745,1.745,0,0,0-.607.5A120.057,120.057,0,0,1,76.9,23.845,64.206,64.206,0,0,0,68.5,32.416c-4.637,5.8-7.977,12.192-8.869,19.679a19.28,19.28,0,0,0,.013,5.674Z" transform="translate(-32.238 -0.545)" fill="#ea5c9c"/>
      <path id="Caminho_1155" data-name="Caminho 1155" d="M35.229,55.56a38.5,38.5,0,0,1,7.035-21.276,58.861,58.861,0,0,1,10.586-11.8A121.925,121.925,0,0,0,71.8,1.97c.779-1.063,1.6-1.326,2.346-.758s.728,1.347-.052,2.415a121.826,121.826,0,0,1-18.951,20.6A54.675,54.675,0,0,0,42.491,39.395,32.959,32.959,0,0,0,38.173,57.05a25.2,25.2,0,0,0,2.071,9.166,1.278,1.278,0,0,1-.125,1.571,2.145,2.145,0,0,1-1.287.538c-.616.022-.973-.478-1.218-1.029a25.431,25.431,0,0,1-1.98-7.108c-.2-1.537-.28-3.091-.413-4.632Z" transform="translate(-20.057 -0.524)" fill="#ea5c9c"/>
      <path id="Caminho_1156" data-name="Caminho 1156" d="M.634,81.477a36.459,36.459,0,0,1,5.958-19.64A60.466,60.466,0,0,1,19.112,47.829,1.426,1.426,0,1,1,20.89,50.02,59.87,59.87,0,0,0,10.364,61.3,36.554,36.554,0,0,0,3.829,76.682a27.578,27.578,0,0,0,1.95,15.942A1.429,1.429,0,1,1,3.2,93.8,28.645,28.645,0,0,1,.63,82.605c-.017-.375,0-.753,0-1.128Z" transform="translate(-0.354 -26.975)" fill="#ea5c9c"/>
      <path id="Caminho_1157" data-name="Caminho 1157" d="M37.079,0c.5.2,1.395.525,2.247.939.327.159.5.267.848.022a4.795,4.795,0,0,1,6.294,7.181c-1.834,1.929-3.745,3.784-5.644,5.653a1.385,1.385,0,0,1-2.131-.022C36.8,11.9,34.9,10.031,33.05,8.119a4.65,4.65,0,0,1-.874-5.244c.878-1.864,2.4-2.76,4.9-2.876Zm2.566,10.978c1.67-1.666,3.181-3.151,4.662-4.662a1.952,1.952,0,0,0,.043-2.889,1.982,1.982,0,0,0-2.846.09c-1.666,1.55-1.778,1.55-3.487-.026a1.984,1.984,0,1,0-2.811,2.8c1.18,1.214,2.4,2.394,3.586,3.6a12.777,12.777,0,0,1,.852,1.081Z" transform="translate(-18.068)" fill="#ea5c9c"/>
      <path id="Caminho_1158" data-name="Caminho 1158" d="M98.451,119.183a4.84,4.84,0,0,1,4.451-1.025,4.772,4.772,0,0,1,2.316,7.84c-1.847,1.98-3.81,3.857-5.739,5.76a1.354,1.354,0,0,1-2.075-.009c-1.916-1.886-3.84-3.763-5.7-5.7a4.719,4.719,0,0,1-.125-6.372,4.8,4.8,0,0,1,6.453-.784c.133.09.263.189.409.293Zm.017,9.5c1.546-1.52,3.151-3.039,4.688-4.624a1.9,1.9,0,0,0-.073-2.63,1.947,1.947,0,0,0-2.682-.146c-.327.267-.607.59-.921.87a1.4,1.4,0,0,1-2.079-.013c-.3-.267-.56-.577-.865-.831a1.96,1.96,0,0,0-2.691.082,1.854,1.854,0,0,0-.138,2.618c1.546,1.6,3.177,3.126,4.761,4.671Z" transform="translate(-51.486 -67.19)" fill="#ea5c9c"/>
      <path id="Caminho_1159" data-name="Caminho 1159" d="M24.907,81.62a6.847,6.847,0,0,1,1.205,1.029,1.207,1.207,0,0,1-.164,1.507,17.786,17.786,0,0,0-3.2,6.621,32.819,32.819,0,0,0-.891,12.528c.344,3.031.973,6.027,1.5,9.036.177,1-.159,1.739-.994,1.95-.818.207-1.507-.3-1.756-1.3a54.193,54.193,0,0,1-1.782-14.663A29.723,29.723,0,0,1,21.5,86.011a27.008,27.008,0,0,1,2.148-3.47,5.285,5.285,0,0,1,1.261-.921Z" transform="translate(-10.712 -46.482)" fill="#ea5c9c"/>
      <path id="Caminho_1160" data-name="Caminho 1160" d="M60.786,22.721a1.527,1.527,0,0,1-1.494-.943,1.358,1.358,0,0,1,.431-1.589c1.119-1.042,2.269-2.054,3.371-3.113A78.253,78.253,0,0,0,75.932,1.566c.172-.28.323-.577.512-.844A1.368,1.368,0,0,1,78.256.278a1.354,1.354,0,0,1,.611,1.808,22.906,22.906,0,0,1-1.236,2.135A86.174,86.174,0,0,1,63.038,21.016c-.452.413-.891.844-1.373,1.218a5.578,5.578,0,0,1-.878.5Z" transform="translate(-33.707 -0.059)" fill="#ea5c9c"/>
      <path id="Caminho_1161" data-name="Caminho 1161" d="M4.275,34.822a4.236,4.236,0,1,1,4.219-4.249,4.258,4.258,0,0,1-4.219,4.249Zm-.047-2.828a1.406,1.406,0,1,0-1.391-1.459,1.428,1.428,0,0,0,1.391,1.459Z" transform="translate(0 -15.006)" fill="#ea5c9c"/>
      <path id="Caminho_1162" data-name="Caminho 1162" d="M139.076,126.7a4.236,4.236,0,1,1,4.253-4.21,4.254,4.254,0,0,1-4.253,4.21Zm.013-2.828a1.406,1.406,0,1,0-1.416-1.434,1.421,1.421,0,0,0,1.416,1.434Z" transform="translate(-76.79 -67.331)" fill="#ea5c9c"/>
    </g>
  </g>
</svg>
