<svg xmlns="http://www.w3.org/2000/svg" xmlns:xlink="http://www.w3.org/1999/xlink" width="80" height="80" viewBox="0 0 80 80">
  <defs>
    <clipPath id="clip-path">
      <rect id="Retângulo_382" data-name="Retângulo 382" width="80" height="80" transform="translate(3579 2086)" fill="#fff"/>
    </clipPath>
  </defs>
  <g id="Unhas-Fortalecidas" transform="translate(-3579 -2086)" clip-path="url(#clip-path)">
    <g id="Unhas-Fortalecidas-2" data-name="Unhas-Fortalecidas" transform="translate(3582.81 2087.604)">
      <path id="Caminho_1153" data-name="Caminho 1153" d="M77.74,86.422a1.915,1.915,0,0,1-1.22-2.042q.028-19.687.014-39.369a19.045,19.045,0,0,0-3.21-10.831c-.081-.119-.171-.233-.375-.5v.874c0,4.957.024,9.915,0,14.872a14.977,14.977,0,0,1-6.795,12.949,14.483,14.483,0,0,1-11.126,2.341A15.2,15.2,0,0,1,42.431,49.494c-.019-4.981,0-9.957,0-14.938v-.883A18.618,18.618,0,0,0,39.739,39a19.83,19.83,0,0,0-.893,6.144q0,19.616.014,39.236a1.924,1.924,0,0,1-1.22,2.042h-.665a1.881,1.881,0,0,1-1.225-1.971q.021-19.787.019-39.573a21.83,21.83,0,0,1,6.239-15.542,3.075,3.075,0,0,0,.731-1.349,11.212,11.212,0,0,1,7.92-8.452,21.232,21.232,0,0,1,15,.361,11.007,11.007,0,0,1,7.056,8.414,1.776,1.776,0,0,0,.48.831,21.315,21.315,0,0,1,5.9,10.86,25.272,25.272,0,0,1,.513,5c.043,13.125.019,26.249.033,39.374a1.912,1.912,0,0,1-1.225,2.037H77.75ZM68.11,55.9a10.435,10.435,0,0,0,1.638-5.181q.1-9.922.071-19.848c-.009-4.734-2.583-7.379-6.605-8.576a19.883,19.883,0,0,0-10.3-.209,10.542,10.542,0,0,0-4.663,2.274,8.442,8.442,0,0,0-2.711,6.79V49.413A12.2,12.2,0,0,0,47.265,55.9a15.151,15.151,0,0,1,20.841,0ZM49.235,58.359a11.942,11.942,0,0,0,16.871.009A11.893,11.893,0,0,0,49.235,58.359Z" transform="translate(-18.77 -9.636)" fill="#ea5c9c"/>
      <path id="Caminho_771" data-name="Caminho 771" d="M34.832,5.408a5.2,5.2,0,0,0-.845-.461A5.851,5.851,0,0,1,30.606,1.6,8.241,8.241,0,0,0,29.4,0h-.9c-.266.294-.641.541-.774.888A7.53,7.53,0,0,1,23.208,5.37a1.245,1.245,0,0,0-.831,1.258,1.241,1.241,0,0,0,.817,1.211,7.573,7.573,0,0,1,4.549,4.53A1.258,1.258,0,0,0,29,13.21a1.38,1.38,0,0,0,1.254-.859c.432-.812.859-1.629,1.334-2.412a2.269,2.269,0,0,1,.745-.741c.826-.494,1.7-.916,2.521-1.4a1.322,1.322,0,0,0-.009-2.384ZM29.02,9.2A8.434,8.434,0,0,0,28,7.536a7.847,7.847,0,0,0-1.629-.969,3.846,3.846,0,0,0,2.583-2.493A4.262,4.262,0,0,0,31.5,6.61,3.853,3.853,0,0,0,29.015,9.2Z" transform="translate(-11.746 0)" fill="#ea5c9c"/>
      <path id="Caminho_772" data-name="Caminho 772" d="M134.017,25.992c-.874-.489-1.785-.931-2.635-1.458a3.082,3.082,0,0,1-.954-.964c-.537-.874-.959-1.819-1.515-2.678a4.97,4.97,0,0,0-1.04-.9h0a1.719,1.719,0,0,0-1.382.969,14.139,14.139,0,0,1-1.861,3.191,14.016,14.016,0,0,1-3.2,1.857,1.347,1.347,0,0,0-.712.7,1.323,1.323,0,0,0,.684,1.743,14.482,14.482,0,0,1,3.2,1.857,14.552,14.552,0,0,1,1.9,3.243,1.326,1.326,0,0,0,2.445.024,14.483,14.483,0,0,1,1.857-3.2,14.846,14.846,0,0,1,3.243-1.9,1.336,1.336,0,0,0-.029-2.479Zm-6.282,4.264a4.74,4.74,0,0,0-3.025-2.982,4.978,4.978,0,0,0,3.006-3.077,4.906,4.906,0,0,0,3.053,3.02,5.01,5.01,0,0,0-3.034,3.039Z" transform="translate(-63.333 -10.498)" fill="#ea5c9c"/>
      <path id="Caminho_773" data-name="Caminho 773" d="M13.087,61.4c-.912-.522-1.847-1-2.749-1.524a1.923,1.923,0,0,1-.655-.655c-.532-.907-1.021-1.833-1.519-2.754A1.766,1.766,0,0,0,6.8,55.55a4.839,4.839,0,0,0-1.045.9c-.551.859-.983,1.8-1.51,2.678a2.391,2.391,0,0,1-.779.793c-.878.527-1.8.983-2.7,1.486a1.317,1.317,0,0,0,0,2.407A13.786,13.786,0,0,1,3.865,65.6,14.16,14.16,0,0,1,5.7,68.736a1.329,1.329,0,0,0,2.445.024,13.872,13.872,0,0,1,1.795-3.086,14.474,14.474,0,0,1,3.134-1.842,1.326,1.326,0,0,0,0-2.441ZM6.961,65.469a4.667,4.667,0,0,0-2.868-2.844,4.683,4.683,0,0,0,2.854-2.854h0a4.61,4.61,0,0,0,2.887,2.84,4.588,4.588,0,0,0-2.868,2.859Z" transform="translate(0.009 -29.173)" fill="#ea5c9c"/>
    </g>
  </g>
</svg>
