<svg id="CHECK_1" data-name="CHECK 1" xmlns="http://www.w3.org/2000/svg" width="46.667" height="46.7" viewBox="0 0 46.667 46.7">
  <path id="Path_427" data-name="Path 427" d="M24.57,0c1.1.153,2.2.263,3.282.467a22.736,22.736,0,0,1,8.661,3.647,1.8,1.8,0,0,1,.525,2.493,1.779,1.779,0,0,1-2.48.558,21,21,0,0,0-5.17-2.541,19.2,19.2,0,0,0-17.5,2.714A18.894,18.894,0,0,0,4.225,18.515a19,19,0,0,0,2.727,15.76,19.131,19.131,0,0,0,13.473,8.551,19.211,19.211,0,0,0,12.324-2.208c.267-.145.529-.3.8-.435a1.811,1.811,0,0,1,2.451.68,1.751,1.751,0,0,1-.687,2.476,39.363,39.363,0,0,1-4.36,2.04,21.391,21.391,0,0,1-8.362,1.3A22.886,22.886,0,0,1,5.756,38.721,21.885,21.885,0,0,1,.2,26.559,22.914,22.914,0,0,1,6.166,7.507,22.778,22.778,0,0,1,18.912.42C19.76.257,20.626.193,21.483.081c.149-.02.3-.054.444-.081Z" transform="translate(0.002)" fill="#eb3a94"/>
  <path id="Path_428" data-name="Path 428" d="M123.847,69.346a4.989,4.989,0,0,1-3.642-1.377q-4.693-4.447-9.383-8.9a1.831,1.831,0,1,1,2.531-2.632q4.581,4.333,9.152,8.677c.85.806,1.377.776,2.111-.133q9.275-11.536,18.559-23.067a3.877,3.877,0,0,1,1.178-1.032,1.7,1.7,0,0,1,2.05.539,1.746,1.746,0,0,1,.05,2.2c-.75,1-1.546,1.96-2.329,2.937L127.261,67.524A4.606,4.606,0,0,1,123.847,69.346Z" transform="translate(-100.154 -36.986)" fill="#eb3a94"/>
  <path id="Path_429" data-name="Path 429" d="M437.336,183.342a23.933,23.933,0,0,1-3.87,13.046,1.841,1.841,0,0,1-2.608.669,1.81,1.81,0,0,1-.508-2.57,20.874,20.874,0,0,0,2.776-6.368,19.86,19.86,0,0,0-.034-9.361,1.837,1.837,0,0,1,1.106-2.313,1.811,1.811,0,0,1,2.406,1.315A22.953,22.953,0,0,1,437.336,183.342Z" transform="translate(-390.675 -160.218)" fill="#eb3a94"/>
</svg>
