<svg id="FALE_CONOSCO" data-name="FALE CONOSCO" xmlns="http://www.w3.org/2000/svg" xmlns:xlink="http://www.w3.org/1999/xlink" width="22.082" height="19" viewBox="0 0 22.082 19">
  <defs>
    <clipPath id="clip-path">
      <rect id="Retângulo_11" data-name="Retângulo 11" width="22.082" height="19" fill="#3b3b3b" stroke="#3b3b3b" stroke-width="0.5"/>
    </clipPath>
  </defs>
  <g id="Grupo_33" data-name="Grupo 33" clip-path="url(#clip-path)">
    <path id="Caminho_287" data-name="Caminho 287" d="M2.433,10.821c-.375,0-.725,0-1.075,0A1.26,1.26,0,0,1,0,9.463Q0,5.42,0,1.377A1.281,1.281,0,0,1,1.376,0c.5,0,1,0,1.5,0Q8.21,0,13.541,0a2.114,2.114,0,0,1,.578.069,1.261,1.261,0,0,1,.906,1.276c0,1.148,0,2.3,0,3.445v.294h.286q2.7,0,5.4,0a1.264,1.264,0,0,1,1.367,1.278q0,4.125,0,8.249A1.233,1.233,0,0,1,20.9,15.888c-.4.027-.81.005-1.237.005-.005.117-.013.2-.013.282q0,1.183,0,2.367c0,.188-.012.366-.228.437s-.332-.058-.448-.209c-.687-.891-1.38-1.777-2.064-2.671a.459.459,0,0,0-.411-.2q-3.981.009-7.962,0a2.185,2.185,0,0,1-.535-.05,1.272,1.272,0,0,1-.949-1.293c0-1.141,0-2.281,0-3.422v-.317a6.494,6.494,0,0,1-.94-.008,1.19,1.19,0,0,0-1.269.613c-.549.8-1.177,1.538-1.768,2.307a.369.369,0,0,1-.422.173c-.191-.057-.226-.214-.226-.391,0-.8,0-1.609,0-2.414v-.279M3.1,12.6c.081-.094.127-.143.168-.2.5-.648,1.01-1.293,1.5-1.949a.658.658,0,0,1,.589-.294c2.755.009,5.511.006,8.266.005.485,0,.72-.219.721-.688q0-4.066,0-8.131A.585.585,0,0,0,13.7.683Q7.51.68,1.323.683a.6.6,0,0,0-.663.651q-.005,4.077,0,8.155a.623.623,0,0,0,.675.673c.352,0,.7,0,1.057,0,.7,0,.708,0,.708.7V12.6M15.037,8h1.88c.791,0,1.582,0,2.372,0,.228,0,.351.118.356.316s-.128.332-.359.34c-.055,0-.11,0-.164,0H15.057l-.1,1.5h4.2a1.246,1.246,0,0,1,.211,0,.306.306,0,0,1,.281.343.3.3,0,0,1-.291.307,2.428,2.428,0,0,1-.258,0H7.737V11.1q0,1.676,0,3.352c0,.586.188.774.77.774q4.111,0,8.221,0a.625.625,0,0,1,.558.266c.441.587.9,1.164,1.346,1.745.1.132.207.261.351.442,0-.714,0-1.36,0-2.006,0-.322.117-.44.435-.442.423,0,.846,0,1.268,0,.513,0,.737-.227.737-.747q0-4,0-7.993c0-.513-.23-.738-.747-.738h-5.64Z" transform="translate(0 0)" fill="#3b3b3b" stroke="#3b3b3b" stroke-width="0.5"/>
    <path id="Caminho_288" data-name="Caminho 288" d="M43.977,81.25h4.509c.086,0,.173,0,.258.007a.3.3,0,0,1,.3.3.32.32,0,0,1-.282.347.831.831,0,0,1-.187.006H39.367a.77.77,0,0,1-.254-.024.305.305,0,0,1-.215-.348.294.294,0,0,1,.288-.285c.085-.008.172-.007.258-.007h4.533" transform="translate(-36.459 -76.161)" fill="#3b3b3b" stroke="#3b3b3b" stroke-width="0.5"/>
    <path id="Caminho_289" data-name="Caminho 289" d="M44.217,47.248q-2.3,0-4.6,0a.475.475,0,0,1-.29-.053.46.46,0,0,1-.162-.322c.012-.1.135-.2.234-.273.061-.042.167-.024.252-.024h9.207c.288.007.445.129.441.341s-.167.332-.451.332H44.217" transform="translate(-36.708 -43.654)" fill="#3b3b3b" stroke="#3b3b3b" stroke-width="0.5"/>
    <path id="Caminho_290" data-name="Caminho 290" d="M41.449,115.788q1.127,0,2.254,0c.266,0,.422.126.419.331s-.161.326-.427.326q-2.289,0-4.578,0c-.316,0-.513-.247-.36-.474a.512.512,0,0,1,.368-.176c.774-.016,1.549-.008,2.324-.008" transform="translate(-36.281 -108.535)" fill="#3b3b3b" stroke="#3b3b3b" stroke-width="0.5"/>
    <path id="Caminho_291" data-name="Caminho 291" d="M154.361,197.415c-.79,0-1.58,0-2.37,0a.333.333,0,0,1-.373-.331.35.35,0,0,1,.378-.331h.023q2.358,0,4.716,0c.247,0,.4.127.41.323s-.154.339-.415.339c-.79,0-1.58,0-2.37,0" transform="translate(-142.123 -184.429)" fill="#3b3b3b" stroke="#3b3b3b" stroke-width="0.5"/>
  </g>
</svg>
