<svg xmlns="http://www.w3.org/2000/svg" width="15.554" height="18.75" viewBox="0 0 15.554 18.75">
  <path id="Caminho_286" data-name="Caminho 286" d="M9.8.875a5.15,5.15,0,0,0-1.429,10.1,7.1,7.1,0,0,0-4.247,1.887c-1.395,1.375-2.1,3.421-2.1,6.091a.675.675,0,0,0,1.349,0c0-2.443.643-4.09,1.7-5.13A6.485,6.485,0,0,1,9.8,12.239a6.486,6.486,0,0,1,4.729,1.581c1.055,1.04,1.7,2.687,1.7,5.13a.675.675,0,0,0,1.349,0c0-2.67-.706-4.717-2.1-6.091a7.1,7.1,0,0,0-4.247-1.887A5.15,5.15,0,0,0,9.8.875ZM6,6.024a3.8,3.8,0,1,1,3.8,3.8A3.8,3.8,0,0,1,6,6.024Z" transform="translate(-2.025 -0.875)" fill="#fff" fill-rule="evenodd"/>
</svg>
