<svg xmlns="http://www.w3.org/2000/svg" xmlns:xlink="http://www.w3.org/1999/xlink" width="15.896" height="21.191" viewBox="0 0 15.896 21.191">
  <defs>
    <clipPath id="clip-path">
      <rect id="Retângulo_50" data-name="Retângulo 50" width="15.896" height="21.191" fill="#3b3b3b"/>
    </clipPath>
  </defs>
  <g id="REFERENCIAS_CIENTIFICAS" data-name="REFERENCIAS CIENTIFICAS" clip-path="url(#clip-path)">
    <path id="Caminho_333" data-name="Caminho 333" d="M11.26,0a1.464,1.464,0,0,1,1,.8c.023.049.134.079.2.079.662.006,1.325,0,1.987,0A1.336,1.336,0,0,1,15.9,2.321q0,8.711,0,17.423a1.332,1.332,0,0,1-1.439,1.447H1.439A1.331,1.331,0,0,1,0,19.744q0-8.7,0-17.4A1.341,1.341,0,0,1,1.468.88c.655,0,1.311,0,1.966,0a.233.233,0,0,0,.25-.155A1.4,1.4,0,0,1,4.636,0Zm1.975,18.533v-15c-.294,0-.575-.006-.856.005a.221.221,0,0,0-.14.116,1.335,1.335,0,0,1-1.272.767q-3.011,0-6.022,0a1.346,1.346,0,0,1-1.289-.774c-.024-.047-.08-.108-.123-.11-.287-.01-.575-.005-.871-.005v15ZM3.521,1.775c-.765,0-1.509-.008-2.252.009a.451.451,0,0,0-.309.2.784.784,0,0,0-.077.4q-.005,8.649,0,17.3c0,.5.136.633.643.633H14.375c.505,0,.642-.135.642-.634q0-3.549,0-7.1,0-5.121,0-10.243c0-.415-.149-.567-.556-.568-.628,0-1.256,0-1.883,0h-.193v.88h1.173c.428,0,.57.141.57.572q0,7.811,0,15.623c0,.446-.134.578-.581.578H2.349c-.446,0-.579-.133-.579-.58q0-7.8,0-15.6c0-.457.134-.59.592-.59H3.521ZM7.944,3.529H10.9c.436,0,.575-.136.576-.562,0-.517,0-1.034,0-1.551,0-.372-.158-.534-.526-.535q-3,0-6,0c-.373,0-.532.159-.534.527,0,.517,0,1.034,0,1.551,0,.433.137.57.567.571H7.944" transform="translate(0)" fill="#3b3b3b"/>
    <path id="Caminho_334" data-name="Caminho 334" d="M65.172,185.371c.473-.471.926-.933,1.394-1.379a.682.682,0,0,1,.39-.192.429.429,0,0,1,.367.652.9.9,0,0,1-.144.174q-.8.806-1.608,1.609a.469.469,0,0,1-.781,0c-.254-.253-.509-.505-.76-.76a.444.444,0,0,1-.044-.674.455.455,0,0,1,.675.054c.171.169.339.34.512.514" transform="translate(-60.32 -173.638)" fill="#3b3b3b"/>
    <path id="Caminho_335" data-name="Caminho 335" d="M65.168,97.366c.485-.482.948-.945,1.414-1.406a.45.45,0,0,1,.56-.127.44.44,0,0,1,.1.716c-.305.319-.622.626-.934.939-.258.259-.515.519-.776.775a.443.443,0,0,1-.705,0q-.416-.4-.819-.819a.444.444,0,1,1,.632-.619c.178.172.348.352.531.537" transform="translate(-60.318 -90.487)" fill="#3b3b3b"/>
    <path id="Caminho_336" data-name="Caminho 336" d="M65.164,273.013c.489-.487.964-.958,1.436-1.431a.4.4,0,0,1,.468-.121.606.606,0,0,1,.287.336.484.484,0,0,1-.117.388c-.573.6-1.161,1.18-1.751,1.76a.421.421,0,0,1-.629,0q-.447-.43-.878-.878a.429.429,0,0,1,0-.629.437.437,0,0,1,.631.016c.189.181.367.372.552.56" transform="translate(-60.314 -256.419)" fill="#3b3b3b"/>
    <path id="Caminho_337" data-name="Caminho 337" d="M146,184.494c-.545,0-1.089,0-1.634,0a1.012,1.012,0,0,1-.265-.03.433.433,0,0,1,.01-.831.778.778,0,0,1,.2-.026q1.686,0,3.372,0c.376,0,.6.267.5.581a.458.458,0,0,1-.486.307c-.565,0-1.131,0-1.7,0" transform="translate(-135.85 -173.453)" fill="#3b3b3b"/>
    <path id="Caminho_338" data-name="Caminho 338" d="M146,96.7c-.558,0-1.117,0-1.675,0-.325,0-.518-.163-.524-.429s.2-.449.527-.449q1.7,0,3.392,0a.441.441,0,0,1,.459.6.445.445,0,0,1-.463.277c-.572,0-1.145,0-1.717,0" transform="translate(-135.848 -90.523)" fill="#3b3b3b"/>
    <path id="Caminho_339" data-name="Caminho 339" d="M146,271.571c.586,0,1.172-.006,1.758,0a.428.428,0,0,1,.421.581.413.413,0,0,1-.409.292q-1.768.005-3.537,0a.435.435,0,0,1-.438-.432.43.43,0,0,1,.448-.441c.586-.006,1.172,0,1.758,0" transform="translate(-135.844 -256.556)" fill="#3b3b3b"/>
    <path id="Caminho_340" data-name="Caminho 340" d="M145.132,303.383c.268,0,.537,0,.8,0,.313,0,.511.183.508.449a.449.449,0,0,1-.5.438q-.826.008-1.651,0a.449.449,0,0,1-.5-.438c0-.266.194-.441.508-.45h.826" transform="translate(-135.849 -286.609)" fill="#3b3b3b"/>
    <path id="Caminho_341" data-name="Caminho 341" d="M145.13,127.823c.283,0,.566,0,.849,0a.439.439,0,1,1,0,.876q-.859.007-1.718,0a.442.442,0,0,1-.465-.449.436.436,0,0,1,.463-.427c.29-.006.579,0,.869,0" transform="translate(-135.848 -120.755)" fill="#3b3b3b"/>
    <path id="Caminho_342" data-name="Caminho 342" d="M145.1,216.473c-.282,0-.564,0-.846,0a.437.437,0,0,1-.467-.442.445.445,0,0,1,.478-.434q.846-.005,1.692,0a.445.445,0,0,1,.477.435.44.44,0,0,1-.468.441c-.289.006-.578,0-.866,0" transform="translate(-135.843 -203.674)" fill="#3b3b3b"/>
  </g>
</svg>
