<svg xmlns="http://www.w3.org/2000/svg" xmlns:xlink="http://www.w3.org/1999/xlink" width="685" height="61.266" viewBox="0 0 685 61.266">
  <defs>
    <linearGradient id="linear-gradient" x1="1.023" y1="0.847" x2="0.681" y2="-0.094" gradientUnits="objectBoundingBox">
      <stop offset="0.01" stop-color="#bc700f"/>
      <stop offset="0.85" stop-color="#f7ce6f"/>
    </linearGradient>
    <linearGradient id="linear-gradient-2" x1="8.833" y1="10.362" x2="8.491" y2="9.422" gradientUnits="objectBoundingBox">
      <stop offset="0.01" stop-color="#de8c29"/>
      <stop offset="0.85" stop-color="#f7ce6f"/>
    </linearGradient>
    <linearGradient id="linear-gradient-3" x1="4.444" y1="2.634" x2="4.444" y2="1.634" gradientUnits="objectBoundingBox">
      <stop offset="0" stop-color="#fdeba8"/>
      <stop offset="0.45" stop-color="#c47a24"/>
      <stop offset="1" stop-color="#fdeba8"/>
    </linearGradient>
    <linearGradient id="linear-gradient-4" y1="0.5" x2="1" y2="0.5" gradientUnits="objectBoundingBox">
      <stop offset="0.36" stop-color="#f7eba6"/>
      <stop offset="0.81" stop-color="#f7d87d"/>
    </linearGradient>
    <clipPath id="clip-path">
      <rect id="Retângulo_246" data-name="Retângulo 246" width="171" height="39.863" fill="#ff4289"/>
    </clipPath>
  </defs>
  <g id="logos_" data-name="logos " transform="translate(-874 -549)">
    <g id="VERISOL-LOGO-AMARELO" transform="translate(874 554)">
      <path id="Caminho_659" data-name="Caminho 659" d="M4.221,304.069c9.762-5.492,13.756-6.641,23.246-8.025,16.427-2.395,27.416,1.917,44.429,5.939,21.695,5.127,29.744,7.587,51.4,3.719,10.358-1.849,11.52-2.367,22.988-7.38v-7.447c-9.272,4.84-12.371,6.907-21.7,9.558-13.467,3.828-22.833,3.032-35.876,1.223-12.074-1.673-26.524-7.345-38.508-9.148-15.22-2.29-30.5-3.629-45.983,2.265l0,9.3Z" transform="translate(-3.787 -260.76)" fill="#fba832"/>
      <g id="Grupo_205" data-name="Grupo 205">
        <path id="Caminho_660" data-name="Caminho 660" d="M7.487,20.809,2.566,6.22H0L6.239,23.35H8.7L14.95,6.22h-2.6Z" transform="translate(0 -5.582)" fill="#fba832"/>
        <path id="Caminho_661" data-name="Caminho 661" d="M169.182,15.5h9.4V13.52h-9.4v-5.2h10.17V6.22H166.92V23.351h12.606V21.31H169.182Z" transform="translate(-149.8 -5.582)" fill="#fba832"/>
        <path id="Caminho_662" data-name="Caminho 662" d="M333.716,21.917a6.974,6.974,0,0,1-.163-1.457l-.082-2.3A3.842,3.842,0,0,0,332.9,16a3.5,3.5,0,0,0-1.51-1.073,4.592,4.592,0,0,0,1.778-1.574,4.551,4.551,0,0,0,.636-2.519,4.055,4.055,0,0,0-2.37-4.046,7.633,7.633,0,0,0-3.171-.572H320.48V23.35H322.8V16h5.132a4.894,4.894,0,0,1,2.028.315,2.414,2.414,0,0,1,1.212,2.25l.14,2.857a10.771,10.771,0,0,0,.117,1.353,2.133,2.133,0,0,0,.186.571h2.846v-.385a1.429,1.429,0,0,1-.747-1.049Zm-3.187-8.5a4.277,4.277,0,0,1-2.512.653H322.8V8.214h5.511a4.134,4.134,0,0,1,1.849.35,2.543,2.543,0,0,1,1.292,2.5A2.694,2.694,0,0,1,330.529,13.415Z" transform="translate(-287.61 -5.582)" fill="#fba832"/>
        <rect id="Retângulo_231" data-name="Retângulo 231" width="2.344" height="17.131" transform="translate(50.124 0.638)" fill="#fba832"/>
        <path id="Caminho_663" data-name="Caminho 663" d="M551.217,11.293a7.024,7.024,0,0,0-2.6-1.085l-2.327-.549a14.592,14.592,0,0,1-3.017-.932,1.971,1.971,0,0,1-1.016-1.843,2.751,2.751,0,0,1,.862-2.005,3.885,3.885,0,0,1,2.829-.864A4.073,4.073,0,0,1,549.4,5.356a4.4,4.4,0,0,1,.715,2.111H552.3a4.743,4.743,0,0,0-1.833-4.157,7.5,7.5,0,0,0-4.455-1.3,6.129,6.129,0,0,0-4.4,1.481,5,5,0,0,0-1.555,3.79,3.621,3.621,0,0,0,1.582,3.207,9.992,9.992,0,0,0,3.119,1.131l2.247.525a8.411,8.411,0,0,1,2.689,1.014,2.262,2.262,0,0,1,.847,1.994,2.627,2.627,0,0,1-2,2.59,6.724,6.724,0,0,1-2.291.373q-2.81,0-3.921-1.7a4.823,4.823,0,0,1-.662-2.367h-2.181a5.578,5.578,0,0,0,1.728,4.4,6.9,6.9,0,0,0,4.879,1.633,8.875,8.875,0,0,0,4.691-1.224,4.385,4.385,0,0,0,2.019-4.07A4.115,4.115,0,0,0,551.22,11.3Z" transform="translate(-484.151 -1.804)" fill="#fba832"/>
        <path id="Caminho_664" data-name="Caminho 664" d="M698.57,1.661a7.478,7.478,0,0,0-6.554,3.171,10.126,10.126,0,0,0-1.726,5.948,9.859,9.859,0,0,0,2.017,6.367,8.653,8.653,0,0,0,12.735-.373,10.181,10.181,0,0,0,1.948-6.38,9.452,9.452,0,0,0-1.7-5.819q-2.182-2.915-6.718-2.916ZM703.241,15.5a4.831,4.831,0,0,1-4.438,2.2,5.415,5.415,0,0,1-4.671-1.955,7.877,7.877,0,0,1-1.44-4.8,7.7,7.7,0,0,1,1.679-5.386,5.627,5.627,0,0,1,4.338-1.827,5.471,5.471,0,0,1,4.321,1.844,7.223,7.223,0,0,1,1.581,4.868,9.376,9.376,0,0,1-1.37,5.06Z" transform="translate(-619.49 -1.49)" fill="#fba832"/>
        <path id="Caminho_665" data-name="Caminho 665" d="M880.051,6.22H877.73V23.351h10.915V21.31h-8.594Z" transform="translate(-787.705 -5.582)" fill="#fba832"/>
        <path id="Caminho_666" data-name="Caminho 666" d="M974.423,17.237c-.005-.092-.008-.179-.008-.262v-.257a.961.961,0,0,0-.192-.546.853.853,0,0,0-.605-.346,1.356,1.356,0,0,0,.51-.17.771.771,0,0,0,.343-.7.876.876,0,0,0-.547-.893,2.7,2.7,0,0,0-.962-.127H971.73v3.525h.621V16.078h.49a1.494,1.494,0,0,1,.691.113.862.862,0,0,1,.332.806v.279l.014.113c0,.014.006.028.009.039l.009.036h.582l-.022-.044a.583.583,0,0,1-.031-.184Zm-.92-1.675a1.689,1.689,0,0,1-.592.079h-.561V14.365h.53a1.622,1.622,0,0,1,.753.131.634.634,0,0,1-.129,1.067Z" transform="translate(-872.064 -12.51)" fill="#fba832"/>
        <path id="Caminho_667" data-name="Caminho 667" d="M958.606.936a3.214,3.214,0,0,0-4.535,0,3.084,3.084,0,0,0-.94,2.265,3.137,3.137,0,0,0,.932,2.279,3.205,3.205,0,0,0,4.544,0,3.11,3.11,0,0,0,.941-2.279A3.067,3.067,0,0,0,958.606.936Zm-.319,4.237a2.753,2.753,0,0,1-3.91,0,2.7,2.7,0,0,1-.8-1.967,2.659,2.659,0,0,1,.805-1.955,2.751,2.751,0,0,1,3.906,0,2.674,2.674,0,0,1,.8,1.955,2.7,2.7,0,0,1-.8,1.967Z" transform="translate(-855.372)" fill="#fba832"/>
      </g>
      <g id="Grupo_206" data-name="Grupo 206" transform="translate(60.471 21.072)">
        <path id="Caminho_668" data-name="Caminho 668" d="M592.347,209.873v-.02a1.561,1.561,0,0,0,1.089-1.615,1.64,1.64,0,0,0-1.832-1.677H589.58v7.057h1.943c.885,0,2.248-.2,2.248-1.932a1.647,1.647,0,0,0-1.424-1.81Zm-1.75-2.5h.581c.528,0,1.241.04,1.241,1.042,0,.942-.712,1.064-1.18,1.064H590.6v-2.107Zm.784,5.42H590.6v-2.5h.682a1.3,1.3,0,0,1,1.475,1.288A1.209,1.209,0,0,1,591.381,212.8Z" transform="translate(-589.58 -206.446)" fill="#636365"/>
        <path id="Caminho_669" data-name="Caminho 669" d="M640.863,226.791c-.621,0-1.973.225-1.973,2.311,0,1.913.935,2.783,2.4,2.783a4.54,4.54,0,0,0,1.21-.164v-.726a2.629,2.629,0,0,1-.915.173c-1.323,0-1.78-1.278-1.78-2.189h2.807v-.236c0-1.145-.569-1.953-1.75-1.953Zm-1.017,1.574a.931.931,0,0,1,.966-.859.834.834,0,0,1,.885.859Z" transform="translate(-633.832 -224.601)" fill="#636365"/>
        <path id="Caminho_670" data-name="Caminho 670" d="M685.2,226.8c-1.353,0-1.81.685-1.81,1.463h.966a.7.7,0,0,1,.773-.747.688.688,0,0,1,.743.625v.849c-1.231,0-2.645.307-2.645,1.595a1.241,1.241,0,0,0,1.373,1.309,1.336,1.336,0,0,0,1.25-.716h.021v.6h.915v-3.344A1.419,1.419,0,0,0,685.2,226.8Zm.671,3.078a1.292,1.292,0,0,1-1.1,1.3.573.573,0,0,1-.529-.625c0-.624.723-.951,1.445-.951h.183v.276Z" transform="translate(-673.624 -224.61)" fill="#636365"/>
        <path id="Caminho_671" data-name="Caminho 671" d="M734.58,229.956c0,.972-.529,1.995-1.282,1.995-.662,0-.662-.491-.662-1.4V227.89h-.916v3.374c0,.6.183,1.606,1.3,1.606a1.611,1.611,0,0,0,1.536-1.156h.021v1.043h.915V227.89h-.915Z" transform="translate(-717.141 -225.588)" fill="#636365"/>
        <path id="Caminho_672" data-name="Caminho 672" d="M780.929,211.122l-.916.572v1.145h-.863v.716h.863v3.078c0,.666.285,1.186,1.454,1.186a3.322,3.322,0,0,0,.722-.072v-.716a1.813,1.813,0,0,1-.488.072c-.712,0-.773-.511-.773-.951v-2.6h1.342v-.716h-1.342V211.12Z" transform="translate(-759.707 -210.538)" fill="#636365"/>
        <path id="Caminho_673" data-name="Caminho 673" d="M813.889,231.408h-.021L812.6,227.89H811.58l1.841,4.9-.682,2.067h.9l2.409-6.965h-1.016Z" transform="translate(-788.81 -225.588)" fill="#636365"/>
        <path id="Caminho_674" data-name="Caminho 674" d="M888.035,207.19v.562h-.875v.716h.875v4.152h.915v-4.152h1.445v-.716H888.95v-.5c0-.49.214-1.083.946-1.083a3.292,3.292,0,0,1,.966.143v-.767a4.5,4.5,0,0,0-.976-.092c-1.241,0-1.851.593-1.851,1.738Z" transform="translate(-856.638 -205.45)" fill="#636365"/>
        <path id="Caminho_675" data-name="Caminho 675" d="M927.876,227.893h-.02v-.982h-.916v4.868h.916v-2.066c0-1.492.691-1.913,1.516-1.913v-1a1.544,1.544,0,0,0-1.5,1.094Z" transform="translate(-892.338 -224.61)" fill="#636365"/>
        <path id="Caminho_676" data-name="Caminho 676" d="M958.745,226.8c-1.465,0-2.146.992-2.146,2.547s.681,2.546,2.146,2.546,2.137-1.012,2.137-2.546S960.2,226.8,958.745,226.8Zm0,4.376c-1.007,0-1.129-1.053-1.129-1.83s.121-1.832,1.129-1.832,1.119,1.043,1.119,1.832S959.731,231.176,958.745,231.176Z" transform="translate(-918.956 -224.61)" fill="#636365"/>
        <path id="Caminho_677" data-name="Caminho 677" d="M1014.564,226.8a1.5,1.5,0,0,0-1.373,1.033h-.021a1.165,1.165,0,0,0-1.231-1.033,1.459,1.459,0,0,0-1.353,1.083h-.021v-.971h-.915v4.868h.915v-2.066c0-.971.458-1.994,1.1-1.994s.641.5.641,1.4v2.66h.916v-2.332c0-.817.5-1.728,1.069-1.728.671,0,.671.491.671,1.4v2.66h.916v-3.375c0-.6-.173-1.605-1.313-1.605Z" transform="translate(-966.565 -224.61)" fill="#636365"/>
        <path id="Caminho_678" data-name="Caminho 678" d="M1115.908,212.185h-.02l-1.729-5.635h-.9l-1.74,5.635h-.021l-1.028-5.635h-.925l1.312,7.056h1.129l1.708-5.543h.021l1.729,5.543h1.129l1.282-7.056h-.926Z" transform="translate(-1056.219 -206.437)" fill="#636365"/>
        <rect id="Retângulo_232" data-name="Retângulo 232" width="1.098" height="1.043" transform="translate(62.671 0.113)" fill="#636365"/>
        <rect id="Retângulo_233" data-name="Retângulo 233" width="0.916" height="4.868" transform="translate(62.762 2.302)" fill="#636365"/>
        <path id="Caminho_679" data-name="Caminho 679" d="M1223.41,211.122l-.916.572v1.145h-.865v.716h.865v3.078c0,.666.285,1.186,1.454,1.186a3.318,3.318,0,0,0,.722-.072v-.716a1.81,1.81,0,0,1-.488.072c-.712,0-.773-.511-.773-.951v-2.6h1.342v-.716h-1.342V211.12Z" transform="translate(-1156.803 -210.538)" fill="#636365"/>
        <path id="Caminho_680" data-name="Caminho 680" d="M1263.582,208.626a1.622,1.622,0,0,0-1.537,1.156h-.02V206.55h-.915v7.056h.915v-2.066c0-.971.529-1.994,1.282-1.994.661,0,.661.5.661,1.4v2.659h.916v-3.374c0-.6-.183-1.606-1.3-1.606Z" transform="translate(-1192.234 -206.437)" fill="#636365"/>
        <rect id="Retângulo_234" data-name="Retângulo 234" width="0.915" height="4.868" transform="translate(74.258 2.302)" fill="#636365"/>
        <rect id="Retângulo_235" data-name="Retângulo 235" width="1.098" height="1.043" transform="translate(74.167 0.113)" fill="#636365"/>
        <path id="Caminho_681" data-name="Caminho 681" d="M1340.752,226.8a1.619,1.619,0,0,0-1.535,1.156h-.02v-1.043h-.916v4.868h.916v-2.066c0-.971.528-1.994,1.282-1.994.662,0,.662.5.662,1.4v2.66h.915v-3.375c0-.6-.183-1.605-1.3-1.605Z" transform="translate(-1261.489 -224.61)" fill="#636365"/>
      </g>
    </g>
    <g id="HAPLEX-PLUS-LOGO-VERDE" transform="translate(1032.5 565)">
      <g id="Grupo_211" data-name="Grupo 211" transform="translate(0 1.017)">
        <path id="Caminho_682" data-name="Caminho 682" d="M147.939,23.749H9.267a9.488,9.488,0,0,1-6.615-2.4A4.5,4.5,0,0,1,1.21,18.178V6.5C1.21,3.437,4.831.93,9.267.93H147.939c4.436,0,8.067,2.507,8.067,5.57V18.178C156.006,21.242,152.376,23.749,147.939,23.749Z" transform="translate(-0.006 -0.005)" fill="none" stroke="#90c21e" stroke-width="0.25"/>
        <rect id="Retângulo_236" data-name="Retângulo 236" width="154.796" height="22.819" rx="5.6" fill="#90c21e"/>
        <g id="Grupo_208" data-name="Grupo 208" transform="translate(4.596 4.755)">
          <path id="Caminho_683" data-name="Caminho 683" d="M4.63,4.78H6.58v6.426h7.162V4.78h1.93V20.118h-1.93V12.877H6.57v7.241H4.62V4.78Z" transform="translate(-4.62 -4.78)" fill="#fff"/>
          <path id="Caminho_684" data-name="Caminho 684" d="M26.962,15.433h-5.61L19.87,20.118H17.9L23.112,4.78h2.159l5.212,15.338H28.434l-1.462-4.685Zm-.477-1.552-.736-2.348C25.181,9.793,24.7,8.122,24.2,6.342h-.08c-.477,1.8-.985,3.452-1.532,5.192l-.756,2.348h4.645Z" transform="translate(-4.69 -4.78)" fill="#fff"/>
          <path id="Caminho_685" data-name="Caminho 685" d="M32.71,4.78h4.377c3.452,0,5.759,1.154,5.759,4.5s-2.3,4.755-5.65,4.755H34.66v6.088H32.71V4.78Zm4.228,7.679c2.7,0,3.979-.985,3.979-3.183s-1.363-2.934-4.058-2.934h-2.2v6.108h2.278Z" transform="translate(-4.769 -4.78)" fill="#fff"/>
          <path id="Caminho_686" data-name="Caminho 686" d="M46,4.78h1.95V18.467h6.694v1.651H46Z" transform="translate(-4.839 -4.78)" fill="#fff"/>
          <path id="Caminho_687" data-name="Caminho 687" d="M57.4,4.78h8.853V6.411h-6.9v4.814h5.819v1.651H59.35v5.59h7.132v1.651H57.4V4.78Z" transform="translate(-4.899 -4.78)" fill="#fff"/>
          <path id="Caminho_688" data-name="Caminho 688" d="M72.506,12.191,68.318,4.78h2.139l2.089,3.909c.4.716.716,1.363,1.214,2.238h.08c.418-.875.716-1.532,1.084-2.238L76.972,4.78H79l-4.188,7.51,4.476,7.828H77.151L74.893,15.97c-.4-.756-.816-1.552-1.323-2.467h-.08c-.438.925-.836,1.721-1.233,2.467l-2.218,4.148H68.01l4.476-7.928Z" transform="translate(-4.955 -4.78)" fill="#fff"/>
        </g>
        <g id="Grupo_209" data-name="Grupo 209" transform="translate(78.781 1.9)">
          <path id="Caminho_689" data-name="Caminho 689" d="M80.8,2.636H79.2V1.92h4.068v.716H81.657V7.361H80.8Z" transform="translate(-79.2 -1.91)" fill="#fff"/>
          <path id="Caminho_690" data-name="Caminho 690" d="M84.23,1.91h.985l.995,2.755c.129.368.239.736.368,1.1h.04c.129-.368.229-.746.358-1.1L87.96,1.91h.995V7.361h-.8v-2.7c0-.487.07-1.194.109-1.691h-.03L87.8,4.238l-.945,2.6h-.537l-.955-2.6-.428-1.263h-.03c.04.5.1,1.2.1,1.691v2.7H84.24V1.91Z" transform="translate(-79.227 -1.91)" fill="#fff"/>
        </g>
        <g id="Grupo_210" data-name="Grupo 210" transform="translate(90.568 3.442)">
          <path id="Caminho_691" data-name="Caminho 691" d="M91.05,4.78h4.377c3.452,0,5.759,1.154,5.759,4.5s-2.3,4.755-5.65,4.755H93v6.088H91.05Zm4.228,7.679c2.7,0,3.979-.985,3.979-3.183S97.894,6.342,95.2,6.342H93v6.108h2.278Z" transform="translate(-91.05 -3.467)" fill="#fff"/>
          <path id="Caminho_692" data-name="Caminho 692" d="M104.18,17.853V3.46h1.91V17.983c0,.587.249.816.547.816a1.734,1.734,0,0,0,.4-.04l.269,1.462a3.113,3.113,0,0,1-1.114.169C104.767,20.39,104.18,19.465,104.18,17.853Z" transform="translate(-91.119 -3.46)" fill="#fff"/>
          <path id="Caminho_693" data-name="Caminho 693" d="M110.03,15.982V8.78h1.9v6.973c0,2.109.627,3.014,2.139,3.014,1.174,0,1.989-.567,3.074-1.93V8.78h1.9V20.15H117.45l-.149-1.781h-.06a4.874,4.874,0,0,1-3.77,2.049c-2.387,0-3.452-1.552-3.452-4.436Z" transform="translate(-91.15 -3.488)" fill="#fff"/>
          <path id="Caminho_694" data-name="Caminho 694" d="M121.66,18.845l.945-1.253a5.159,5.159,0,0,0,3.372,1.343c1.5,0,2.238-.8,2.238-1.781,0-1.154-1.343-1.671-2.6-2.159-1.592-.587-3.392-1.363-3.392-3.283,0-1.8,1.442-3.223,3.909-3.223a5.938,5.938,0,0,1,3.541,1.273L128.752,11a4.274,4.274,0,0,0-2.616-1c-1.422,0-2.069.756-2.069,1.631,0,1.084,1.233,1.482,2.507,1.97,1.651.627,3.472,1.293,3.472,3.452,0,1.84-1.462,3.372-4.148,3.372a6.813,6.813,0,0,1-4.247-1.572Z" transform="translate(-91.212 -3.487)" fill="#fff"/>
        </g>
      </g>
      <circle id="Elipse_8" data-name="Elipse 8" cx="8.873" cy="8.873" r="8.873" transform="translate(129.366 12.548) rotate(-45)" fill="#fff"/>
      <path id="Caminho_695" data-name="Caminho 695" d="M146.316,18.753a17.693,17.693,0,0,0-2.248-7.033,16.351,16.351,0,0,0-3.929-4.934,17.6,17.6,0,0,1,6.834,11.857c.07-.109.139-.219.2-.318,5.123-9.2-8.863-13.986-8.863-13.986l.02.05c-.139.547-2.149,12.921,8,14.364Z" transform="translate(-0.731 0.994)" fill="#8bb927"/>
    </g>
    <g id="ANVISA" transform="translate(1353.357 553)">
      <g id="RENOVABE-LIBERADO-PELA-ANVISA" transform="translate(144.383 -4)">
        <path id="Caminho_630" data-name="Caminho 630" d="M7.977,7.978C-16.248,33.7,20.04,70,45.776,45.778,70,20.053,33.713-16.253,7.977,7.978Z" transform="translate(3.754 3.753)" fill="#fff"/>
        <path id="Caminho_631" data-name="Caminho 631" d="M61.26,30.63c0-2.641-2.613-4.9-3.267-7.337-.672-2.516.444-5.778-.831-7.986-1.292-2.237-4.685-2.892-6.5-4.707s-2.476-5.2-4.713-6.5c-2.209-1.275-5.465-.159-7.986-.837C35.531,2.618,33.271,0,30.63,0s-4.9,2.618-7.332,3.267c-2.522.672-5.783-.444-7.986.831-2.237,1.292-2.9,4.69-4.707,6.5S5.4,13.075,4.1,15.312c-1.275,2.2-.159,5.465-.837,7.986C2.613,25.729,0,27.994,0,30.63s2.613,4.9,3.267,7.337c.672,2.516-.444,5.778.831,7.981,1.292,2.237,4.69,2.892,6.5,4.707s2.476,5.208,4.713,6.506c2.2,1.275,5.465.159,7.986.837,2.436.649,4.7,3.267,7.332,3.267s4.9-2.613,7.332-3.267c2.516-.672,5.778.444,7.986-.837,2.237-1.292,2.892-4.685,4.713-6.5s5.208-2.47,6.5-4.713c1.275-2.2.159-5.465.837-7.986C58.647,35.531,61.26,33.271,61.26,30.63ZM48.936,48.936C24.01,72.405-11.145,37.244,12.324,12.324,37.25-11.145,72.405,24.021,48.936,48.936Z" transform="translate(0 0)" fill="#ff4289"/>
        <path id="Caminho_632" data-name="Caminho 632" d="M25.406,50.812A25.408,25.408,0,0,1,7.44,7.44,25.409,25.409,0,0,1,50.811,25.412a25.4,25.4,0,0,1-25.406,25.4Zm0-49.66A24.254,24.254,0,1,0,49.659,25.406,24.279,24.279,0,0,0,25.406,1.152Z" transform="translate(5.224 5.224)" fill="#ff4289"/>
        <path id="Caminho_633" data-name="Caminho 633" d="M2.431,0H3.953L6.38,5.739H4.686L4.269,4.723h-2.2L1.661,5.739H0ZM3.814,3.494,3.178,1.875,2.533,3.494Z" transform="translate(10.488 27.617)" fill="#ff4289"/>
        <path id="Caminho_634" data-name="Caminho 634" d="M0,0H1.475L3.819,3.011V0H5.382V5.7H4L1.564,2.575V5.7H0Z" transform="translate(19.134 27.665)" fill="#ff4289"/>
        <path id="Caminho_635" data-name="Caminho 635" d="M0,0H1.768L3.062,3.61,4.357,0H6.087L3.777,5.739H2.311Z" transform="translate(26.67 27.67)" fill="#ff4289"/>
        <path id="Caminho_636" data-name="Caminho 636" d="M0,0H1.587V5.7H0Z" transform="translate(34.401 27.665)" fill="#ff4289"/>
        <path id="Caminho_637" data-name="Caminho 637" d="M0,4.946.882,3.9a2.922,2.922,0,0,0,1.847.687c.422,0,.65-.148.65-.39V4.18c0-.237-.186-.367-.96-.548C1.2,3.355.269,3.016.269,1.842V1.823C.269.766,1.109,0,2.478,0A3.578,3.578,0,0,1,4.821.756L4.032,1.87a2.852,2.852,0,0,0-1.6-.561c-.38,0-.571.162-.571.367v.019c0,.26.195.376.984.552,1.313.283,2.125.71,2.125,1.777v.014c0,1.165-.919,1.856-2.306,1.856A4.008,4.008,0,0,1,0,4.946Z" transform="translate(37.646 27.573)" fill="#ff4289"/>
        <path id="Caminho_638" data-name="Caminho 638" d="M2.427,0H3.948L6.375,5.739H4.682L4.264,4.723H2.069L1.661,5.739H0ZM3.814,3.494,3.178,1.875,2.533,3.494Z" transform="translate(44.391 27.617)" fill="#ff4289"/>
        <path id="Caminho_639" data-name="Caminho 639" d="M1.359.872a.547.547,0,0,1-.162.195.662.662,0,0,1-.237.116,1,1,0,0,1-.288.042H.213v.668H0V0H.71A1.06,1.06,0,0,1,1,.042a.58.58,0,0,1,.223.121.529.529,0,0,1,.144.19A.676.676,0,0,1,1.42.608.6.6,0,0,1,1.359.872ZM1.067.3A.587.587,0,0,0,.7.2H.218v.835H.687A.817.817,0,0,0,.9,1.007.564.564,0,0,0,1.067.923.381.381,0,0,0,1.174.789.44.44,0,0,0,1.211.617.373.373,0,0,0,1.067.3Z" transform="translate(25.737 20.71)" fill="#ff4289"/>
        <path id="Caminho_640" data-name="Caminho 640" d="M1.369.195H.213v.65H1.248v.195H.213V1.7H1.383v.19H0V0H1.369V.195Z" transform="translate(28.365 20.71)" fill="#ff4289"/>
        <path id="Caminho_641" data-name="Caminho 641" d="M0,0H.213V1.7H1.281v.195H0Z" transform="translate(30.991 20.71)" fill="#ff4289"/>
        <path id="Caminho_642" data-name="Caminho 642" d="M1.926,1.907H1.694l-.223-.5H.441l-.223.5H0L.863,0h.2ZM.961.251l-.432.965h.863Z" transform="translate(33.346 20.694)" fill="#ff4289"/>
        <path id="Caminho_643" data-name="Caminho 643" d="M3.034,3.076,0,.821.608,0,2.979,1.763,3.846.594l.663.492Z" transform="translate(13.686 19.082)" fill="#ff4289"/>
        <path id="Caminho_644" data-name="Caminho 644" d="M2.524,3.5,0,.687.766,0,3.29,2.816Z" transform="translate(16.786 15.503)" fill="#ff4289"/>
        <path id="Caminho_645" data-name="Caminho 645" d="M0,1.007,1.151.362A2.278,2.278,0,0,1,2.26,0a.772.772,0,0,1,.673.436.926.926,0,0,1,.125.552.744.744,0,0,1-.232.464l.014.023a.893.893,0,0,1,.6.023.932.932,0,0,1,.413.413.976.976,0,0,1,.06.9,1.7,1.7,0,0,1-.775.775L1.851,4.3Zm1.6.766.269-.148a.514.514,0,0,0,.25-.246.312.312,0,0,0-.028-.292c-.1-.186-.3-.2-.575-.042l-.251.139Zm.367.654.39.691.316-.176q.418-.23.223-.585a.347.347,0,0,0-.255-.19.573.573,0,0,0-.371.093Z" transform="translate(19.514 12.914)" fill="#ff4289"/>
        <path id="Caminho_646" data-name="Caminho 646" d="M3.113,3.661.937,4.218,0,.557,2.176,0l.2.793-1.188.3.149.575,1.095-.283.2.793-1.1.283.176.691,1.188-.3Z" transform="translate(24.622 10.971)" fill="#ff4289"/>
        <path id="Caminho_647" data-name="Caminho 647" d="M1.044,2.422,1.021,3.8,0,3.781.06,0,1.3.019c1.025.019,1.536.4,1.522,1.141a1.124,1.124,0,0,1-.659,1.007L3.239,3.833l-1.16-.019L1.3,2.427Zm.009-.766.19,0c.357,0,.538-.148.543-.464,0-.26-.167-.394-.52-.4l-.2,0Z" transform="translate(29.42 10.646)" fill="#ff4289"/>
        <path id="Caminho_648" data-name="Caminho 648" d="M2.608,4.074l.032-.733L1.466,2.974,1.072,3.6,0,3.262,2.306,0l1.3.4L3.67,4.4Zm.079-1.6.028-.64c0-.144.014-.325.028-.552S2.765.9,2.779.8c-.042.079-.111.209-.218.39s-.316.529-.64,1.049Z" transform="translate(33.534 11.356)" fill="#ff4289"/>
        <path id="Caminho_649" data-name="Caminho 649" d="M3.763,3.317a1.944,1.944,0,0,1-1.262.9A1.978,1.978,0,0,1,1.007,3.8L0,3.1,2.158,0,3.234.747A1.991,1.991,0,0,1,4.125,1.93,1.764,1.764,0,0,1,3.763,3.317Zm-.9-.575a1.174,1.174,0,0,0,.269-.752.75.75,0,0,0-.371-.561l-.246-.167L1.313,3l.186.13a.826.826,0,0,0,.714.167A1.3,1.3,0,0,0,2.867,2.742Z" transform="translate(38.686 13.294)" fill="#ff4289"/>
        <path id="Caminho_650" data-name="Caminho 650" d="M3.154,3.4a2.058,2.058,0,0,1-1.424.547A1.792,1.792,0,0,1,.481,3.192,1.8,1.8,0,0,1,.013,1.819,2.027,2.027,0,0,1,.848.538,2.019,2.019,0,0,1,2.267,0,1.8,1.8,0,0,1,3.516.761a1.8,1.8,0,0,1,.473,1.373A2.047,2.047,0,0,1,3.154,3.4ZM1.521,1.374q-.856.689-.376,1.281a.663.663,0,0,0,.566.283,1.452,1.452,0,0,0,.766-.376,1.472,1.472,0,0,0,.534-.673.649.649,0,0,0-.144-.612C2.546.877,2.1.91,1.521,1.374Z" transform="translate(42.93 17.423)" fill="#ff4289"/>
        <g id="Grupo_204" data-name="Grupo 204" transform="translate(20.523 40.09)">
          <g id="Grupo_201" data-name="Grupo 201" transform="translate(0 0.608)">
            <path id="Caminho_651" data-name="Caminho 651" d="M1.5.51A4.2,4.2,0,0,0,.585.575V3.54a.125.125,0,0,1-.121.13H.121A.128.128,0,0,1,0,3.54V.339A.166.166,0,0,1,.121.186,3.52,3.52,0,0,1,1.5,0c.084,0,.139,0,.139.1V.4C1.638.478,1.624.51,1.5.51Z" fill="#444"/>
            <path id="Caminho_652" data-name="Caminho 652" d="M2.784,2.046H.575v.079c0,.756.357,1.1.96,1.1a8.147,8.147,0,0,0,1.127-.093H2.7a.1.1,0,0,1,.107.093v.223c0,.084-.028.13-.13.153a5.389,5.389,0,0,1-1.132.111A1.433,1.433,0,0,1,0,2.088V1.629A1.451,1.451,0,0,1,1.462,0,1.426,1.426,0,0,1,2.909,1.619V1.9C2.909,1.986,2.863,2.046,2.784,2.046Zm-.459-.473C2.325.868,2.042.51,1.462.51S.58.891.58,1.573v.033H2.325Z" transform="translate(1.573)" fill="#444"/>
            <path id="Caminho_653" data-name="Caminho 653" d="M2.659,3.665H2.315a.122.122,0,0,1-.121-.13V1.183C2.195.691,2.069.5,1.624.5H1.155c-.45,0-.571.19-.571.687V3.536a.119.119,0,0,1-.121.13H.121A.122.122,0,0,1,0,3.536V1.183A1.056,1.056,0,0,1,1.151,0h.469A1.058,1.058,0,0,1,2.77,1.183V3.536A.112.112,0,0,1,2.659,3.665Z" transform="translate(4.728 0.009)" fill="#444"/>
            <path id="Caminho_654" data-name="Caminho 654" d="M1.462,3.712A1.405,1.405,0,0,1,0,2.107v-.5C0,.636.492,0,1.462,0A1.409,1.409,0,0,1,2.928,1.605v.5A1.411,1.411,0,0,1,1.462,3.712ZM2.348,1.6c0-.673-.269-1.1-.891-1.1S.575.923.575,1.6v.5c0,.673.264,1.1.882,1.1s.891-.422.891-1.1Z" transform="translate(7.758 0.009)" fill="#444"/>
            <path id="Caminho_655" data-name="Caminho 655" d="M2.974.158,2.13,3.146a.621.621,0,0,1-.64.52.627.627,0,0,1-.64-.52L0,.158A.171.171,0,0,1,0,.111.1.1,0,0,1,.107,0H.469A.141.141,0,0,1,.594.125l.738,2.858c.042.162.093.2.158.2s.121-.042.158-.2L2.385.125A.141.141,0,0,1,2.51,0h.367c.065,0,.1.042.1.107A.094.094,0,0,1,2.974.158Z" transform="translate(10.611 0.051)" fill="#444"/>
            <path id="Caminho_656" data-name="Caminho 656" d="M2.645,3.563a5.578,5.578,0,0,1-1.211.153C.455,3.717,0,3.076,0,2.088V1.629C0,.64.445,0,1.434,0A5.34,5.34,0,0,1,2.645.153c.121.028.139.06.139.153V3.415C2.784,3.5,2.765,3.536,2.645,3.563ZM2.2.552a4.82,4.82,0,0,0-.77-.065C.78.487.58.928.58,1.629v.459c0,.691.2,1.141.854,1.141a4.931,4.931,0,0,0,.77-.065Z" transform="translate(13.52 0.005)" fill="#444"/>
          </g>
          <g id="Grupo_203" data-name="Grupo 203" transform="translate(14.49)">
            <g id="Grupo_202" data-name="Grupo 202">
              <path id="Caminho_657" data-name="Caminho 657" d="M2.208,4.644a.508.508,0,0,1-.246-.436.707.707,0,0,1,.5-.631c.529-.213,1.378-.237,2.1-.464l.014-.139c0-.483-.348-.937-1.248-.937a3.77,3.77,0,0,0-.487.037c-.715.988-1.387,2.13-1.48,2.278a.049.049,0,0,1-.046.032.051.051,0,0,1-.051-.051V4.32A7.319,7.319,0,0,1,2.3,2.167a.07.07,0,0,1-.056-.051V2.1c0-.056.065-.07.181-.111.264-.385.51-.729.8-1.132-.947.784-2.626.937-2.96,1.8a.131.131,0,0,1-.116.083A.143.143,0,0,1,0,2.6l.014-.051c.037-.1.3-.167.561-.385C1.29,1.55,2.654,1.5,3.494.478c.1-.139.2-.3.311-.45C3.819.009,3.832,0,3.842,0A.056.056,0,0,1,3.9.051L3.883.083c-.13.251-1.016,1.5-1.22,1.81l.185-.079c.339-.469,1.179-1.6,1.735-1.6a.343.343,0,0,1,.2.065A.326.326,0,0,1,4.9.431a.248.248,0,0,1,.014.1c0,.58-1.4,1.169-1.949,1.387a2.142,2.142,0,0,1,.3-.014c.766,0,1.415.32,1.415,1.03,0,.046,0,.088,0,.139a1.887,1.887,0,0,0,.585-.3l.019,0a.035.035,0,0,1,.032.033.033.033,0,0,1-.014.028,2.155,2.155,0,0,1-.631.32A2.164,2.164,0,0,1,2.682,4.77.9.9,0,0,1,2.208,4.644ZM2.645,2.1,2.5,2.13A10.464,10.464,0,0,0,1.564,3.8C1.9,3.22,2.269,2.645,2.645,2.1Zm1.9,1.081c-.715.218-1.55.246-2.06.45-.353.148-.464.371-.464.561a.546.546,0,0,0,.056.227.634.634,0,0,0,.585.269A2.078,2.078,0,0,0,4.547,3.183ZM4.756.566l0-.046A.151.151,0,0,0,4.6.357C4.371.357,3.911.645,3.1,1.7,3.531,1.522,4.663,1.021,4.756.566Z" fill="#e8408e"/>
              <path id="Caminho_658" data-name="Caminho 658" d="M0,.831A.894.894,0,0,1,.3.269.739.739,0,0,1,.784,0c.121,0,.2.065.2.153C.979.3.775.52.218.631a.477.477,0,0,0-.07.232c0,.121.083.186.213.186A1.251,1.251,0,0,0,1.2.5.04.04,0,0,1,1.225.483a.035.035,0,0,1,.032.032l0,.019a1.331,1.331,0,0,1-.919.594A.3.3,0,0,1,0,.831ZM.845.162V.148L.8.144a.814.814,0,0,0-.52.394C.636.4.845.232.845.162Z" transform="translate(4.988 2.25)" fill="#e8408e"/>
            </g>
          </g>
        </g>
      </g>
    </g>
    <g id="QUALIDADE_PREMIUM" data-name="QUALIDADE PREMIUM" transform="translate(837.531 570.264)">
      <g id="SELO" transform="translate(557.973 -21.264)">
        <path id="Caminho_425" data-name="Caminho 425" d="M59.759,40.446l-3.14,1.8.768,3.533-3.424,1.168.084,3.611-3.582.5-.6,3.567-3.611-.187L44.987,57.82l-3.512-.867-1.888,3.1L36.3,58.533l-2.434,2.675L30.926,59.1l-2.9,2.167-2.485-2.628L22.29,60.214l-1.933-3.053-3.495.936-1.329-3.365-3.611.257-.669-3.553L7.663,51l.015-3.611-3.444-1.1.7-3.548L1.76,41l1.359-3.353L.333,35.343,2.3,32.309,0,29.518l2.508-2.607L.776,23.736,3.73,21.651,2.631,18.2l3.3-1.487L5.5,13.127l3.519-.839.259-3.611,3.611-.156.936-3.493,3.578.535,1.589-3.255,3.413,1.2L24.571.61l3.124,1.822L30.372,0,33.1,2.381,36.185.5l2.224,2.851L41.8,2.09l1.645,3.22,3.567-.6,1,3.477,3.611.088.328,3.6,3.535.772-.358,3.6,3.323,1.426-1.034,3.467,2.994,2.029-1.672,3.21,2.557,2.56-2.248,2.833,2.026,3-2.738,2.35Z" fill="url(#linear-gradient)"/>
        <path id="_ring_" data-name="&lt;ring&gt;" d="M90.221,87.888a24.341,24.341,0,1,0-34.362,2.09A24.34,24.34,0,0,0,90.221,87.888ZM48.162,73.2a23.875,23.875,0,1,1,8.006,16.429A23.875,23.875,0,0,1,48.162,73.2Z" transform="translate(-41.281 -41.072)" fill="url(#linear-gradient-2)"/>
        <path id="_stars_" data-name="&lt;stars&gt;" d="M43.779,42.225l.381-.334-.2-.467.437.258.38-.336-.11.5.437.258-.507.048-.111.5-.2-.467Zm1.481-1.272.4-.306-.166-.48.416.292.4-.3-.148.485.416.292-.508.009-.148.485-.166-.48ZM46.836,39.8l.428-.267-.134-.492.392.324.428-.267-.185.473.392.322-.507-.031-.179.457-.134-.492Zm1.657-1.03.448-.238-.09-.5.366.352.448-.239-.221.457.366.352-.5-.07-.221.457L49,38.844Zm1.732-.9.464-.2-.051-.506.338.378.465-.2-.257.443.338.38-.5-.112-.257.44-.051-.506Zm1.795-.762.479-.171-.012-.508.308.4.48-.169-.288.417.308.4-.487-.144-.289.419-.012-.508Zm1.848-.626.491-.134.027-.507.277.425.49-.134-.318.4.277.427-.472-.187-.32.4.027-.507ZM55.755,36l.5-.095.064-.5.245.447.5-.095-.348.37.243.449-.46-.217-.348.369.064-.5Zm1.923-.34.506-.056.1-.5.209.464L59,35.512l-.376.341.21.464-.443-.253-.376.344.1-.507Zm1.941-.191.508-.017.14-.489.173.479.508-.019-.4.313.174.479-.421-.285-.4.313.134-.488Zm1.953-.044.507.021.183-.479.134.489.507.021-.423.281.134.489-.4-.316-.424.282.178-.476Zm1.947.106.5.06.213-.461.1.5.506.059-.439.246.094.506-.373-.345-.444.247.213-.461Zm1.937.254.5.1.247-.444.06.5.5.1-.46.213.06.506-.346-.373-.461.214.247-.444Zm1.91.4.489.134.281-.424.021.508.489.134-.476.178.021.507-.316-.4L67.4,37l.28-.424Zm1.872.546.479.175.312-.4-.017.508.477.174-.488.14-.017.508-.285-.423-.488.134.313-.4Zm1.83.691.463.21.342-.374-.056.506.463.209-.5.1-.057.5-.251-.441-.5.1.342-.374Zm1.76.824.445.245.37-.348-.1.5.447.245-.5.064-.095.5-.217-.46-.5.064.369-.348Zm1.7.962.424.277.4-.318-.134.491.425.277-.507.027L75,40.45l-.182-.476L74.315,40l.4-.318Zm1.617,1.083.4.309.427-.284-.17.48.4.309-.508-.012-.169.479-.143-.493-.51-.012.419-.289Zm1.537,1.2.38.338.439-.255-.2.465.378.337-.5-.047-.2.465-.108-.5-.506-.051.439-.257Zm1.44,1.317.352.366.457-.222-.241.449.353.366-.5-.09-.239.448-.071-.5-.5-.09.457-.221Zm1.337,1.423.322.392.473-.186-.274.428.324.393-.492-.134-.274.428-.029-.507-.492-.134.473-.186Zm1.224,1.525.29.415.487-.148-.306.4.292.417-.48-.165-.3.4.008-.508-.481-.166.487-.148Zm1.1,1.613.258.437.5-.111-.336.381.258.437-.469-.2-.337.381.048-.506-.467-.2.5-.111Zm.972,1.69.225.456.5-.072-.364.354.223.455-.449-.235-.368.357.086-.5-.449-.237.5-.072Zm.84,1.764.189.471.507-.033-.389.325.189.472-.431-.267-.389.325.123-.492-.429-.267.507-.033Zm.7,1.818.152.484h.508l-.413.294.152.485-.408-.3-.415.294.162-.481-.408-.3h.507Zm.563,1.872.116.495.506.043-.435.267.115.495-.384-.333-.435.267.2-.469-.384-.333.506.044Zm.42,1.907.078.5.5.082-.455.229.078.5-.357-.36-.455.229.233-.453-.358-.36.5.082Zm.275,1.934.039.507.493.119-.469.19.039.506-.324-.387-.471.193.267-.432-.332-.388.493.119Zm.126,1.947v.507l.483.158-.483.156v.508l-.3-.411-.484.158.3-.412-.3-.411.483.155Zm-.023,1.945-.037.507.469.193-.493.12-.039.507-.267-.432-.495.12.329-.388-.267-.433.476.194Zm-.171,1.946-.076.5.457.226-.5.082-.076.5-.238-.449-.5.082.358-.361-.234-.452.455.227Zm-.318,1.923-.115.495.435.267-.506.044-.116.493-.2-.472-.507.043.384-.333-.2-.468.436.267Zm-.465,1.9-.154.485.415.294h-.508l-.154.484-.16-.48h-.508l.4-.3-.16-.481.413.3Zm-.613,1.859-.189.471.389.326-.507-.033-.19.467-.124-.492-.507-.035.432-.267-.124-.492.391.324Zm-.749,1.8-.226.456.364.354-.5-.074-.225.455-.087-.5-.5-.074.451-.237-.086-.5.364.356Zm-.888,1.739-.259.437.334.383-.495-.112-.259.436-.047-.5-.5-.112.468-.2-.047-.506.334.381Zm-1.018,1.66-.289.42.308.4-.487-.147-.289.415-.012-.507-.487-.147.48-.167-.011-.508.308.4ZM81.3,76.658l-.316.392.274.428-.473-.186-.322.393.029-.507-.473-.185.492-.134.029-.507.274.428ZM80.049,78.15l-.35.368.241.447-.459-.221-.35.368.067-.5-.457-.221.5-.091.07-.5.239.447Zm-1.365,1.394-.377.34.206.464-.44-.254-.382.344.107-.5-.44-.254.506-.052.107-.5.206.464Zm-1.471,1.285-.4.309.17.479-.419-.288-.4.309.144-.487-.419-.289.508-.012.144-.488.166.476ZM75.651,82l-.427.277.134.491-.391-.322-.424.277.179-.473-.395-.32.508.025.182-.475.134.491ZM74,83.042l-.445.245.094.5-.369-.348-.447.242.217-.459-.369-.349.5.066.218-.46.092.5Zm-1.724.916-.463.209.056.506-.342-.377-.463.21.251-.441-.342-.376.5.1.253-.441.055.506Zm-1.789.781-.477.173.016.508-.31-.4-.479.173.285-.421-.313-.4.489.142.285-.421L70,84.6Zm-1.843.646-.489.134-.021.508-.281-.424-.489.134.316-.4-.281-.424.476.178.317-.4-.023.507Zm-1.883.5-.5.1-.06.5-.249-.444-.5.1.345-.373-.249-.444.463.214.345-.373-.06.5Zm-1.921.356-.5.06-.1.5-.213-.461-.506.06.373-.344-.214-.461.444.249L64.5,85.5l-.1.5Zm-1.938.209-.508.023-.134.489-.178-.476-.508.021.4-.316-.178-.476.424.281.4-.317-.134.489Zm-1.953.062-.507-.016-.173.477-.142-.49-.507-.016.42-.285-.134-.488.4.313.42-.286-.173.479ZM59,86.422l-.5-.055-.209.463-.1-.5-.506-.055.441-.253-.1-.5.376.342.443-.253-.209.463Zm-1.938-.234-.5-.094-.245.447-.064-.5-.5-.094.457-.219-.064-.5.349.369.46-.218-.245.447ZM55.151,85.8l-.491-.134-.277.425-.027-.507-.491-.134.475-.182-.027-.508.321.4.473-.181-.277.425Zm-1.882-.535L52.79,85.1l-.309.4.013-.51-.479-.169.487-.144.013-.508.288.419.488-.144-.31.4ZM51.442,84.6l-.465-.2-.338.378.051-.506-.464-.21.5-.108.052-.5.255.439.5-.106-.34.378Zm-1.779-.82-.447-.239-.368.35.091-.5-.447-.239.5-.07.092-.5.221.459.5-.068-.368.35Zm-1.705-.936-.428-.267-.393.322.134-.491-.428-.267.507-.031.134-.491.186.473.507-.031-.392.322Zm-1.632-1.07-.4-.3-.416.292.166-.481-.4-.3.508.008.164-.48.15.485L46.6,81l-.416.293Zm-1.542-1.189-.382-.334-.436.259.2-.467-.382-.334.506.045.2-.467.112.5.507.047-.437.258Zm-1.454-1.307-.356-.364-.455.226.235-.449-.354-.364.5.084.234-.456.074.5.5.086-.456.226Zm-1.347-1.418-.326-.389-.471.19.267-.432-.324-.389.494.123.267-.431.041.507.494.124-.477.2ZM40.75,76.35l-.3-.413-.484.152.3-.408-.3-.413.481.159.3-.408v.508l.481.162-.484.152Zm-1.114-1.6-.267-.435-.495.115.333-.384-.267-.435.468.2.333-.384-.043.507.468.2-.495.116Zm-.99-1.684-.229-.453-.5.078.361-.358-.222-.449.452.233.361-.358-.083.5.452.233-.5.078Zm-.859-1.749-.194-.469-.507.037.388-.328-.194-.471.433.267.387-.329-.119.495.432.267-.507.039ZM37.067,69.5l-.156-.483H36.4l.412-.3-.158-.483.415.3.411-.3-.156.484.411.3h-.508Zm-.58-1.872-.119-.494L35.86,67.1l.432-.267-.11-.488.387.329L37,66.4l-.194.471.388.329-.507-.039Zm-.437-1.894-.082-.5-.5-.076.451-.233-.083-.5.362.357.452-.233L36.418,65l.361.358-.5-.078ZM35.757,63.8l-.043-.506-.495-.115.467-.2-.039-.506.333.382.469-.2-.267.436.333.384-.495-.115Zm-.143-1.945V61.35L35.13,61.2l.481-.162v-.508l.3.4.481-.16-.3.413.3.409-.489-.146Zm0-1.95.033-.507-.471-.189.492-.126.033-.506.267.429.492-.124-.325.391.267.429-.473-.189Zm.167-1.947.072-.5-.456-.223.5-.087.071-.5.238.448.5-.086-.353.365.229.449-.455-.225Zm.3-1.929.111-.495-.437-.259.507-.048.11-.495.2.465.506-.048-.382.337.2.473-.437-.267Zm.449-1.9.148-.485-.416-.292.507-.009.15-.485.165.479.51-.008-.4.306.166.481-.417-.292Zm.587-1.86L37.3,51.8l-.392-.322.507.029.186-.473.134.492.507.029-.428.276.134.492L37.56,52Zm.736-1.808.222-.457-.368-.352.5.07.221-.451.091.5.5.068-.448.234.09.5-.366-.352Zm.869-1.745.255-.439-.338-.378.5.107.255-.439.053.5.5.108-.465.2.052.507-.338-.38Zm1-1.676.289-.419-.309-.4.489.143.288-.419.013.508.487.143-.48.169.013.51-.309-.4Zm1.126-1.594.318-.4-.278-.425.475.181.318-.4-.024.508.475.181-.491.134-.025.508-.277-.425Zm1.24-1.5.348-.37-.238-.445.46.217.342-.37-.063.5.464.215-.5.1-.064.5-.245-.445Z" transform="translate(-30.432 -30.285)" fill="url(#linear-gradient-3)"/>
        <path id="Caminho_426" data-name="Caminho 426" d="M65.32,69.078l-1.962-1.42a4.189,4.189,0,0,0-.524-.35.231.231,0,0,0-.209.015,1.325,1.325,0,0,0-.33.364l-.064.087-.427-.309a1.971,1.971,0,0,0,.12-1.4l.378-.522,3.659,2.649ZM82.109,87.4l.4.828.408-.828.911-.134-.661-.643.158-.908-.816.429-.816-.429.155.908-.658.643Zm8.039,2.5-.59-.681L87.7,90.832l.592.683.5-.439L91.165,93.8l.852-.74-2.371-2.727Zm9.7-11.781c0,.168,0,.336-.007.5v.147c0,.124-.008.247-.015.37a1.057,1.057,0,0,1-.007.146c-.017.33-.043.661-.075.987a1.266,1.266,0,0,1-.015.143c-.013.122-.027.242-.041.364a1.283,1.283,0,0,1-.017.142c-.021.162-.043.324-.068.484v.011c-.024.156-.051.313-.078.468-.009.049-.017.1-.027.147-.021.115-.043.23-.066.344-.011.049-.02.1-.031.148-.031.152-.064.3-.1.456a.312.312,0,0,1-.011.048q-.049.213-.1.425c-.013.052-.027.1-.041.158-.027.106-.056.21-.086.316l-.044.159c-.039.134-.08.267-.122.408a21.582,21.582,0,0,1-41.228.047h0c-.047-.151-.092-.3-.134-.456-.013-.043-.025-.087-.037-.134-.032-.115-.063-.231-.094-.348l-.036-.134c-.039-.151-.076-.3-.111-.457a.032.032,0,0,1,0-.011c-.036-.156-.07-.314-.1-.472l-.028-.134-.068-.354c-.008-.047-.016-.094-.025-.14-.028-.159-.055-.318-.079-.479h0c-.025-.162-.047-.324-.068-.486a1.257,1.257,0,0,0-.017-.14c-.015-.122-.029-.243-.041-.365,0-.048-.011-.095-.015-.143-.033-.326-.058-.657-.075-.987l-.008-.144c0-.124-.009-.247-.013-.372v-1.3c0-.123.008-.247.013-.37l.008-.144c.017-.332.041-.661.075-.988a1.27,1.27,0,0,1,.015-.142c.012-.123.027-.245.041-.366a1.009,1.009,0,0,1,.017-.134q.063-.488.148-.967l.024-.134c.023-.12.045-.239.07-.36.008-.044.017-.088.027-.134q.1-.476.218-.946c.011-.041.021-.084.033-.134.031-.12.063-.239.1-.358.012-.04.023-.082.035-.122.044-.154.09-.308.134-.46h0a21.582,21.582,0,0,1,41.216.016c.045.143.088.288.134.433.013.049.028.1.041.15.031.108.06.218.088.328.013.049.027.1.039.148.037.147.074.293.108.441v.024c.036.156.07.312.1.468l.028.144c.024.116.045.231.067.349.009.048.017.1.027.144.027.156.053.314.078.472a.054.054,0,0,1,0,.007c.025.162.047.322.068.484a1.239,1.239,0,0,0,.017.142c.015.122.028.242.041.364,0,.048.011.1.015.143q.048.491.075.988a1.044,1.044,0,0,0,.007.144c.007.123.011.247.015.37v.147C99.841,77.785,99.844,77.952,99.844,78.115ZM58.01,71.709h6.664a15.032,15.032,0,0,1,27.191,0h6.663a21.253,21.253,0,0,0-40.523,0ZM71.98,77.22V75.81h1.376V74.322h-3.44v7.439h3.578V80.272H71.98V78.636h1.288V77.22Zm-6.018,7.309a13.876,13.876,0,0,0,24.608,0Zm10.224-2.768V76.852l.757,4.908h1.279l.717-5.022v5.022h1.8V74.322H78.068L77.593,77.8,77.3,75.907q-.124-.911-.245-1.581H74.381v7.439Zm7.757,0V74.322H81.881v7.439ZM87.105,79.9V74.322H85.043v4.4q0,1.257.048,1.652a1.544,1.544,0,0,0,.318.746,1.9,1.9,0,0,0,.814.575,3.312,3.312,0,0,0,1.253.219,3.036,3.036,0,0,0,1.115-.186,1.8,1.8,0,0,0,.761-.547,1.561,1.561,0,0,0,.348-.7,7.97,7.97,0,0,0,.059-1.188V74.322H87.7v5.483a2.615,2.615,0,0,1-.056.7.239.239,0,0,1-.253.15.222.222,0,0,1-.227-.134A2.081,2.081,0,0,1,87.105,79.9Zm3.468-8.19a13.876,13.876,0,0,0-24.608,0Zm.35,0h.25a14.413,14.413,0,0,0-25.812,0h.251a14.187,14.187,0,0,1,25.308,0ZM64.213,74.322v7.439h2.062V78.406c.284,0,.46.047.527.142a1.613,1.613,0,0,1,.1.74v2.473h1.915V79.8a6.633,6.633,0,0,0-.051-1.1,1.122,1.122,0,0,0-.267-.439,1.579,1.579,0,0,0-.824-.381,1.249,1.249,0,0,0,.907-.358,2.054,2.054,0,0,0,.23-1.168,2.336,2.336,0,0,0-.325-1.386,1.376,1.376,0,0,0-.843-.535,12.05,12.05,0,0,0-1.977-.1Zm1.151,10.212a14.413,14.413,0,0,0,25.812,0h-.253a14.187,14.187,0,0,1-25.308,0Zm27.3-2.768V76.858l.756,4.908H94.7l.717-5.022v5.022h1.8V74.322H94.541L94.066,77.8l-.293-1.892q-.126-.911-.245-1.581H90.86v7.439ZM63.24,75.376a1.2,1.2,0,0,0-.309-.567,1.471,1.471,0,0,0-.681-.358,5.186,5.186,0,0,0-1.3-.123h-2.08v7.439h2.062v-3h.554a2.889,2.889,0,0,0,1.1-.174,1.047,1.047,0,0,0,.575-.5,2.552,2.552,0,0,0,.158-1.039V76.4a4.815,4.815,0,0,0-.082-1.032Zm35.289,9.159H91.865a15.032,15.032,0,0,1-27.191,0H58.01a21.254,21.254,0,0,0,40.523,0ZM69.667,60.477a1.367,1.367,0,0,1-.112-.487.519.519,0,0,1,.147-.334,1,1,0,0,1,.4-.259,1.016,1.016,0,0,1,.508-.074.567.567,0,0,1,.334.159,1.319,1.319,0,0,1,.23.427l.267.726a1.394,1.394,0,0,1,.108.447.535.535,0,0,1-.134.332.919.919,0,0,1-.413.276,1.049,1.049,0,0,1-.535.086.56.56,0,0,1-.321-.155,1.152,1.152,0,0,1-.2-.382Zm.519-.641a.645.645,0,0,0,.058.211l.4,1.07a.767.767,0,0,0,.1.213c.02.02.056.02.107,0s.067-.041.068-.074a.613.613,0,0,0-.053-.2l-.408-1.083a.763.763,0,0,0-.095-.2c-.02-.021-.055-.024-.1,0S70.19,59.8,70.186,59.837ZM90.747,87.788q.686.835,1.189,1.361a17.855,17.855,0,0,0-1.558-.9l-.65.8,2.742,1.193,1.273,1.026.655-.813-1.273-1.026L91.4,86.978ZM72.117,63.651l-.049-4.994-.384.146.043,5Zm-8.525,1.257a.92.92,0,0,1-.054-.645,1.426,1.426,0,0,1,.4-.661,1.531,1.531,0,0,1,.55-.36,1.07,1.07,0,0,1,.526-.074,1.046,1.046,0,0,1,.431.167,3.906,3.906,0,0,1,.562.5l1.058,1.07a3.64,3.64,0,0,1,.485.57,1.044,1.044,0,0,1,.148.469.97.97,0,0,1-.088.5,1.529,1.529,0,0,1-.32.443,1.947,1.947,0,0,1-.535.391.893.893,0,0,1-.5.084,1.313,1.313,0,0,1-.449-.143,2.741,2.741,0,0,1-.535-.451L64.166,65.64A3.119,3.119,0,0,1,63.592,64.908Zm.8-.646a1.505,1.505,0,0,0,.285.344l1.547,1.57a1.636,1.636,0,0,0,.36.312.155.155,0,0,0,.17-.053.153.153,0,0,0,.047-.179,1.479,1.479,0,0,0-.268-.33L64.964,64.33a1.847,1.847,0,0,0-.34-.3.148.148,0,0,0-.177.047.156.156,0,0,0-.048.182Zm2.021-1.943a.916.916,0,0,1,.071-.643,1.436,1.436,0,0,1,.524-.57,1.538,1.538,0,0,1,.609-.247,1.082,1.082,0,0,1,.535.031,1.062,1.062,0,0,1,.392.246,3.975,3.975,0,0,1,.453.6l.831,1.257a3.652,3.652,0,0,1,.368.654,1.038,1.038,0,0,1,.053.488.964.964,0,0,1-.182.472,1.534,1.534,0,0,1-.4.372,1.959,1.959,0,0,1-.6.281.891.891,0,0,1-.507-.015,1.289,1.289,0,0,1-.413-.227,2.664,2.664,0,0,1-.437-.546l-.869-1.315a3.136,3.136,0,0,1-.425-.835Zm.917-.477a1.517,1.517,0,0,0,.213.393l1.22,1.838a1.67,1.67,0,0,0,.293.374.155.155,0,0,0,.177-.019.151.151,0,0,0,.08-.167,1.444,1.444,0,0,0-.2-.377l-1.233-1.872a1.772,1.772,0,0,0-.277-.358.15.15,0,0,0-.182.012.158.158,0,0,0-.082.177Zm21.16,4.237.843.768,2.435-2.675.5.456.609-.669L91.04,62.28l-.609.669.5.455ZM72.337,61.8a1.371,1.371,0,0,1-.111-.484.526.526,0,0,1,.147-.336.97.97,0,0,1,.4-.267,1.013,1.013,0,0,1,.511-.072.564.564,0,0,1,.334.16,1.35,1.35,0,0,1,.227.424l.267.729a1.416,1.416,0,0,1,.108.445.535.535,0,0,1-.134.333.908.908,0,0,1-.413.276,1.027,1.027,0,0,1-.535.084.578.578,0,0,1-.322-.156,1.149,1.149,0,0,1-.21-.38Zm.522-.641a.679.679,0,0,0,.059.214l.4,1.07a.779.779,0,0,0,.1.21c.02.02.056.02.1,0s.07-.041.071-.072a.722.722,0,0,0-.056-.2l-.4-1.081a.864.864,0,0,0-.095-.2c-.021-.023-.056-.024-.106,0s-.076.037-.078.07Zm.235,34.248a.568.568,0,0,1,.134.342,1.348,1.348,0,0,1-.115.467l-.284.726a1.387,1.387,0,0,1-.217.4.535.535,0,0,1-.317.163.887.887,0,0,1-.485-.07,1.011,1.011,0,0,1-.445-.29.564.564,0,0,1-.134-.33,1.178,1.178,0,0,1,.1-.424l.3-.758a1.356,1.356,0,0,1,.241-.435.535.535,0,0,1,.332-.152.964.964,0,0,1,.468.074.983.983,0,0,1,.428.29Zm-.48.164c0-.031-.024-.055-.074-.074a.088.088,0,0,0-.1.007.739.739,0,0,0-.1.2l-.415,1.061a.814.814,0,0,0-.067.223c0,.028.028.052.076.071s.078.016.1-.007a.715.715,0,0,0,.094-.19l.421-1.07a.832.832,0,0,0,.064-.215Zm5.039-6.757L78.238,90l.584-1.189,1.308-.189-.948-.923.227-1.3-1.165.615L77.073,86.4l.223,1.3-.946.923ZM90.493,68.1l.642.839,1.3-.994,2.8-1.093-.635-.832q-.975.465-1.6.831.345-.3,1.246-1.3l-.637-.832-1.8,2.387ZM86.46,64.58l.419-.8-.615-.321,1.673-3.21-1.01-.527-2.092,4Zm15.107,13.535A23.3,23.3,0,1,1,78.27,54.82a23.3,23.3,0,0,1,23.3,23.295Zm-1.325,0a21.972,21.972,0,1,0-6.436,15.538A21.972,21.972,0,0,0,100.242,78.115ZM81.856,62.669l1.971-4.106,1.563.518-.8,4.494-1.106-.366.2-.79-.388-.127-.32.749Zm1.677-1.138.373.123q.159-.757.431-1.856Q83.764,60.971,83.533,61.531Zm-7.908-2.088a3.513,3.513,0,0,1,0-.7,1.15,1.15,0,0,1,.185-.469,1.044,1.044,0,0,1,.4-.352,1.5,1.5,0,0,1,.567-.15,1.66,1.66,0,0,1,.689.086,1.046,1.046,0,0,1,.691.721,3.436,3.436,0,0,1,.092.655l.1,1.463a3.722,3.722,0,0,1,0,.82.614.614,0,0,1-.193.356,1.14,1.14,0,0,1-.413.225c.012.1.036.162.074.186a.508.508,0,0,0,.253.021l.4-.028.039.546-.859.06a1.323,1.323,0,0,1-.441-.017.3.3,0,0,1-.182-.134.936.936,0,0,1-.07-.348,1.169,1.169,0,0,1-.679-.16.928.928,0,0,1-.4-.476,3.469,3.469,0,0,1-.154-.905Zm1.113-.412.151,2.1a2.128,2.128,0,0,0,.066.483.158.158,0,0,0,.292-.035,2.2,2.2,0,0,0,0-.507L77.1,59a1.427,1.427,0,0,0-.063-.4.134.134,0,0,0-.146-.078.154.154,0,0,0-.134.08A1.047,1.047,0,0,0,76.738,59.031Zm2.9,3.3a1.66,1.66,0,0,0,.669.221,1.539,1.539,0,0,0,.626-.033,1.018,1.018,0,0,0,.46-.277.992.992,0,0,0,.243-.4,5.1,5.1,0,0,0,.124-.712l.381-2.994-1.13-.144-.421,3.3a1.748,1.748,0,0,1-.084.421.134.134,0,0,1-.15.072.123.123,0,0,1-.115-.1,1.379,1.379,0,0,1,.017-.38l.428-3.36-1.13-.144-.337,2.655q-.1.758-.1,1a.991.991,0,0,0,.118.472A1.041,1.041,0,0,0,79.636,62.334Zm8.058,3.105,2.564-3.721-.936-.646-2.564,3.719ZM65.531,87.433a1.946,1.946,0,0,1-1.281-.55l-.428.306.062.087a1.3,1.3,0,0,1,.237.425.237.237,0,0,1-.054.2,4.524,4.524,0,0,1-.5.385L61.6,89.7l.629.88L65.9,87.951Zm15.752,6.234-1.121.123.364,3.309a1.808,1.808,0,0,1,.016.429.134.134,0,0,1-.134.1.119.119,0,0,1-.134-.068,1.363,1.363,0,0,1-.072-.372l-.37-3.368-1.121.123L79,96.6q.084.761.134.994a.989.989,0,0,0,.222.432,1.036,1.036,0,0,0,.48.3,1.665,1.665,0,0,0,.7.059,1.512,1.512,0,0,0,.594-.179,1.061,1.061,0,0,0,.52-.821,5.586,5.586,0,0,0-.047-.72Zm-10.995.718a.557.557,0,0,1-.134-.328,1.168,1.168,0,0,1,.1-.427l.3-.756a1.369,1.369,0,0,1,.242-.437.518.518,0,0,1,.33-.151,1.141,1.141,0,0,1,.889.358.568.568,0,0,1,.134.341,1.337,1.337,0,0,1-.115.469l-.282.724a1.371,1.371,0,0,1-.218.4.535.535,0,0,1-.316.162.9.9,0,0,1-.487-.07A1.02,1.02,0,0,1,70.289,94.384Zm.488-.16c0,.028.028.052.079.072a.086.086,0,0,0,.1-.009.62.62,0,0,0,.095-.187l.421-1.078a.737.737,0,0,0,.064-.213c0-.029-.025-.055-.074-.074a.092.092,0,0,0-.1.008.637.637,0,0,0-.1.2L70.845,94A.8.8,0,0,0,70.777,94.224Zm-9.839-18.63v1.894h.152a.5.5,0,0,0,.4-.134.91.91,0,0,0,.11-.544V76.2a.653.653,0,0,0-.134-.5A.866.866,0,0,0,60.937,75.594Zm5.965.983v-.408a.6.6,0,0,0-.134-.464.8.8,0,0,0-.492-.111v1.654a.959.959,0,0,0,.488-.09C66.855,77.1,66.9,76.911,66.9,76.577ZM73.616,87.35l.408.828.4-.828.912-.134-.661-.643.158-.908-.816.429-.817-.429.156.908-.659.643Zm-3.594,5.188a4.064,4.064,0,0,1-.377.647L68.8,94.431a3.688,3.688,0,0,1-.463.59,1.055,1.055,0,0,1-.429.239.97.97,0,0,1-.5.015,1.527,1.527,0,0,1-.492-.225,1.918,1.918,0,0,1-.483-.439.888.888,0,0,1-.177-.471,1.281,1.281,0,0,1,.053-.468,2.757,2.757,0,0,1,.337-.613l.883-1.307a3.12,3.12,0,0,1,.607-.714.907.907,0,0,1,.618-.182,1.394,1.394,0,0,1,.72.261,1.489,1.489,0,0,1,.456.464,1,1,0,0,1,.092.954Zm-.916-.828a.155.155,0,0,0-.186-.011,1.56,1.56,0,0,0-.282.348l-1.226,1.827a1.7,1.7,0,0,0-.237.413.156.156,0,0,0,.086.155.151.151,0,0,0,.183.009,1.464,1.464,0,0,0,.267-.333l1.253-1.854a1.819,1.819,0,0,0,.225-.393A.148.148,0,0,0,69.106,91.71Zm.748,5.009.384.15,3.287-3.751-.378-.148Zm13.818-3.745L85.623,97.1l-1.1.341-.3-.757-.385.119.175.8L82.9,97.94l-.786-4.486Zm.288,2.952q-.309-.707-.725-1.761.218,1.291.354,1.872ZM66.925,91.256l-1.07,1.063a3.762,3.762,0,0,1-.567.491,1.043,1.043,0,0,1-.468.152.959.959,0,0,1-.495-.082,1.532,1.532,0,0,1-.44-.314,1.951,1.951,0,0,1-.389-.523.884.884,0,0,1-.083-.5,1.249,1.249,0,0,1,.142-.448A2.694,2.694,0,0,1,64,90.565l1.115-1.114a3.121,3.121,0,0,1,.733-.584.909.909,0,0,1,.641-.062,1.414,1.414,0,0,1,.658.395,1.511,1.511,0,0,1,.358.543.994.994,0,0,1-.092.952A3.862,3.862,0,0,1,66.925,91.256ZM66.679,89.7a.154.154,0,0,0-.181-.045,1.511,1.511,0,0,0-.342.288L64.6,91.5a1.657,1.657,0,0,0-.31.361.186.186,0,0,0,.231.213,1.454,1.454,0,0,0,.329-.276l1.585-1.581a1.81,1.81,0,0,0,.3-.341A.148.148,0,0,0,66.679,89.7ZM78.1,94.753a3.7,3.7,0,0,1-.013.662l-.127,1.462a3.854,3.854,0,0,1-.134.8.627.627,0,0,1-.245.321,1.1,1.1,0,0,1-.44.156c0,.1.011.166.044.2a.487.487,0,0,0,.243.062l.389.033-.047.544-.849-.074a1.307,1.307,0,0,1-.416-.074.29.29,0,0,1-.156-.16.945.945,0,0,1-.013-.353,1.166,1.166,0,0,1-.639-.267.92.92,0,0,1-.318-.535,3.511,3.511,0,0,1-.009-.917l.122-1.394a3.611,3.611,0,0,1,.112-.694,1.155,1.155,0,0,1,.254-.435A1.027,1.027,0,0,1,76.3,93.8a1.472,1.472,0,0,1,.579-.058,1.6,1.6,0,0,1,.659.191,1.059,1.059,0,0,1,.411.377A1.143,1.143,0,0,1,78.1,94.753Zm-1.109-.146a.134.134,0,0,0-.134-.1.151.151,0,0,0-.134.059,1.03,1.03,0,0,0-.084.415l-.182,2.1a2.12,2.12,0,0,0-.012.487.155.155,0,0,0,.289.012,2.274,2.274,0,0,0,.076-.5l.181-2.069A1.47,1.47,0,0,0,76.992,94.608Zm10.156.76-1.6-3.238-1.012.5,2.006,4.047,1.625-.8-.4-.81ZM74.431,68.887l-.4-.828-.413.828-.912.134.659.643-.156.908.817-.429.816.429-.158-.908.661-.643ZM86.452,91.623l2.48,3.776.936-.618L87.389,91Zm-7.63-24.2-.578-1.188-.584,1.188-1.309.189.946.923-.223,1.3,1.172-.617,1.172.617-.227-1.3.948-.923Zm4.1,1.415-.408-.828-.4.828-.912.134.658.643-.155.908.816-.429.816.429-.158-.908.661-.643Z" transform="translate(-47.618 -47.488)" fill="url(#linear-gradient-4)"/>
      </g>
    </g>
    <g id="_1000_POTES_VENDIDOS" data-name="+1000 POTES VENDIDOS" transform="translate(1204.502 558)">
      <g id="Grupo_217" data-name="Grupo 217" clip-path="url(#clip-path)">
        <path id="Caminho_696" data-name="Caminho 696" d="M0,19.252a15.85,15.85,0,0,1,1.581-2.93A3.72,3.72,0,0,0,1.8,13.886a8.391,8.391,0,0,1-.083-1.779A3.194,3.194,0,0,1,3.1,9.805c.478-.35.982-.669,1.491-.974A3.143,3.143,0,0,0,6.038,7.022c.126-.4.279-.794.412-1.194A3.669,3.669,0,0,1,9.982,3.2c.473-.035.946-.1,1.415-.17a2.6,2.6,0,0,0,1.448-.759q.622-.613,1.252-1.219a3.411,3.411,0,0,1,3.688-.83c.624.207,1.25.405,1.875.6a2.55,2.55,0,0,0,1.6-.055C21.881.57,22.5.355,23.132.166A3.237,3.237,0,0,1,26.409.9c.443.4.877.808,1.283,1.243a3.307,3.307,0,0,0,2.263.986,14.73,14.73,0,0,1,1.607.221,3.191,3.191,0,0,1,2.446,1.977c.264.616.488,1.25.711,1.882a2.844,2.844,0,0,0,1.216,1.511c.559.35,1.119.7,1.653,1.088A3.328,3.328,0,0,1,38.972,13.1c-.062.565-.12,1.131-.183,1.7a2.992,2.992,0,0,0,.573,1.974,16.665,16.665,0,0,1,.951,1.6,3.3,3.3,0,0,1,0,3.044,7.762,7.762,0,0,1-.786,1.326,3.8,3.8,0,0,0-.647,3.153,6.3,6.3,0,0,1,.09,1.777,3.164,3.164,0,0,1-1.352,2.279c-.541.4-1.114.755-1.684,1.113a2.812,2.812,0,0,0-1.214,1.511c-.149.436-.326.862-.464,1.3a3.677,3.677,0,0,1-3.591,2.707c-.461.032-.919.1-1.376.169a2.482,2.482,0,0,0-1.388.7c-.368.362-.746.715-1.1,1.085a3.584,3.584,0,0,1-4.158.935c-.381-.145-.773-.261-1.155-.4a3.184,3.184,0,0,0-2.317.014c-.516.2-1.045.355-1.573.518a3.3,3.3,0,0,1-3.407-.8c-.4-.368-.8-.739-1.164-1.138a3.309,3.309,0,0,0-2.331-1.017,11.168,11.168,0,0,1-1.684-.239,3.283,3.283,0,0,1-2.4-2.1q-.341-.84-.628-1.7a2.889,2.889,0,0,0-1.257-1.574c-.547-.346-1.1-.687-1.623-1.064A3.333,3.333,0,0,1,1.71,26.677c.062-.578.131-1.156.185-1.735a2.435,2.435,0,0,0-.317-1.487A16.648,16.648,0,0,1,0,20.523ZM3.319,27.1a1.645,1.645,0,0,0,.864,1.676c.539.358,1.088.7,1.628,1.056a4.171,4.171,0,0,1,1.6,2.015c.26.661.448,1.348.753,1.993a1.683,1.683,0,0,0,1.239,1,15.011,15.011,0,0,0,1.647.225,4.591,4.591,0,0,1,2.91,1.273,18.64,18.64,0,0,0,1.461,1.4,1.659,1.659,0,0,0,1.551.362,15.268,15.268,0,0,0,1.575-.511,4.748,4.748,0,0,1,3.549-.015c.453.174.926.3,1.383.464a1.731,1.731,0,0,0,1.9-.4c.491-.463.97-.939,1.461-1.4a3.992,3.992,0,0,1,1.93-1.027c.713-.153,1.438-.2,2.156-.3a1.884,1.884,0,0,0,1.691-1.281c.146-.408.312-.811.439-1.226a4.8,4.8,0,0,1,2.3-2.9c.413-.233.8-.507,1.2-.772a1.687,1.687,0,0,0,.811-1.651c-.046-.5-.071-1-.134-1.5a4.488,4.488,0,0,1,.583-3.121c.321-.5.618-1.014.928-1.519a1.883,1.883,0,0,0-.006-2.124c-.244-.392-.488-.784-.727-1.179a5.258,5.258,0,0,1-.75-1.687,6.959,6.959,0,0,1,.064-2.484,2.315,2.315,0,0,0-1.234-2.759,12.774,12.774,0,0,1-1.2-.763,4,4,0,0,1-1.6-2.007c-.227-.617-.471-1.228-.693-1.847a1.775,1.775,0,0,0-1.521-1.214c-.47-.071-.943-.127-1.416-.17a4.586,4.586,0,0,1-2.945-1.286,19.347,19.347,0,0,0-1.431-1.375A1.614,1.614,0,0,0,23.7,1.683c-.526.167-1.062.308-1.575.509A4.8,4.8,0,0,1,18.5,2.17c-.416-.163-.851-.276-1.272-.428a1.744,1.744,0,0,0-1.935.4c-.487.467-.969.94-1.461,1.4a3.976,3.976,0,0,1-1.9,1.009c-.725.16-1.464.2-2.2.3a1.865,1.865,0,0,0-1.662,1.26c-.143.4-.321.782-.435,1.186a4.876,4.876,0,0,1-2.43,3.036,9.53,9.53,0,0,0-1.224.8,1.642,1.642,0,0,0-.676,1.4,15.832,15.832,0,0,0,.142,1.659A4.474,4.474,0,0,1,2.9,17.259c-.3.48-.587.971-.9,1.448a2.021,2.021,0,0,0,.006,2.371q.482.748.932,1.518A4.014,4.014,0,0,1,3.5,24.707c-.006.771-.182,1.524-.184,2.4" transform="translate(0 0)" fill="#ff4289"/>
        <path id="Caminho_697" data-name="Caminho 697" d="M26.506,41.2a15.732,15.732,0,1,1,15.76-15.693A15.748,15.748,0,0,1,26.506,41.2m-.347-1.609A14.125,14.125,0,1,0,12.417,25.074,14.131,14.131,0,0,0,26.159,39.592" transform="translate(-6.191 -5.581)" fill="#ff4289"/>
        <path id="Caminho_698" data-name="Caminho 698" d="M45.008,32.031a3.481,3.481,0,0,1-.89,2.316Q40.359,38.81,36.6,43.273a3.445,3.445,0,0,1-5.235.212c-1.713-1.751-3.4-3.523-5.1-5.293a3.344,3.344,0,0,1-.844-3.508,3.458,3.458,0,0,1,5.7-1.442c.8.789,1.574,1.609,2.345,2.429.19.2.289.2.47-.013q2.429-2.91,4.879-5.8a3.478,3.478,0,0,1,6.129,1.505,4.98,4.98,0,0,1,.062.671m-1.612,0a1.839,1.839,0,0,0-1.576-1.844,1.956,1.956,0,0,0-1.888.834q-2.644,3.17-5.312,6.319c-.667.79-1,.8-1.73.044q-1.394-1.442-2.782-2.889a1.814,1.814,0,0,0-1.64-.6,1.781,1.781,0,0,0-1.509,1.24,1.827,1.827,0,0,0,.482,1.965q2.506,2.6,5.01,5.207a1.855,1.855,0,0,0,2.906-.06q3.809-4.5,7.593-9.015a1.811,1.811,0,0,0,.445-1.2" transform="translate(-14.467 -16.355)" fill="#ff4289"/>
        <path id="Caminho_699" data-name="Caminho 699" d="M130.09,28.391h-5.727V25.15h5.727V19.379h3.24V25.15h5.727v3.24h-5.727v5.7h-3.24Z" transform="translate(-71.282 -11.108)" fill="#ff4289"/>
        <path id="Caminho_700" data-name="Caminho 700" d="M195.206,32.658h-4.572V20.139l.044-2.057.074-2.249q-1.14,1.139-1.584,1.494l-2.486,2-2.2-2.752,6.969-5.549h3.759Z" transform="translate(-105.738 -6.319)" fill="#ff4289"/>
        <path id="Caminho_701" data-name="Caminho 701" d="M224.866,53.373a2.481,2.481,0,0,1,.666-1.879,2.7,2.7,0,0,1,1.939-.636,2.623,2.623,0,0,1,1.9.651,2.876,2.876,0,0,1-.007,3.707,2.576,2.576,0,0,1-1.894.674,2.655,2.655,0,0,1-1.924-.659,2.464,2.464,0,0,1-.68-1.857" transform="translate(-128.888 -29.15)" fill="#ff4289"/>
        <path id="Caminho_702" data-name="Caminho 702" d="M258.744,21.384q0,5.667-1.857,8.39a6.445,6.445,0,0,1-5.719,2.723,6.369,6.369,0,0,1-5.645-2.811q-1.9-2.811-1.9-8.3,0-5.726,1.849-8.442a7.193,7.193,0,0,1,11.357.126q1.916,2.841,1.916,8.316m-10.58,0a16.845,16.845,0,0,0,.688,5.7,2.408,2.408,0,0,0,4.624-.022,16.361,16.361,0,0,0,.71-5.682,16.317,16.317,0,0,0-.717-5.719,2.4,2.4,0,0,0-4.609,0,16.8,16.8,0,0,0-.7,5.719" transform="translate(-139.638 -5.862)" fill="#ff4289"/>
        <path id="Caminho_703" data-name="Caminho 703" d="M299.271,21.384q0,5.667-1.857,8.39a6.445,6.445,0,0,1-5.719,2.723,6.369,6.369,0,0,1-5.645-2.811q-1.9-2.811-1.9-8.3,0-5.726,1.849-8.442a7.193,7.193,0,0,1,11.357.126q1.916,2.841,1.916,8.316m-10.58,0a16.843,16.843,0,0,0,.688,5.7A2.408,2.408,0,0,0,294,27.066a16.361,16.361,0,0,0,.71-5.682A16.317,16.317,0,0,0,294,15.665a2.4,2.4,0,0,0-4.609,0,16.8,16.8,0,0,0-.7,5.719" transform="translate(-162.867 -5.862)" fill="#ff4289"/>
        <path id="Caminho_704" data-name="Caminho 704" d="M339.8,21.384q0,5.667-1.857,8.39a6.445,6.445,0,0,1-5.719,2.723,6.369,6.369,0,0,1-5.645-2.811q-1.9-2.811-1.9-8.3,0-5.726,1.849-8.442a7.193,7.193,0,0,1,11.357.126q1.916,2.841,1.916,8.316m-10.58,0a16.843,16.843,0,0,0,.688,5.7,2.408,2.408,0,0,0,4.624-.022,16.361,16.361,0,0,0,.71-5.682,16.319,16.319,0,0,0-.717-5.719,2.4,2.4,0,0,0-4.609,0,16.8,16.8,0,0,0-.7,5.719" transform="translate(-186.096 -5.862)" fill="#ff4289"/>
        <path id="Caminho_705" data-name="Caminho 705" d="M380.326,21.384q0,5.667-1.857,8.39A6.445,6.445,0,0,1,372.75,32.5a6.369,6.369,0,0,1-5.645-2.811q-1.9-2.811-1.9-8.3,0-5.726,1.849-8.442a7.193,7.193,0,0,1,11.357.126q1.916,2.841,1.916,8.316m-10.58,0a16.845,16.845,0,0,0,.688,5.7,2.408,2.408,0,0,0,4.624-.022,16.36,16.36,0,0,0,.71-5.682,16.316,16.316,0,0,0-.717-5.719,2.4,2.4,0,0,0-4.609,0,16.8,16.8,0,0,0-.7,5.719" transform="translate(-209.326 -5.862)" fill="#ff4289"/>
        <path id="Caminho_706" data-name="Caminho 706" d="M126.248,77.853h-.041a1.788,1.788,0,0,1-1.578.766,1.865,1.865,0,0,1-1.534-.674,2.966,2.966,0,0,1-.548-1.916A3.016,3.016,0,0,1,123.1,74.1a1.851,1.851,0,0,1,1.531-.688,1.827,1.827,0,0,1,1.568.743h.06l-.032-.362-.018-.353V71.393h.761v7.134h-.619Zm-1.522.128a1.385,1.385,0,0,0,1.13-.424,2.142,2.142,0,0,0,.351-1.368v-.16a2.522,2.522,0,0,0-.356-1.525,1.35,1.35,0,0,0-1.134-.456,1.165,1.165,0,0,0-1.025.52,2.585,2.585,0,0,0-.356,1.47,2.484,2.484,0,0,0,.353,1.454,1.2,1.2,0,0,0,1.036.49" transform="translate(-70.242 -40.921)" fill="#ff4289"/>
        <path id="Caminho_707" data-name="Caminho 707" d="M138.432,81.33a2.308,2.308,0,0,1-1.758-.679,2.625,2.625,0,0,1-.644-1.884,2.915,2.915,0,0,1,.6-1.93,1.987,1.987,0,0,1,1.607-.715,1.9,1.9,0,0,1,1.495.621,2.381,2.381,0,0,1,.55,1.639v.481h-3.462a1.991,1.991,0,0,0,.447,1.343,1.546,1.546,0,0,0,1.194.458,4.043,4.043,0,0,0,1.6-.339V81a4.01,4.01,0,0,1-.764.25,4.3,4.3,0,0,1-.869.076m-.206-4.571a1.243,1.243,0,0,0-.965.394,1.815,1.815,0,0,0-.424,1.091h2.627a1.674,1.674,0,0,0-.321-1.1,1.129,1.129,0,0,0-.917-.383" transform="translate(-77.969 -43.631)" fill="#ff4289"/>
        <path id="Caminho_708" data-name="Caminho 708" d="M157.081,81.329a2.173,2.173,0,0,1-.9-.181,1.688,1.688,0,0,1-.681-.557h-.055a6.727,6.727,0,0,1,.055.834v2.068h-.761V76.212h.619l.106.688h.036a1.77,1.77,0,0,1,.683-.6,2.079,2.079,0,0,1,.894-.184,1.858,1.858,0,0,1,1.543.683,3.638,3.638,0,0,1-.009,3.84,1.861,1.861,0,0,1-1.534.685m-.11-4.562a1.347,1.347,0,0,0-1.114.426,2.193,2.193,0,0,0-.354,1.357v.169a2.509,2.509,0,0,0,.354,1.515,1.34,1.34,0,0,0,1.132.456,1.177,1.177,0,0,0,1.02-.527,2.5,2.5,0,0,0,.369-1.453,2.409,2.409,0,0,0-.369-1.442,1.214,1.214,0,0,0-1.038-.5" transform="translate(-88.695 -43.63)" fill="#ff4289"/>
        <path id="Caminho_709" data-name="Caminho 709" d="M172.186,78.72a2.774,2.774,0,0,1-.619,1.919,2.18,2.18,0,0,1-1.71.69,2.265,2.265,0,0,1-1.2-.316,2.089,2.089,0,0,1-.807-.908,3.164,3.164,0,0,1-.284-1.385,2.768,2.768,0,0,1,.615-1.914,2.173,2.173,0,0,1,1.706-.685,2.126,2.126,0,0,1,1.676.7,2.76,2.76,0,0,1,.621,1.9m-3.829,0a2.388,2.388,0,0,0,.385,1.467,1.529,1.529,0,0,0,2.267,0,2.373,2.373,0,0,0,.388-1.47,2.336,2.336,0,0,0-.388-1.456,1.362,1.362,0,0,0-1.144-.5,1.339,1.339,0,0,0-1.128.49,2.36,2.36,0,0,0-.381,1.463" transform="translate(-96.047 -43.63)" fill="#ff4289"/>
        <path id="Caminho_710" data-name="Caminho 710" d="M182.243,79.26a2.711,2.711,0,0,0,.688-.092v.582a1.376,1.376,0,0,1-.365.1,2.733,2.733,0,0,1-.433.039q-1.458,0-1.458-1.536V75.363h-.72V75l.72-.316L181,73.607h.44v1.164h1.458v.592h-1.458V78.32a1.017,1.017,0,0,0,.216.7.75.75,0,0,0,.592.243" transform="translate(-103.146 -42.19)" fill="#ff4289"/>
        <path id="Caminho_711" data-name="Caminho 711" d="M191.026,81.33a2.308,2.308,0,0,1-1.758-.679,2.625,2.625,0,0,1-.645-1.884,2.915,2.915,0,0,1,.6-1.93,1.987,1.987,0,0,1,1.607-.715,1.9,1.9,0,0,1,1.495.621,2.381,2.381,0,0,1,.55,1.639v.481h-3.462a1.991,1.991,0,0,0,.447,1.343,1.546,1.546,0,0,0,1.194.458,4.043,4.043,0,0,0,1.6-.339V81a4.009,4.009,0,0,1-.764.25,4.3,4.3,0,0,1-.869.076m-.206-4.571a1.243,1.243,0,0,0-.965.394,1.815,1.815,0,0,0-.424,1.091h2.627a1.674,1.674,0,0,0-.321-1.1,1.129,1.129,0,0,0-.917-.383" transform="translate(-108.114 -43.631)" fill="#ff4289"/>
        <path id="Caminho_712" data-name="Caminho 712" d="M204.433,79.867a1.258,1.258,0,0,1-.523,1.082,2.455,2.455,0,0,1-1.467.381,3.189,3.189,0,0,1-1.559-.316v-.706a3.747,3.747,0,0,0,.777.289,3.24,3.24,0,0,0,.8.105,1.811,1.811,0,0,0,.917-.19.655.655,0,0,0,.067-1.082,4.021,4.021,0,0,0-.993-.493,5.373,5.373,0,0,1-1-.456,1.365,1.365,0,0,1-.44-.442,1.157,1.157,0,0,1-.144-.592,1.127,1.127,0,0,1,.5-.97,2.328,2.328,0,0,1,1.371-.355,4.009,4.009,0,0,1,1.587.33l-.271.619a3.642,3.642,0,0,0-1.371-.312,1.582,1.582,0,0,0-.816.169.525.525,0,0,0-.275.468.57.57,0,0,0,.1.344,1.015,1.015,0,0,0,.332.27,7.38,7.38,0,0,0,.881.372,3.286,3.286,0,0,1,1.208.656,1.157,1.157,0,0,1,.314.83" transform="translate(-115.134 -43.631)" fill="#ff4289"/>
        <path id="Caminho_713" data-name="Caminho 713" d="M217.847,81.361l-1.907-5.025h.816l1.082,2.98a14.027,14.027,0,0,1,.431,1.357h.037a10.33,10.33,0,0,1,.318-1.006q.269-.764,1.2-3.331h.816l-1.907,5.025Z" transform="translate(-123.772 -43.754)" fill="#ff4289"/>
        <path id="Caminho_714" data-name="Caminho 714" d="M230.6,81.33a2.31,2.31,0,0,1-1.759-.679,2.626,2.626,0,0,1-.644-1.884,2.915,2.915,0,0,1,.6-1.93,1.987,1.987,0,0,1,1.607-.715,1.9,1.9,0,0,1,1.495.621,2.381,2.381,0,0,1,.55,1.639v.481h-3.462a1.99,1.99,0,0,0,.447,1.343,1.546,1.546,0,0,0,1.194.458,4.043,4.043,0,0,0,1.6-.339V81a4.006,4.006,0,0,1-.763.25,4.3,4.3,0,0,1-.869.076m-.206-4.571a1.244,1.244,0,0,0-.965.394A1.822,1.822,0,0,0,229,78.244h2.627a1.674,1.674,0,0,0-.321-1.1,1.129,1.129,0,0,0-.917-.383" transform="translate(-130.797 -43.631)" fill="#ff4289"/>
        <path id="Caminho_715" data-name="Caminho 715" d="M244.634,81.238V77.987a1.314,1.314,0,0,0-.28-.917,1.141,1.141,0,0,0-.876-.3,1.445,1.445,0,0,0-1.155.426,2.153,2.153,0,0,0-.367,1.408v2.636H241.2V76.213h.619l.124.688h.037a1.551,1.551,0,0,1,.656-.575,2.127,2.127,0,0,1,.94-.2,1.908,1.908,0,0,1,1.366.438,1.863,1.863,0,0,1,.458,1.4v3.278Z" transform="translate(-138.247 -43.631)" fill="#ff4289"/>
        <path id="Caminho_716" data-name="Caminho 716" d="M257.743,77.853H257.7a1.788,1.788,0,0,1-1.578.766,1.864,1.864,0,0,1-1.533-.674,2.963,2.963,0,0,1-.548-1.916,3.017,3.017,0,0,1,.551-1.931,1.851,1.851,0,0,1,1.531-.688,1.827,1.827,0,0,1,1.568.743h.06l-.032-.362-.018-.353V71.393h.761v7.134h-.619Zm-1.522.128a1.385,1.385,0,0,0,1.13-.424,2.145,2.145,0,0,0,.351-1.368v-.16a2.522,2.522,0,0,0-.356-1.525,1.35,1.35,0,0,0-1.135-.456,1.166,1.166,0,0,0-1.025.52,2.585,2.585,0,0,0-.356,1.47,2.484,2.484,0,0,0,.353,1.454,1.2,1.2,0,0,0,1.036.49" transform="translate(-145.611 -40.921)" fill="#ff4289"/>
        <path id="Caminho_717" data-name="Caminho 717" d="M268.029,72.468a.507.507,0,0,1,.128-.383.475.475,0,0,1,.637,0,.5.5,0,0,1,.133.381.5.5,0,0,1-.133.383.444.444,0,0,1-.316.126.439.439,0,0,1-.321-.126.516.516,0,0,1-.128-.383m.825,6.387h-.761V73.829h.761Z" transform="translate(-153.628 -41.247)" fill="#ff4289"/>
        <path id="Caminho_718" data-name="Caminho 718" d="M276.788,77.853h-.041a1.788,1.788,0,0,1-1.578.766,1.864,1.864,0,0,1-1.533-.674,2.963,2.963,0,0,1-.548-1.916,3.016,3.016,0,0,1,.551-1.931,1.851,1.851,0,0,1,1.531-.688,1.827,1.827,0,0,1,1.568.743h.06l-.032-.362-.018-.353V71.393h.761v7.134h-.619Zm-1.522.128a1.385,1.385,0,0,0,1.13-.424,2.145,2.145,0,0,0,.351-1.368v-.16a2.522,2.522,0,0,0-.356-1.525,1.35,1.35,0,0,0-1.134-.456,1.165,1.165,0,0,0-1.025.52,2.585,2.585,0,0,0-.356,1.47,2.484,2.484,0,0,0,.353,1.454,1.2,1.2,0,0,0,1.036.49" transform="translate(-156.528 -40.921)" fill="#ff4289"/>
        <path id="Caminho_719" data-name="Caminho 719" d="M291.187,78.72a2.774,2.774,0,0,1-.619,1.919,2.18,2.18,0,0,1-1.71.69,2.265,2.265,0,0,1-1.2-.316,2.092,2.092,0,0,1-.807-.908,3.164,3.164,0,0,1-.284-1.385,2.768,2.768,0,0,1,.615-1.914,2.174,2.174,0,0,1,1.706-.685,2.127,2.127,0,0,1,1.676.7,2.762,2.762,0,0,1,.621,1.9m-3.829,0a2.388,2.388,0,0,0,.385,1.467,1.529,1.529,0,0,0,2.267,0,2.373,2.373,0,0,0,.388-1.47,2.336,2.336,0,0,0-.388-1.456,1.362,1.362,0,0,0-1.144-.5,1.339,1.339,0,0,0-1.128.49,2.36,2.36,0,0,0-.381,1.463" transform="translate(-164.255 -43.63)" fill="#ff4289"/>
        <path id="Caminho_720" data-name="Caminho 720" d="M303.324,79.867a1.258,1.258,0,0,1-.523,1.082,2.454,2.454,0,0,1-1.467.381,3.19,3.19,0,0,1-1.559-.316v-.706a3.75,3.75,0,0,0,.777.289,3.233,3.233,0,0,0,.8.105,1.81,1.81,0,0,0,.917-.19.655.655,0,0,0,.067-1.082,4,4,0,0,0-.993-.493,5.389,5.389,0,0,1-1-.456,1.372,1.372,0,0,1-.44-.442,1.161,1.161,0,0,1-.144-.592,1.128,1.128,0,0,1,.5-.97,2.329,2.329,0,0,1,1.371-.355,4.008,4.008,0,0,1,1.586.33l-.271.619a3.641,3.641,0,0,0-1.371-.312,1.583,1.583,0,0,0-.816.169.524.524,0,0,0-.275.468.568.568,0,0,0,.1.344,1.008,1.008,0,0,0,.332.27,7.412,7.412,0,0,0,.88.372,3.292,3.292,0,0,1,1.208.656,1.157,1.157,0,0,1,.314.83" transform="translate(-171.816 -43.631)" fill="#ff4289"/>
        <path id="Caminho_721" data-name="Caminho 721" d="M319.062,81.329a2.171,2.171,0,0,1-.9-.181,1.685,1.685,0,0,1-.681-.557h-.055a6.727,6.727,0,0,1,.055.834v2.068h-.761V76.212h.619l.106.688h.036a1.773,1.773,0,0,1,.683-.6,2.079,2.079,0,0,1,.894-.184,1.858,1.858,0,0,1,1.543.683,3.639,3.639,0,0,1-.009,3.84,1.862,1.862,0,0,1-1.534.685m-.11-4.562a1.348,1.348,0,0,0-1.114.426,2.2,2.2,0,0,0-.353,1.357v.169a2.512,2.512,0,0,0,.353,1.515,1.341,1.341,0,0,0,1.132.456,1.178,1.178,0,0,0,1.021-.527,2.5,2.5,0,0,0,.369-1.453,2.409,2.409,0,0,0-.369-1.442,1.215,1.215,0,0,0-1.039-.5" transform="translate(-181.538 -43.63)" fill="#ff4289"/>
        <path id="Caminho_722" data-name="Caminho 722" d="M334.167,78.72a2.775,2.775,0,0,1-.619,1.919,2.18,2.18,0,0,1-1.71.69,2.265,2.265,0,0,1-1.2-.316,2.091,2.091,0,0,1-.807-.908,3.163,3.163,0,0,1-.284-1.385,2.768,2.768,0,0,1,.615-1.914,2.174,2.174,0,0,1,1.706-.685,2.127,2.127,0,0,1,1.676.7,2.762,2.762,0,0,1,.621,1.9m-3.829,0a2.388,2.388,0,0,0,.385,1.467,1.529,1.529,0,0,0,2.267,0,2.374,2.374,0,0,0,.388-1.47,2.336,2.336,0,0,0-.388-1.456,1.362,1.362,0,0,0-1.144-.5,1.339,1.339,0,0,0-1.128.49,2.36,2.36,0,0,0-.381,1.463" transform="translate(-188.89 -43.63)" fill="#ff4289"/>
        <path id="Caminho_723" data-name="Caminho 723" d="M345.785,76.121a2.978,2.978,0,0,1,.6.055l-.105.706a2.6,2.6,0,0,0-.55-.069,1.339,1.339,0,0,0-1.043.5,1.8,1.8,0,0,0-.434,1.234v2.7h-.761V76.213h.628l.087.931h.037a2.205,2.205,0,0,1,.674-.757,1.519,1.519,0,0,1,.866-.266" transform="translate(-196.882 -43.631)" fill="#ff4289"/>
        <path id="Caminho_724" data-name="Caminho 724" d="M360.773,81.25l-.151-.715h-.037a2.117,2.117,0,0,1-.749.64,2.286,2.286,0,0,1-.933.167,1.679,1.679,0,0,1-1.172-.385,1.4,1.4,0,0,1-.424-1.1q0-1.522,2.435-1.6l.852-.028v-.312a1.274,1.274,0,0,0-.254-.874,1.046,1.046,0,0,0-.814-.282,3.318,3.318,0,0,0-1.422.385l-.233-.582a3.577,3.577,0,0,1,.814-.316,3.528,3.528,0,0,1,.887-.115,1.918,1.918,0,0,1,1.332.4,1.668,1.668,0,0,1,.433,1.279v3.43Zm-1.719-.537a1.546,1.546,0,0,0,1.117-.39,1.442,1.442,0,0,0,.405-1.091v-.454l-.761.032a2.772,2.772,0,0,0-1.309.282.851.851,0,0,0-.4.777.783.783,0,0,0,.251.628,1.034,1.034,0,0,0,.7.216" transform="translate(-204.8 -43.643)" fill="#ff4289"/>
        <path id="Caminho_725" data-name="Caminho 725" d="M373.863,81.238V77.987a1.314,1.314,0,0,0-.28-.917,1.141,1.141,0,0,0-.876-.3,1.445,1.445,0,0,0-1.155.426,2.153,2.153,0,0,0-.367,1.408v2.636h-.761V76.213h.619l.124.688h.037a1.551,1.551,0,0,1,.656-.575,2.127,2.127,0,0,1,.94-.2,1.908,1.908,0,0,1,1.366.438,1.863,1.863,0,0,1,.458,1.4v3.278Z" transform="translate(-212.318 -43.631)" fill="#ff4289"/>
        <path id="Caminho_726" data-name="Caminho 726" d="M387.888,78.72a2.774,2.774,0,0,1-.619,1.919,2.18,2.18,0,0,1-1.71.69,2.266,2.266,0,0,1-1.2-.316,2.091,2.091,0,0,1-.807-.908,3.164,3.164,0,0,1-.284-1.385,2.768,2.768,0,0,1,.615-1.914,2.174,2.174,0,0,1,1.706-.685,2.127,2.127,0,0,1,1.676.7,2.762,2.762,0,0,1,.621,1.9m-3.829,0a2.388,2.388,0,0,0,.385,1.467,1.529,1.529,0,0,0,2.267,0,2.373,2.373,0,0,0,.388-1.47,2.336,2.336,0,0,0-.388-1.456,1.362,1.362,0,0,0-1.144-.5,1.339,1.339,0,0,0-1.128.49,2.361,2.361,0,0,0-.381,1.463" transform="translate(-219.682 -43.63)" fill="#ff4289"/>
      </g>
    </g>
  </g>
</svg>
