<svg xmlns="http://www.w3.org/2000/svg" xmlns:xlink="http://www.w3.org/1999/xlink" width="40" height="40" viewBox="0 0 40 40">
  <defs>
    <clipPath id="clip-path">
      <rect id="Retângulo_378" data-name="Retângulo 378" width="40" height="40" transform="translate(-0.424 -0.205)" fill="#fff"/>
    </clipPath>
  </defs>
  <g id="Ativos-Poderosos" transform="translate(0.424 0.205)" clip-path="url(#clip-path)">
    <g id="Ativos-Poderosos-2" data-name="Ativos-Poderosos" transform="translate(0.65 1.073)">
      <path id="Caminho_1128" data-name="Caminho 1128" d="M20.522,32.9a.769.769,0,0,0-.486.177,9.145,9.145,0,0,1-6.7,2.248A11.836,11.836,0,0,1,1.516,23.5c0-8.254,11.312-21.028,11.794-21.568l.027-.032.027.032a54.277,54.277,0,0,1,7.588,11,.753.753,0,0,0,.671.405.741.741,0,0,0,.349-.086.759.759,0,0,0,.322-1.022A55.585,55.585,0,0,0,14.5.931L13.909.258A.762.762,0,0,0,13.363,0h-.049a.7.7,0,0,0-.538.255l-.6.668C11.683,1.481,0,14.682,0,23.5A13.352,13.352,0,0,0,13.336,36.835a10.614,10.614,0,0,0,7.672-2.6.758.758,0,0,0-.486-1.339Z" fill="#fff"/>
      <path id="Caminho_1129" data-name="Caminho 1129" d="M52.934,34.918a2.631,2.631,0,0,0-1.865-.8h-.037a2.67,2.67,0,0,0-2.325,1.39l-1.7-.385v-.077a3.749,3.749,0,0,0-3.693-3.8h-.051a3.444,3.444,0,0,0-.459.03l-.5-1.6a2.648,2.648,0,0,0-1.452-4.839h-.037a2.651,2.651,0,0,0-1.9,4.5,2.631,2.631,0,0,0,1.865.8h.037c.044,0,.088,0,.135,0l.492,1.585a3.763,3.763,0,0,0-1.928,3.213,3.705,3.705,0,0,0,.782,2.336l-.587.636a3.7,3.7,0,0,0-2.039-.638h-.051a3.733,3.733,0,0,0-3.529,2.506l-1.06-.225a3.747,3.747,0,0,0-3.7-3.782h-.051a3.845,3.845,0,0,0-.432.026l-.543-1.64A2.651,2.651,0,0,0,26.88,29.3h-.035a2.651,2.651,0,0,0-.035,5.3h.142l.541,1.633A3.73,3.73,0,0,0,26.3,41.762l-1.151,1.288a2.674,2.674,0,0,0-1.172-.29h-.037a2.651,2.651,0,0,0-.032,5.3h.035A2.65,2.65,0,0,0,26.2,44.019l1.162-1.3a3.7,3.7,0,0,0,1.877.538h.051a3.786,3.786,0,0,0,3.454-2.308l1.139.244a3.745,3.745,0,0,0,3.691,3.568h.051a3.523,3.523,0,0,0,.49-.035l.241.78a2.648,2.648,0,0,0,1.434,4.853h.035a2.651,2.651,0,0,0,1.9-4.5,2.631,2.631,0,0,0-1.865-.8h-.146l-.246-.793a3.735,3.735,0,0,0,1.255-5.348l.647-.7a3.708,3.708,0,0,0,1.842.515h.051a3.746,3.746,0,0,0,3.417-2.223l1.7.385A2.651,2.651,0,0,0,51,39.412h.037a2.651,2.651,0,0,0,1.9-4.5Zm-1.9,3.069h-.023a1.224,1.224,0,0,1-1.2-1.239,1.238,1.238,0,0,1,1.241-1.2,1.22,1.22,0,0,1-.014,2.441Zm-27.09,8.647h-.023a1.224,1.224,0,0,1-1.2-1.239,1.238,1.238,0,0,1,1.241-1.2,1.22,1.22,0,0,1-.014,2.441Zm4.12-14.667a1.226,1.226,0,0,1-1.218,1.2h-.021a1.224,1.224,0,0,1-1.2-1.239,1.238,1.238,0,0,1,1.241-1.2,1.224,1.224,0,0,1,1.2,1.239Zm1.223,9.862h-.035a2.314,2.314,0,0,1,.032-4.628h.035A2.313,2.313,0,0,1,31.6,39.549a2.323,2.323,0,0,1-2.313,2.281Zm8.336,1.5h-.037a2.314,2.314,0,0,1,.032-4.628h.035a2.313,2.313,0,0,1,2.281,2.348A2.323,2.323,0,0,1,37.626,43.333Zm2.2,5.6H39.8a1.224,1.224,0,0,1-1.2-1.239,1.238,1.238,0,0,1,1.241-1.2,1.22,1.22,0,0,1-.014,2.441Zm2.213-21.42a1.226,1.226,0,0,1-1.218,1.2H40.8a1.224,1.224,0,0,1-1.2-1.239,1.238,1.238,0,0,1,1.241-1.2,1.224,1.224,0,0,1,1.2,1.239Zm1.225,9.8h-.037a2.314,2.314,0,0,1,.032-4.628H43.3a2.314,2.314,0,0,1-.03,4.628Z" transform="translate(-16.065 -17.987)" fill="#fff"/>
    </g>
  </g>
</svg>
