<svg xmlns="http://www.w3.org/2000/svg" xmlns:xlink="http://www.w3.org/1999/xlink" width="80" height="80" viewBox="0 0 80 80">
  <defs>
    <clipPath id="clip-path">
      <rect id="Retângulo_378" data-name="Retângulo 378" width="80" height="80" transform="translate(3029 2086)" fill="#13509f"/>
    </clipPath>
  </defs>
  <g id="Ativos-Poderosos-Masculino" transform="translate(-3029 -2086)" clip-path="url(#clip-path)">
    <g id="Ativos-Poderosos" transform="translate(3030.959 2088.599)">
      <path id="Caminho_1128" data-name="Caminho 1128" d="M41.5,66.534a1.555,1.555,0,0,0-.984.358c-4,3.358-7.547,4.546-13.543,4.546A23.938,23.938,0,0,1,3.065,47.526C3.06,30.832,25.944,5,26.918,3.9l.055-.065.055.065A109.774,109.774,0,0,1,42.374,26.148a1.523,1.523,0,0,0,1.356.82,1.5,1.5,0,0,0,.705-.174,1.536,1.536,0,0,0,.651-2.067A112.419,112.419,0,0,0,29.327,1.883L28.13.522A1.542,1.542,0,0,0,27.027,0h-.1a1.422,1.422,0,0,0-1.088.517L24.632,1.868C23.629,3,0,29.695,0,47.526A27,27,0,0,0,26.972,74.5c6.737,0,10.94-1.426,15.516-5.261a1.533,1.533,0,0,0-.984-2.708Z" fill="#13509f"/>
      <path id="Caminho_1129" data-name="Caminho 1129" d="M85.289,45.222A5.321,5.321,0,0,0,81.517,43.6h-.075a5.4,5.4,0,0,0-4.7,2.811L73.3,45.631v-.155a7.583,7.583,0,0,0-7.47-7.681h-.1a6.965,6.965,0,0,0-.929.061l-1-3.228a5.356,5.356,0,0,0-2.937-9.788h-.075a5.362,5.362,0,0,0-3.847,9.1,5.321,5.321,0,0,0,3.772,1.623h.075c.089,0,.178,0,.272,0l.995,3.2a7.611,7.611,0,0,0-3.9,6.5,7.494,7.494,0,0,0,1.581,4.725L58.544,51.27a7.484,7.484,0,0,0-4.124-1.29h-.1a7.551,7.551,0,0,0-7.137,5.067l-2.144-.455a7.577,7.577,0,0,0-7.474-7.648h-.1a7.777,7.777,0,0,0-.873.052l-1.1-3.317a5.361,5.361,0,0,0-2.89-9.825h-.07a5.361,5.361,0,0,0-.07,10.721h.286l1.093,3.3A7.544,7.544,0,0,0,31.42,59.064l-2.327,2.6a5.408,5.408,0,0,0-2.369-.587h-.075A5.361,5.361,0,0,0,26.582,71.8h.07a5.36,5.36,0,0,0,4.565-8.174L33.569,61a7.491,7.491,0,0,0,3.8,1.089h.1a7.657,7.657,0,0,0,6.986-4.669l2.3.493a7.575,7.575,0,0,0,7.465,7.216h.1a7.125,7.125,0,0,0,.99-.07l.488,1.577a5.355,5.355,0,0,0,2.9,9.816h.07a5.362,5.362,0,0,0,3.847-9.1,5.321,5.321,0,0,0-3.772-1.623h-.3l-.5-1.6a7.554,7.554,0,0,0,2.538-10.815L61.9,51.89a7.5,7.5,0,0,0,3.725,1.042h.1a7.577,7.577,0,0,0,6.911-4.5l3.444.779a5.361,5.361,0,0,0,5.283,5.1h.075a5.362,5.362,0,0,0,3.843-9.1ZM81.456,51.43h-.047a2.475,2.475,0,0,1-2.435-2.506,2.5,2.5,0,0,1,2.51-2.435,2.468,2.468,0,0,1-.028,4.936ZM26.666,68.917H26.62a2.475,2.475,0,0,1-2.435-2.506,2.5,2.5,0,0,1,2.51-2.435,2.468,2.468,0,0,1-.028,4.936ZM35,39.254a2.479,2.479,0,0,1-2.463,2.435h-.042a2.475,2.475,0,0,1-2.435-2.506,2.5,2.5,0,0,1,2.51-2.435A2.475,2.475,0,0,1,35,39.254ZM37.472,59.2H37.4a4.681,4.681,0,0,1,.066-9.361h.07a4.678,4.678,0,0,1,4.612,4.748A4.7,4.7,0,0,1,37.472,59.2Zm16.859,3.04h-.075a4.681,4.681,0,0,1,.066-9.361h.07A4.678,4.678,0,0,1,59,57.628,4.7,4.7,0,0,1,54.331,62.24Zm4.453,11.322h-.047A2.475,2.475,0,0,1,56.3,71.057a2.5,2.5,0,0,1,2.51-2.435,2.468,2.468,0,0,1-.028,4.936ZM63.26,30.241A2.479,2.479,0,0,1,60.8,32.676h-.042a2.475,2.475,0,0,1-2.435-2.506,2.5,2.5,0,0,1,2.51-2.435,2.475,2.475,0,0,1,2.43,2.506Zm2.477,19.815h-.075a4.681,4.681,0,0,1,.066-9.361h.07a4.681,4.681,0,0,1-.061,9.361Z" transform="translate(-10.724 -10.981)" fill="#13509f"/>
    </g>
  </g>
</svg>
