<svg xmlns="http://www.w3.org/2000/svg" xmlns:xlink="http://www.w3.org/1999/xlink" width="80" height="80" viewBox="0 0 80 80">
  <defs>
    <clipPath id="clip-path">
      <rect id="Retângulo_573" data-name="Retângulo 573" width="80" height="80" transform="translate(482 326.734)" fill="#13509f"/>
    </clipPath>
  </defs>
  <g id="Barba-Mais-Volumosa-Masculino" transform="translate(-482 -326.734)" clip-path="url(#clip-path)">
    <g id="Icone-Barba-Mais-Volumosa" transform="translate(486 332.955)">
      <path id="Caminho_1206" data-name="Caminho 1206" d="M10.177,38.019a7.238,7.238,0,0,0,1.731-.388c.141-.043.285-.088.431-.131a13.07,13.07,0,0,0,6.625,3.7,32.594,32.594,0,0,0,7.619.9,39.282,39.282,0,0,0,12.813-2.277,2,2,0,0,1,.655-.124,1.8,1.8,0,0,1,.613.118,5.984,5.984,0,0,0,2.009.366,4.87,4.87,0,0,0,4.789-4.28,10.37,10.37,0,0,0-.424-5.357,14.23,14.23,0,0,0-3.481-5.156c-2.262-2.393-5.068-4.978-8.823-6.173A5.986,5.986,0,0,0,35,16.891a7.276,7.276,0,0,0-6.953-5.8,5.569,5.569,0,0,0-.987.086,1.751,1.751,0,0,0-1.272,1.217,1.9,1.9,0,0,0,.606,1.527,1.472,1.472,0,0,0,1.035.358,2.032,2.032,0,0,0,.328-.026,3.546,3.546,0,0,1,.531-.043c1.05,0,1.923.531,2.926,1.778a2.4,2.4,0,0,1,.685,2.026,2.259,2.259,0,0,1-1.439,1.328,15.177,15.177,0,0,1-2.984.75c-.285.051-.568.1-.85.159-1.463.287-1.662,1.116-1.572,1.763A1.521,1.521,0,0,0,26.7,23.389c.075,0,.15,0,.227-.009a14.031,14.031,0,0,0,5.087-1.249A1.4,1.4,0,0,1,32.571,22a.44.44,0,0,1,.137.017c.214.069.431.133.647.2a13.344,13.344,0,0,1,2.8,1.086,22.842,22.842,0,0,1,6.981,6.507,6.82,6.82,0,0,1,1.229,5.458c-.126.673-.516,1.8-1.7,1.8a2.787,2.787,0,0,1-1.178-.3,10.146,10.146,0,0,1-1.707-1.131c-.21-.161-.422-.321-.636-.473-.561-.4-1.968-1.322-3.209-2.129-.683-.446-1.313-.855-1.707-1.118a4.294,4.294,0,0,0-1.2-.634c-2.08-1.067-5.616-1.292-8.221-1.292a35.949,35.949,0,0,0-4.794.289c-4.029.591-6.9,1.938-9.035,4.239a1.2,1.2,0,0,1-.9.418,1.594,1.594,0,0,1-.574-.116,1.253,1.253,0,0,1-.816-1.326,13.719,13.719,0,0,1,1.084-5.537c1.5-3.339,3.68-5.265,6.676-5.892a.992.992,0,0,1,.188-.017,4,4,0,0,1,.936.173l.118.032c.54.141,1.09.3,1.621.456.75.218,1.523.446,2.3.628a1.739,1.739,0,0,0,.388.045,1.569,1.569,0,0,0,.079-3.127c-.062-.009-.124-.019-.186-.03-.1-.017-.2-.034-.3-.047a8.346,8.346,0,0,1-4.984-2.5,4.359,4.359,0,0,1-.658-5.691c.2-.336.411-.673.619-1.007.55-.887,1.12-1.8,1.6-2.759.955-1.913,1.806-3.86,2.667-5.85a1.779,1.779,0,0,0,.03-1.5A1.448,1.448,0,0,0,19.9.1,1.985,1.985,0,0,0,19.415.04c-.508,0-1.187.229-1.538,1.319a8.623,8.623,0,0,1-.54,1.392q-.466.88-.927,1.765C15.4,6.442,14.36,8.432,13.25,10.332a7.534,7.534,0,0,0,.737,9.152,12.585,12.585,0,0,0-6.494,5.972q-.235-.456-.465-.91c-.76-1.493-1.478-2.9-2.245-4.327a11.752,11.752,0,0,1-1.429-5.55c-.024-1.694-.1-3.485-.233-5.477a2.181,2.181,0,0,0-.769-1.531,1.464,1.464,0,0,0-.85-.285,1.393,1.393,0,0,0-1,.439A1.931,1.931,0,0,0,0,9.235c.028.788.062,1.576.1,2.365.049,1.114.1,2.266.129,3.4a14.164,14.164,0,0,0,1.609,6.34c1.234,2.369,2.521,4.911,3.935,7.775A1.862,1.862,0,0,1,5.876,30c-.032.467-.088.947-.144,1.412a19.6,19.6,0,0,0-.178,2.21,4.316,4.316,0,0,0,4.348,4.4c.09,0,.182,0,.274-.009ZM32.211,34.3c.036.03.075.062.116.09.118.088.236.161.349.231s.216.135.306.2c.381.293,1.272.882,2.215,1.5.546.36,1.131.745,1.621,1.077A36.439,36.439,0,0,1,26.545,38.91c-.182,0-.364,0-.546,0a21.506,21.506,0,0,1-7.445-1.125,9.548,9.548,0,0,1-3.845-2.4l.4-.21A16.514,16.514,0,0,1,17.3,34.165a28.011,28.011,0,0,1,7.989-1.02,18.784,18.784,0,0,1,6.586.93l.341.223Z" transform="translate(0.005 -0.04)" fill="#13509f"/>
      <path id="Caminho_1207" data-name="Caminho 1207" d="M101.88,17.508l-.013-2.29a12.9,12.9,0,0,0-3.453-8.786,2.242,2.242,0,0,0-1.493-.692,1.124,1.124,0,0,0-.356.054,2.018,2.018,0,0,0-1.084,1.632,29.5,29.5,0,0,1-4.355,13.539,57.716,57.716,0,0,1-9.547,11.406,5.352,5.352,0,0,0-1.78,4.153c.015.769.009,1.551,0,2.307a1.608,1.608,0,0,0,1.514,1.846c.045,0,.09.006.133.006.73,0,1.478-.559,1.5-1.806.006-.308,0-.617-.013-.915a7.9,7.9,0,0,1,.047-1.557,3.375,3.375,0,0,1,.67-1.609c1.011-1.148,2.071-2.29,3.1-3.393,1.12-1.2,2.277-2.448,3.378-3.712a34.4,34.4,0,0,0,7.385-13.648c.2-.741.368-1.482.535-2.255a11.889,11.889,0,0,1,.694,4.224c0,.945-.009,1.887-.013,2.832-.015,2.834-.032,5.764.026,8.649A33.883,33.883,0,0,1,97.206,39.67c-.017.047-.032.094-.045.139-.156.4-.311.8-.465,1.2-.587,1.514-1.191,3.078-1.842,4.588-1.711,3.967-2.84,5.473-6.188,9.947l-.338.452a24.383,24.383,0,0,1-8.208,7.148c-.216.111-.433.218-.651.326a16.157,16.157,0,0,0-1.861,1.022,15.089,15.089,0,0,0,.64-1.371,13.774,13.774,0,0,0,.694-2.7l.021-.116a1.67,1.67,0,0,0-.272-1.332,1.545,1.545,0,0,0-1.129-.591,1.865,1.865,0,0,0-.186-.009,1.53,1.53,0,0,0-1.531,1.583,6.59,6.59,0,0,1-.268,1.362,12.062,12.062,0,0,1-10.513,8.114c-2.078.054-4.327.079-6.871.079s-5.368-.028-7.985-.054l-1.232-.013a3,3,0,0,1-3.046-2.958c-.086-1.05-.148-2.108-.208-3.1-.088-1.5-1.045-1.724-1.609-1.724H44.08a1.441,1.441,0,0,0-1.067.45,1.989,1.989,0,0,0-.428,1.531c.015.238.03.476.045.72a4.652,4.652,0,0,1-1.118-3.142q-.016-1.1-.028-2.2c-.034-2.825-.071-5.747-.169-8.621a53.059,53.059,0,0,0-.523-5.4,2.192,2.192,0,0,0-1.169-1.437.8.8,0,0,0-.373-.088,1.966,1.966,0,0,0-1.281.685A1.888,1.888,0,0,0,37.72,45.5c.054.63.12,1.266.186,1.881.116,1.075.233,2.187.27,3.271.079,2.378.111,4.8.144,7.139.015,1.142.03,2.283.051,3.423a7.652,7.652,0,0,0,4.457,7.148.834.834,0,0,1,.328.27,6.413,6.413,0,0,0,6.338,3.984H64.087a15.227,15.227,0,0,0,12.755-6.822,1.556,1.556,0,0,0-.017.371,1.537,1.537,0,0,0,.7.992c.077.062.156.126.2.174l.276.281.368-.137c.133-.049.246-.088.343-.122a5.129,5.129,0,0,0,.491-.191c4.989-2.343,8.5-5.074,11.059-8.6.653-.9,1.15-1.519,1.628-2.114.619-.769,1.2-1.5,2.024-2.712a25.325,25.325,0,0,0,2.42-4.018c.728-1.576,1.294-2.977,1.84-4.329.463-1.144.942-2.328,1.525-3.643a36.86,36.86,0,0,0,2.022-8.461c.216-5.254.184-10.6.152-15.771Z" transform="translate(-29.623 -4.519)" fill="#13509f"/>
      <path id="Caminho_1208" data-name="Caminho 1208" d="M112.82,72.687l.186.1a4.742,4.742,0,0,0,1.049.48.929.929,0,0,0,.248.032,1.183,1.183,0,0,0,.859-.35,1.046,1.046,0,0,0-.065-1.216l-.1-.1c-.483-.455-1.144-1.08-1.8-1.08a.97.97,0,0,0-.736.335,1.106,1.106,0,0,0-.074,1.412,1.778,1.778,0,0,0,.434.378Z" transform="translate(-86.14 -54.853)" fill="#13509f"/>
    </g>
  </g>
</svg>
