<svg xmlns="http://www.w3.org/2000/svg" xmlns:xlink="http://www.w3.org/1999/xlink" width="40" height="40" viewBox="0 0 40 40">
  <defs>
    <clipPath id="clip-path">
      <rect id="Retângulo_574" data-name="Retângulo 574" width="40" height="40" transform="translate(0.463 -0.65)" fill="#13509f"/>
    </clipPath>
  </defs>
  <g id="Cabelos-Mais-Saudaveis-Masculino" transform="translate(-0.463 0.65)" clip-path="url(#clip-path)">
    <g id="Icone-Cabelos-Masculino" transform="translate(4.071 0.941)">
      <path id="Caminho_1209" data-name="Caminho 1209" d="M7.416,13.413a5.869,5.869,0,0,1-3.9-1.062,7.761,7.761,0,0,1-1.987-2.178,12.532,12.532,0,0,1-1.478-3.3c-.12-.421-.04-.689.253-.835.339-.17.583-.022.809.235a3.769,3.769,0,0,0,1.668,1.19,1.679,1.679,0,0,0,1.873-.425c.462-.5.893-1.025,1.308-1.561A17.022,17.022,0,0,1,9.131,2.062,9.262,9.262,0,0,1,19.242,1.051a1.088,1.088,0,0,0,.77.078,9.161,9.161,0,0,1,8.215,1.85A6.662,6.662,0,0,1,30.5,7.428,14.254,14.254,0,0,1,29.934,13c-.351,1.373-.8,2.72-1.21,4.079a1.347,1.347,0,0,0-.082.358,18.98,18.98,0,0,0,.242,3.985,23.332,23.332,0,0,1,.5,3.331,8.255,8.255,0,0,1-3.867,7.768c-2.161,1.43-4.421,2.711-6.64,4.053a1.58,1.58,0,0,1-1.751-.028c-2.09-1.27-4.2-2.512-6.271-3.806a8.417,8.417,0,0,1-4.212-7.71,19.977,19.977,0,0,1,.443-3.188,18.645,18.645,0,0,0,.34-3.828c-.035-1.383-.008-2.769-.008-4.153v-.443ZM24.924,24.467c.119-.1.208-.161.287-.234a7.3,7.3,0,0,0,2.021-3.268,11.213,11.213,0,0,0,.22-3.091,13.518,13.518,0,0,0-.82-4.792,5.178,5.178,0,0,0-1.54-2.485,1.345,1.345,0,0,0-.7-.253,7.389,7.389,0,0,0-1.033.054,1.776,1.776,0,0,0-1.085.474,5.078,5.078,0,0,1-4.052,1.259,15.045,15.045,0,0,1-2.481-.559,5.079,5.079,0,0,0-4.51.413,14.859,14.859,0,0,1-2.311,1.072.43.43,0,0,0-.328.471c.013,1.879.03,3.758,0,5.636A6.528,6.528,0,0,0,9.946,23.23c.33.449.739.838,1.146,1.293.15-.241.247-.4.343-.553a3.39,3.39,0,0,1,3-1.728q3.578-.028,7.156,0a3.4,3.4,0,0,1,3.014,1.715l.317.513ZM1.992,8.557a7.81,7.81,0,0,0,1.85,2.529,4.509,4.509,0,0,0,4,1.049,9.219,9.219,0,0,0,3.012-1.292,5.052,5.052,0,0,1,3.612-.749,19.872,19.872,0,0,1,2.043.5,6.844,6.844,0,0,0,2.954.334,3.493,3.493,0,0,0,3.153-3.811,5.4,5.4,0,0,0-1.243-2.924,8.339,8.339,0,0,0-10.6-1.834A13.152,13.152,0,0,0,7.27,5.726c-.5.643-1.006,1.283-1.533,1.9a2.76,2.76,0,0,1-2.062,1.1,13.3,13.3,0,0,1-1.682-.175Zm6.162,14.09c-.071.4-.125.711-.182,1.022a7.5,7.5,0,0,0,3.649,8.152c2.007,1.215,4.017,2.424,6.018,3.65a.656.656,0,0,0,.78,0c2.033-1.242,4.089-2.451,6.109-3.712a7.36,7.36,0,0,0,3.665-7.184c-.021-.319-.088-.635-.14-.952s-.1-.6-.17-1a8.724,8.724,0,0,1-2.658,3.13c-.439.316-.752.252-1.044-.214-.216-.345-.421-.7-.643-1.04a2.141,2.141,0,0,0-1.851-1.055q-3.67-.019-7.341,0A2.147,2.147,0,0,0,12.5,24.5c-.223.341-.423.7-.641,1.041a.627.627,0,0,1-1.049.2,8.426,8.426,0,0,1-2.236-2.4c-.127-.2-.248-.412-.417-.7Zm15.4-13.5a3.187,3.187,0,0,0,.488,0,2.4,2.4,0,0,1,2.267.979,6.462,6.462,0,0,1,.618.829,10.249,10.249,0,0,1,1.2,2.974c.048.189.1.377.154.565a20.244,20.244,0,0,0,.553-1.979,13.091,13.091,0,0,0,.478-4.981,5.621,5.621,0,0,0-2.226-3.952,8.17,8.17,0,0,0-5.454-1.505c-.2.014-.392.043-.647.07,2.179,1.894,3.318,4.087,2.573,7Z" transform="translate(0 -0.003)" fill="#fff"/>
      <path id="Caminho_1210" data-name="Caminho 1210" d="M158.857,266.543c-.58,0-1.159,0-1.739,0-.506,0-.782-.239-.778-.642s.273-.622.756-.624q1.776-.009,3.552,0c.477,0,.745.248.74.64s-.274.619-.756.625c-.592.008-1.184,0-1.776,0Z" transform="translate(-140.847 -238.984)" fill="#fff"/>
      <path id="Caminho_1211" data-name="Caminho 1211" d="M170.36,290.945c.222,0,.445-.013.666,0a.584.584,0,0,1,.58.564.574.574,0,0,1-.51.66,9.876,9.876,0,0,1-1.512,0,.574.574,0,0,1-.493-.638.6.6,0,0,1,.568-.577c.233-.02.469,0,.7,0v0Z" transform="translate(-152.332 -262.11)" fill="#fff"/>
    </g>
  </g>
</svg>
