<svg xmlns="http://www.w3.org/2000/svg" xmlns:xlink="http://www.w3.org/1999/xlink" width="80" height="80" viewBox="0 0 80 80">
  <defs>
    <clipPath id="clip-path">
      <rect id="Retângulo_574" data-name="Retângulo 574" width="80" height="80" transform="translate(482 326.734)" fill="#13509f"/>
    </clipPath>
  </defs>
  <g id="Cabelos-Mais-Saudaveis-Masculino" transform="translate(-482 -326.734)" clip-path="url(#clip-path)">
    <g id="Icone-Cabelos-Masculino" transform="translate(489.82 330.042)">
      <path id="Caminho_1209" data-name="Caminho 1209" d="M14.826,26.81a11.732,11.732,0,0,1-7.793-2.124A15.515,15.515,0,0,1,3.06,20.332a25.052,25.052,0,0,1-2.954-6.6c-.24-.842-.079-1.377.505-1.67.678-.341,1.165-.044,1.617.47a7.534,7.534,0,0,0,3.334,2.379,3.357,3.357,0,0,0,3.744-.85c.923-.992,1.785-2.048,2.615-3.12a34.029,34.029,0,0,1,6.333-6.825Q27.743-2.92,38.467,2.1a2.174,2.174,0,0,0,1.539.157,18.313,18.313,0,0,1,16.423,3.7c2.779,2.266,4.039,5.408,4.535,8.895.541,3.8-.194,7.488-1.123,11.131-.7,2.746-1.607,5.438-2.419,8.154a2.692,2.692,0,0,0-.164.715,37.943,37.943,0,0,0,.483,7.966,46.644,46.644,0,0,1,1,6.658A16.5,16.5,0,0,1,51.007,65c-4.321,2.859-8.837,5.42-13.275,8.1a3.158,3.158,0,0,1-3.5-.055c-4.178-2.54-8.39-5.022-12.536-7.609a16.826,16.826,0,0,1-8.419-15.412,39.935,39.935,0,0,1,.886-6.373A37.274,37.274,0,0,0,14.842,36c-.069-2.766-.016-5.535-.016-8.3v-.886Zm35,22.1c.238-.192.416-.321.575-.468a14.587,14.587,0,0,0,4.039-6.533c.626-2.035.386-4.113.44-6.179a27.024,27.024,0,0,0-1.638-9.58,10.351,10.351,0,0,0-3.079-4.968,2.69,2.69,0,0,0-1.395-.505,14.771,14.771,0,0,0-2.064.107,3.551,3.551,0,0,0-2.169.947,10.152,10.152,0,0,1-8.1,2.516,30.077,30.077,0,0,1-4.961-1.117c-3.138-.953-6.106-1.052-9.016.826a29.7,29.7,0,0,1-4.62,2.143.859.859,0,0,0-.656.941c.026,3.756.059,7.512,0,11.266a13.05,13.05,0,0,0,2.7,8.132c.66.9,1.478,1.676,2.29,2.585.3-.481.493-.792.685-1.105a6.777,6.777,0,0,1,6.007-3.455q7.153-.056,14.305,0a6.8,6.8,0,0,1,6.024,3.429c.194.313.386.626.634,1.026ZM3.984,17.1a15.613,15.613,0,0,0,3.7,5.056,9.013,9.013,0,0,0,8,2.1,18.43,18.43,0,0,0,6.02-2.583,10.1,10.1,0,0,1,7.221-1.5,39.727,39.727,0,0,1,4.085,1,13.682,13.682,0,0,0,5.905.668,6.982,6.982,0,0,0,6.3-7.619,10.8,10.8,0,0,0-2.484-5.846A16.67,16.67,0,0,0,21.541,4.71a26.293,26.293,0,0,0-7.007,6.734c-1,1.286-2.011,2.565-3.065,3.806a5.518,5.518,0,0,1-4.123,2.2A26.593,26.593,0,0,1,3.986,17.1ZM16.3,45.271c-.143.8-.25,1.42-.365,2.042a15,15,0,0,0,7.294,16.3c4.012,2.429,8.031,4.846,12.031,7.3a1.31,1.31,0,0,0,1.559-.008c4.065-2.482,8.174-4.9,12.213-7.421A14.714,14.714,0,0,0,56.36,49.115c-.042-.638-.176-1.27-.279-1.9-.1-.606-.206-1.208-.341-2a17.441,17.441,0,0,1-5.313,6.258c-.878.632-1.5.5-2.088-.428-.432-.689-.842-1.395-1.286-2.078a4.28,4.28,0,0,0-3.7-2.11q-7.337-.039-14.676,0a4.291,4.291,0,0,0-3.691,2.128c-.446.681-.846,1.393-1.282,2.082a1.253,1.253,0,0,1-2.1.392,16.845,16.845,0,0,1-4.469-4.792c-.254-.408-.5-.824-.834-1.391Zm30.791-27a6.372,6.372,0,0,0,.975-.008A4.8,4.8,0,0,1,52.6,20.223a12.919,12.919,0,0,1,1.236,1.658,20.489,20.489,0,0,1,2.4,5.945c.1.378.2.753.307,1.129A40.47,40.47,0,0,0,57.644,25c.761-3.275,1.474-6.553.955-9.957a11.236,11.236,0,0,0-4.449-7.9,16.332,16.332,0,0,0-10.9-3.009c-.394.028-.784.085-1.294.141,4.356,3.786,6.633,8.17,5.143,14Z" transform="translate(0 -0.003)" fill="#13509f"/>
      <path id="Caminho_1210" data-name="Caminho 1210" d="M161.372,267.815c-1.159,0-2.318.01-3.477,0-1.012-.01-1.563-.477-1.555-1.284.01-.779.547-1.244,1.512-1.248q3.551-.018,7.1,0c.953.006,1.49.5,1.48,1.28s-.547,1.238-1.512,1.25c-1.183.016-2.367,0-3.55,0Z" transform="translate(-125.368 -212.721)" fill="#13509f"/>
      <path id="Caminho_1211" data-name="Caminho 1211" d="M171.63,290.95c.444,0,.889-.026,1.331.006a1.167,1.167,0,0,1,1.159,1.127,1.148,1.148,0,0,1-1.02,1.319,19.745,19.745,0,0,1-3.023-.01,1.148,1.148,0,0,1-.987-1.276,1.2,1.2,0,0,1,1.135-1.153c.466-.04.937-.008,1.407-.008v0Z" transform="translate(-135.591 -233.305)" fill="#13509f"/>
    </g>
  </g>
</svg>
