<svg xmlns="http://www.w3.org/2000/svg" xmlns:xlink="http://www.w3.org/1999/xlink" width="40" height="40" viewBox="0 0 40 40">
  <defs>
    <clipPath id="clip-path">
      <rect id="Retângulo_384" data-name="Retângulo 384" width="40" height="40" transform="translate(-0.269 -0.205)" fill="#fff"/>
    </clipPath>
  </defs>
  <g id="Produto-100-Porcento-Natural" transform="translate(0.269 0.205)" clip-path="url(#clip-path)">
    <g id="Produto-100-Porcento-Natural-2" data-name="Produto-100-Porcento-Natural" transform="translate(0.844 3.249)">
      <path id="Caminho_1163" data-name="Caminho 1163" d="M18.056,32.733a.878.878,0,0,1-.646-.4,39.35,39.35,0,0,1-3.4-4.964.287.287,0,0,0-.315-.184h-.026l-.259,0A9.782,9.782,0,0,1,6.3,24.182a18.381,18.381,0,0,1-4.233-7.069A27.644,27.644,0,0,1,.614,8.623C.553,6.8.378,4.945.208,3.153.138,2.418.066,1.662,0,.917A.9.9,0,0,1,.2.208.663.663,0,0,1,.7,0,1.031,1.031,0,0,1,.99.044,28.632,28.632,0,0,1,13.823,7.291a14.455,14.455,0,0,1,4.119,7.979,14.913,14.913,0,0,1-2.579,10.982.349.349,0,0,0-.014.49c.667,1.008,1.314,2.012,2,3.074q.273.424.553.854c.019-.03.567-.975.567-.975.656-1.132,1.335-2.3,2-3.456a.426.426,0,0,0,.049-.278,8.733,8.733,0,0,1,.509-8.273,17.483,17.483,0,0,1,5.1-5.456,33.937,33.937,0,0,1,5.309-3.01l.121-.061c.964-.471,1.942-.957,2.887-1.424q.739-.368,1.48-.73a1.38,1.38,0,0,1,.6-.17c.406,0,.649.3.716.889a28.564,28.564,0,0,1,.142,5.8,15.623,15.623,0,0,1-3.445,9.113,12.362,12.362,0,0,1-8.46,4.411,11.218,11.218,0,0,1-1.134.051c-.509,0-1.025-.026-1.522-.049-.273-.014-.548-.026-.821-.035h-.056c-.159,0-.205.023-.271.14-1.05,1.867-1.977,3.5-2.828,4.98a1.3,1.3,0,0,1-.532.546.63.63,0,0,1-.247.054ZM1.573,1.69c.058.833.121,1.68.184,2.5C1.9,6,2.035,7.867,2.119,9.711A23.468,23.468,0,0,0,4.962,19.993a11.806,11.806,0,0,0,3.923,4.418A7.953,7.953,0,0,0,13.05,25.7l-.014-.028a33.283,33.283,0,0,1-3.666-10.9.847.847,0,0,1,.133-.649.7.7,0,0,1,.474-.271.894.894,0,0,1,.11-.007.741.741,0,0,1,.716.681c.035.2.068.392.1.588.047.275.093.56.149.838a33.669,33.669,0,0,0,3.37,9.106,13.57,13.57,0,0,0,2.264-7.419,12.863,12.863,0,0,0-3.2-8.565A22.159,22.159,0,0,0,5.657,3.354C4.7,2.908,3.725,2.523,2.7,2.114c-.369-.147-.749-.3-1.13-.453V1.69ZM22.7,25.631c.4.04.817.061,1.225.061a11.494,11.494,0,0,0,10.761-7.081,18.18,18.18,0,0,0,1.3-7.085c0-.7-.033-1.4-.072-2.138-.014-.252-.026-.506-.037-.763-.672.341-1.358.681-2.023,1.011-1.568.779-3.19,1.585-4.749,2.436a18.238,18.238,0,0,0-6.259,5.438,7.793,7.793,0,0,0-1.624,5.512,10.924,10.924,0,0,0,.271,1.33c.028.107.054.219.082.329.028-.037.058-.077.089-.114.324-.387.644-.777.964-1.167.763-.926,1.55-1.886,2.366-2.8a13.96,13.96,0,0,1,3.13-2.6.944.944,0,0,1,.483-.147.68.68,0,0,1,.579.31.673.673,0,0,1,.107.513.839.839,0,0,1-.383.527,23.023,23.023,0,0,0-5.281,5.162c-.257.329-.509.674-.749,1.008-.061.082-.119.163-.18.247Z" transform="translate(0.003)" fill="#fff"/>
    </g>
  </g>
</svg>
