<svg xmlns="http://www.w3.org/2000/svg" xmlns:xlink="http://www.w3.org/1999/xlink" width="40" height="40" viewBox="0 0 40 40">
  <defs>
    <clipPath id="clip-path">
      <rect id="Retângulo_383" data-name="Retângulo 383" width="40" height="40" transform="translate(0.157 -0.205)" fill="#fff"/>
    </clipPath>
  </defs>
  <g id="Cabelos-Mais-Saudaveis" transform="translate(-0.157 0.205)" clip-path="url(#clip-path)">
    <g id="Cabelos-Mais-Saudaveis-2" data-name="Cabelos-Mais-Saudaveis" transform="translate(2.931 2.718)">
      <path id="Caminho_1154" data-name="Caminho 1154" d="M76.976,13.711l.3.737a1.185,1.185,0,0,1-.773,1.771.94.94,0,0,1,.273,1.045,1.619,1.619,0,0,1-.926,1.011.371.371,0,0,0-.258.47,2.49,2.49,0,0,1-2.626,2.976c-1.216.006-2.432-.155-3.648-.236a10.589,10.589,0,0,0-2.177-.106,8.44,8.44,0,0,0-4.869,2.546,10.084,10.084,0,0,0-2.709,5.558c-.207,1.235-.24,2.5-.349,3.749-.009.1,0,.209,0,.315a.712.712,0,0,1-.57.745.7.7,0,0,1-.821-.466,19.6,19.6,0,0,1-.845-2.548,16.8,16.8,0,0,1,2.2-12.3,28.939,28.939,0,0,1,6.593-7.586,59.787,59.787,0,0,0,9.281-9.826c.079-.1.151-.209.234-.309a.748.748,0,0,1,.86-.251.667.667,0,0,1,.426.764c-.092.622-.216,1.239-.312,1.858-.186,1.207-.362,2.416-.544,3.625a2.659,2.659,0,0,0,1.022,2.612,9.4,9.4,0,0,0,1.1.771,1.624,1.624,0,0,1,.865,1.671.889.889,0,0,1-.522.775c-.4.192-.777.409-1.2.632ZM58.151,29.052c.107-.415.2-.837.325-1.247A10.714,10.714,0,0,1,64,20.95a7.345,7.345,0,0,1,4.294-.971c.913.117,1.832.179,2.751.249.655.049,1.314.111,1.969.1a1.058,1.058,0,0,0,1.164-1.207,4.051,4.051,0,0,0-.138-.894.736.736,0,0,1,.635-1.028c.2-.049.389-.119.611-.187a1.577,1.577,0,0,1-.369-1.307,1.276,1.276,0,0,1,.961-.9c-.133-.324-.253-.615-.371-.9-.273-.666-.186-.9.458-1.243l1.282-.675c-.476-.341-.924-.63-1.332-.964a4.027,4.027,0,0,1-1.642-3.744c.033-.289.063-.579.1-.866.085-.628.177-1.258.266-1.886a.88.88,0,0,0-.308.249,60.066,60.066,0,0,1-7.432,7.51,32.141,32.141,0,0,0-4.257,4.238,18.861,18.861,0,0,0-4.5,9.73,9.3,9.3,0,0,0,.007,2.806Z" transform="translate(-44.25 -0.754)" fill="#fff"/>
      <path id="Caminho_1155" data-name="Caminho 1155" d="M35.224,27.937a18.72,18.72,0,0,1,3.567-10.52,29.368,29.368,0,0,1,5.369-5.835A60.9,60.9,0,0,0,53.769,1.439c.4-.526.812-.656,1.19-.375s.369.666-.026,1.194a60.84,60.84,0,0,1-9.611,10.188,27.207,27.207,0,0,0-6.414,7.5,15.973,15.973,0,0,0-2.19,8.73,12.2,12.2,0,0,0,1.05,4.532.62.62,0,0,1-.063.777,1.1,1.1,0,0,1-.653.266c-.312.011-.493-.236-.618-.509a12.332,12.332,0,0,1-1-3.514c-.1-.76-.142-1.528-.21-2.29Z" transform="translate(-27.531 -0.724)" fill="#fff"/>
      <path id="Caminho_1156" data-name="Caminho 1156" d="M.628,64.233A17.707,17.707,0,0,1,3.65,54.522,30.165,30.165,0,0,1,10,47.6a.73.73,0,0,1,1.081.019.7.7,0,0,1-.179,1.064,29.915,29.915,0,0,0-5.338,5.579,17.841,17.841,0,0,0-3.314,7.6,13.325,13.325,0,0,0,.989,7.882.7.7,0,0,1-.29,1.013.737.737,0,0,1-1.015-.432A13.87,13.87,0,0,1,.626,64.79c-.009-.185,0-.373,0-.558Z" transform="translate(-0.486 -37.284)" fill="#fff"/>
      <path id="Caminho_1157" data-name="Caminho 1157" d="M34.441,0c.253.1.707.26,1.14.464.166.079.253.132.43.011a2.458,2.458,0,0,1,3.27.373A2.3,2.3,0,0,1,39.2,4.025c-.93.954-1.9,1.871-2.862,2.795A.714.714,0,0,1,35.26,6.81C34.3,5.884,33.336,4.96,32.4,4.015a2.256,2.256,0,0,1-.443-2.593A2.567,2.567,0,0,1,34.441,0Zm1.3,5.428c.847-.824,1.613-1.558,2.364-2.305a.949.949,0,0,0,.022-1.428,1.023,1.023,0,0,0-1.443.045c-.845.766-.9.766-1.768-.013A1.029,1.029,0,0,0,33.47,1.7a.963.963,0,0,0,.022,1.407c.6.6,1.218,1.184,1.819,1.782a6.343,6.343,0,0,1,.432.534Z" transform="translate(-24.8)" fill="#fff"/>
      <path id="Caminho_1158" data-name="Caminho 1158" d="M94.486,118.576a2.5,2.5,0,0,1,2.257-.507,2.339,2.339,0,0,1,1.175,3.876c-.937.979-1.932,1.907-2.91,2.848a.7.7,0,0,1-1.052,0c-.972-.932-1.947-1.86-2.888-2.82a2.29,2.29,0,0,1-.063-3.15,2.476,2.476,0,0,1,3.273-.387c.068.045.133.094.207.145Zm.009,4.7c.784-.751,1.6-1.5,2.378-2.286a.924.924,0,0,0-.037-1.3,1,1,0,0,0-1.36-.072c-.166.132-.308.292-.467.43a.723.723,0,0,1-1.055-.006c-.151-.132-.284-.285-.439-.411a1.013,1.013,0,0,0-1.365.04.9.9,0,0,0-.07,1.294c.784.792,1.611,1.545,2.415,2.31Z" transform="translate(-70.669 -92.868)" fill="#fff"/>
      <path id="Caminho_1159" data-name="Caminho 1159" d="M21.9,81.62a3.45,3.45,0,0,1,.611.509.586.586,0,0,1-.083.745,8.7,8.7,0,0,0-1.622,3.274,15.835,15.835,0,0,0-.452,6.194c.175,1.5.493,2.98.762,4.468.09.5-.081.86-.5.964s-.764-.149-.891-.643a26.161,26.161,0,0,1-.9-7.25,14.387,14.387,0,0,1,1.356-6.09,13.3,13.3,0,0,1,1.089-1.716,2.677,2.677,0,0,1,.64-.456Z" transform="translate(-14.704 -64.246)" fill="#fff"/>
      <path id="Caminho_1160" data-name="Caminho 1160" d="M60,11.287a.775.775,0,0,1-.758-.466.661.661,0,0,1,.218-.785C60.027,9.52,60.61,9.02,61.169,8.5a38.927,38.927,0,0,0,6.51-7.67c.087-.138.164-.285.26-.417A.7.7,0,0,1,68.858.19a.662.662,0,0,1,.31.894,11.259,11.259,0,0,1-.627,1.056,42.945,42.945,0,0,1-7.4,8.3c-.229.2-.452.417-.7.6a2.85,2.85,0,0,1-.445.245Z" transform="translate(-46.266 -0.081)" fill="#fff"/>
      <path id="Caminho_1161" data-name="Caminho 1161" d="M2.168,30.539a2.1,2.1,0,1,1-.011-4.189,2.1,2.1,0,1,1,.011,4.189Zm-.024-1.4a.7.7,0,1,0-.705-.722.717.717,0,0,0,.705.722Z" transform="translate(0 -20.741)" fill="#fff"/>
      <path id="Caminho_1162" data-name="Caminho 1162" d="M136.988,122.419a2.1,2.1,0,1,1,2.157-2.082A2.131,2.131,0,0,1,136.988,122.419Zm.007-1.4a.7.7,0,1,0-.718-.709.711.711,0,0,0,.718.709Z" transform="translate(-105.401 -93.063)" fill="#fff"/>
    </g>
  </g>
</svg>
