<svg xmlns="http://www.w3.org/2000/svg" xmlns:xlink="http://www.w3.org/1999/xlink" width="40" height="40" viewBox="0 0 40 40">
  <defs>
    <clipPath id="clip-path">
      <rect id="Retângulo_407" data-name="Retângulo 407" width="40" height="40" transform="translate(3304 2086)" fill="#fff"/>
    </clipPath>
  </defs>
  <g id="Para-gravidas-e-lactantes" transform="translate(-3304 -2086)" clip-path="url(#clip-path)">
    <g id="Gravidas-e-Gestantes" transform="translate(3311 2087)">
      <path id="Caminho_1166" data-name="Caminho 1166" d="M22.024,0a4.381,4.381,0,0,1,3.405,3.491,3.407,3.407,0,0,1,.12.792c.058,3.177.148,6.353.146,9.53a30.9,30.9,0,0,1-.751,7.026c-.143.619-.337.781-.961.7-1.215-.162-2.428-.347-3.641-.52-.088-.012-.176-.018-.367-.039a17.851,17.851,0,0,0,.245,2.015,10.811,10.811,0,0,0,.714,2.213,36.2,36.2,0,0,1,3.177,8.336c.259,1.116.545,1.966.758,3.091.118.626-.146.908-.79.908H4.777c-.608,0-.829-.238-.813-.841.531-1.689.492-1.682,1.072-3.3-.518-.411-1.047-.79-1.527-1.222A10.4,10.4,0,0,1,.157,25.564a12.373,12.373,0,0,1,.418-5.785A10.444,10.444,0,0,1,4.352,14.7a1.356,1.356,0,0,0,.42-.55,3.119,3.119,0,0,1,1.479-1.643c.125-.065.252-.118.351-.166a12.711,12.711,0,0,1-.892-1.3A4.058,4.058,0,0,1,7.735,5.217a9.479,9.479,0,0,0,4.2-3.856A2.835,2.835,0,0,1,13.5,0h8.521ZM5.295,36.217H23.45c-.016-.12-.025-.222-.046-.321a39.9,39.9,0,0,0-2.832-8.234c-.36-.885-.79-1.742-1.141-2.631a11.116,11.116,0,0,1-.739-4.318,3.043,3.043,0,0,0-.3-.1,38.866,38.866,0,0,1-7.636-2.486A15.053,15.053,0,0,1,7.517,16.4a3.626,3.626,0,0,0-1.89-.679.9.9,0,0,0-.568.12,8.534,8.534,0,0,0-2.846,3.4,10.827,10.827,0,0,0-.8,5.8,9.662,9.662,0,0,0,2.028,5.164,10.425,10.425,0,0,0,5.924,3.5,14.336,14.336,0,0,0,4.951.3.639.639,0,0,1,.767.612.675.675,0,0,1-.679.686,15.52,15.52,0,0,1-7.876-1.174c-.1-.044-.2-.079-.321-.122-.511,1.252-.349.869-.913,2.206Zm18.538-16c.166-1.532.379-3.02.478-4.514.25-3.775.032-7.55-.074-11.325A3.021,3.021,0,0,0,21.2,1.3c-.263,0-.372.065-.434.335a34.507,34.507,0,0,0-.839,5.321,31.66,31.66,0,0,0,.326,7.666.642.642,0,0,0,.293.372c.416.247.862.444,1.273.7.467.286.582.665.358,1.012s-.594.353-1.074.083a10.155,10.155,0,0,0-1.615-.774,14.474,14.474,0,0,0-3.928-.6,11.6,11.6,0,0,1-3.727-.792c-.968-.4-1.955-.742-2.946-1.074a2.646,2.646,0,0,0-1.982.111,1.527,1.527,0,0,0-.813.8,6.279,6.279,0,0,1,2.47,1.07,8.081,8.081,0,0,0,1.072.658,37.42,37.42,0,0,0,7.377,2.747,47.449,47.449,0,0,0,6.825,1.3ZM18.4,1.317c-.18.712-.307,1.391-.529,2.038A4.15,4.15,0,0,1,13.342,6.5c-1.294-.062-2.578-.321-3.87-.483a.884.884,0,0,0-.434.03c-.365.152-.714.34-1.07.511A2.516,2.516,0,0,0,6.5,9.07a3.566,3.566,0,0,0,2.625,3.181c.866.256,1.714.578,2.569.878a10.787,10.787,0,0,0,1.834.649c1.76.275,3.537.455,5.351.677A34.942,34.942,0,0,1,19.5,1.317h-1.1ZM17,1.305c-.987,0-1.941.012-2.9,0a.913.913,0,0,0-.88.483,13.845,13.845,0,0,1-2.363,2.9,2.3,2.3,0,0,0-.18.213l.021.129c1.09.065,2.181.159,3.271.183A2.391,2.391,0,0,0,15.9,4.269a5.321,5.321,0,0,0,1.093-2.964Z" transform="translate(-0.003)" fill="#fff"/>
      <path id="Caminho_1167" data-name="Caminho 1167" d="M19.492,91.461A3.051,3.051,0,0,1,24.4,94.994a6.448,6.448,0,0,1-1.3,1.726c-1,.959-2.091,1.834-3.149,2.738a.642.642,0,0,1-.906.012c-1.157-1-2.336-1.982-3.452-3.029a3.809,3.809,0,0,1-1.345-2.86,3.009,3.009,0,0,1,4.9-2.4c.111.083.215.178.34.28Zm-.018,6.758c1.081-.977,2.1-1.851,3.054-2.789a3.512,3.512,0,0,0,.79-1.285,1.661,1.661,0,0,0-.4-1.841,1.56,1.56,0,0,0-1.622-.42,2.133,2.133,0,0,0-1.231.973.65.65,0,0,1-1.157.016,3.287,3.287,0,0,0-.319-.43,1.79,1.79,0,0,0-1.807-.566,1.6,1.6,0,0,0-1.2,1.312,2.145,2.145,0,0,0,.624,1.971c1.037,1.033,2.132,2.008,3.26,3.059Z" transform="translate(-10.958 -69.582)" fill="#fff"/>
    </g>
  </g>
</svg>
