<svg id="Compra-Segura" xmlns="http://www.w3.org/2000/svg" width="160" height="51.613" viewBox="0 0 160 51.613">
  <g id="Grupo_74" data-name="Grupo 74">
    <path id="Caminho_162" data-name="Caminho 162" d="M67.523,411.762a3,3,0,0,1-2.134.988,2.846,2.846,0,0,1-.941-.173,3.025,3.025,0,0,1-1.161-.753c-3.64-3.655-5.757-5.789-8.958-9.021l-1.537-1.553a3.114,3.114,0,0,1-.831-1.428,2.446,2.446,0,0,1,.078-1.459,3.543,3.543,0,0,1,.659-1.114H44.619a1.237,1.237,0,0,1-.047-.2c.016-3.2-.063-6.416.047-9.617a5.754,5.754,0,0,1,11.483.016c.063,2.134.063,4.267.047,6.4a2.744,2.744,0,0,1,1.569-.5,3.011,3.011,0,0,1,2.149.988c1.475,1.475,2.337,2.353,3.263,3.294.643.659,1.3,1.318,2.212,2.228l1.506-1.506a5.112,5.112,0,0,0-3.059-1.067H63.1v-9.068a12.809,12.809,0,0,0-1.914-7.044,12.586,12.586,0,0,0-9.35-5.977c-.157-.016-.329-.063-.486-.094H49.341a23.945,23.945,0,0,0-3.687.941,12.427,12.427,0,0,0-7.891,9.915,17.364,17.364,0,0,0-.173,2.557c-.016,2.7,0,5.412,0,8.111v.549a13.272,13.272,0,0,0-2.165.361,4.565,4.565,0,0,0-3.294,4.032,6.045,6.045,0,0,0-.031.753v19.343a4.626,4.626,0,0,0,2.7,4.518,5.207,5.207,0,0,0,2.181.486q13.366.047,26.748.016a4.686,4.686,0,0,0,4.863-4.816q.024-5.624.016-11.248C68.26,411.025,67.884,411.4,67.523,411.762Zm-14.229.408a.934.934,0,0,0-.282.628c-.031,1.02.016,2.055-.016,3.075a2.6,2.6,0,0,1-2.1,2.541,2.542,2.542,0,0,1-2.824-1.443,3.554,3.554,0,0,1-.267-1.208c-.047-.486-.016-.973-.016-1.459v-.251a2.938,2.938,0,0,0-.816-2.494,4.161,4.161,0,0,1-.377-5.13,4.47,4.47,0,1,1,6.7,5.742Z" transform="translate(-32.1 -375.1)" fill="#777"/>
    <path id="Caminho_163" data-name="Caminho 163" d="M167.827,468.451c.816-.863,1.663-1.679,2.51-2.526a1.457,1.457,0,0,1,2.322.016c2.73,2.745,3.42,3.451,6.15,6.212.094.094.173.188.282.314.11-.11.22-.2.314-.3,5.444-5.444,7.263-7.263,12.707-12.723a1.469,1.469,0,0,1,1.616-.5,1.868,1.868,0,0,1,.69.471c.926.894,1.835,1.82,2.745,2.73a1.471,1.471,0,0,1,0,2.353l-5.146,5.146-11.766,11.766a1.485,1.485,0,0,1-1.632.5,1.59,1.59,0,0,1-.643-.424c-4.189-4.2-6.322-6.354-10.479-10.574C166.368,469.753,167.529,468.78,167.827,468.451Z" transform="translate(-145.849 -445.719)" fill="#95c11f"/>
  </g>
  <g id="Grupo_79" data-name="Grupo 79" transform="translate(64.602 0.659)">
    <g id="Grupo_76" data-name="Grupo 76" transform="translate(0.784)">
      <g id="Grupo_75" data-name="Grupo 75">
        <path id="Caminho_164" data-name="Caminho 164" d="M455.614,388.838c0,.031,0,.173-.016.392-.016.235-.031.361-.031.424a10.706,10.706,0,0,1-.22,1.867,4.65,4.65,0,0,1-.518,1.428,2.585,2.585,0,0,1-.926.957,2.618,2.618,0,0,1-1.412.345,3.535,3.535,0,0,1-1.945-.471,2.776,2.776,0,0,1-1.082-1.333,6.547,6.547,0,0,1-.455-1.961c-.063-.737-.11-1.679-.11-2.808v-2.039c.031-1.1.078-2.008.157-2.714a7.2,7.2,0,0,1,.455-1.882,2.774,2.774,0,0,1,1.067-1.286,3.6,3.6,0,0,1,1.914-.455c1.851.031,2.855,1.271,3.012,3.687q.047.541.047,1.082h-2.024c-.016-.078-.016-.235-.031-.455-.016-.345-.047-.612-.078-.831a5.3,5.3,0,0,0-.141-.643,1.171,1.171,0,0,0-.282-.518.687.687,0,0,0-.5-.188,1.077,1.077,0,0,0-.8.3,1.884,1.884,0,0,0-.455.8,5.72,5.72,0,0,0-.188,1.1c-.031.392-.047.863-.047,1.4v3.953q0,.588.047,1.083a4.92,4.92,0,0,0,.188.957,1.651,1.651,0,0,0,.455.753,1.077,1.077,0,0,0,.8.3.671.671,0,0,0,.565-.282,2.093,2.093,0,0,0,.314-.706,5.384,5.384,0,0,0,.125-.879c.016-.3.031-.628.031-.973.016-.2.016-.345.016-.439h2.071Z" transform="translate(-448.9 -379.3)" fill="#777"/>
        <path id="Caminho_165" data-name="Caminho 165" d="M501.5,385.638c.031-1.1.078-2.008.157-2.714a7.2,7.2,0,0,1,.455-1.883,2.774,2.774,0,0,1,1.067-1.286,3.6,3.6,0,0,1,1.914-.455,3.637,3.637,0,0,1,1.914.455,2.7,2.7,0,0,1,1.067,1.286,6.626,6.626,0,0,1,.455,1.883c.078.706.125,1.6.157,2.714v2.039a28.02,28.02,0,0,1-.11,2.808,6.549,6.549,0,0,1-.455,1.961,2.85,2.85,0,0,1-1.083,1.333,3.57,3.57,0,0,1-1.945.471,3.534,3.534,0,0,1-1.945-.471,2.776,2.776,0,0,1-1.082-1.333,6.545,6.545,0,0,1-.455-1.961c-.063-.737-.11-1.679-.11-2.808Zm2.118,3.373q0,.588.047,1.082a4.919,4.919,0,0,0,.188.957,1.651,1.651,0,0,0,.455.753,1.077,1.077,0,0,0,.8.3,1.152,1.152,0,0,0,.831-.3,1.852,1.852,0,0,0,.455-.784,5.381,5.381,0,0,0,.173-1c.031-.345.031-.753.031-1.239V385.12c0-.5-.016-.926-.031-1.318a6.593,6.593,0,0,0-.173-1.114,2.016,2.016,0,0,0-.455-.894,1.034,1.034,0,0,0-.816-.345,1.077,1.077,0,0,0-.8.3,1.884,1.884,0,0,0-.455.8,5.723,5.723,0,0,0-.188,1.1c-.031.392-.047.863-.047,1.4v3.969Z" transform="translate(-493.248 -379.3)" fill="#777"/>
        <path id="Caminho_166" data-name="Caminho 166" d="M561.255,395.76H559.2V381.5h3.279l1.1,6.62q.235,1.435.377,3.294h.031c.063-.831.11-1.49.157-1.961s.094-.91.173-1.333l1.1-6.62h3.263v14.26H566.62v-4.487c0-3.138.063-5.977.172-8.5h-.031l-2.2,12.974h-1.239l-2.149-12.974H561.1c.11,2.526.173,5.35.173,8.5v4.487Z" transform="translate(-541.896 -381.155)" fill="#777"/>
        <path id="Caminho_167" data-name="Caminho 167" d="M632,395.76V381.5h4.189a2.177,2.177,0,0,1,1.208.329,2.509,2.509,0,0,1,.8.91,4.785,4.785,0,0,1,.439,1.286,7.692,7.692,0,0,1,.126,1.506,7.563,7.563,0,0,1-.235,1.93,3.273,3.273,0,0,1-.784,1.459,2.722,2.722,0,0,1-1.02.659,4.173,4.173,0,0,1-1.286.2h-1.381v5.961H632Zm2.055-8.048h1.1a1.325,1.325,0,0,0,1.114-.5,2.955,2.955,0,0,0,.376-1.726,2.273,2.273,0,0,0-.361-1.522,1.845,1.845,0,0,0-1.3-.361h-.941v4.11Z" transform="translate(-603.276 -381.155)" fill="#777"/>
        <path id="Caminho_168" data-name="Caminho 168" d="M685.855,389.626v6.134H683.8V381.5h3.891a4.524,4.524,0,0,1,1.271.173,2.4,2.4,0,0,1,.988.565,2.662,2.662,0,0,1,.643,1.067,4.909,4.909,0,0,1,.22,1.616,9.771,9.771,0,0,1-.078,1.208,4.166,4.166,0,0,1-.267,1.035,2.14,2.14,0,0,1-.518.784,1.664,1.664,0,0,1-.831.408v.031a1.593,1.593,0,0,1,1.224.816,3.778,3.778,0,0,1,.361,1.773c0,.58,0,1.1.016,1.553s.031.894.063,1.318.078.784.125,1.082a1.064,1.064,0,0,0,.235.565v.267h-2.259a6.2,6.2,0,0,1-.173-1.255c-.031-.5-.047-1.114-.047-1.8v-.659c-.016-.329-.016-.6-.031-.784a3.888,3.888,0,0,0-.078-.6,1.3,1.3,0,0,0-.22-.518.816.816,0,0,0-.377-.314,2.1,2.1,0,0,0-.706-.157c-.251-.016-.6-.031-1.035-.031h-.361Zm0-2.086h1.616a1.112,1.112,0,0,0,.878-.549,2.749,2.749,0,0,0,.33-1.506,2.49,2.49,0,0,0-.314-1.49,1.245,1.245,0,0,0-.973-.392h-1.522v3.938Z" transform="translate(-646.949 -381.155)" fill="#777"/>
        <path id="Caminho_169" data-name="Caminho 169" d="M735.7,395.76l2.62-14.26H741.1l2.494,14.26h-2.2l-.549-3.608h-2.4l-.549,3.608Zm3.059-5.695h1.757l-.565-4.047c-.063-.361-.11-.894-.173-1.616l-.031-.361c-.016-.235-.031-.565-.078-.957h-.031c-.031.392-.063.706-.078.957l-.031.361c-.063.722-.11,1.255-.173,1.616Z" transform="translate(-690.708 -381.155)" fill="#777"/>
        <path id="Caminho_170" data-name="Caminho 170" d="M816.779,385.877H814.3v-1.9a3.488,3.488,0,0,0,1.961-.565,3.023,3.023,0,0,0,1.067-1.914h1.506v14.26h-2.055Z" transform="translate(-756.977 -381.155)" fill="#777"/>
        <path id="Caminho_171" data-name="Caminho 171" d="M861.4,385.195a5.09,5.09,0,0,1,.753-3.138,2.685,2.685,0,0,1,2.228-.957,2.63,2.63,0,0,1,2.212.957,5.09,5.09,0,0,1,.753,3.138v6.4a5.176,5.176,0,0,1-.753,3.153,3.053,3.053,0,0,1-4.44,0,5.176,5.176,0,0,1-.753-3.153Zm2.055,6.416a3.743,3.743,0,0,0,.235,1.584.716.716,0,0,0,.659.439.758.758,0,0,0,.69-.439,3.417,3.417,0,0,0,.251-1.584v-6.4a3.265,3.265,0,0,0-.251-1.553.758.758,0,0,0-.69-.439.726.726,0,0,0-.659.424,3.564,3.564,0,0,0-.235,1.569Z" transform="translate(-796.688 -380.818)" fill="#777"/>
        <path id="Caminho_172" data-name="Caminho 172" d="M908.2,385.195a5.091,5.091,0,0,1,.753-3.138,2.685,2.685,0,0,1,2.228-.957,2.631,2.631,0,0,1,2.212.957,5.091,5.091,0,0,1,.753,3.138v6.4a5.176,5.176,0,0,1-.753,3.153,3.053,3.053,0,0,1-4.44,0,5.176,5.176,0,0,1-.753-3.153Zm2.055,6.416a3.742,3.742,0,0,0,.235,1.584.716.716,0,0,0,.659.439.758.758,0,0,0,.69-.439,3.419,3.419,0,0,0,.251-1.584v-6.4a3.267,3.267,0,0,0-.251-1.553.758.758,0,0,0-.69-.439.726.726,0,0,0-.659.424,3.563,3.563,0,0,0-.235,1.569Z" transform="translate(-836.146 -380.818)" fill="#777"/>
        <path id="Caminho_173" data-name="Caminho 173" d="M956.867,382.049a1.679,1.679,0,0,1,.69.753,3.7,3.7,0,0,1,.282,1.051,15.6,15.6,0,0,1,0,2.792,3.562,3.562,0,0,1-.282,1.051,1.679,1.679,0,0,1-.69.753,2.376,2.376,0,0,1-1.239.282,2.257,2.257,0,0,1-1.208-.282,1.645,1.645,0,0,1-.675-.753,3.7,3.7,0,0,1-.282-1.051,15.71,15.71,0,0,1,0-2.808,3.7,3.7,0,0,1,.282-1.051,1.736,1.736,0,0,1,.675-.753,2.3,2.3,0,0,1,1.208-.282A2.719,2.719,0,0,1,956.867,382.049Zm-1.914,1.585a9.314,9.314,0,0,0,0,3.232.67.67,0,0,0,.722.471.651.651,0,0,0,.706-.471,6.588,6.588,0,0,0,.125-1.632,7.587,7.587,0,0,0-.125-1.632.652.652,0,0,0-.706-.471A.714.714,0,0,0,954.953,383.634ZM956,396.043,960.93,381.5h1.02l-4.91,14.543Zm7.687-6.965a1.681,1.681,0,0,1,.69.753,3.7,3.7,0,0,1,.282,1.051c.031.392.063.847.063,1.4a11.96,11.96,0,0,1-.063,1.4,2.814,2.814,0,0,1-.282,1.051,1.68,1.68,0,0,1-.69.753,2.376,2.376,0,0,1-1.239.282,2.256,2.256,0,0,1-1.208-.282,1.645,1.645,0,0,1-.675-.753,3.7,3.7,0,0,1-.282-1.051,15.71,15.71,0,0,1,0-2.808,3.848,3.848,0,0,1,.282-1.051,1.737,1.737,0,0,1,.675-.753,2.294,2.294,0,0,1,1.208-.282A2.937,2.937,0,0,1,963.691,389.077Zm-1.93,1.585a6.385,6.385,0,0,0-.141,1.632,6.469,6.469,0,0,0,.141,1.632.765.765,0,0,0,1.412,0,6.58,6.58,0,0,0,.126-1.632,7.569,7.569,0,0,0-.126-1.632.765.765,0,0,0-1.412,0Z" transform="translate(-874.255 -381.155)" fill="#777"/>
      </g>
    </g>
    <g id="Grupo_78" data-name="Grupo 78" transform="translate(0 19.986)">
      <g id="Grupo_77" data-name="Grupo 77">
        <path id="Caminho_174" data-name="Caminho 174" d="M452.481,516.338a12.6,12.6,0,0,0-.455-3.844,1.8,1.8,0,0,0-1.867-1.318,2.033,2.033,0,0,0-1.6.643,3.131,3.131,0,0,0-.565,2.086,4.174,4.174,0,0,0,.518,2.275,10.4,10.4,0,0,0,1.679,1.851l.063.031c.471.408.894.8,1.3,1.161.392.361.8.753,1.208,1.145.408.408.832.816,1.255,1.271a12.355,12.355,0,0,1,1.035,1.208,8.228,8.228,0,0,1,1.38,2.745,12.485,12.485,0,0,1,.392,3.357,9.687,9.687,0,0,1-1.773,6.228,5.772,5.772,0,0,1-4.738,2.181,6.457,6.457,0,0,1-2.965-.643,5.138,5.138,0,0,1-1.992-1.8,8.515,8.515,0,0,1-1.114-2.777,17.178,17.178,0,0,1-.345-3.639v-2.134h3.938v1.71a8.86,8.86,0,0,0,.58,3.655,1.961,1.961,0,0,0,1.9,1.239c1.632,0,2.447-1.145,2.447-3.42a5.521,5.521,0,0,0-.392-2.181,5.1,5.1,0,0,0-1.177-1.679c-.455-.486-1.161-1.177-2.134-2.055a32.761,32.761,0,0,1-2.432-2.369,13.124,13.124,0,0,1-1.647-2.29,10.053,10.053,0,0,1-1.02-4.471,9.138,9.138,0,0,1,1.553-5.742,5.586,5.586,0,0,1,4.644-1.961,5.53,5.53,0,0,1,3.42.957,5.644,5.644,0,0,1,1.867,2.385,10.086,10.086,0,0,1,.722,2.839c.094.941.141,1.961.141,3.075v.314h-3.828Z" transform="translate(-443.9 -506.784)" fill="#95c11f"/>
        <path id="Caminho_175" data-name="Caminho 175" d="M546.3,540.264V511.1h11.107v4.283h-7.154v7.358h6.589v4.283h-6.589v8.989h7.154v4.251Z" transform="translate(-530.236 -510.41)" fill="#95c11f"/>
        <path id="Caminho_176" data-name="Caminho 176" d="M634.416,519.642c.063-2.259.157-4.11.314-5.538a14.256,14.256,0,0,1,.894-3.843,5.454,5.454,0,0,1,2.039-2.62,6.378,6.378,0,0,1,3.655-.941,6.774,6.774,0,0,1,4.361,1.381c1.067.894,1.82,2.541,2.259,4.926a21.119,21.119,0,0,1,.2,2.839v.706H644.2c-.016-.91-.063-1.647-.11-2.243a6.278,6.278,0,0,0-.361-1.6,2.451,2.451,0,0,0-.863-1.145,2.791,2.791,0,0,0-1.537-.471,2.068,2.068,0,0,0-1.537.6,3.679,3.679,0,0,0-.863,1.632,10.963,10.963,0,0,0-.361,2.259c-.063.816-.079,1.773-.079,2.855v8.079c0,.8.031,1.537.079,2.212a10.049,10.049,0,0,0,.361,1.961,3.551,3.551,0,0,0,.863,1.553,2.01,2.01,0,0,0,1.537.6c1.035,0,1.773-.659,2.228-1.977a18.469,18.469,0,0,0,.675-5.71h-2.73v-4.283h6.558v15.688H645.1v-3.342h-.063a6.277,6.277,0,0,1-1.506,3.012,3.637,3.637,0,0,1-2.212,1.035,6.545,6.545,0,0,1-3.749-.973,5.669,5.669,0,0,1-2.087-2.73,14.839,14.839,0,0,1-.879-4.032c-.126-1.522-.2-3.436-.2-5.742v-4.142Z" transform="translate(-604.515 -506.7)" fill="#95c11f"/>
        <path id="Caminho_177" data-name="Caminho 177" d="M756.06,511.1H760v20.347c0,3.341-.486,5.773-1.459,7.279s-2.714,2.259-5.208,2.259c-2.51,0-4.267-.753-5.255-2.259s-1.475-3.922-1.475-7.279V511.1h3.938v19.876c0,.863.031,1.6.078,2.212a7.525,7.525,0,0,0,.345,1.694,2.621,2.621,0,0,0,.847,1.224,2.367,2.367,0,0,0,1.537.471,2.162,2.162,0,0,0,1.475-.471,2.808,2.808,0,0,0,.816-1.224,6.753,6.753,0,0,0,.345-1.694c.047-.628.063-1.365.063-2.212V511.1Z" transform="translate(-699.113 -510.41)" fill="#95c11f"/>
        <path id="Caminho_178" data-name="Caminho 178" d="M859.938,527.7v12.566H856V511.1h7.467a7.851,7.851,0,0,1,2.432.345,4.691,4.691,0,0,1,1.883,1.161,5.529,5.529,0,0,1,1.239,2.181,10.706,10.706,0,0,1,.439,3.31,20.052,20.052,0,0,1-.141,2.463,9.523,9.523,0,0,1-.5,2.118,4.64,4.64,0,0,1-1,1.616,3.043,3.043,0,0,1-1.584.831v.078a3.086,3.086,0,0,1,2.353,1.679,8.146,8.146,0,0,1,.69,3.624c0,1.192.016,2.243.031,3.169s.063,1.82.11,2.683a21.374,21.374,0,0,0,.251,2.212,2.031,2.031,0,0,0,.455,1.145v.549h-4.346a13.064,13.064,0,0,1-.329-2.573c-.047-1.035-.078-2.275-.094-3.7v-1.365c-.016-.675-.031-1.208-.063-1.616a6.538,6.538,0,0,0-.157-1.224,3.088,3.088,0,0,0-.408-1.067,1.615,1.615,0,0,0-.737-.643,3.792,3.792,0,0,0-1.349-.329c-.486-.031-1.161-.063-1.992-.063h-.706Zm0-4.267h3.106a2.1,2.1,0,0,0,1.679-1.114,5.988,5.988,0,0,0,.628-3.091,5.266,5.266,0,0,0-.612-3.059,2.4,2.4,0,0,0-1.867-.8h-2.934Z" transform="translate(-791.351 -510.41)" fill="#95c11f"/>
        <path id="Caminho_179" data-name="Caminho 179" d="M955.4,540.264l5.036-29.164h5.318l4.8,29.164h-4.22l-1.035-7.389h-4.628l-1.035,7.389Zm5.883-11.672h3.373l-1.067-8.283c-.11-.722-.22-1.836-.345-3.31l-.063-.737c-.016-.486-.063-1.145-.141-1.945h-.063c-.078.8-.125,1.459-.141,1.945l-.063.737c-.11,1.475-.22,2.573-.345,3.31Z" transform="translate(-875.157 -510.41)" fill="#95c11f"/>
      </g>
    </g>
  </g>
  <rect id="Retângulo_51" data-name="Retângulo 51" width="0.769" height="51.597" transform="translate(57.386 0.016)" fill="#777"/>
</svg>
