<svg xmlns="http://www.w3.org/2000/svg" xmlns:xlink="http://www.w3.org/1999/xlink" width="70.94" height="70.939" viewBox="0 0 70.94 70.939">
  <defs>
    <clipPath id="clip-path">
      <rect id="Retângulo_258" data-name="Retângulo 258" width="70.94" height="70.94"/>
    </clipPath>
  </defs>
  <g id="produtos_100_natural" data-name="produtos 100% natural" clip-path="url(#clip-path)">
    <path id="Caminho_710" data-name="Caminho 710" d="M86.829,124.749c.417-1.8,1.792-3,2.811-4.417.45-.627.956-1.215,1.454-1.806a.636.636,0,0,0,.127-.669c-.431-1.448-.895-2.889-1.241-4.358a15.62,15.62,0,0,1-.184-5.591,20.309,20.309,0,0,1,4.05-9.849,18.746,18.746,0,0,1,10.079-6.772,36.863,36.863,0,0,1,7.182-1.262c2.225-.185,4.455-.334,6.672-.592a26.754,26.754,0,0,0,5.728-1.359,4.208,4.208,0,0,1,5.181,1.761,4.707,4.707,0,0,1,.461,3.32c-.381,2.307-.7,4.626-1.15,6.92a58.387,58.387,0,0,1-4.3,14.082,20.013,20.013,0,0,1-14.161,11.281,16.849,16.849,0,0,1-11.375-1.2c-.536.763-1.079,1.525-1.61,2.294a22.1,22.1,0,0,1-1.28,1.878,3.943,3.943,0,0,1-4.049,1.372,5.742,5.742,0,0,1-3.358-1.626,5.124,5.124,0,0,1-1.039-2.17Zm7.124-9.582c.2-.233.334-.406.486-.564a45.249,45.249,0,0,1,11.435-8.788,35.069,35.069,0,0,1,6.945-2.822,1.57,1.57,0,1,1,.815,3.023,34.663,34.663,0,0,0-9.1,4.225,38.174,38.174,0,0,0-7.775,6.532c-1.532,1.721-3,3.5-4.476,5.269-.722.869-1.4,1.778-2.075,2.685a1.028,1.028,0,0,0,.539,1.679c.26.088.524.165.788.243a1.19,1.19,0,0,0,1.605-.59c1.192-1.671,2.4-3.336,3.629-4.976a1.118,1.118,0,0,1,1.7-.3,15.474,15.474,0,0,0,1.4.795,14.424,14.424,0,0,0,10.018.573,17.356,17.356,0,0,0,9.052-6.485,25.233,25.233,0,0,0,3.85-7.723A92.115,92.115,0,0,0,126.1,92.306c.1-.689-.1-1.148-.614-1.288a1.783,1.783,0,0,0-1,.044,40.684,40.684,0,0,1-11.274,1.944,41.043,41.043,0,0,0-7.037.913,16.727,16.727,0,0,0-7.476,3.6,16.41,16.41,0,0,0-5.871,11.628,12.241,12.241,0,0,0,1.121,6.022" transform="translate(-72.571 -73.375)"/>
    <path id="Caminho_711" data-name="Caminho 711" d="M35.47,0a35.47,35.47,0,1,0,35.47,35.47A35.47,35.47,0,0,0,35.47,0m0,68.746A33.276,33.276,0,1,1,68.746,35.469,33.277,33.277,0,0,1,35.47,68.745" transform="translate(0 0.001)"/>
  </g>
</svg>
