<svg xmlns="http://www.w3.org/2000/svg" xmlns:xlink="http://www.w3.org/1999/xlink" width="100" height="100" viewBox="0 0 100 100">
  <defs>
    <clipPath id="clip-path">
      <rect id="Ret창ngulo_260" data-name="Ret창ngulo 260" width="100" height="100" transform="translate(0.458 0.309)" fill="#ff4289"/>
    </clipPath>
  </defs>
  <g id="N찾o_engorda" data-name="N찾o engorda" transform="translate(-0.458 -0.309)">
    <g id="Grupo_226" data-name="Grupo 226" transform="translate(0)" clip-path="url(#clip-path)">
      <path id="Caminho_716" data-name="Caminho 716" d="M103.048,134.374c-.964-.212-1.943-.372-2.89-.645a16.124,16.124,0,0,1-9.694-7.928,53.673,53.673,0,0,1-5.2-13.624,46.2,46.2,0,0,1-1.483-11.607,27.723,27.723,0,0,1,2.853-13.093c3.225-6.1,8.44-9.178,15.214-9.613,3.415-.219,6.408,1.186,9.171,3.089.686.472,1.364.956,2.117,1.484.079-1.865.155-3.667.232-5.491a21.672,21.672,0,0,1-2.36-.014,6.056,6.056,0,0,1-4.771-3.072,28.9,28.9,0,0,1-2.894-7.474,8.717,8.717,0,0,1-.3-1.491A1.249,1.249,0,0,1,104.1,63.48a30.471,30.471,0,0,1,9.477.038,6.366,6.366,0,0,1,5,4.768c.021.066.03.136.049.2s.041.124.04.123c1.17-.6,2.308-1.263,3.512-1.776a11.826,11.826,0,0,1,4.738-.917c.966.005,1.551.458,1.6,1.257a1.377,1.377,0,0,1-1.528,1.5,10.731,10.731,0,0,0-6.405,2.144,10.91,10.91,0,0,0-4.6,8.846c-.024.9,0,1.792,0,2.833.651-.457,1.191-.838,1.733-1.217a17.616,17.616,0,0,1,7.211-3.244,15.519,15.519,0,0,1,8.545,1.164c6.118,2.492,9.469,7.245,11.022,13.46a35.26,35.26,0,0,1,.743,11.728,57.556,57.556,0,0,1-5.486,19.523,17.888,17.888,0,0,1-8.13,8.823,14.916,14.916,0,0,1-5.09,1.512,1.833,1.833,0,0,0-.382.131h-3.756c-.059-.034-.116-.092-.177-.1a25.04,25.04,0,0,1-7.328-1.981,1.108,1.108,0,0,0-.7.05c-1.38.451-2.738.977-4.134,1.373-1.057.3-2.158.444-3.24.657Zm39.56-33.732.2-.029c-.317-2.379-.473-4.794-.985-7.131-1.109-5.056-3.683-9.079-8.567-11.357-4-1.865-7.958-2.172-11.887.1-1.239.718-2.408,1.56-3.585,2.381-2.7,1.882-3.686,1.891-6.354.01-.852-.6-1.7-1.209-2.571-1.778a11.541,11.541,0,0,0-5.5-2.141,14.475,14.475,0,0,0-12.828,5.73c-2.731,3.42-3.617,7.554-3.88,11.816a46.806,46.806,0,0,0,2.788,18.269,35.583,35.583,0,0,0,4.27,9.222,13.012,13.012,0,0,0,11.408,5.87,21.424,21.424,0,0,0,8.629-2.1,2.017,2.017,0,0,1,1.49-.1,22.925,22.925,0,0,0,7.223,2.091,13.153,13.153,0,0,0,12.6-5.177,28.906,28.906,0,0,0,3.957-7.757,50.8,50.8,0,0,0,3.6-17.922M106.124,66.056a26.376,26.376,0,0,0,2.394,6.251A3.8,3.8,0,0,0,113.3,74a4.14,4.14,0,0,0,2.71-4.171,3.729,3.729,0,0,0-2.792-3.551,23.5,23.5,0,0,0-7.094-.223" transform="translate(-64.919 -48.416)" fill="#ff4289"/>
      <path id="Caminho_717" data-name="Caminho 717" d="M253.571,299.876c.009,0-.083,0-.176,0a1.407,1.407,0,0,1-1.527-1.361,1.376,1.376,0,0,1,1.48-1.4,6.913,6.913,0,0,0,5.975-3.211,22.266,22.266,0,0,0,1.588-2.836c.482-1,.863-2.041,1.289-3.064.392-.941,1.112-1.311,1.909-.983a1.415,1.415,0,0,1,.665,1.99c-1.06,2.639-2.061,5.308-3.976,7.5a9.684,9.684,0,0,1-7.227,3.37" transform="translate(-193.84 -220.049)" fill="#ff4289"/>
      <path id="Caminho_718" data-name="Caminho 718" d="M309.59,233.926c-.305,1.726-.584,3.457-.926,5.176a1.319,1.319,0,0,1-1.6,1.08A1.362,1.362,0,0,1,306,238.572q.363-2.5.763-5a1.431,1.431,0,0,1,1.482-1.277c.8.072,1.276.683,1.345,1.628" transform="translate(-235.345 -178.165)" fill="#ff4289"/>
      <path id="Caminho_719" data-name="Caminho 719" d="M50.334,0a50.334,50.334,0,1,0,50.334,50.334A50.334,50.334,0,0,0,50.334,0m0,97.555A47.221,47.221,0,1,1,97.555,50.333,47.221,47.221,0,0,1,50.334,97.554" transform="translate(-0.662 0.001)" fill="#ff4289"/>
    </g>
  </g>
</svg>
