<svg xmlns="http://www.w3.org/2000/svg" xmlns:xlink="http://www.w3.org/1999/xlink" width="97.826" height="97.826" viewBox="0 0 97.826 97.826">
  <defs>
    <clipPath id="clip-path">
      <rect id="Retângulo_258" data-name="Retângulo 258" width="97.826" height="97.826" fill="#ff4289"/>
    </clipPath>
  </defs>
  <g id="produtos_100_natural" data-name="produtos 100% natural" clip-path="url(#clip-path)">
    <path id="Caminho_710" data-name="Caminho 710" d="M86.829,138.756c.575-2.486,2.472-4.134,3.876-6.091.621-.865,1.318-1.675,2-2.49a.876.876,0,0,0,.176-.923c-.594-2-1.234-3.984-1.712-6.009a21.54,21.54,0,0,1-.254-7.709,28.007,28.007,0,0,1,5.585-13.582,25.851,25.851,0,0,1,13.9-9.338,50.835,50.835,0,0,1,9.9-1.74c3.069-.255,6.144-.461,9.2-.816a36.894,36.894,0,0,0,7.9-1.874,5.8,5.8,0,0,1,7.145,2.428,6.491,6.491,0,0,1,.636,4.579c-.526,3.182-.97,6.379-1.586,9.543a80.517,80.517,0,0,1-5.928,19.419c-3.974,8.344-10.61,13.451-19.528,15.557a23.235,23.235,0,0,1-15.686-1.648c-.739,1.052-1.488,2.1-2.22,3.164a30.476,30.476,0,0,1-1.765,2.589,5.437,5.437,0,0,1-5.583,1.892,7.918,7.918,0,0,1-4.631-2.242,7.066,7.066,0,0,1-1.432-2.993Zm9.824-13.213c.275-.321.461-.56.67-.778a62.4,62.4,0,0,1,15.769-12.119,48.361,48.361,0,0,1,9.577-3.891,2.165,2.165,0,1,1,1.124,4.168,47.8,47.8,0,0,0-12.554,5.827,52.642,52.642,0,0,0-10.722,9.007c-2.113,2.373-4.141,4.822-6.172,7.266-1,1.2-1.929,2.452-2.861,3.7a1.417,1.417,0,0,0,.744,2.315c.359.121.723.228,1.086.335a1.641,1.641,0,0,0,2.214-.814c1.644-2.3,3.3-4.6,5-6.862a1.542,1.542,0,0,1,2.348-.416,21.345,21.345,0,0,0,1.932,1.1,19.891,19.891,0,0,0,13.815.79,23.934,23.934,0,0,0,12.482-8.942,34.8,34.8,0,0,0,5.309-10.65,127.026,127.026,0,0,0,4.567-21.56c.131-.949-.143-1.583-.847-1.776a2.459,2.459,0,0,0-1.375.061,56.1,56.1,0,0,1-15.547,2.681,56.6,56.6,0,0,0-9.7,1.259A23.066,23.066,0,0,0,103.2,101.2a22.63,22.63,0,0,0-8.1,16.036,16.881,16.881,0,0,0,1.546,8.3" transform="translate(-67.167 -67.911)" fill="#ff4289"/>
    <path id="Caminho_711" data-name="Caminho 711" d="M48.913,0A48.913,48.913,0,1,0,97.826,48.912,48.913,48.913,0,0,0,48.913,0m0,94.8A45.889,45.889,0,1,1,94.8,48.912,45.889,45.889,0,0,1,48.913,94.8" transform="translate(0 0.001)" fill="#ff4289"/>
  </g>
</svg>
