<svg xmlns="http://www.w3.org/2000/svg" xmlns:xlink="http://www.w3.org/1999/xlink" width="73" height="73" viewBox="0 0 73 73">
  <defs>
    <clipPath id="clip-path">
      <rect id="Ret창ngulo_260" data-name="Ret창ngulo 260" width="73" height="73" transform="translate(0.48)"/>
    </clipPath>
  </defs>
  <g id="N찾o_engorda" data-name="N찾o engorda" transform="translate(-0.48)">
    <g id="Grupo_226" data-name="Grupo 226" clip-path="url(#clip-path)">
      <path id="Caminho_716" data-name="Caminho 716" d="M97.752,114.792c-.7-.154-1.409-.27-2.1-.468a11.692,11.692,0,0,1-7.029-5.749,38.921,38.921,0,0,1-3.773-9.88,33.5,33.5,0,0,1-1.075-8.417,20.1,20.1,0,0,1,2.069-9.495,12.625,12.625,0,0,1,11.033-6.971,10.5,10.5,0,0,1,6.651,2.24c.5.343.989.693,1.535,1.076.057-1.352.112-2.659.168-3.982a15.716,15.716,0,0,1-1.712-.01,4.392,4.392,0,0,1-3.459-2.228,20.959,20.959,0,0,1-2.1-5.419,6.322,6.322,0,0,1-.221-1.081.905.905,0,0,1,.768-1.026,22.1,22.1,0,0,1,6.872.027,4.616,4.616,0,0,1,3.623,3.457c.015.048.022.1.036.147s.029.09.029.089c.848-.434,1.674-.916,2.547-1.288a8.576,8.576,0,0,1,3.436-.665c.7,0,1.125.332,1.157.912a1,1,0,0,1-1.108,1.086A7.782,7.782,0,0,0,110.46,68.7a7.912,7.912,0,0,0-3.332,6.414c-.017.65,0,1.3,0,2.054.472-.332.864-.608,1.257-.883a12.774,12.774,0,0,1,5.229-2.352,11.253,11.253,0,0,1,6.2.844c4.436,1.807,6.867,5.254,7.993,9.761a25.57,25.57,0,0,1,.539,8.5A41.738,41.738,0,0,1,124.36,107.2a12.972,12.972,0,0,1-5.9,6.4,10.817,10.817,0,0,1-3.691,1.1,1.329,1.329,0,0,0-.277.095h-2.723c-.043-.025-.084-.067-.129-.071a18.157,18.157,0,0,1-5.314-1.437.8.8,0,0,0-.508.036c-1,.327-1.986.709-3,1-.766.218-1.565.322-2.349.476ZM126.44,90.331l.144-.021c-.23-1.725-.343-3.477-.714-5.171-.8-3.667-2.671-6.584-6.212-8.236-2.9-1.353-5.771-1.575-8.62.076-.9.521-1.746,1.131-2.6,1.727-1.956,1.365-2.673,1.371-4.608.007-.618-.435-1.232-.876-1.865-1.29a8.369,8.369,0,0,0-3.992-1.553,10.5,10.5,0,0,0-9.3,4.155,14.694,14.694,0,0,0-2.814,8.568,33.942,33.942,0,0,0,2.022,13.248,25.8,25.8,0,0,0,3.1,6.687,9.436,9.436,0,0,0,8.273,4.256,15.536,15.536,0,0,0,6.257-1.522,1.463,1.463,0,0,1,1.08-.073,16.624,16.624,0,0,0,5.238,1.517,9.538,9.538,0,0,0,9.138-3.754,20.961,20.961,0,0,0,2.87-5.625,36.834,36.834,0,0,0,2.608-13M99.983,65.251a19.127,19.127,0,0,0,1.736,4.533,2.756,2.756,0,0,0,3.468,1.229,3,3,0,0,0,1.965-3.025,2.7,2.7,0,0,0-2.025-2.575,17.044,17.044,0,0,0-5.145-.162" transform="translate(-69.622 -52.458)"/>
      <path id="Caminho_717" data-name="Caminho 717" d="M253.1,296.311h-.128a1.02,1.02,0,0,1-1.107-.987,1,1,0,0,1,1.073-1.016,5.013,5.013,0,0,0,4.333-2.328,16.145,16.145,0,0,0,1.151-2.057c.349-.722.626-1.48.934-2.222.284-.682.807-.951,1.384-.713a1.026,1.026,0,0,1,.483,1.443,18.129,18.129,0,0,1-2.883,5.436,7.022,7.022,0,0,1-5.241,2.444" transform="translate(-209.309 -238.423)"/>
      <path id="Caminho_718" data-name="Caminho 718" d="M308.6,233.478c-.221,1.252-.423,2.507-.672,3.754a.956.956,0,0,1-1.158.783.988.988,0,0,1-.773-1.168q.263-1.813.553-3.623a1.038,1.038,0,0,1,1.074-.926c.58.052.925.5.976,1.18" transform="translate(-254.28 -193.042)"/>
      <path id="Caminho_719" data-name="Caminho 719" d="M36.5,0A36.5,36.5,0,1,0,73,36.5,36.5,36.5,0,0,0,36.5,0m0,70.743A34.243,34.243,0,1,1,70.743,36.5,34.243,34.243,0,0,1,36.5,70.742" transform="translate(0 0.001)"/>
    </g>
  </g>
</svg>
