<svg xmlns="http://www.w3.org/2000/svg" xmlns:xlink="http://www.w3.org/1999/xlink" width="57" height="59" viewBox="0 0 57 59">
  <defs>
    <clipPath id="clip-path">
      <rect id="Ret창ngulo_245" data-name="Ret창ngulo 245" width="57" height="59" transform="translate(-683 3545)" fill="none" stroke="#707070" stroke-width="1"/>
    </clipPath>
    <clipPath id="clip-path-2">
      <rect id="Ret창ngulo_201" data-name="Ret창ngulo 201" width="53.725" height="46.341" fill="none"/>
    </clipPath>
  </defs>
  <g id="RA" transform="translate(683 -3545)" clip-path="url(#clip-path)">
    <g id="Grupo_108" data-name="Grupo 108" transform="translate(-682 3550.29)">
      <g id="Grupo_107" data-name="Grupo 107" clip-path="url(#clip-path-2)">
        <path id="Caminho_528" data-name="Caminho 528" d="M14.431,40.35l-.083.462a.182.182,0,0,0-.048.274l-.058.3a.278.278,0,0,0-.063.389l-.058.3c-.1.063-.128.138-.036.231l-.055.315c-.111.07-.169.15-.05.264l-.073.428c-.1.072-.179.147-.053.265l-.074.462c-.111.059-.144.133-.042.231l-.08.462a.18.18,0,0,0-.057.273l-.056.305c-.1.063-.134.138-.034.231l-.087.462c-.1.065-.129.139-.031.231l-.1.46-.113,0c-.19-.2-.436-.111-.656-.111q-5.65-.009-11.3,0c-.291,0-.576.017-.782-.242l0-.222c.108-.06.136-.134.042-.231l.194-1.041a.294.294,0,0,0,.063-.387l.241-1.433c.117-.064.186-.139.063-.261l.064-.43c.141-.1.195-.223.074-.377l.054-.315c.091-.075.172-.152.045-.264l.08-.43a.2.2,0,0,0,.049-.3l.083-.421c.092-.066.133-.139.03-.231L1.8,38.418c.111-.068.18-.144.058-.263l.075-.429c.1-.086.147-.183.06-.306L2.069,37a.183.183,0,0,0,.048-.273l.4-2.236c.1-.074.161-.154.045-.265l.055-.315c.14-.1.194-.225.068-.378l.053-.316c.093-.073.177-.149.049-.263l.1-.578a.188.188,0,0,0,.045-.272l.064-.306c.1-.066.12-.142.027-.231l.288-1.587a.289.289,0,0,0,.079-.42l.054-.305a.284.284,0,0,0,.076-.387l.3-1.694a.186.186,0,0,0,.041-.272L4,26.051c.109-.07.175-.148.052-.264l.068-.429c.1-.073.177-.148.053-.264l.084-.462a.184.184,0,0,0,.05-.274l.056-.3a.209.209,0,0,0,.05-.346Q6.19,13.7,7.969,3.687A24.32,24.32,0,0,1,8.522.811q7.514,0,15.028.008c.186,0,.393.047.518-.159,4.312.071,8.286.99,11.228,4.49a3.464,3.464,0,0,0,.289.276,1.223,1.223,0,0,0,.3.61,9.534,9.534,0,0,1,1.227,2.97,14.193,14.193,0,0,1,.012,5.941,13.979,13.979,0,0,1-3.668,7.371,16.5,16.5,0,0,1-5.619,3.756.593.593,0,0,0-.4.841c.226.774.425,1.555.636,2.334,1.015,3.743,2.012,7.491,3.052,11.228.416,1.5.736,3.02,1.27,4.482q.187.816.374,1.632l-13.6.007c-.308-1.309-.441-2.647-.644-3.973-.56-3.646-1.093-7.3-1.637-10.944.1-.09.068-.165-.029-.231l-.073-.464a.209.209,0,0,0-.051-.345l-.04-.308a.407.407,0,0,0-.078-.5l-.027-.193a.544.544,0,0,0-.082-.573.682.682,0,0,0-.179.562l-.106.633c-.106.07-.181.146-.054.264l-.075.428c-.093.074-.17.152-.047.265L16,31.534c-.143.1-.192.225-.069.378l-.051.316a.3.3,0,0,0-.08.42l-.07.421c-.092.064-.138.135-.036.23l-.048.2c-.137.11-.181.233-.054.38l-.063.314c-.1.072-.169.15-.051.264l-.04.319c-.117.062-.2.133-.067.259l-.071.429a.3.3,0,0,0-.079.42l-.049.306a.281.281,0,0,0-.076.387l-.044.306a.18.18,0,0,0-.047.274l-.183.963c-.118.113-.177.233-.053.38l-.04.2c-.108.069-.18.146-.054.263l-.066.429c-.108.069-.183.145-.055.264l-.065.43c-.094.072-.177.146-.055.264m9.617-26.1c.006-1.571-.259-2.8-1.531-3.553a4.559,4.559,0,0,0-2.221-.515c-.418-.015-.563.137-.628.539-.239,1.479-.517,2.952-.777,4.428q-.5,2.81-.988,5.621c-.042.239-.126.477.269.453,2.154-.129,3.927-.9,4.918-2.954a10.248,10.248,0,0,0,.958-4.02" transform="translate(-0.388 -0.584)" fill="#92c420"/>
        <path id="Caminho_529" data-name="Caminho 529" d="M238.039,44.375c-.534-1.463-.854-2.987-1.27-4.482-1.04-3.736-2.038-7.484-3.052-11.228-.211-.778-.41-1.56-.636-2.334a.593.593,0,0,1,.4-.841,16.5,16.5,0,0,0,5.619-3.756,13.979,13.979,0,0,0,3.668-7.371,14.191,14.191,0,0,0-.012-5.941,9.535,9.535,0,0,0-1.227-2.97,1.223,1.223,0,0,1-.3-.61c.573-1.428,1.158-2.852,1.71-4.288A.717.717,0,0,1,243.728,0q6.73.029,13.46,0c.511,0,.648.145.667.638q.288,7.531.615,15.061.452,10.7.913,21.406c.121,2.846.232,5.693.372,8.539.023.468-.075.624-.578.621q-5.748-.032-11.5,0c-.511,0-.6-.168-.575-.631.084-1.865.118-3.733.2-5.6.019-.445-.1-.6-.568-.592q-3.235.037-6.47,0a.673.673,0,0,0-.773.554c-.473,1.462-.869,2.95-1.451,4.376m10.1-30.8-.135-.025q-.528,1.611-1.057,3.222-2.083,6.387-4.169,12.774c-.119.362-.141.555.354.545q2.049-.042,4.1,0c.432.008.5-.174.508-.546.058-2.77.135-5.539.2-8.309q.1-3.83.195-7.66" transform="translate(-206.033 0)" fill="#01884c"/>
        <path id="Caminho_530" data-name="Caminho 530" d="M85.755.244c-.126.205-.332.159-.518.159Q77.722.4,70.208.4c.031-.271.244-.2.4-.2q7.462,0,14.925,0a1.133,1.133,0,0,1,.223.044" transform="translate(-62.074 -0.168)" fill="#8bc005"/>
        <path id="Caminho_531" data-name="Caminho 531" d="M162.106,397.119l13.6-.007c-.072.4-.39.216-.588.216-3.69.012-7.381.009-11.072.009-.5,0-1,.008-1.5,0-.168,0-.412.1-.441-.214" transform="translate(-143.325 -351.104)" fill="#8ec111"/>
        <path id="Caminho_532" data-name="Caminho 532" d="M12.788,397.18l.113,0c-.106.27-.347.2-.543.2q-5.928.006-11.856,0c-.2,0-.569.163-.493-.313a.454.454,0,0,0,.417.144l12.361-.021" transform="translate(0 -351.056)" fill="#c1dd87"/>
        <path id="Caminho_533" data-name="Caminho 533" d="M12.865,395.411.5,395.432a.454.454,0,0,1-.417-.144l.041-.232c.206.259.49.243.782.242q5.65-.006,11.3,0c.22,0,.465-.088.656.111" transform="translate(-0.077 -349.287)" fill="#8ec111"/>
        <path id="Caminho_534" data-name="Caminho 534" d="M137.6,246.41a.682.682,0,0,1,.179-.562.544.544,0,0,1,.082.573l-.26-.011" transform="translate(-121.663 -217.365)" fill="#c1dd87"/>
        <path id="Caminho_535" data-name="Caminho 535" d="M139.552,252.46a.407.407,0,0,1,.078.5.356.356,0,0,1-.078-.5" transform="translate(-123.323 -223.211)" fill="#c1dd87"/>
        <path id="Caminho_536" data-name="Caminho 536" d="M33.887,199.6a.209.209,0,0,1-.05.346.216.216,0,0,1,.05-.346" transform="translate(-29.859 -176.472)" fill="#c1dd87"/>
        <path id="Caminho_537" data-name="Caminho 537" d="M132.6,273.553a.3.3,0,0,1,.079-.42.318.318,0,0,1-.079.42" transform="translate(-117.188 -241.489)" fill="#c1dd87"/>
        <path id="Caminho_538" data-name="Caminho 538" d="M2.016,378.825a.294.294,0,0,1-.063.387c-.125-.153-.078-.278.063-.387" transform="translate(-1.662 -334.936)" fill="#c1dd87"/>
        <path id="Caminho_539" data-name="Caminho 539" d="M18.925,284.4c.126.153.072.273-.068.378a.276.276,0,0,1,.068-.378" transform="translate(-16.632 -251.448)" fill="#c1dd87"/>
        <path id="Caminho_540" data-name="Caminho 540" d="M130.622,284.476c-.128-.147-.083-.27.053-.38a.287.287,0,0,1-.053.38" transform="translate(-115.421 -251.182)" fill="#c1dd87"/>
        <path id="Caminho_541" data-name="Caminho 541" d="M25.934,244.137a.284.284,0,0,1-.076.387.249.249,0,0,1,.076-.387" transform="translate(-22.806 -215.852)" fill="#c1dd87"/>
        <path id="Caminho_542" data-name="Caminho 542" d="M24.946,250.113a.289.289,0,0,1-.079.42.333.333,0,0,1,.079-.42" transform="translate(-21.949 -221.136)" fill="#c1dd87"/>
        <path id="Caminho_543" data-name="Caminho 543" d="M123.574,324.376c-.124-.146-.065-.267.053-.38a.269.269,0,0,1-.053.38" transform="translate(-109.196 -286.459)" fill="#c1dd87"/>
        <path id="Caminho_544" data-name="Caminho 544" d="M140.583,259.445a.208.208,0,0,1,.051.345.212.212,0,0,1-.051-.345" transform="translate(-124.236 -229.387)" fill="#c1dd87"/>
        <path id="Caminho_545" data-name="Caminho 545" d="M127.6,301.485a.3.3,0,0,1,.079-.42.315.315,0,0,1-.079.42" transform="translate(-112.767 -266.185)" fill="#c1dd87"/>
        <path id="Caminho_546" data-name="Caminho 546" d="M126.587,307.715a.281.281,0,0,1,.076-.387c.117.157.059.279-.076.387" transform="translate(-111.882 -271.722)" fill="#c1dd87"/>
        <path id="Caminho_547" data-name="Caminho 547" d="M6,357.233c.12.154.067.274-.074.378A.281.281,0,0,1,6,357.233" transform="translate(-5.205 -315.846)" fill="#c1dd87"/>
        <path id="Caminho_548" data-name="Caminho 548" d="M133.584,267.526c-.123-.153-.074-.274.069-.378a.271.271,0,0,1-.069.378" transform="translate(-118.046 -236.197)" fill="#c1dd87"/>
        <path id="Caminho_549" data-name="Caminho 549" d="M118.638,352.613a.278.278,0,0,1,.063-.389c.122.153.063.276-.063.389" transform="translate(-104.849 -311.417)" fill="#c1dd87"/>
        <path id="Caminho_550" data-name="Caminho 550" d="M33.036,205.207a.184.184,0,0,1-.05.274c-.11-.114-.042-.2.05-.274" transform="translate(-29.114 -181.433)" fill="#c1dd87"/>
        <path id="Caminho_551" data-name="Caminho 551" d="M32.018,211.56c.124.116.042.191-.053.264a.182.182,0,0,1,.053-.264" transform="translate(-28.23 -187.05)" fill="#c1dd87"/>
        <path id="Caminho_552" data-name="Caminho 552" d="M30.972,217.545c.123.116.057.194-.052.264a.18.18,0,0,1,.052-.264" transform="translate(-27.306 -192.341)" fill="#c1dd87"/>
        <path id="Caminho_553" data-name="Caminho 553" d="M29.1,227.167a.185.185,0,0,1-.041.272c-.114-.11-.058-.194.041-.272" transform="translate(-25.641 -200.848)" fill="#c1dd87"/>
        <path id="Caminho_554" data-name="Caminho 554" d="M135.715,256.429c-.127-.118-.052-.194.054-.264a.188.188,0,0,1-.054.264" transform="translate(-119.933 -226.487)" fill="#c1dd87"/>
        <path id="Caminho_555" data-name="Caminho 555" d="M134.685,262.407c-.123-.113-.047-.19.047-.265a.174.174,0,0,1-.047.265" transform="translate(-119.024 -231.771)" fill="#c1dd87"/>
        <path id="Caminho_556" data-name="Caminho 556" d="M141.74,266.426c.1.066.126.141.029.231-.095-.066-.119-.141-.029-.231" transform="translate(-125.269 -235.559)" fill="#c1dd87"/>
        <path id="Caminho_557" data-name="Caminho 557" d="M22.039,267.431c.094.089.074.165-.027.231-.094-.089-.075-.165.027-.231" transform="translate(-19.408 -236.448)" fill="#c1dd87"/>
        <path id="Caminho_558" data-name="Caminho 558" d="M21.133,272.064a.188.188,0,0,1-.045.272c-.107-.111-.055-.2.045-.272" transform="translate(-18.593 -240.544)" fill="#c1dd87"/>
        <path id="Caminho_559" data-name="Caminho 559" d="M20.02,279.4c.129.115.044.19-.049.263a.181.181,0,0,1,.049-.263" transform="translate(-17.625 -247.031)" fill="#c1dd87"/>
        <path id="Caminho_560" data-name="Caminho 560" d="M12.023,324.3c.122.119.053.2-.058.263a.187.187,0,0,1,.058-.263" transform="translate(-10.551 -286.725)" fill="#c1dd87"/>
        <path id="Caminho_561" data-name="Caminho 561" d="M128.79,295.382c-.128-.126-.049-.2.067-.259a.186.186,0,0,1-.067.259" transform="translate(-113.811 -260.931)" fill="#c1dd87"/>
        <path id="Caminho_562" data-name="Caminho 562" d="M122.78,329.268c-.127-.117-.054-.194.054-.263a.182.182,0,0,1-.054.263" transform="translate(-108.496 -290.888)" fill="#c1dd87"/>
        <path id="Caminho_563" data-name="Caminho 563" d="M121.737,335.247c-.127-.119-.053-.195.055-.264a.176.176,0,0,1-.055.264" transform="translate(-107.574 -296.173)" fill="#c1dd87"/>
        <path id="Caminho_564" data-name="Caminho 564" d="M9.126,340.266c.1.091.063.164-.03.231-.082-.089-.085-.167.03-.231" transform="translate(-7.99 -300.844)" fill="#c1dd87"/>
        <path id="Caminho_565" data-name="Caminho 565" d="M120.746,341.233c-.122-.117-.039-.192.055-.264a.18.18,0,0,1-.055.264" transform="translate(-106.703 -301.466)" fill="#c1dd87"/>
        <path id="Caminho_566" data-name="Caminho 566" d="M8.145,345.893a.2.2,0,0,1-.049.305.223.223,0,0,1,.049-.305" transform="translate(-7.121 -305.819)" fill="#c1dd87"/>
        <path id="Caminho_567" data-name="Caminho 567" d="M119.754,347.508a.183.183,0,0,1,.049-.274c.112.114.043.2-.049.274" transform="translate(-105.842 -307.005)" fill="#c1dd87"/>
        <path id="Caminho_568" data-name="Caminho 568" d="M7.062,352.233c.127.112.046.189-.045.264a.173.173,0,0,1,.045-.264" transform="translate(-6.167 -311.425)" fill="#c1dd87"/>
        <path id="Caminho_569" data-name="Caminho 569" d="M129.742,290.347c-.118-.114-.052-.193.051-.264a.18.18,0,0,1-.051.264" transform="translate(-114.655 -256.475)" fill="#c1dd87"/>
        <path id="Caminho_570" data-name="Caminho 570" d="M14.087,311.963a.183.183,0,0,1-.048.273c-.117-.115-.046-.2.048-.273" transform="translate(-12.358 -275.82)" fill="#c1dd87"/>
        <path id="Caminho_571" data-name="Caminho 571" d="M117.785,358.441c-.092-.093-.066-.168.036-.231.092.093.06.167-.036.231" transform="translate(-104.088 -316.709)" fill="#c1dd87"/>
        <path id="Caminho_572" data-name="Caminho 572" d="M116.809,363.184c-.119-.114-.061-.194.05-.264a.192.192,0,0,1-.05.264" transform="translate(-103.218 -320.874)" fill="#c1dd87"/>
        <path id="Caminho_573" data-name="Caminho 573" d="M5,364.2c.123.122.054.2-.063.261A.192.192,0,0,1,5,364.2" transform="translate(-4.338 -322.008)" fill="#c1dd87"/>
        <path id="Caminho_574" data-name="Caminho 574" d="M115.73,369.162c-.126-.117-.047-.193.053-.265a.18.18,0,0,1-.053.265" transform="translate(-102.265 -326.158)" fill="#c1dd87"/>
        <path id="Caminho_575" data-name="Caminho 575" d="M114.754,375.4c-.1-.1-.069-.171.042-.231.091.1.066.171-.042.231" transform="translate(-101.405 -331.707)" fill="#c1dd87"/>
        <path id="Caminho_576" data-name="Caminho 576" d="M125.8,313.586a.181.181,0,0,1,.047-.274c.106.112.035.194-.047.274" transform="translate(-111.189 -277.013)" fill="#c1dd87"/>
        <path id="Caminho_577" data-name="Caminho 577" d="M113.745,381.429a.18.18,0,0,1,.057-.273c.113.119.03.2-.057.273" transform="translate(-100.532 -336.997)" fill="#c1dd87"/>
        <path id="Caminho_578" data-name="Caminho 578" d="M112.794,386.376c-.1-.094-.069-.168.034-.231.091.092.064.167-.034.231" transform="translate(-99.673 -341.408)" fill="#c1dd87"/>
        <path id="Caminho_579" data-name="Caminho 579" d="M.1,391.148c.094.1.066.171-.043.231-.091-.1-.057-.169.043-.231" transform="translate(-0.005 -345.831)" fill="#c1dd87"/>
        <path id="Caminho_580" data-name="Caminho 580" d="M111.79,392.362c-.1-.092-.067-.166.031-.231.09.091.069.166-.031.231" transform="translate(-98.786 -346.701)" fill="#c1dd87"/>
        <path id="Caminho_581" data-name="Caminho 581" d="M18.068,290.378c.117.111.052.19-.045.265a.176.176,0,0,1,.045-.265" transform="translate(-15.899 -256.736)" fill="#c1dd87"/>
        <path id="Caminho_582" data-name="Caminho 582" d="M131.635,280.624c-.1-.094-.056-.166.036-.23.08.091.08.169-.036.23" transform="translate(-116.333 -247.909)" fill="#c1dd87"/>
        <path id="Caminho_583" data-name="Caminho 583" d="M13.1,317.954c.088.123.042.22-.06.306a.213.213,0,0,1,.06-.306" transform="translate(-11.489 -281.117)" fill="#c1dd87"/>
      </g>
    </g>
  </g>
</svg>
