<svg xmlns="http://www.w3.org/2000/svg" xmlns:xlink="http://www.w3.org/1999/xlink" width="57" height="59" viewBox="0 0 57 59">
  <defs>
    <clipPath id="clip-path">
      <rect id="Ret창ngulo_243" data-name="Ret창ngulo 243" width="57" height="59" transform="translate(-1255 3545)" fill="none" stroke="#707070" stroke-width="1"/>
    </clipPath>
    <clipPath id="clip-path-2">
      <rect id="Ret창ngulo_190" data-name="Ret창ngulo 190" width="41.087" height="41.244" fill="#333"/>
    </clipPath>
  </defs>
  <g id="DESCONTO_NO_PIX" data-name="DESCONTO NO PIX" transform="translate(1255 -3545)" clip-path="url(#clip-path)">
    <g id="Grupo_98" data-name="Grupo 98" transform="translate(-1247 3554)" clip-path="url(#clip-path-2)">
      <path id="Caminho_513" data-name="Caminho 513" d="M32.811,152.921a5.918,5.918,0,0,1-4.493-1.881c-1.647-1.781-3.405-3.459-5.136-5.161a3.053,3.053,0,0,0-4.794-.007c-1.758,1.739-3.553,3.446-5.231,5.26a5.79,5.79,0,0,1-4.38,1.828,4.909,4.909,0,0,1-4-1.652c-.769-.748-1.455-1.576-2.219-2.328a8.644,8.644,0,0,1-1.876-2.336,6.039,6.039,0,0,1,.133-5.823,15.264,15.264,0,0,1,2.248-2.695c1.322-1.356,2.733-2.963,4.657-3.366a5.529,5.529,0,0,1,4.927,1.34c1.914,1.842,3.765,3.748,5.647,5.623,1.736,1.729,3.226,1.738,4.954.02,1.244-1.237,2.577-2.408,3.764-3.695a10.527,10.527,0,0,1,3.778-2.915,5.1,5.1,0,0,1,3.441-.128,8.936,8.936,0,0,1,3.042,2.431,22.582,22.582,0,0,1,2.807,3.1,6.027,6.027,0,0,1,.294,6.185,15.654,15.654,0,0,1-2.429,2.867c-1.287,1.376-2.42,2.951-4.4,3.261a5.824,5.824,0,0,1-.739.068" transform="translate(0 -123.24)" fill="#333"/>
      <path id="Caminho_514" data-name="Caminho 514" d="M102.485,9.8c2.739-2.861,5.332-5.813,8.2-8.475a5.7,5.7,0,0,1,7.132-.151c3.143,2.5,5.716,5.609,8.9,8.6-2.868-.188-4.641,1.116-6.246,2.85-1.429,1.544-2.962,2.992-4.454,4.477-1.3,1.3-1.557,1.292-2.9-.042-1.264-1.26-2.547-2.5-3.78-3.792-1.916-2.005-3.81-4.018-6.856-3.464" transform="translate(-93.809 0.001)" fill="#333"/>
      <path id="Caminho_515" data-name="Caminho 515" d="M101.472,282.773c2.544.274,4.448-.874,6.116-2.695,1.544-1.685,3.234-3.235,4.828-4.875a1.466,1.466,0,0,1,2.445,0c1.461,1.514,3,2.951,4.445,4.482,1.663,1.766,3.442,3.25,5.916,3.117-2.675,2.781-5.24,5.7-8.081,8.321a5.692,5.692,0,0,1-7.665-.124c-2.753-2.594-5.29-5.417-8-8.228" transform="translate(-92.881 -251.305)" fill="#333"/>
    </g>
  </g>
</svg>
