<svg xmlns="http://www.w3.org/2000/svg" xmlns:xlink="http://www.w3.org/1999/xlink" width="57" height="59" viewBox="0 0 57 59">
  <defs>
    <clipPath id="clip-path">
      <rect id="Ret창ngulo_244" data-name="Ret창ngulo 244" width="57" height="59" transform="translate(-989 3545)" fill="none" stroke="#707070" stroke-width="1"/>
    </clipPath>
    <clipPath id="clip-path-2">
      <rect id="Ret창ngulo_192" data-name="Ret창ngulo 192" width="45.288" height="45.325" fill="#333"/>
    </clipPath>
  </defs>
  <g id="_24_ENVIO_24H" data-name="24 ENVIO 24H" transform="translate(989 -3545)" clip-path="url(#clip-path)">
    <g id="Grupo_100" data-name="Grupo 100" transform="translate(-983 3552)" clip-path="url(#clip-path-2)">
      <path id="Caminho_519" data-name="Caminho 519" d="M38.467,6.453c0-.674-.01-1.22,0-1.765a.984.984,0,0,1,.99-1.068.971.971,0,0,1,.926,1.065q.012,1.948,0,3.9A.957.957,0,0,1,39.34,9.644q-1.947.032-3.9,0a.959.959,0,0,1-1.057-.994c.015-.581.41-.911,1.113-.92.445-.006.891,0,1.338,0,.031-.234-.143-.288-.241-.375A20.153,20.153,0,0,0,20.273,2.109,20.7,20.7,0,1,0,42.7,27.855,20.221,20.221,0,0,0,41.644,14.4c-.067-.155-.136-.309-.2-.464-.3-.7-.156-1.237.4-1.48.539-.234,1.034.006,1.342.667a21.938,21.938,0,0,1,1.47,4.187,22.65,22.65,0,1,1-28.6-16.281C24.288-1.345,31.691.4,38.111,6.132l.357.321" transform="translate(0 0.001)" fill="#333"/>
      <path id="Caminho_520" data-name="Caminho 520" d="M382.3,229.771c0-1.486,0-2.971,0-4.457,0-.7.38-1.153.955-1.156s.96.449.964,1.149c.005,1.034.015,2.069-.006,3.1-.007.329.1.4.412.4q1.72-.028,3.441,0c.34.006.453-.079.445-.436-.025-1.034-.013-2.069-.007-3.1a.967.967,0,1,1,1.916-.032q.011,4.542,0,9.084a.963.963,0,1,1-1.914-.021c-.008-1.034-.015-2.069,0-3.1.007-.347-.057-.495-.454-.485-1.147.029-2.294.023-3.441,0-.331-.006-.4.1-.4.411.018,1.034.011,2.069.005,3.1,0,.7-.387,1.153-.961,1.152s-.955-.452-.957-1.154c0-1.486,0-2.971,0-4.457" transform="translate(-353.214 -207.105)" fill="#333"/>
      <path id="Caminho_521" data-name="Caminho 521" d="M110.294,233.135c1.03,0,2.06,0,3.09,0,.733,0,1.148.35,1.152.942s-.429.972-1.138.975c-1.937.009-3.873,0-5.81,0a1.02,1.02,0,0,1-1.111-.679.991.991,0,0,1,.452-1.165q2.325-1.877,4.643-3.761a2.631,2.631,0,0,0,1.04-2.1,1.531,1.531,0,0,0-1.326-1.574,5.262,5.262,0,0,0-1.518-.015,1.555,1.555,0,0,0-1.424,1.436c-.106.759-.514,1.162-1.089,1.075-.608-.092-.926-.631-.815-1.379a3.492,3.492,0,0,1,3.086-3.042,7.422,7.422,0,0,1,1.8-.013,3.589,3.589,0,0,1,2.931,5.057,4.644,4.644,0,0,1-1.463,2.032q-1.283,1.041-2.564,2.087l.061.112" transform="translate(-98.324 -206.773)" fill="#333"/>
      <path id="Caminho_522" data-name="Caminho 522" d="M234.6,229.678c0,1.522.01,3.045-.006,4.567a.96.96,0,1,1-1.914-.016c-.007-.225,0-.451,0-.677,0-.942,0-.942-.934-.942-1.372,0-2.744,0-4.116,0-1.014,0-1.438-.7-.936-1.574,1.228-2.127,2.477-4.243,3.7-6.37a1.164,1.164,0,0,1,1.112-.62c.639.005,1.278-.006,1.917,0,.813.012,1.169.366,1.172,1.176.006,1.485,0,2.969,0,4.454m-5.49,1.012c1.154,0,2.187-.013,3.221.008.328.007.357-.137.354-.4-.01-1.3,0-2.595-.009-3.892,0-.148.1-.4-.144-.416s-.577-.165-.767.159c-.87,1.483-1.735,2.969-2.655,4.544" transform="translate(-209.249 -207)" fill="#333"/>
    </g>
  </g>
</svg>
